<svg width="18" height="20" viewBox="0 0 18 20" fill="none" xmlns="http://www.w3.org/2000/svg">
<path d="M14.3059 19.1976C13.1965 20.253 11.9852 20.0864 10.8192 19.5864C9.58522 19.0754 8.45316 19.0531 7.15129 19.5864C5.52113 20.2752 4.66077 20.0752 3.6872 19.1976C-1.83724 13.6094 -1.02216 5.09936 5.24944 4.78828C6.77772 4.86605 7.84185 5.6104 8.73617 5.67706C10.072 5.41043 11.3512 4.64386 12.7776 4.74385C14.487 4.87716 15.7776 5.54374 16.6266 6.74359C13.0946 8.82111 13.9323 13.3872 17.17 14.6648C16.5247 16.3313 15.687 17.9866 14.2946 19.2087L14.3059 19.1976ZM8.62297 4.72163C8.45316 2.24416 10.5022 0.199975 12.8569 0C13.1852 2.8663 10.2078 4.99937 8.62297 4.72163Z" fill="white"/>
</svg>
