<svg width="50" height="50" viewBox="0 0 50 50" fill="none" xmlns="http://www.w3.org/2000/svg">
<g clip-path="url(#clip0_1610_2)">
<path d="M14.5833 50H10.4167C4.67292 50 0 45.3271 0 39.5833V35.4167C0 34.2646 0.93125 33.3333 2.08333 33.3333C3.23542 33.3333 4.16667 34.2646 4.16667 35.4167V39.5833C4.16667 43.0292 6.97083 45.8333 10.4167 45.8333H14.5833C15.7354 45.8333 16.6667 46.7646 16.6667 47.9167C16.6667 49.0687 15.7354 50 14.5833 50ZM50 39.5833V35.4167C50 34.2646 49.0687 33.3333 47.9167 33.3333C46.7646 33.3333 45.8333 34.2646 45.8333 35.4167V39.5833C45.8333 43.0292 43.0292 45.8333 39.5833 45.8333H35.4167C34.2646 45.8333 33.3333 46.7646 33.3333 47.9167C33.3333 49.0687 34.2646 50 35.4167 50H39.5833C45.3271 50 50 45.3271 50 39.5833ZM50 14.5833V10.4167C50 4.67292 45.3271 0 39.5833 0H35.4167C34.2646 0 33.3333 0.93125 33.3333 2.08333C33.3333 3.23542 34.2646 4.16667 35.4167 4.16667H39.5833C43.0292 4.16667 45.8333 6.97083 45.8333 10.4167V14.5833C45.8333 15.7354 46.7646 16.6667 47.9167 16.6667C49.0687 16.6667 50 15.7354 50 14.5833ZM4.16667 14.5833V10.4167C4.16667 6.97083 6.97083 4.16667 10.4167 4.16667H14.5833C15.7354 4.16667 16.6667 3.23542 16.6667 2.08333C16.6667 0.93125 15.7354 0 14.5833 0H10.4167C4.67292 0 0 4.67292 0 10.4167V14.5833C0 15.7354 0.93125 16.6667 2.08333 16.6667C3.23542 16.6667 4.16667 15.7354 4.16667 14.5833ZM37.5 20.8333V29.1667C37.5 32.6125 34.6958 35.4167 31.25 35.4167H18.75C15.3042 35.4167 12.5 32.6125 12.5 29.1667V20.8333C12.5 17.4187 15.2521 14.6375 18.6521 14.5854L20.1021 12.3292C20.8687 11.1333 22.1792 10.4167 23.6062 10.4167H26.3937C27.8208 10.4167 29.1292 11.1333 29.9 12.3312L31.3479 14.5854C34.75 14.6375 37.5 17.4187 37.5 20.8333ZM29.1667 25C29.1667 22.6979 27.3021 20.8333 25 20.8333C22.6979 20.8333 20.8333 22.6979 20.8333 25C20.8333 27.3021 22.6979 29.1667 25 29.1667C27.3021 29.1667 29.1667 27.3021 29.1667 25Z" fill="black"/>
</g>
<defs>
<clipPath id="clip0_1610_2">
<rect width="50" height="50" fill="white"/>
</clipPath>
</defs>
</svg>
