<svg width="140" height="159" viewBox="0 0 140 159" fill="none" xmlns="http://www.w3.org/2000/svg">
<g opacity="0.7" filter="url(#filter0_f_16_1193)">
<path d="M71.0018 112.352C64.4828 114.166 64.1216 116.965 52.0481 118.503C42.0982 119.771 43.6985 125.848 46.2893 132.838C49.3985 141.227 56.1026 140.714 64.1765 140.225C73.2428 139.675 73.1021 145.185 81.4356 142.814C91.0906 140.068 98.0628 141.972 105.867 137.166C113.385 132.537 128.168 132.008 123.432 126.628C118.732 121.287 106.314 108.946 96.6996 112.352C86.1635 116.083 80.5183 109.703 71.0018 112.352Z" fill="url(#paint0_linear_16_1193)"/>
</g>
<g filter="url(#filter1_d_16_1193)">
<rect x="14.5166" y="45.9076" width="64.382" height="83.5376" rx="27.8474" fill="#EBEBEB" stroke="black" stroke-width="0.5"/>
<rect x="9.76221" y="45.9076" width="64.382" height="83.5376" rx="8.75" fill="white" stroke="black" stroke-width="0.5"/>
<path d="M78.6189 48.3905C78.6189 48.8042 78.4313 49.2301 78.0288 49.6669C77.6251 50.1051 77.0177 50.5397 76.2143 50.9616C74.6081 51.805 72.2674 52.5721 69.354 53.2192C63.5311 54.5124 55.4749 55.3144 46.5678 55.3144C37.6607 55.3144 29.6044 54.5124 23.7816 53.2192C20.8682 52.5721 18.5275 51.805 16.9212 50.9616C16.1178 50.5397 15.5104 50.1051 15.1067 49.6669C14.7042 49.2301 14.5166 48.8042 14.5166 48.3905C14.5166 47.9768 14.7042 47.5509 15.1067 47.1141C15.5104 46.6759 16.1178 46.2413 16.9212 45.8194C18.5275 44.976 20.8682 44.2089 23.7816 43.5618C29.6044 42.2686 37.6607 41.4666 46.5678 41.4666C55.4749 41.4666 63.5311 42.2686 69.354 43.5618C72.2674 44.2089 74.6081 44.976 76.2143 45.8194C77.0177 46.2413 77.6251 46.6759 78.0288 47.1141C78.4313 47.5509 78.6189 47.9768 78.6189 48.3905Z" fill="white" stroke="black" stroke-width="0.5"/>
<path d="M78.6187 48.3905C78.6187 48.7983 78.4209 49.2224 77.9889 49.6608C77.5562 50.1001 76.905 50.5359 76.0443 50.9585C74.3239 51.8034 71.8184 52.5711 68.7018 53.2185C62.4728 54.5123 53.856 55.3144 44.3302 55.3144C34.8045 55.3144 26.1877 54.5123 19.9587 53.2185C16.8421 52.5711 14.3365 51.8034 12.6162 50.9585C11.7555 50.5359 11.1043 50.1001 10.6715 49.6608C10.2396 49.2224 10.0417 48.7983 10.0417 48.3905C10.0417 47.9827 10.2396 47.5586 10.6715 47.1201C11.1043 46.6809 11.7555 46.2451 12.6162 45.8225C14.3365 44.9776 16.8421 44.2099 19.9587 43.5625C26.1877 42.2687 34.8045 41.4666 44.3302 41.4666C53.856 41.4666 62.4728 42.2687 68.7018 43.5625C71.8184 44.2099 74.3239 44.9776 76.0443 45.8225C76.905 46.2451 77.5562 46.6809 77.9889 47.1201C78.4209 47.5586 78.6187 47.9827 78.6187 48.3905Z" fill="white" stroke="black" stroke-width="0.5"/>
<path d="M78.777 125.843L78.7413 125.93L78.7722 126.019C78.9373 126.496 78.8731 126.951 78.5884 127.402C78.2971 127.864 77.7719 128.323 77.0139 128.77C75.4989 129.662 73.1339 130.456 70.1405 131.116C64.1611 132.435 55.7555 133.203 46.8471 133.203C37.94 133.203 29.8837 132.401 24.0609 131.108C21.1475 130.461 18.8068 129.694 17.2005 128.85C16.3971 128.428 15.7897 127.994 15.386 127.555C15.0641 127.206 14.8797 126.864 14.8187 126.529H30.6965H46.8471H73.9745H74.0078L74.04 126.52L78.8607 125.212L78.8982 125.303V125.547L78.777 125.843Z" fill="#EBEBEB" stroke="black" stroke-width="0.5"/>
<path d="M73.7938 126.55C73.7351 126.889 73.5559 127.234 73.2446 127.585C72.8551 128.025 72.2691 128.46 71.4939 128.883C69.9439 129.729 67.6844 130.498 64.871 131.148C59.2483 132.445 51.468 133.25 42.8655 133.25C34.263 133.25 26.4828 132.445 20.86 131.148C18.0466 130.498 15.7872 129.729 14.2371 128.883C13.462 128.46 12.876 128.025 12.4865 127.585C12.1752 127.234 11.996 126.889 11.9372 126.55H27.2655H42.8655H73.7938Z" fill="white" stroke="black" stroke-width="0.5"/>
</g>
<path d="M12.3091 51.1235V126.45H15.2456V52.1484L18.8812 53.0783V126.45H22.5168V53.8565L24.7541 54.1981L26.8516 54.4506V126.45H30.9067V54.8004L33.144 55.0521L35.5212 55.2229V126.45H39.5763L39.4365 55.3937H40.5551H41.8136H43.9111V126.45H48.2459L48.3857 55.3937L52.8603 55.2229V126.45H56.7756V55.0521L61.2503 54.5397V126.45H65.4452L65.3054 54.0273L69.3605 53.344V126.621" stroke="black" stroke-width="0.5"/>
<g filter="url(#filter2_d_16_1193)">
<path d="M73.147 83.2369C90.2025 81.2218 105.478 93.1337 107.275 109.83C109.073 126.526 96.7137 141.703 79.6581 143.718C62.6025 145.733 47.3274 133.821 45.5299 117.125C43.7325 100.429 56.0914 85.2519 73.147 83.2369Z" fill="#D9D9D9" stroke="black" stroke-width="0.5"/>
<path d="M69.2199 85.4647C86.2676 83.3788 101.6 95.2256 103.476 111.913C105.352 128.599 93.0635 143.826 76.0158 145.912C58.968 147.998 43.6354 136.151 41.7593 119.464C39.8832 102.777 52.1721 87.5505 69.2199 85.4647Z" fill="white" stroke="black" stroke-width="0.5"/>
<rect x="0.0842988" y="-0.334731" width="18.6137" height="2.41399" transform="matrix(-0.534082 -0.84057 0.871277 -0.498355 73.5469 125.212)" fill="#D9D9D9" stroke="black" stroke-width="0.5"/>
<rect x="0.0842988" y="-0.334731" width="22.4364" height="2.41399" transform="matrix(-0.534082 -0.84057 0.871277 -0.498355 75.2447 126.432)" fill="#D9D9D9" stroke="black" stroke-width="0.5"/>
<ellipse cx="0.286705" cy="0.388532" rx="0.286705" ry="0.388532" transform="matrix(-0.534082 -0.84057 0.871277 -0.498355 74.9233 125.929)" fill="#263238"/>
<ellipse cx="0.286705" cy="0.388532" rx="0.286705" ry="0.388532" transform="matrix(-0.534082 -0.84057 0.871277 -0.498355 63.7959 108.415)" fill="#263238"/>
<ellipse cx="0.286705" cy="0.388532" rx="0.286705" ry="0.388532" transform="matrix(-0.534082 -0.84057 0.871277 -0.498355 64.811 107.834)" fill="#263238"/>
<ellipse cx="0.286705" cy="0.388532" rx="0.286705" ry="0.388532" transform="matrix(-0.534082 -0.84057 0.871277 -0.498355 75.939 125.348)" fill="#263238"/>
</g>
<rect width="35.7005" height="49.0258" transform="matrix(0.941377 -0.337356 0.362333 0.932049 27.3872 14.1727)" fill="#D9D9D9"/>
<path d="M61.1682 2.33805L27.5225 14.2408L45.0068 59.8546L78.6526 47.9518L61.1682 2.33805Z" stroke="#263238" stroke-width="0.5" stroke-miterlimit="10"/>
<path d="M52.7827 32.8244C58.7338 30.7191 61.8575 24.5756 59.7596 19.1026C57.6617 13.6296 51.1367 10.8996 45.1856 13.0049C39.2345 15.1102 36.1108 21.2536 38.2087 26.7266C40.3066 32.1996 46.8316 34.9297 52.7827 32.8244Z" fill="white" stroke="#263238" stroke-width="0.5" stroke-miterlimit="10"/>
<path d="M42.8472 39.9678L65.5528 31.9353" stroke="#263238" stroke-width="0.5" stroke-miterlimit="10"/>
<path d="M43.6611 42.0914L66.3667 34.0589" stroke="#263238" stroke-width="0.5" stroke-miterlimit="10"/>
<path d="M47.7969 44.688L67.7367 37.6339" stroke="#263238" stroke-width="0.5" stroke-miterlimit="10"/>
<path d="M46.4031 44.2908L45.0669 44.7635L45.5379 45.9924L46.8741 45.5197L46.4031 44.2908Z" fill="url(#paint1_linear_16_1193)"/>
<path d="M48.8247 47.3691L68.7645 40.3151" stroke="#263238" stroke-width="0.5" stroke-miterlimit="10"/>
<path d="M47.4309 46.9721L46.0947 47.4448L46.5658 48.6737L47.902 48.201L47.4309 46.9721Z" fill="url(#paint2_linear_16_1193)"/>
<path d="M49.9897 50.0082L69.9295 42.9541" stroke="#263238" stroke-width="0.5" stroke-miterlimit="10"/>
<path d="M48.596 49.611L47.2598 50.0837L47.7308 51.3126L49.067 50.8399L48.596 49.611Z" fill="url(#paint3_linear_16_1193)"/>
<path d="M51.0176 52.6893L70.9574 45.6353" stroke="#263238" stroke-width="0.5" stroke-miterlimit="10"/>
<path d="M49.6238 52.2923L48.2876 52.765L48.7586 53.9939L50.0948 53.5212L49.6238 52.2923Z" fill="url(#paint4_linear_16_1193)"/>
<path d="M44.0817 17.1829C44.0817 17.1829 44.6389 14.4644 47.7931 13.4534C50.9471 12.4427 52.9073 15.3214 53.1616 16.2821C53.4155 17.243 53.294 17.9688 53.294 17.9688L51.5281 17.3852C51.5281 17.3852 53.3436 18.0663 54.8074 19.6498C56.2712 21.2333 56.827 23.7582 56.0839 24.6514C55.3411 25.5446 54.5984 25.5446 54.5984 25.5446L54.2204 24.26C54.2204 24.26 53.8824 26.0606 52.4799 26.872C51.0773 27.6833 46.8222 29.3986 45.9025 28.9361C44.9827 28.4735 44.5304 27.7405 44.5304 27.7405L44.8907 28.9788C44.8907 28.9788 43.1781 28.534 42.72 27.4878C42.2619 26.4416 42.3985 24.7123 42.4493 23.8012C42.4999 22.8902 42.5919 22.3849 42.2315 21.1465C41.8712 19.9082 41.472 19.3139 42.0759 18.2071C42.6795 17.101 44.0817 17.1829 44.0817 17.1829Z" fill="#263238" stroke="#263238" stroke-width="0.5" stroke-miterlimit="10" stroke-linecap="round" stroke-linejoin="round"/>
<path d="M46.8164 30.5402C46.1076 31.1648 44.8707 31.9352 44.1 32.6368C46.727 33.7217 49.8254 33.8706 52.7825 32.8245C55.7218 31.7846 57.9698 29.7588 59.2411 27.316C58.9623 27.2856 58.5722 27.2818 57.9967 27.3333C56.2264 27.4918 53.4771 27.0978 53.0505 26.7809C52.624 26.464 51.8058 25.1141 51.8058 25.1141L47.9064 25.9684C47.9064 25.9684 48.7775 27.695 48.9038 28.0245C49.0301 28.354 47.8811 29.6024 46.8164 30.5402Z" fill="white" stroke="#263238" stroke-width="0.5" stroke-miterlimit="10" stroke-linecap="round" stroke-linejoin="round"/>
<path d="M45.4256 22.3284C45.4256 22.3284 44.9295 20.14 45.2082 18.7805C45.4869 17.4212 47.1199 17.2111 47.8653 17.3677C48.6108 17.5243 50.3288 19.1752 51.3786 20.2748C52.4284 21.3742 52.9638 22.0254 52.9638 22.0254C52.9638 22.0254 52.7327 24.0192 51.8057 25.1141C50.8163 26.2825 49.4305 26.7402 47.9063 25.9681C47.0532 25.536 46.4867 24.9469 46.4867 24.9469C46.4867 24.9469 45.0872 25.0217 44.413 24.157C43.7389 23.2924 43.7954 22.6945 44.2451 22.3778C44.6949 22.0614 45.4256 22.3284 45.4256 22.3284Z" fill="white" stroke="#263238" stroke-width="0.5" stroke-miterlimit="10" stroke-linecap="round" stroke-linejoin="round"/>
<path d="M49.083 20.2463C49.083 20.2463 49.2988 20.9579 49.8961 21.3245C50.4936 21.691 50.3541 22.3707 49.5969 22.481" stroke="#263238" stroke-width="0.5" stroke-miterlimit="10" stroke-linecap="round" stroke-linejoin="round"/>
<path d="M48.6786 24.6235C48.6786 24.6235 49.4923 22.9006 51.2539 23.5353" stroke="#263238" stroke-width="0.5" stroke-miterlimit="10" stroke-linecap="round" stroke-linejoin="round"/>
<path d="M47.5056 21.645C47.584 21.8494 47.7377 21.9833 47.8486 21.944C47.9596 21.9048 47.9862 21.7071 47.9079 21.5027C47.8295 21.2984 47.6758 21.1645 47.5649 21.2038C47.4539 21.243 47.4273 21.4407 47.5056 21.645Z" fill="#263238"/>
<path d="M49.9705 20.7732C50.0488 20.9776 50.2025 21.1115 50.3135 21.0722C50.4247 21.0328 50.451 20.8353 50.3727 20.6309C50.2944 20.4266 50.1407 20.2927 50.0297 20.3319C49.9187 20.3712 49.8922 20.5689 49.9705 20.7732Z" fill="#263238"/>
<path d="M47.489 19.8124C47.489 19.8124 46.7937 19.638 46.3852 20.3604" stroke="#263238" stroke-width="0.5" stroke-miterlimit="10" stroke-linecap="round" stroke-linejoin="round"/>
<path d="M48.983 19.389C48.983 19.389 49.2259 18.8303 49.8677 18.866" stroke="#263238" stroke-width="0.5" stroke-miterlimit="10" stroke-linecap="round" stroke-linejoin="round"/>
<path d="M55.2638 27.2629L52.6659 32.0438L47.5376 29.8682C47.3031 30.0985 47.0581 30.3273 46.8166 30.5402C46.1078 31.1649 44.8708 31.9352 44.1002 32.6368C46.7272 33.7218 49.8256 33.8706 52.7827 32.8245C55.722 31.7847 57.97 29.7588 59.2413 27.316C58.9625 27.2857 58.5724 27.2818 57.9968 27.3333C57.185 27.4061 56.1691 27.3619 55.2638 27.2629Z" fill="url(#paint5_linear_16_1193)" stroke="#263238" stroke-width="0.5" stroke-miterlimit="10"/>
<path d="M26.8956 46.6307L25.3535 43.8035L22.9958 45.2148L24.5379 48.042L26.8956 46.6307Z" fill="#F5F5F5"/>
<path d="M25.5606 43.8091L18.5913 31.032L15.9316 32.624L22.9009 45.4011L25.5606 43.8091Z" fill="#E0E0E0"/>
<path d="M26.8725 46.7584L25.1499 43.6003L25.3735 43.4664L27.0961 46.6245C27.1441 46.7125 27.1331 46.814 27.0713 46.851C27.0097 46.8879 26.9206 46.8466 26.8725 46.7584Z" fill="#E0E0E0"/>
<path d="M24.4365 48.2165L22.7139 45.0584L22.9375 44.9246L24.6601 48.0827C24.7081 48.1707 24.6971 48.2721 24.6352 48.3092C24.5737 48.346 24.4846 48.3048 24.4365 48.2165Z" fill="#E0E0E0"/>
<path d="M25.0128 42.8043L24.1895 41.2948L21.5298 42.8869L22.3532 44.3964L25.0128 42.8043Z" fill="url(#paint6_linear_16_1193)"/>
<path d="M20.048 33.7742L19.2246 32.2646L16.5649 33.8567L17.3883 35.3662L20.048 33.7742Z" fill="url(#paint7_linear_16_1193)"/>
<path d="M26.5059 46.8641C26.4994 46.868 26.1605 46.2593 25.7489 45.5047C25.3371 44.7498 25.0086 44.1348 25.0151 44.1309C25.0216 44.127 25.3606 44.7358 25.7723 45.4906C26.184 46.2453 26.5125 46.8602 26.5059 46.8641Z" fill="#E0E0E0"/>
<path d="M26.1524 47.0758C26.1459 47.0797 25.807 46.471 25.3954 45.7163C24.9836 44.9615 24.6551 44.3465 24.6616 44.3426C24.6681 44.3387 25.0071 44.9474 25.4188 45.7023C25.8304 46.4569 26.159 47.0719 26.1524 47.0758Z" fill="#E0E0E0"/>
<path d="M25.7169 47.3364C25.7104 47.3403 25.3714 46.7316 24.9598 45.977C24.5481 45.2221 24.2195 44.6071 24.2261 44.6032C24.2326 44.5993 24.5715 45.208 24.9833 45.9629C25.3951 46.7175 25.7234 47.3325 25.7169 47.3364Z" fill="#E0E0E0"/>
<path d="M25.2818 47.5969C25.2753 47.6008 24.9364 46.9921 24.5248 46.2374C24.113 45.4826 23.7845 44.8676 23.791 44.8637C23.7975 44.8598 24.1365 45.4685 24.5482 46.2234C24.9598 46.9781 25.2882 47.5931 25.2818 47.5969Z" fill="#E0E0E0"/>
<path d="M24.8463 47.8575C24.8398 47.8614 24.5008 47.2527 24.0892 46.4981C23.6775 45.7432 23.3489 45.1282 23.3555 45.1243C23.362 45.1204 23.7009 45.7292 24.1127 46.484C24.5243 47.2387 24.8528 47.8536 24.8463 47.8575Z" fill="#E0E0E0"/>
<path d="M22.6535 41.1375L19.5181 35.3893L19.0392 35.6759L22.1746 41.4242L22.6535 41.1375Z" fill="#EBEBEB"/>
<path d="M24.3221 48.1335L22.7563 45.2628L21.3198 46.1227L22.8856 48.9934L24.3221 48.1335Z" fill="#FAFAFA"/>
<path d="M22.8262 45.2636L16.1626 33.047L14.6218 33.9693L21.2854 46.1859L22.8262 45.2636Z" fill="#F5F5F5"/>
<path d="M22.6736 45.2373L24.3566 48.3228C24.379 48.3639 24.4204 48.3831 24.4492 48.3659C24.478 48.3486 24.4832 48.3015 24.4608 48.2604L22.7778 45.1749L22.6736 45.2373Z" fill="#F5F5F5"/>
<path d="M21.2371 46.0972L22.92 49.1826C22.9424 49.2237 22.9838 49.243 23.0127 49.2257C23.0415 49.2085 23.0467 49.1613 23.0243 49.1202L21.3413 46.0348L21.2371 46.0972Z" fill="#F5F5F5"/>
<path d="M24.0493 48.2968C24.0428 48.3007 23.6909 47.6683 23.2635 46.8846C22.8359 46.1007 22.4945 45.4621 22.501 45.4582C22.5075 45.4543 22.8592 46.0865 23.2869 46.8706C23.7144 47.6542 24.0558 48.2929 24.0493 48.2968Z" fill="#E0E0E0"/>
<path d="M23.7778 48.4595C23.7713 48.4634 23.4194 47.831 22.992 47.0473C22.5644 46.2634 22.223 45.6248 22.2295 45.6209C22.236 45.617 22.5877 46.2492 23.0154 47.0333C23.4429 47.817 23.7843 48.4556 23.7778 48.4595Z" fill="#E0E0E0"/>
<path d="M23.5058 48.6222C23.4993 48.6261 23.1475 47.9937 22.72 47.2101C22.2924 46.4262 21.951 45.7875 21.9575 45.7836C21.964 45.7797 22.3158 46.4119 22.7435 47.196C23.1711 47.9796 23.5123 48.6183 23.5058 48.6222Z" fill="#E0E0E0"/>
<path d="M23.2343 48.7848C23.2278 48.7887 22.876 48.1563 22.4485 47.3727C22.0209 46.5888 21.6795 45.9501 21.686 45.9462C21.6925 45.9423 22.0443 46.5745 22.472 47.3586C22.8994 48.1423 23.2409 48.7809 23.2343 48.7848Z" fill="#E0E0E0"/>
<path d="M22.9342 49.5419L21.3359 46.6118L17.4417 48.9429L19.0399 51.873L22.9342 49.5419Z" fill="#EBEBEB"/>
<path d="M21.4732 46.5301L13.9712 32.7764L9.74879 35.3039L17.2508 49.0576L21.4732 46.5301Z" fill="#E0E0E0"/>
<path d="M18.974 52.2169L17.0456 48.6815L17.3193 48.5176L19.2477 52.053C19.3065 52.1607 19.293 52.2849 19.2173 52.3303C19.1418 52.3752 19.0327 52.3246 18.974 52.2169Z" fill="#E0E0E0"/>
<path d="M22.9227 49.8532L20.9943 46.3178L21.2681 46.1539L23.1965 49.6894C23.2552 49.7971 23.2418 49.9213 23.166 49.9666C23.0903 50.0116 22.9815 49.961 22.9227 49.8532Z" fill="#E0E0E0"/>
<path d="M22.4122 49.8544C22.4057 49.8583 22.0427 49.2054 21.6014 48.3965C21.16 47.5872 20.8074 46.9282 20.814 46.9243C20.8205 46.9204 21.1834 47.573 21.6249 48.3824C22.0663 49.1913 22.4187 49.8505 22.4122 49.8544Z" fill="#E0E0E0"/>
<path d="M21.9132 50.1533C21.9066 50.1572 21.5436 49.5044 21.1024 48.6954C20.661 47.8862 20.3084 47.2271 20.3149 47.2232C20.3214 47.2193 20.6843 47.8719 21.1258 48.6814C21.5671 49.4903 21.9197 50.1494 21.9132 50.1533Z" fill="#E0E0E0"/>
<path d="M21.4137 50.4524C21.4071 50.4563 21.0441 49.8034 20.6029 48.9945C20.1615 48.1853 19.8089 47.5262 19.8154 47.5223C19.8219 47.5184 20.1848 48.171 20.6263 48.9804C21.0676 49.7894 21.4202 50.4485 21.4137 50.4524Z" fill="#E0E0E0"/>
<path d="M20.9141 50.7512C20.9076 50.7551 20.5446 50.1023 20.1034 49.2933C19.662 48.4841 19.3094 47.825 19.3159 47.8211C19.3224 47.8172 19.6853 48.4698 20.1268 49.2793C20.5681 50.0882 20.9205 50.7474 20.9141 50.7512Z" fill="#E0E0E0"/>
<path d="M20.4146 51.0502C20.4081 51.0541 20.0451 50.4012 19.6039 49.5923C19.1625 48.783 18.8099 48.124 18.8164 48.1201C18.8229 48.1162 19.1858 48.7688 19.6273 49.5782C20.0686 50.3872 20.4211 51.0463 20.4146 51.0502Z" fill="#E0E0E0"/>
<path d="M19.9151 51.3492C19.9086 51.3531 19.5456 50.7003 19.1043 49.8913C18.663 49.0821 18.3104 48.423 18.3169 48.4191C18.3234 48.4152 18.6863 49.0678 19.1278 49.8773C19.5692 50.6862 19.9216 51.3453 19.9151 51.3492Z" fill="#E0E0E0"/>
<path d="M19.4156 51.6482C19.4091 51.6521 19.0461 50.9992 18.6048 50.1903C18.1634 49.3811 17.8109 48.722 17.8174 48.7181C17.8239 48.7142 18.1868 49.3668 18.6283 50.1762C19.0695 50.9852 19.4221 51.6443 19.4156 51.6482Z" fill="#E0E0E0"/>
<path d="M14.1959 38.8847L13.9609 39.0254C13.678 39.1947 13.4063 39.09 13.194 38.7008C12.9819 38.3119 13.0336 38.0133 13.3165 37.8439L14.236 37.2935C14.5189 37.1242 14.7907 37.2291 15.0029 37.618C15.215 38.007 15.1633 38.3056 14.8804 38.4749L14.7086 38.5778L14.5043 38.2032L14.6937 38.0898C14.8201 38.0142 14.8248 37.9063 14.756 37.7803C14.6873 37.6542 14.596 37.6038 14.4698 37.6793L13.5149 38.2509C13.3885 38.3266 13.3863 38.433 13.455 38.559C13.5238 38.6851 13.6124 38.7371 13.7388 38.6615L13.9914 38.5102L14.1957 38.8848L14.1959 38.8847Z" fill="url(#paint8_linear_16_1193)"/>
<path d="M14.9943 38.6836C15.2772 38.5143 15.5548 38.6299 15.767 39.0189C15.9791 39.4078 15.9333 39.7171 15.6504 39.8864L14.7308 40.4369C14.4479 40.6062 14.1703 40.4906 13.9582 40.1016C13.746 39.7127 13.7919 39.4034 14.0748 39.2341L14.9943 38.6836ZM14.2732 39.6407C14.1469 39.7164 14.1422 39.8242 14.2109 39.9503C14.2797 40.0764 14.3709 40.1268 14.4972 40.0513L15.4521 39.4797C15.5785 39.404 15.5832 39.2962 15.5144 39.1701C15.4456 39.044 15.3544 38.9936 15.2282 39.0691L14.2732 39.6407Z" fill="url(#paint9_linear_16_1193)"/>
<path d="M16.214 39.8878L16.4301 40.2839L14.9144 41.1912L15.2699 41.843L15.0173 41.9942L14.4456 40.9461L16.214 39.8878Z" fill="url(#paint10_linear_16_1193)"/>
<path d="M16.4377 41.33C16.7206 41.1607 16.9982 41.2763 17.2104 41.6652C17.4225 42.0542 17.3767 42.3634 17.0938 42.5328L16.1742 43.0832C15.8913 43.2526 15.6137 43.1369 15.4015 42.748C15.1894 42.3591 15.2352 42.0498 15.5181 41.8804L16.4377 41.33ZM15.7166 42.2871C15.5902 42.3628 15.5855 42.4706 15.6543 42.5967C15.7231 42.7228 15.8143 42.7732 15.9405 42.6976L16.8954 42.126C17.0218 42.0504 17.0265 41.9425 16.9577 41.8165C16.889 41.6904 16.7977 41.6399 16.6715 41.7155L15.7166 42.2871Z" fill="url(#paint11_linear_16_1193)"/>
<path d="M17.8637 42.9126L16.4995 43.7292C16.3731 43.8048 16.3708 43.9112 16.4396 44.0373C16.5084 44.1634 16.597 44.2154 16.7234 44.1397L18.0876 43.3231L18.2919 43.6977L16.9454 44.5036C16.6625 44.673 16.3907 44.568 16.1786 44.1791C15.9664 43.7902 16.0181 43.4916 16.301 43.3222L17.6475 42.5162L17.8637 42.9126Z" fill="url(#paint12_linear_16_1193)"/>
<path d="M17.1229 45.8541C17.1566 45.8053 17.1766 45.7743 17.3206 45.6881L17.5984 45.5218C17.7626 45.4235 17.78 45.308 17.6817 45.1279L17.6071 44.9911L16.8871 45.4221L16.671 45.026L18.4395 43.9674L18.7656 44.5653C18.9895 44.9758 18.9519 45.2324 18.6791 45.3957L18.5401 45.4789C18.3582 45.5878 18.1943 45.576 18.0399 45.4343C18.0898 45.6672 17.9912 45.8121 17.8068 45.9225L17.534 46.0858C17.4482 46.1372 17.3869 46.1785 17.3429 46.2575L17.1229 45.8541ZM18.4029 44.5147L17.8597 44.8399L17.9442 44.9948C18.0248 45.1424 18.1193 45.2053 18.2609 45.1206L18.4352 45.0163C18.5615 44.9406 18.5836 44.8461 18.507 44.7056L18.4029 44.5147Z" fill="url(#paint13_linear_16_1193)"/>
<path d="M17.4254 36.8381L17.2679 36.5492L17.3285 36.5329L17.6903 37.1961L17.629 37.2112L17.472 36.9235L16.8693 37.0872L16.8228 37.002L17.4254 36.8381Z" fill="url(#paint14_linear_16_1193)"/>
<path d="M17.8511 37.8378L17.1188 37.6804C16.9953 37.6536 16.9386 37.6115 16.8901 37.5226C16.8588 37.4652 16.8409 37.3983 16.8489 37.3532L16.9158 37.372C16.9108 37.4107 16.9185 37.4526 16.9439 37.4993C16.9727 37.552 17.0122 37.5825 17.0909 37.5992L17.1604 37.6149L17.506 37.2047L17.5518 37.2888L17.2539 37.6362L17.8044 37.7518L17.8512 37.8377L17.8511 37.8378Z" fill="url(#paint15_linear_16_1193)"/>
<path d="M18.0452 38.6286C17.8968 38.7175 17.7081 38.6348 17.5984 38.4338C17.5345 38.3167 17.5235 38.2149 17.5651 38.1435L17.2775 38.2226L17.2322 38.1395L17.9142 37.9533L17.9575 38.0327L17.8778 38.054C17.9556 38.085 18.0265 38.1513 18.0807 38.2507C18.1666 38.4084 18.1584 38.5609 18.0452 38.6286ZM17.9959 38.5463C18.0805 38.4957 18.0903 38.3922 18.02 38.2633C17.9364 38.11 17.7907 38.0485 17.6726 38.1192C17.5881 38.1698 17.5791 38.2728 17.6492 38.4015C17.733 38.5549 17.8787 38.6165 17.9959 38.5463Z" fill="url(#paint16_linear_16_1193)"/>
<path d="M18.0239 38.7695C18.1708 38.6816 18.3608 38.7649 18.4737 38.9718C18.5668 39.1425 18.5557 39.2936 18.4441 39.3604C18.2965 39.4487 18.1063 39.3654 17.9935 39.1585C17.9004 38.9879 17.9132 38.8358 18.0239 38.7695ZM18.3956 39.2794C18.4801 39.2288 18.49 39.1253 18.4198 38.9967C18.3362 38.8434 18.1893 38.7811 18.0718 38.8514C17.9873 38.902 17.9783 39.005 18.0484 39.1337C18.1319 39.2867 18.2784 39.3496 18.3956 39.2794Z" fill="url(#paint17_linear_16_1193)"/>
<path d="M19.0573 40.0492L18.6196 40.1685C18.4435 40.2167 18.3177 40.1398 18.2087 39.9399C18.1455 39.824 18.1167 39.7155 18.1242 39.6273L18.1952 39.6498C18.1867 39.7199 18.2097 39.8163 18.2633 39.9146C18.3482 40.0701 18.4429 40.1218 18.563 40.0888L18.6184 40.0744C18.5404 40.0435 18.4672 39.977 18.4105 39.873C18.3218 39.7104 18.3289 39.5618 18.4364 39.4974C18.575 39.4145 18.7604 39.4975 18.872 39.702C18.9338 39.8153 18.9509 39.9262 18.9044 40.0006L19.0137 39.9693L19.0573 40.0492ZM18.8076 40.0125C18.8863 39.9655 18.8916 39.8616 18.822 39.7339C18.7371 39.5783 18.5955 39.5143 18.4857 39.58C18.4069 39.6272 18.4009 39.7299 18.4711 39.8586C18.5554 40.0132 18.6977 40.0784 18.8076 40.0125Z" fill="url(#paint18_linear_16_1193)"/>
<path d="M19.3562 40.5898L19.2914 40.6085C19.2869 40.6002 19.2845 40.5939 19.2795 40.5846C19.208 40.4537 19.1077 40.3973 18.9835 40.4313L18.7306 40.5004L18.6853 40.4173L19.1832 40.2806L19.2265 40.36L19.1364 40.386C19.223 40.4074 19.2924 40.4728 19.3562 40.5898Z" fill="url(#paint19_linear_16_1193)"/>
<path d="M19.7376 41.2966L19.239 41.4321L19.1955 41.3524L19.2745 41.3316C19.1975 41.3001 19.1259 41.2346 19.0715 41.135C18.9854 40.9771 18.9944 40.826 19.1084 40.7578C19.2561 40.6694 19.4447 40.7521 19.5537 40.952C19.6176 41.069 19.6286 41.1708 19.5878 41.2418L19.6921 41.2135L19.7376 41.2966ZM19.4801 41.2677C19.5646 41.2171 19.5745 41.1136 19.5043 40.985C19.4207 40.8317 19.2737 40.7694 19.1563 40.8397C19.0718 40.8903 19.0627 40.9933 19.1329 41.122C19.2164 41.275 19.3628 41.3379 19.4801 41.2677Z" fill="url(#paint20_linear_16_1193)"/>
<path d="M19.994 42.202C19.8456 42.2908 19.657 42.2084 19.5472 42.0071C19.4834 41.8901 19.4722 41.788 19.5139 41.7166L19.2263 41.7957L19.1809 41.7126L19.8628 41.5262L19.9061 41.6056L19.8264 41.6269C19.9042 41.6579 19.9751 41.7242 20.0294 41.8235C20.1156 41.982 20.1072 42.1342 19.994 42.202ZM19.9449 42.1199C20.0294 42.0693 20.0393 41.9658 19.9691 41.8371C19.8855 41.6839 19.7398 41.6223 19.6218 41.693C19.5372 41.7436 19.5282 41.8466 19.5983 41.9753C19.6818 42.1283 19.8276 42.1901 19.9449 42.1199Z" fill="url(#paint21_linear_16_1193)"/>
<path d="M20.4421 42.9215C20.4264 42.9309 20.4089 42.9383 20.3891 42.944L20.1055 43.0207L20.0602 42.9376L20.3446 42.8604C20.3605 42.8555 20.3748 42.85 20.387 42.8427C20.4485 42.8058 20.455 42.7321 20.397 42.6257C20.3255 42.4948 20.2264 42.4346 20.1094 42.4658L19.8425 42.5388L19.7971 42.4556L20.5001 42.2643L20.5453 42.3472L20.2657 42.4231C20.3444 42.4536 20.4102 42.5229 20.4619 42.6177C20.5382 42.7568 20.5299 42.869 20.4421 42.9215Z" fill="url(#paint22_linear_16_1193)"/>
<path d="M21.0034 43.617L20.2711 43.4596C20.1476 43.4328 20.091 43.3907 20.0424 43.3017C20.0112 43.2444 19.9933 43.1775 20.0013 43.1324L20.0681 43.1512C20.0631 43.1899 20.0708 43.2318 20.0963 43.2784C20.125 43.3312 20.1646 43.3617 20.2433 43.3784L20.3129 43.3943L20.6584 42.9841L20.7043 43.0682L20.4064 43.4156L20.9568 43.5312L21.0036 43.6169L21.0034 43.617Z" fill="url(#paint23_linear_16_1193)"/>
<path d="M53.9889 44.0805L57.1568 39.8239L57.9322 45.1769L62.1119 45.0286L59.0133 49.2915L63.1277 52.6231L57.8747 50.5803L57.1399 55.9386L53.6151 52.3455L49.1732 55.5797L50.1456 50.8772L45.1045 50.0459L49.0254 47.6218L46.7397 43.492L50.7196 45.855L51.1345 40.0031L53.9889 44.0805Z" fill="#FAFAFA"/>
<path d="M59.0132 49.2914C59.0132 49.2914 59.1105 49.3671 59.2952 49.5146C59.4802 49.6629 59.7536 49.8819 60.111 50.1682C60.8247 50.742 61.8731 51.5847 63.2166 52.6646L63.3229 52.7501L63.1988 52.6963C62.4812 52.3859 61.6647 52.0788 60.7697 51.7522C59.8756 51.4237 58.901 51.0781 57.8847 50.6402L57.9185 50.6203C57.6848 52.2165 57.422 54.012 57.1399 55.9384L57.1314 55.9964L57.0914 55.9553C55.9901 54.8235 54.8103 53.6111 53.5751 52.3416L53.6151 52.3452C52.2217 53.3598 50.7585 54.4252 49.2425 55.5289L49.1732 55.5795L49.1903 55.4928C49.4801 54.0254 49.7886 52.4638 50.1042 50.8656L50.1335 50.9063C48.5366 50.6437 46.8475 50.3657 45.1256 50.0825L45.0264 50.0661L45.1132 50.0132C46.1983 49.3523 47.3505 48.6507 48.516 47.9407C48.6927 47.8331 48.8691 47.7257 49.0451 47.6186L49.0338 47.6726C48.5985 47.0091 48.2161 46.319 47.8421 45.6322C47.4696 44.9445 47.1118 44.2555 46.7657 43.5677L46.7095 43.4561L46.8146 43.5181C48.1675 44.3157 49.4946 45.0979 50.791 45.862L50.7393 45.8912C50.8062 44.8724 50.872 43.8697 50.9367 42.8844C50.9655 42.3916 50.994 41.903 51.0224 41.4192C51.0342 41.1772 51.0461 40.9364 51.0577 40.6966C51.0621 40.5768 51.0663 40.4573 51.0706 40.3381L51.0739 40.1599L51.0732 40.0718C51.0731 40.0461 51.0677 40.0065 51.0703 40.0029L51.1114 39.9441L51.1237 39.962C52.13 41.4051 53.0962 42.791 54.0187 44.1141L53.9692 44.1136C55.0829 42.5867 56.1309 41.1502 57.1081 39.8108L57.1469 39.7576L57.157 39.8238C57.4585 41.7883 57.7305 43.5606 57.9742 45.1484L57.9498 45.1283C59.5636 45.0754 60.9377 45.0306 62.1109 44.9921L62.1473 44.9908L62.1254 45.0211C61.1193 46.4038 60.3434 47.4704 59.8182 48.1924C59.5549 48.5529 59.3547 48.8272 59.2195 49.0123C59.0844 49.1969 59.0132 49.2914 59.0132 49.2914C59.0132 49.2914 59.0781 49.1976 59.2102 49.0133C59.3434 48.8276 59.5406 48.5526 59.7999 48.1911C60.3228 47.4645 61.0956 46.3911 62.0973 44.9994L62.1118 45.0284C60.9393 45.07 59.5661 45.1186 57.9531 45.1759L57.9321 45.1766L57.9287 45.1559C57.6824 43.5686 57.4072 41.7967 57.1023 39.8327L57.1514 39.8457C56.176 41.1865 55.1297 42.6245 54.018 44.1528L53.9929 44.1873L53.9685 44.1524C53.0448 42.8302 52.0774 41.4453 51.0699 40.003L51.1234 39.9622C51.143 40.0158 51.1349 40.0366 51.139 40.07L51.1399 40.1604L51.1368 40.3403C51.1326 40.4599 51.1284 40.5797 51.1241 40.6999C51.1126 40.9399 51.1009 41.181 51.0891 41.4234C51.061 41.9074 51.0328 42.3962 51.0043 42.8893C50.9401 43.8749 50.8748 44.8779 50.8084 45.8968L50.8048 45.9543L50.7567 45.926C49.4599 45.1622 48.1327 44.3806 46.7796 43.5836L46.8286 43.534C47.1743 44.2206 47.5319 44.9093 47.9041 45.5961C48.2775 46.2818 48.6598 46.9714 49.0923 47.6303L49.1144 47.664L49.0809 47.6845C48.9049 47.7917 48.7286 47.8991 48.5519 48.0067C47.3862 48.7165 46.234 49.4181 45.1489 50.0789L45.1366 50.0097C46.8583 50.2935 48.5473 50.5718 50.1443 50.835L50.1803 50.841L50.1734 50.8758C49.8565 52.4758 49.547 54.0393 49.2561 55.5083L49.2038 55.472C50.7209 54.3694 52.1848 53.3053 53.5789 52.292L53.6003 52.2763L53.619 52.2954C54.8527 53.5664 56.0313 54.7803 57.1314 55.9134L57.0828 55.9304C57.3678 54.0045 57.6335 52.2094 57.8696 50.6136L57.8743 50.5811L57.9032 50.5937C58.9167 51.0325 59.8901 51.3801 60.7835 51.7111C61.6778 52.0399 62.4941 52.3498 63.212 52.6631L63.1943 52.6948C61.8526 51.605 60.8056 50.7542 60.0929 50.1753C59.7391 49.887 59.4686 49.6665 59.2854 49.5173C59.1042 49.368 59.0132 49.2914 59.0132 49.2914Z" fill="#263238"/>
<path d="M53.5953 48.387C53.5953 48.6289 53.4081 48.8249 53.1773 48.8249C52.9464 48.8249 52.7593 48.6289 52.7593 48.387C52.7593 48.1452 52.9464 47.9493 53.1773 47.9493C53.4081 47.9493 53.5953 48.1452 53.5953 48.387Z" fill="#263238"/>
<path d="M54.8707 48.387C54.8707 48.6289 54.6835 48.8249 54.4527 48.8249C54.2218 48.8249 54.0347 48.6289 54.0347 48.387C54.0347 48.1452 54.2218 47.9493 54.4527 47.9493C54.6835 47.9493 54.8707 48.1452 54.8707 48.387Z" fill="#263238"/>
<path d="M56.1464 48.387C56.1464 48.6289 55.9592 48.8249 55.7285 48.8249C55.4979 48.8249 55.3105 48.6289 55.3105 48.387C55.3105 48.1452 55.4977 47.9493 55.7285 47.9493C55.9594 47.9493 56.1464 48.1452 56.1464 48.387Z" fill="#263238"/>
<path d="M80.0992 52.4649C88.2064 67.0548 98.0826 80.277 76.761 65.8694C68.6489 65.8694 53.7314 64.9623 53.7314 57.2066C53.7314 49.451 62.4492 49.4557 70.5614 49.4557C76.761 45.4435 80.0992 44.7092 80.0992 52.4649Z" fill="url(#paint24_linear_16_1193)"/>
<path d="M9.49145 49.9047C0.845301 63.7656 -8.13834 76.4405 13.5062 63.3664C21.4908 63.7402 36.2152 63.5425 36.5694 55.9758C36.9236 48.4091 28.3426 48.012 20.358 47.6382C14.4391 43.438 9.84568 42.338 9.49145 49.9047Z" fill="url(#paint25_linear_16_1193)"/>
<path d="M21.915 11.2352C21.915 11.2352 26.5235 14.3601 29.7324 23.5883C32.9411 32.8166 35.6677 39.4411 35.6677 39.4411" stroke="#263238" stroke-width="0.75" stroke-miterlimit="10" stroke-linecap="round" stroke-linejoin="round"/>
<path d="M14.3724 5.28249C14.0814 5.32299 13.8634 5.57391 13.8733 5.85746C13.9712 8.62905 14.7048 21.8855 19.7439 18.7752C23.9265 16.1935 22.8608 13.091 22.0424 11.6733C21.8731 11.3804 22.135 11.0119 22.482 11.0539C24.4134 11.288 28.5125 11.3743 28.0986 7.7985C27.6218 3.67935 16.8663 4.93505 14.3724 5.28249Z" fill="#92E3A9" stroke="#263238" stroke-width="0.5" stroke-miterlimit="10" stroke-linecap="round" stroke-linejoin="round"/>
<path d="M16.9121 7.0553C17.9495 7.73036 19.2849 8.74518 20.6779 10.1909" stroke="#263238" stroke-width="0.5" stroke-miterlimit="10" stroke-linecap="round" stroke-linejoin="round"/>
<path d="M14.8799 5.93555C14.8799 5.93555 15.3184 6.11088 16.038 6.52096" stroke="#263238" stroke-width="0.5" stroke-miterlimit="10" stroke-linecap="round" stroke-linejoin="round"/>
<path d="M20.4751 11.1726C20.4751 11.1726 18.5867 10.039 15.0231 11.6906" stroke="#263238" stroke-width="0.5" stroke-miterlimit="10" stroke-linecap="round" stroke-linejoin="round"/>
<path d="M20.8765 5.5459C20.8765 5.5459 22.0153 7.22211 21.9195 9.8615" stroke="#263238" stroke-width="0.5" stroke-miterlimit="10" stroke-linecap="round" stroke-linejoin="round"/>
<path d="M16.609 15.4343C16.42 15.6961 16.257 15.9753 16.1301 16.2718" stroke="#263238" stroke-width="0.5" stroke-miterlimit="10" stroke-linecap="round" stroke-linejoin="round"/>
<path d="M21.2076 12.3819C21.2076 12.3819 18.735 13.1704 17.1446 14.8014" stroke="#263238" stroke-width="0.5" stroke-miterlimit="10" stroke-linecap="round" stroke-linejoin="round"/>
<path d="M22.9579 10.5142C22.9579 10.5142 25.5906 8.95857 25.7428 6.55136" stroke="#263238" stroke-width="0.5" stroke-miterlimit="10" stroke-linecap="round" stroke-linejoin="round"/>
<path d="M35.4204 22.2479C35.4204 22.2479 33.9141 25.1335 34.6975 30.6906C35.4809 36.2474 35.8307 40.3569 35.8307 40.3569" stroke="#263238" stroke-width="0.75" stroke-miterlimit="10" stroke-linecap="round" stroke-linejoin="round"/>
<path d="M37.5314 17.3937C37.6882 17.3312 37.8632 17.3952 37.9317 17.5408C38.6026 18.9629 41.6776 25.8401 38.3348 25.7123C35.5602 25.6061 35.2904 23.7418 35.3337 22.7953C35.3425 22.5996 35.1152 22.489 34.9516 22.609C34.0408 23.2775 32.0015 24.4896 31.2806 22.573C30.4503 20.3647 36.1866 17.9299 37.5314 17.3937Z" fill="#92E3A9" stroke="#263238" stroke-width="0.5" stroke-miterlimit="10" stroke-linecap="round" stroke-linejoin="round"/>
<path d="M36.7143 19.0093C36.3678 19.6448 35.9597 20.5359 35.6347 21.6603" stroke="#263238" stroke-width="0.5" stroke-miterlimit="10" stroke-linecap="round" stroke-linejoin="round"/>
<path d="M37.4453 17.8666C37.4453 17.8666 37.2703 18.0799 37.0149 18.4914" stroke="#263238" stroke-width="0.5" stroke-miterlimit="10" stroke-linecap="round" stroke-linejoin="round"/>
<path d="M35.9917 22.0964C35.9917 22.0964 36.6472 20.9878 38.8687 20.8026" stroke="#263238" stroke-width="0.5" stroke-miterlimit="10" stroke-linecap="round" stroke-linejoin="round"/>
<path d="M34.3281 19.3804C34.3281 19.3804 34.1907 20.5482 34.9246 21.8485" stroke="#263238" stroke-width="0.5" stroke-miterlimit="10" stroke-linecap="round" stroke-linejoin="round"/>
<path d="M39.0439 23.1378C39.2072 23.2157 39.3614 23.3096 39.5025 23.4226" stroke="#263238" stroke-width="0.5" stroke-miterlimit="10" stroke-linecap="round" stroke-linejoin="round"/>
<path d="M35.9375 22.9133C35.9375 22.9133 37.3861 22.6051 38.6099 22.9721" stroke="#263238" stroke-width="0.5" stroke-miterlimit="10" stroke-linecap="round" stroke-linejoin="round"/>
<path d="M34.5724 22.473C34.5724 22.473 32.8439 22.4409 32.1421 21.2736" stroke="#263238" stroke-width="0.5" stroke-miterlimit="10" stroke-linecap="round" stroke-linejoin="round"/>
<path d="M25.1216 22.663C25.1216 22.663 29.3745 25.5467 32.336 34.0633C33.2728 36.7574 34.165 39.2109 34.947 41.3065" stroke="#263238" stroke-width="0.75" stroke-miterlimit="10" stroke-linecap="round" stroke-linejoin="round"/>
<path d="M18.1033 21.5959C17.9108 21.7201 17.8436 21.9641 17.9503 22.1546C18.9918 24.0166 24.1633 32.8344 26.6549 29.0365C28.7231 25.8837 26.8773 24.1169 25.7981 23.4194C25.5751 23.2752 25.632 22.9366 25.8933 22.8501C27.3484 22.3694 30.2931 21.0681 28.7446 18.7613C26.9608 16.1038 19.7544 20.5309 18.1033 21.5959Z" fill="#92E3A9" stroke="#263238" stroke-width="0.5" stroke-miterlimit="10" stroke-linecap="round" stroke-linejoin="round"/>
<path opacity="0.2" d="M18.1033 21.5959C17.9108 21.7201 17.8436 21.9641 17.9503 22.1546C18.9918 24.0166 24.1633 32.8344 26.6549 29.0365C28.7231 25.8837 26.8773 24.1169 25.7981 23.4194C25.5751 23.2752 25.632 22.9366 25.8933 22.8501C27.3484 22.3694 30.2931 21.0681 28.7446 18.7613C26.9608 16.1038 19.7544 20.5309 18.1033 21.5959Z" fill="#263238"/>
<path d="M20.5308 21.965C21.505 22.0823 22.8105 22.3329 24.3079 22.8588" stroke="#263238" stroke-width="0.5" stroke-miterlimit="10" stroke-linecap="round" stroke-linejoin="round"/>
<path d="M18.6929 21.8741C18.6929 21.8741 19.066 21.8485 19.7215 21.8901" stroke="#263238" stroke-width="0.5" stroke-miterlimit="10" stroke-linecap="round" stroke-linejoin="round"/>
<path d="M24.5078 23.5973C24.5078 23.5973 22.7676 23.4489 20.8134 25.7605" stroke="#263238" stroke-width="0.5" stroke-miterlimit="10" stroke-linecap="round" stroke-linejoin="round"/>
<path d="M22.8198 19.6182C22.8198 19.6182 24.2174 20.386 25.0752 22.222" stroke="#263238" stroke-width="0.5" stroke-miterlimit="10" stroke-linecap="round" stroke-linejoin="round"/>
<path d="M23.2543 27.7931C23.2118 28.0348 23.1938 28.2796 23.2077 28.5245" stroke="#263238" stroke-width="0.5" stroke-miterlimit="10" stroke-linecap="round" stroke-linejoin="round"/>
<path d="M25.453 24.1807C25.453 24.1807 23.9715 25.54 23.413 27.1828" stroke="#263238" stroke-width="0.5" stroke-miterlimit="10" stroke-linecap="round" stroke-linejoin="round"/>
<path d="M26.042 22.3234C26.042 22.3234 27.3681 20.3865 26.632 18.6906" stroke="#263238" stroke-width="0.5" stroke-miterlimit="10" stroke-linecap="round" stroke-linejoin="round"/>
<path d="M38.5184 46.9633L35.1509 47.8565C33.8406 48.204 32.5211 47.5026 32.1488 46.2609L30.2603 39.9613L39.2331 37.5814L40.4337 44.0634C40.6706 45.3413 39.8287 46.6157 38.5184 46.9633Z" fill="url(#paint26_linear_16_1193)" stroke="#263238" stroke-width="0.5" stroke-miterlimit="10" stroke-linecap="round" stroke-linejoin="round"/>
<rect width="27.764" height="15.5091" transform="matrix(0.965551 0.260212 -0.238484 0.971146 29.9526 40.8518)" fill="#D9D9D9"/>
<path d="M56.7598 48.0762L29.9526 40.8518L26.2246 56.0328L53.0318 63.2572L56.7598 48.0762Z" stroke="#263238" stroke-width="0.3" stroke-miterlimit="10"/>
<path d="M56.7598 48.0762L29.9526 40.8518L29.6532 42.0713L56.4603 49.2957L56.7598 48.0762Z" stroke="#263238" stroke-width="0.3" stroke-miterlimit="10"/>
<path d="M36.6548 44.0494L33.2791 57.7957" stroke="#263238" stroke-width="0.3" stroke-miterlimit="10"/>
<path d="M32.2185 47.1087C32.8333 47.2743 33.4434 46.9537 33.5812 46.3924C33.719 45.8311 33.3324 45.2418 32.7176 45.0761C32.1029 44.9104 31.4928 45.2311 31.3549 45.7924C31.2171 46.3537 31.6037 46.943 32.2185 47.1087Z" stroke="#263238" stroke-width="0.3" stroke-miterlimit="10"/>
<path d="M32.8911 46.083C32.8422 46.282 32.626 46.3956 32.4081 46.3369C32.1902 46.2782 32.0531 46.0693 32.102 45.8704C32.1508 45.6714 32.3671 45.5577 32.585 45.6165C32.8029 45.6752 32.9399 45.8841 32.8911 46.083Z" stroke="#263238" stroke-width="0.3" stroke-miterlimit="10"/>
<path d="M32.2183 47.1087C32.4699 47.1765 32.7202 47.1616 32.9382 47.0834C32.9565 46.7753 32.7327 46.4761 32.3959 46.3853C32.0591 46.2946 31.7253 46.4435 31.5995 46.7226C31.7543 46.9015 31.9667 47.0409 32.2183 47.1087Z" stroke="#263238" stroke-width="0.3" stroke-miterlimit="10"/>
<path d="M38.2434 48.3312C38.8582 48.4969 39.4683 48.1762 39.6061 47.6149C39.7439 47.0536 39.3573 46.4643 38.7425 46.2986C38.1278 46.133 37.5177 46.4537 37.3798 47.0149C37.242 47.5762 37.6286 48.1655 38.2434 48.3312Z" stroke="#263238" stroke-width="0.3" stroke-miterlimit="10"/>
<path d="M38.916 47.3055C38.8671 47.5045 38.6509 47.6182 38.433 47.5594C38.2151 47.5007 38.078 47.2918 38.1269 47.0929C38.1757 46.894 38.392 46.7803 38.6099 46.839C38.8278 46.8977 38.9648 47.1066 38.916 47.3055Z" stroke="#263238" stroke-width="0.3" stroke-miterlimit="10"/>
<path d="M38.2432 48.3311C38.4948 48.3989 38.7451 48.3841 38.9631 48.3058C38.9814 47.9977 38.7576 47.6985 38.4208 47.6078C38.084 47.517 37.7502 47.6659 37.6244 47.945C37.7792 48.1239 37.9916 48.2633 38.2432 48.3311Z" stroke="#263238" stroke-width="0.3" stroke-miterlimit="10"/>
<path d="M31.1736 51.3638C31.7883 51.5295 32.3984 51.2088 32.5363 50.6475C32.6741 50.0862 32.2875 49.4969 31.6727 49.3312C31.0579 49.1656 30.4478 49.4863 30.31 50.0475C30.1722 50.6088 30.5588 51.1981 31.1736 51.3638Z" stroke="#263238" stroke-width="0.3" stroke-miterlimit="10"/>
<path d="M31.8462 50.3381C31.7973 50.5371 31.581 50.6508 31.3631 50.592C31.1452 50.5333 31.0082 50.3244 31.057 50.1255C31.1059 49.9265 31.3222 49.8129 31.5401 49.8716C31.758 49.9303 31.895 50.1392 31.8462 50.3381Z" stroke="#263238" stroke-width="0.3" stroke-miterlimit="10"/>
<path d="M31.1734 51.3638C31.425 51.4316 31.6753 51.4168 31.8933 51.3385C31.9116 51.0304 31.6878 50.7312 31.351 50.6405C31.0142 50.5497 30.6804 50.6986 30.5545 50.9777C30.7094 51.1566 30.9218 51.296 31.1734 51.3638Z" stroke="#263238" stroke-width="0.3" stroke-miterlimit="10"/>
<path d="M30.1286 55.6188C30.7434 55.7845 31.3535 55.4638 31.4913 54.9025C31.6292 54.3412 31.2425 53.7519 30.6278 53.5862C30.013 53.4206 29.4029 53.7413 29.2651 54.3025C29.1272 54.8638 29.5139 55.4531 30.1286 55.6188Z" stroke="#263238" stroke-width="0.3" stroke-miterlimit="10"/>
<path d="M30.8012 54.5932C30.7524 54.7921 30.5361 54.9058 30.3182 54.847C30.1003 54.7883 29.9633 54.5794 30.0121 54.3805C30.061 54.1816 30.2772 54.0679 30.4951 54.1266C30.713 54.1853 30.8501 54.3942 30.8012 54.5932Z" stroke="#263238" stroke-width="0.3" stroke-miterlimit="10"/>
<path d="M30.1285 55.6188C30.38 55.6866 30.6304 55.6718 30.8483 55.5935C30.8667 55.2854 30.6429 54.9862 30.3061 54.8955C29.9693 54.8047 29.6355 54.9536 29.5096 55.2327C29.6644 55.4116 29.8769 55.551 30.1285 55.6188Z" stroke="#263238" stroke-width="0.3" stroke-miterlimit="10"/>
<path d="M43.3291 47.9012L49.1876 49.4801" stroke="#263238" stroke-width="0.3" stroke-miterlimit="10"/>
<path d="M43.0273 49.1313L48.8858 50.7102" stroke="#263238" stroke-width="0.3" stroke-miterlimit="10"/>
<path d="M42.7251 50.3616L48.5836 51.9404" stroke="#263238" stroke-width="0.3" stroke-miterlimit="10"/>
<path d="M38.6606 52.3512L49.5787 55.2936" stroke="#263238" stroke-width="0.3" stroke-miterlimit="10"/>
<path d="M38.1667 51.7638L37.4351 51.5667L37.271 52.2346L38.0027 52.4318L38.1667 51.7638Z" fill="url(#paint27_linear_16_1193)"/>
<path d="M38.3218 53.7319L49.2399 56.6743" stroke="#263238" stroke-width="0.3" stroke-miterlimit="10"/>
<path d="M37.8273 53.1444L37.0957 52.9473L36.9317 53.6152L37.6633 53.8124L37.8273 53.1444Z" fill="url(#paint28_linear_16_1193)"/>
<path d="M37.9824 55.1125L48.9005 58.0549" stroke="#263238" stroke-width="0.3" stroke-miterlimit="10"/>
<path d="M37.4885 54.5251L36.7568 54.3279L36.5928 54.9959L37.3244 55.193L37.4885 54.5251Z" fill="url(#paint29_linear_16_1193)"/>
<path d="M37.644 56.4932L48.5621 59.4355" stroke="#263238" stroke-width="0.3" stroke-miterlimit="10"/>
<path d="M37.1496 55.9057L36.418 55.7085L36.2539 56.3765L36.9856 56.5737L37.1496 55.9057Z" fill="url(#paint30_linear_16_1193)"/>
<path d="M35.49 45.1768L26.3496 38.5704L21.3079 46.2255L30.4483 52.8319L35.49 45.1768Z" fill="#FAFAFA"/>
<path d="M35.4884 45.1734C35.4884 45.1734 35.4725 45.1632 35.4432 45.1428C35.4127 45.1213 35.3699 45.0911 35.314 45.0515C35.1995 44.9697 35.0324 44.8505 34.8155 44.6955C34.3799 44.3828 33.7449 43.9273 32.9399 43.3496C31.3325 42.1922 29.0481 40.5474 26.3323 38.5918L26.3723 38.5842C24.8725 40.8631 23.1532 43.4756 21.3339 46.24L21.3335 46.2408L21.3252 46.1938C24.7077 48.6412 27.8511 50.9157 30.4619 52.8048L30.4247 52.812C31.9475 50.5106 33.2098 48.6028 34.0926 47.2686C34.5352 46.6021 34.8824 46.0791 35.1202 45.7211C35.2387 45.5436 35.3298 45.4073 35.3924 45.3136C35.4544 45.2212 35.4884 45.1734 35.4884 45.1734C35.4884 45.1734 35.4598 45.2203 35.4006 45.3122C35.3398 45.4058 35.2514 45.5418 35.1363 45.719C34.902 46.0779 34.5597 46.6018 34.1235 47.2696C33.2439 48.6114 31.9862 50.5297 30.4688 52.844L30.4537 52.8671L30.4315 52.8511C27.819 50.9648 24.6735 48.6935 21.2887 46.2495L21.2622 46.2305L21.2804 46.2027L21.2808 46.2019C23.1021 43.439 24.8233 40.8278 26.3246 38.5501L26.341 38.5252L26.3646 38.5425C29.0799 40.5127 31.364 42.1701 32.9712 43.3362C33.77 43.9179 34.4004 44.3767 34.8325 44.6914C35.0459 44.8475 35.2098 44.9676 35.3225 45.0499C35.3764 45.0897 35.4177 45.1204 35.4471 45.1421C35.4755 45.1626 35.4884 45.1734 35.4884 45.1734Z" fill="#263238"/>
<path d="M34.8459 45.4224L26.3477 39.2802L21.9407 45.9715L30.439 52.1137L34.8459 45.4224Z" fill="#EBEBEB"/>
<path d="M21.9393 45.9675L27.6465 43.9539L27.7713 47.8849L29.9344 47.3951L30.4369 52.1097L21.9393 45.9675Z" fill="#E0E0E0"/>
<path d="M30.601 45.3375C30.346 45.7247 29.8397 45.8219 29.4703 45.5549C29.1007 45.2878 29.0078 44.7574 29.2629 44.3705C29.5178 43.9833 30.024 43.8862 30.3935 44.1532C30.7632 44.4199 30.856 44.9503 30.601 45.3375Z" fill="url(#paint31_linear_16_1193)"/>
<path d="M25.1992 87.4485C25.1992 87.4485 29.8126 85.716 33.5556 75.9589C33.5556 75.9589 28.7544 59.8737 33.5556 58.5028C37.6941 57.3211 47.7389 64.2837 51.9221 62.4632C53.1408 57.6303 53.9242 52.0679 61.4971 49.3323" stroke="#263238" stroke-width="0.5" stroke-miterlimit="10" stroke-linecap="round" stroke-linejoin="round"/>
<path d="M34.684 78.9735C34.6318 79.7248 33.9675 80.2926 33.2002 80.2416C32.4329 80.1907 31.8531 79.5401 31.9051 78.7887C31.9573 78.0374 32.6216 77.4697 33.3889 77.5206C34.1564 77.5717 34.7362 78.2222 34.684 78.9735Z" fill="white" stroke="#263238" stroke-width="0.5" stroke-miterlimit="10" stroke-linecap="round" stroke-linejoin="round"/>
<path d="M34.0831 77.7888L32.6641 77.6944L32.7269 76.7903C32.7454 76.5223 32.9825 76.3197 33.2563 76.3379L33.6838 76.3664C33.9575 76.3846 34.1644 76.6167 34.1458 76.8847L34.0831 77.7888Z" fill="#263238" stroke="#263238" stroke-width="0.5" stroke-miterlimit="10" stroke-linecap="round" stroke-linejoin="round"/>
<path d="M32.6104 75.5031C32.6104 75.5031 33.4374 75.7578 33.6181 76.3621C33.6181 76.3621 33.7193 76.0117 34.2165 75.6959" stroke="#263238" stroke-width="0.5" stroke-miterlimit="10" stroke-linecap="round" stroke-linejoin="round"/>
<path d="M63.0634 52.1726C63.0416 52.9893 62.2446 53.6362 61.2834 53.6177C60.3222 53.5992 59.5607 52.9221 59.5825 52.1055C59.6042 51.2889 60.4012 50.6419 61.3625 50.6604C62.3237 50.6789 63.0853 51.3559 63.0634 52.1726Z" fill="white" stroke="#263238" stroke-width="0.5" stroke-miterlimit="10" stroke-linecap="round" stroke-linejoin="round"/>
<path d="M62.2447 50.9178L60.4673 50.8835L60.4936 49.9009C60.5014 49.6096 60.7857 49.3788 61.1287 49.3854L61.6642 49.3957C62.0071 49.4023 62.279 49.6439 62.271 49.9352L62.2447 50.9178Z" fill="#263238" stroke="#263238" stroke-width="0.5" stroke-miterlimit="10" stroke-linecap="round" stroke-linejoin="round"/>
<path d="M60.2734 48.5116C60.2734 48.5116 61.3209 48.7482 61.5815 49.3941C61.5815 49.3941 61.6876 49.0098 62.2902 48.6436" stroke="#263238" stroke-width="0.5" stroke-miterlimit="10" stroke-linecap="round" stroke-linejoin="round"/>
<path d="M36.9496 61.5012C36.9785 62.356 36.3006 63.0721 35.4359 63.1006C34.5711 63.1292 33.8466 62.4591 33.8178 61.6043C33.7889 60.7495 34.4668 60.0334 35.3315 60.0049C36.1965 59.9765 36.9209 60.6464 36.9496 61.5012Z" fill="white" stroke="#263238" stroke-width="0.5" stroke-miterlimit="10" stroke-linecap="round" stroke-linejoin="round"/>
<path d="M36.1395 60.2302L34.5403 60.2828L34.5057 59.2543C34.4954 58.9493 34.7372 58.6937 35.0459 58.6836L35.5277 58.6677C35.8363 58.6575 36.0947 58.8965 36.105 59.2016L36.1395 60.2302Z" fill="#263238" stroke="#263238" stroke-width="0.5" stroke-miterlimit="10" stroke-linecap="round" stroke-linejoin="round"/>
<path d="M34.2256 57.8127C34.2256 57.8127 35.1807 58.0078 35.4532 58.6702C35.4532 58.6702 35.5259 58.2629 36.0457 57.8503" stroke="#263238" stroke-width="0.5" stroke-miterlimit="10" stroke-linecap="round" stroke-linejoin="round"/>
<path d="M54.162 65.1991C54.32 66.0989 53.6561 66.9465 52.6789 67.0923C51.7017 67.238 50.7812 66.6264 50.6229 65.7266C50.4647 64.8268 51.1288 63.9792 52.106 63.8334C53.0834 63.6879 54.0039 64.2993 54.162 65.1991Z" fill="url(#paint32_linear_16_1193)" stroke="#263238" stroke-width="0.5" stroke-miterlimit="10" stroke-linecap="round" stroke-linejoin="round"/>
<path d="M53.0561 63.9637L51.2489 64.2331L51.0586 63.1503C51.0022 62.8292 51.239 62.5267 51.5878 62.4748L52.1322 62.3937C52.481 62.3419 52.8092 62.5599 52.8658 62.8811L53.0561 63.9637Z" fill="#263238" stroke="#263238" stroke-width="0.5" stroke-miterlimit="10" stroke-linecap="round" stroke-linejoin="round"/>
<path d="M50.5293 61.6638C50.5293 61.6638 51.642 61.7424 52.0484 62.4062C52.0484 62.4062 52.071 61.966 52.6004 61.4602" stroke="#263238" stroke-width="0.5" stroke-miterlimit="10" stroke-linecap="round" stroke-linejoin="round"/>
<path d="M27.5283 89.1577C27.6713 89.8544 27.0706 90.5106 26.1865 90.6234C25.3023 90.7362 24.4695 90.2628 24.3263 89.5661C24.1831 88.8695 24.784 88.2133 25.6682 88.1005C26.5525 87.9878 27.3853 88.4611 27.5283 89.1577Z" fill="url(#paint33_linear_16_1193)" stroke="#263238" stroke-width="0.5" stroke-miterlimit="10" stroke-linecap="round" stroke-linejoin="round"/>
<path d="M26.5282 88.2013L24.8931 88.4099L24.7209 87.5716C24.6699 87.323 24.8842 87.0888 25.1997 87.0487L25.6923 86.9859C26.0078 86.9457 26.3048 87.1145 26.356 87.3632L26.5282 88.2013Z" fill="#263238" stroke="#263238" stroke-width="0.5" stroke-miterlimit="10" stroke-linecap="round" stroke-linejoin="round"/>
<path d="M24.2417 86.4207C24.2417 86.4207 25.2484 86.4815 25.6162 86.9954C25.6162 86.9954 25.6366 86.6547 26.1156 86.2631" stroke="#263238" stroke-width="0.5" stroke-miterlimit="10" stroke-linecap="round" stroke-linejoin="round"/>
<path d="M30.9123 70.4454C30.4327 71.0815 29.5872 71.2552 29.0237 70.8334C28.4603 70.4115 28.3924 69.554 28.8719 68.9178C29.3515 68.2818 30.197 68.1081 30.7605 68.5299C31.324 68.9516 31.3919 69.8093 30.9123 70.4454Z" fill="url(#paint34_linear_16_1193)" stroke="#263238" stroke-width="0.5" stroke-miterlimit="10" stroke-linecap="round" stroke-linejoin="round"/>
<path d="M31.1406 69.107L30.0987 68.3268L30.6758 67.5616C30.8469 67.3346 31.1485 67.2726 31.3496 67.4231L31.6634 67.6582C31.8644 67.8087 31.8886 68.1147 31.7176 68.3416L31.1406 69.107Z" fill="#263238" stroke="#263238" stroke-width="0.5" stroke-miterlimit="10" stroke-linecap="round" stroke-linejoin="round"/>
<path d="M31.3378 66.3706C31.3378 66.3706 31.8282 67.0012 31.6148 67.6221C31.6148 67.6221 31.8978 67.3633 32.4669 67.3293" stroke="#263238" stroke-width="0.5" stroke-miterlimit="10" stroke-linecap="round" stroke-linejoin="round"/>
<defs>
<filter id="filter0_f_16_1193" x="29.3301" y="96.6873" width="110.019" height="61.7225" filterUnits="userSpaceOnUse" color-interpolation-filters="sRGB">
<feFlood flood-opacity="0" result="BackgroundImageFix"/>
<feBlend mode="normal" in="SourceGraphic" in2="BackgroundImageFix" result="shape"/>
<feGaussianBlur stdDeviation="7.5" result="effect1_foregroundBlur_16_1193"/>
</filter>
<filter id="filter1_d_16_1193" x="2.01957" y="41.2166" width="84.6215" height="107.269" filterUnits="userSpaceOnUse" color-interpolation-filters="sRGB">
<feFlood flood-opacity="0" result="BackgroundImageFix"/>
<feColorMatrix in="SourceAlpha" type="matrix" values="0 0 0 0 0 0 0 0 0 0 0 0 0 0 0 0 0 0 127 0" result="hardAlpha"/>
<feOffset dy="7.49264"/>
<feGaussianBlur stdDeviation="3.74632"/>
<feComposite in2="hardAlpha" operator="out"/>
<feColorMatrix type="matrix" values="0 0 0 0 0 0 0 0 0 0 0 0 0 0 0 0 0 0 0.25 0"/>
<feBlend mode="normal" in2="BackgroundImageFix" result="effect1_dropShadow_16_1193"/>
<feBlend mode="normal" in="SourceGraphic" in2="effect1_dropShadow_16_1193" result="shape"/>
</filter>
<filter id="filter2_d_16_1193" x="37.3203" y="82.7643" width="74.3784" height="71.6359" filterUnits="userSpaceOnUse" color-interpolation-filters="sRGB">
<feFlood flood-opacity="0" result="BackgroundImageFix"/>
<feColorMatrix in="SourceAlpha" type="matrix" values="0 0 0 0 0 0 0 0 0 0 0 0 0 0 0 0 0 0 127 0" result="hardAlpha"/>
<feOffset dy="4"/>
<feGaussianBlur stdDeviation="2"/>
<feComposite in2="hardAlpha" operator="out"/>
<feColorMatrix type="matrix" values="0 0 0 0 0 0 0 0 0 0 0 0 0 0 0 0 0 0 0.25 0"/>
<feBlend mode="normal" in2="BackgroundImageFix" result="effect1_dropShadow_16_1193"/>
<feBlend mode="normal" in="SourceGraphic" in2="effect1_dropShadow_16_1193" result="shape"/>
</filter>
<linearGradient id="paint0_linear_16_1193" x1="76.6746" y1="108.583" x2="79.2845" y2="147.697" gradientUnits="userSpaceOnUse">
<stop stop-color="#263238"/>
<stop offset="1" stop-color="#263238"/>
</linearGradient>
<linearGradient id="paint1_linear_16_1193" x1="45.735" y1="44.5272" x2="46.1738" y2="45.7675" gradientUnits="userSpaceOnUse">
<stop stop-color="#5FFBD6"/>
<stop offset="1" stop-color="#B063F6"/>
</linearGradient>
<linearGradient id="paint2_linear_16_1193" x1="46.7628" y1="47.2085" x2="47.2016" y2="48.4487" gradientUnits="userSpaceOnUse">
<stop stop-color="#5FFBD6"/>
<stop offset="1" stop-color="#B063F6"/>
</linearGradient>
<linearGradient id="paint3_linear_16_1193" x1="47.9279" y1="49.8474" x2="48.3666" y2="51.0876" gradientUnits="userSpaceOnUse">
<stop stop-color="#5FFBD6"/>
<stop offset="1" stop-color="#B063F6"/>
</linearGradient>
<linearGradient id="paint4_linear_16_1193" x1="48.9557" y1="52.5287" x2="49.3945" y2="53.7689" gradientUnits="userSpaceOnUse">
<stop stop-color="#5FFBD6"/>
<stop offset="1" stop-color="#B063F6"/>
</linearGradient>
<linearGradient id="paint5_linear_16_1193" x1="51.1407" y1="28.5936" x2="52.6536" y2="32.8702" gradientUnits="userSpaceOnUse">
<stop stop-color="#5FFBD6"/>
<stop offset="1" stop-color="#B063F6"/>
</linearGradient>
<linearGradient id="paint6_linear_16_1193" x1="24.6011" y1="42.0496" x2="21.8821" y2="43.5327" gradientUnits="userSpaceOnUse">
<stop stop-color="#5FFBD6"/>
<stop offset="1" stop-color="#B063F6"/>
</linearGradient>
<linearGradient id="paint7_linear_16_1193" x1="19.6363" y1="33.0194" x2="16.9172" y2="34.5025" gradientUnits="userSpaceOnUse">
<stop stop-color="#5FFBD6"/>
<stop offset="1" stop-color="#B063F6"/>
</linearGradient>
<linearGradient id="paint8_linear_16_1193" x1="15.0029" y1="37.618" x2="13.1536" y2="38.6267" gradientUnits="userSpaceOnUse">
<stop stop-color="#5FFBD6"/>
<stop offset="1" stop-color="#B063F6"/>
</linearGradient>
<linearGradient id="paint9_linear_16_1193" x1="15.767" y1="39.0189" x2="13.9178" y2="40.0275" gradientUnits="userSpaceOnUse">
<stop stop-color="#5FFBD6"/>
<stop offset="1" stop-color="#B063F6"/>
</linearGradient>
<linearGradient id="paint10_linear_16_1193" x1="16.4997" y1="40.4116" x2="14.6919" y2="41.3977" gradientUnits="userSpaceOnUse">
<stop stop-color="#5FFBD6"/>
<stop offset="1" stop-color="#B063F6"/>
</linearGradient>
<linearGradient id="paint11_linear_16_1193" x1="17.2104" y1="41.6652" x2="15.3611" y2="42.6739" gradientUnits="userSpaceOnUse">
<stop stop-color="#5FFBD6"/>
<stop offset="1" stop-color="#B063F6"/>
</linearGradient>
<linearGradient id="paint12_linear_16_1193" x1="17.9697" y1="43.1069" x2="16.1386" y2="44.1057" gradientUnits="userSpaceOnUse">
<stop stop-color="#5FFBD6"/>
<stop offset="1" stop-color="#B063F6"/>
</linearGradient>
<linearGradient id="paint13_linear_16_1193" x1="18.7753" y1="44.5832" x2="16.9674" y2="45.5693" gradientUnits="userSpaceOnUse">
<stop stop-color="#5FFBD6"/>
<stop offset="1" stop-color="#B063F6"/>
</linearGradient>
<linearGradient id="paint14_linear_16_1193" x1="17.5053" y1="36.8569" x2="16.9183" y2="37.1771" gradientUnits="userSpaceOnUse">
<stop stop-color="#5FFBD6"/>
<stop offset="1" stop-color="#B063F6"/>
</linearGradient>
<linearGradient id="paint15_linear_16_1193" x1="17.6282" y1="37.4289" x2="17.02" y2="37.7607" gradientUnits="userSpaceOnUse">
<stop stop-color="#5FFBD6"/>
<stop offset="1" stop-color="#B063F6"/>
</linearGradient>
<linearGradient id="paint16_linear_16_1193" x1="18.0268" y1="38.1517" x2="17.4195" y2="38.483" gradientUnits="userSpaceOnUse">
<stop stop-color="#5FFBD6"/>
<stop offset="1" stop-color="#B063F6"/>
</linearGradient>
<linearGradient id="paint17_linear_16_1193" x1="18.453" y1="38.9339" x2="18.0044" y2="39.1785" gradientUnits="userSpaceOnUse">
<stop stop-color="#5FFBD6"/>
<stop offset="1" stop-color="#B063F6"/>
</linearGradient>
<linearGradient id="paint18_linear_16_1193" x1="18.8588" y1="39.6778" x2="18.2475" y2="40.0112" gradientUnits="userSpaceOnUse">
<stop stop-color="#5FFBD6"/>
<stop offset="1" stop-color="#B063F6"/>
</linearGradient>
<linearGradient id="paint19_linear_16_1193" x1="19.2382" y1="40.3734" x2="18.7936" y2="40.6159" gradientUnits="userSpaceOnUse">
<stop stop-color="#5FFBD6"/>
<stop offset="1" stop-color="#B063F6"/>
</linearGradient>
<linearGradient id="paint20_linear_16_1193" x1="19.5525" y1="40.9497" x2="19.1039" y2="41.1943" gradientUnits="userSpaceOnUse">
<stop stop-color="#5FFBD6"/>
<stop offset="1" stop-color="#B063F6"/>
</linearGradient>
<linearGradient id="paint21_linear_16_1193" x1="19.9756" y1="41.725" x2="19.3683" y2="42.0562" gradientUnits="userSpaceOnUse">
<stop stop-color="#5FFBD6"/>
<stop offset="1" stop-color="#B063F6"/>
</linearGradient>
<linearGradient id="paint22_linear_16_1193" x1="20.5809" y1="42.4124" x2="19.9587" y2="42.7518" gradientUnits="userSpaceOnUse">
<stop stop-color="#5FFBD6"/>
<stop offset="1" stop-color="#B063F6"/>
</linearGradient>
<linearGradient id="paint23_linear_16_1193" x1="20.7806" y1="43.2081" x2="20.1723" y2="43.5399" gradientUnits="userSpaceOnUse">
<stop stop-color="#5FFBD6"/>
<stop offset="1" stop-color="#B063F6"/>
</linearGradient>
<linearGradient id="paint24_linear_16_1193" x1="71.6642" y1="46.5055" x2="71.6642" y2="72.0867" gradientUnits="userSpaceOnUse">
<stop stop-color="#5FFBD6"/>
<stop offset="1" stop-color="#B063F6"/>
</linearGradient>
<linearGradient id="paint25_linear_16_1193" x1="19.4073" y1="44.7091" x2="18.2389" y2="69.667" gradientUnits="userSpaceOnUse">
<stop stop-color="#5FFBD6"/>
<stop offset="1" stop-color="#B063F6"/>
</linearGradient>
<linearGradient id="paint26_linear_16_1193" x1="34.7467" y1="38.7713" x2="37.0246" y2="47.3595" gradientUnits="userSpaceOnUse">
<stop stop-color="#5FFBD6"/>
<stop offset="1" stop-color="#B063F6"/>
</linearGradient>
<linearGradient id="paint27_linear_16_1193" x1="37.8009" y1="51.6652" x2="37.6219" y2="52.3292" gradientUnits="userSpaceOnUse">
<stop stop-color="#5FFBD6"/>
<stop offset="1" stop-color="#B063F6"/>
</linearGradient>
<linearGradient id="paint28_linear_16_1193" x1="37.4615" y1="53.0459" x2="37.2826" y2="53.7098" gradientUnits="userSpaceOnUse">
<stop stop-color="#5FFBD6"/>
<stop offset="1" stop-color="#B063F6"/>
</linearGradient>
<linearGradient id="paint29_linear_16_1193" x1="37.1227" y1="54.4265" x2="36.9437" y2="55.0904" gradientUnits="userSpaceOnUse">
<stop stop-color="#5FFBD6"/>
<stop offset="1" stop-color="#B063F6"/>
</linearGradient>
<linearGradient id="paint30_linear_16_1193" x1="36.7838" y1="55.8071" x2="36.6049" y2="56.471" gradientUnits="userSpaceOnUse">
<stop stop-color="#5FFBD6"/>
<stop offset="1" stop-color="#B063F6"/>
</linearGradient>
<linearGradient id="paint31_linear_16_1193" x1="30.4511" y1="44.1988" x2="29.3551" y2="45.4592" gradientUnits="userSpaceOnUse">
<stop stop-color="#5FFBD6"/>
<stop offset="1" stop-color="#B063F6"/>
</linearGradient>
<linearGradient id="paint32_linear_16_1193" x1="52.3924" y1="63.812" x2="52.3924" y2="67.1137" gradientUnits="userSpaceOnUse">
<stop stop-color="#5FFBD6"/>
<stop offset="1" stop-color="#B063F6"/>
</linearGradient>
<linearGradient id="paint33_linear_16_1193" x1="25.9273" y1="88.0839" x2="25.9273" y2="90.64" gradientUnits="userSpaceOnUse">
<stop stop-color="#5FFBD6"/>
<stop offset="1" stop-color="#B063F6"/>
</linearGradient>
<linearGradient id="paint34_linear_16_1193" x1="30.9494" y1="68.7082" x2="28.7498" y2="70.5536" gradientUnits="userSpaceOnUse">
<stop stop-color="#5FFBD6"/>
<stop offset="1" stop-color="#B063F6"/>
</linearGradient>
</defs>
</svg>
