<svg width="197" height="190" viewBox="0 0 197 190" fill="none" xmlns="http://www.w3.org/2000/svg">
<path opacity="0.7" d="M128.237 21.1742C128.237 21.1742 98.8492 8.37014 70.5576 26.007C42.2659 43.6438 28.5002 80.2077 16.6395 109.466C4.77883 138.724 12.4774 169.209 34.5906 183.79C56.7038 198.371 71.1937 178.6 101.841 178.733C132.488 178.867 140.827 184.129 165.912 165.46C190.998 146.792 194.745 100.67 174.041 65.6843C153.337 30.6985 128.237 21.1742 128.237 21.1742Z" fill="url(#paint0_linear_402_59)"/>
<path d="M125.39 8.07654H115.62C111.875 8.07654 108.839 11.1125 108.839 14.8578V122.893C108.839 126.639 111.875 129.675 115.62 129.675H125.39V8.07654Z" fill="#999999" stroke="#263238" stroke-miterlimit="10" stroke-linecap="round" stroke-linejoin="round"/>
<path d="M110.65 36.8385C111.344 36.8385 111.907 36.2758 111.907 35.5821C111.907 35.1303 111.907 28.0767 111.907 27.6253C111.907 26.9316 111.344 26.3689 110.65 26.3689H109.394C108.7 26.3689 108.137 26.9316 108.137 27.6253C108.137 28.1377 108.137 35.0697 108.137 35.5821C108.137 36.2758 108.7 36.8385 109.394 36.8385H110.65Z" fill="#263238" stroke="#263238" stroke-miterlimit="10" stroke-linecap="round" stroke-linejoin="round"/>
<path d="M110.65 27.6253C110.65 26.9316 110.087 26.3689 109.394 26.3689C108.7 26.3689 108.137 26.9316 108.137 27.6253C108.137 28.1377 108.137 35.0697 108.137 35.5821C108.137 36.2758 108.7 36.8385 109.394 36.8385C110.087 36.8385 110.65 36.2758 110.65 35.5821C110.65 35.1303 110.65 28.0767 110.65 27.6253Z" fill="#5FFBD6" stroke="#263238" stroke-miterlimit="10" stroke-linecap="round" stroke-linejoin="round"/>
<path d="M110.65 44.0775C111.344 44.0775 111.907 43.5148 111.907 42.8211C111.907 42.3693 111.907 41.0591 111.907 40.6077C111.907 39.914 111.344 39.3513 110.65 39.3513H109.394C108.7 39.3513 108.137 39.914 108.137 40.6077C108.137 41.1201 108.137 42.3087 108.137 42.8211C108.137 43.5148 108.7 44.0775 109.394 44.0775H110.65Z" fill="#263238" stroke="#263238" stroke-miterlimit="10" stroke-linecap="round" stroke-linejoin="round"/>
<path d="M110.65 40.6077C110.65 39.914 110.087 39.3513 109.394 39.3513C108.7 39.3513 108.137 39.914 108.137 40.6077C108.137 41.1201 108.137 42.3087 108.137 42.8211C108.137 43.5148 108.7 44.0775 109.394 44.0775C110.087 44.0775 110.65 43.5148 110.65 42.8211C110.65 42.3697 110.65 41.0595 110.65 40.6077Z" fill="#B063F6" stroke="#263238" stroke-miterlimit="10" stroke-linecap="round" stroke-linejoin="round"/>
<path d="M165.325 129.675H120.107C116.362 129.675 113.326 126.639 113.326 122.894V14.8578C113.326 11.1125 116.362 8.07654 120.107 8.07654H165.325C169.07 8.07654 172.106 11.1125 172.106 14.8578V122.893C172.106 126.639 169.07 129.675 165.325 129.675Z" fill="url(#paint1_linear_402_59)"/>
<mask id="mask0_402_59" style="mask-type:luminance" maskUnits="userSpaceOnUse" x="113" y="6" width="84" height="182">
<path d="M186.559 187.109H123.047C117.786 187.109 113.522 182.606 113.522 177.05V16.7897C113.522 11.2339 117.786 6.73047 123.047 6.73047H186.559C191.819 6.73047 196.083 11.2339 196.083 16.7897V177.049C196.084 182.606 191.819 187.109 186.559 187.109Z" fill="white"/>
</mask>
<g mask="url(#mask0_402_59)">
<path opacity="0.3" d="M12.5603 228.718H2.18732L161.361 19.3007H171.734L12.5603 228.718Z" fill="url(#paint2_linear_402_59)"/>
</g>
<path d="M165.325 129.675H120.107C116.362 129.675 113.326 126.639 113.326 122.894V14.8578C113.326 11.1125 116.362 8.07654 120.107 8.07654H165.325C169.07 8.07654 172.106 11.1125 172.106 14.8578V122.893C172.106 126.639 169.07 129.675 165.325 129.675Z" stroke="#263238" stroke-miterlimit="10" stroke-linecap="round" stroke-linejoin="round"/>
<path d="M165.325 8.07654H120.107C116.362 8.07654 113.326 11.1125 113.326 14.8578V16.1532H172.106V14.8578C172.106 11.1125 169.07 8.07654 165.325 8.07654Z" fill="#263238" stroke="#263238" stroke-miterlimit="10" stroke-linecap="round" stroke-linejoin="round"/>
<path d="M144.359 13.2457C144.983 13.2457 145.489 12.7396 145.489 12.115C145.489 11.4904 144.983 10.9843 144.359 10.9843C143.897 10.9843 137.659 10.9843 137.197 10.9843C136.573 10.9843 136.067 11.4904 136.067 12.115C136.067 12.7396 136.573 13.2457 137.197 13.2457C137.604 13.2457 143.952 13.2457 144.359 13.2457Z" fill="#999999" stroke="#263238" stroke-miterlimit="10" stroke-linecap="round" stroke-linejoin="round"/>
<path d="M148.235 13.2457C148.86 13.2457 149.366 12.7395 149.366 12.115C149.366 11.4905 148.86 10.9843 148.235 10.9843C147.611 10.9843 147.105 11.4905 147.105 12.115C147.105 12.7395 147.611 13.2457 148.235 13.2457Z" fill="#999999" stroke="#263238" stroke-miterlimit="10" stroke-linecap="round" stroke-linejoin="round"/>
<path d="M113.326 118.458V122.894C113.326 126.639 116.362 129.675 120.107 129.675H165.325C169.07 129.675 172.106 126.639 172.106 122.894V118.458H113.326Z" fill="#263238" stroke="#263238" stroke-miterlimit="10" stroke-linecap="round" stroke-linejoin="round"/>
<path d="M142.716 127.453C144.587 127.453 146.103 125.937 146.103 124.066C146.103 122.196 144.587 120.68 142.716 120.68C140.846 120.68 139.329 122.196 139.329 124.066C139.329 125.937 140.846 127.453 142.716 127.453Z" fill="#999999" stroke="#263238" stroke-miterlimit="10" stroke-linecap="round" stroke-linejoin="round"/>
<path d="M141.819 53.6026C150.582 53.6026 157.685 46.4989 157.685 37.736C157.685 28.9731 150.582 21.8694 141.819 21.8694C133.056 21.8694 125.952 28.9731 125.952 37.736C125.952 46.4989 133.056 53.6026 141.819 53.6026Z" fill="#999999"/>
<path d="M142.716 52.7051C151.479 52.7051 158.583 45.6014 158.583 36.8385C158.583 28.0756 151.479 20.9719 142.716 20.9719C133.953 20.9719 126.85 28.0756 126.85 36.8385C126.85 45.6014 133.953 52.7051 142.716 52.7051Z" fill="white"/>
<mask id="mask1_402_59" style="mask-type:luminance" maskUnits="userSpaceOnUse" x="126" y="20" width="33" height="33">
<path d="M142.716 52.7051C151.479 52.7051 158.583 45.6014 158.583 36.8385C158.583 28.0756 151.479 20.9719 142.716 20.9719C133.953 20.9719 126.85 28.0756 126.85 36.8385C126.85 45.6014 133.953 52.7051 142.716 52.7051Z" fill="white"/>
</mask>
<g mask="url(#mask1_402_59)">
<path d="M132.458 54.8356L132.192 52.746C131.87 50.2086 137.957 47.0309 137.957 47.0309L144 47.9539L147.232 45.6803C153.685 47.0278 152.757 48.3214 152.908 50.1162C152.991 51.1015 153.173 52.2058 153.173 52.2058L132.458 54.8356Z" fill="white" stroke="#263238" stroke-miterlimit="10" stroke-linecap="round" stroke-linejoin="round"/>
<path d="M139.653 38.4091C139.653 38.4091 141.017 41.4427 138.915 46.3892L143.994 47.8246L146.044 45.4847L144.834 40.072L139.653 38.4091Z" fill="white"/>
<mask id="mask2_402_59" style="mask-type:luminance" maskUnits="userSpaceOnUse" x="138" y="38" width="9" height="10">
<path d="M139.653 38.4091C139.653 38.4091 141.017 41.4427 138.915 46.3892L143.994 47.8246L146.044 45.4847L144.834 40.072L139.653 38.4091Z" fill="white"/>
</mask>
<g mask="url(#mask2_402_59)">
<path d="M139.438 38.9007C139.438 38.9007 140.94 44.4857 146.153 44.3004C151.366 44.1151 141.118 37.7956 141.118 37.7956L139.851 37.7031L139.438 38.9007Z" fill="#263238"/>
</g>
<path d="M139.653 38.4091C139.653 38.4091 141.017 41.4427 138.915 46.3892L143.994 47.8246L146.044 45.4847L144.834 40.072L139.653 38.4091Z" stroke="#263238" stroke-miterlimit="10" stroke-linecap="round" stroke-linejoin="round"/>
<path d="M139.653 38.409C139.653 38.409 137.532 38.195 136.736 31.6134C136.09 26.2702 139.329 22.6779 143.601 22.7421C148.178 22.8112 151.012 28.0112 153.739 28.3302C153.739 28.3302 151.06 29.4784 150.004 28.8045C150.004 28.8045 152.14 30.6146 150.215 31.494C148.29 32.373 139.653 38.409 139.653 38.409Z" fill="#263238" stroke="#263238" stroke-miterlimit="10"/>
<path d="M150.045 30.157L150.576 34.3362C150.576 34.3362 151.456 37.1712 150.692 39.3478C149.928 41.5245 149.026 43.9793 146.445 43.44C143.863 42.9011 141.688 42.8307 139.653 38.4091L140.208 36.4321C140.208 36.4321 138.739 36.4636 138.493 33.8427C138.247 31.2218 140.792 32.8349 140.792 32.8349C140.792 32.8349 141.873 31.1078 141.836 28.7728C141.8 26.4373 146.069 30.1422 148.591 29.4754L146.694 27.4491C146.694 27.4491 149.494 28.753 150.045 30.157Z" fill="white" stroke="#263238" stroke-miterlimit="10" stroke-linecap="round" stroke-linejoin="round"/>
<path d="M147.729 34.4376L149.02 36.2105C149.213 36.4761 149.096 36.8534 148.785 36.9625L147.5 37.4134" stroke="#263238" stroke-miterlimit="10" stroke-linecap="round" stroke-linejoin="round"/>
<path d="M144.034 40.832C144.034 40.832 145.262 38.5654 147.623 39.9147" stroke="#263238" stroke-miterlimit="10" stroke-linecap="round" stroke-linejoin="round"/>
<path d="M144.759 34.2442C144.773 34.6951 144.625 35.0653 144.429 35.0711C144.234 35.077 144.064 34.7162 144.05 34.2653C144.037 33.8143 144.184 33.4441 144.38 33.4383C144.576 33.4329 144.746 33.7937 144.759 34.2442Z" fill="#263238"/>
<path d="M149.088 34.1199C149.101 34.5709 148.954 34.941 148.758 34.9469C148.562 34.9527 148.392 34.5919 148.379 34.141C148.365 33.69 148.513 33.3199 148.709 33.314C148.904 33.3082 149.074 33.669 149.088 34.1199Z" fill="#263238"/>
<path d="M143.268 33.1991C143.268 33.1991 144.121 31.726 146.01 32.4395" stroke="#263238" stroke-miterlimit="10" stroke-linecap="round" stroke-linejoin="round"/>
<path d="M148.29 32.3731C148.29 32.3731 149.264 31.5129 150.128 32.8545" stroke="#263238" stroke-miterlimit="10" stroke-linecap="round" stroke-linejoin="round"/>
<path d="M148.851 26.8459C149.253 27.152 149.589 27.3916 149.838 27.4966" stroke="#7F7F7F" stroke-linecap="round" stroke-linejoin="round"/>
<path d="M139.153 30.8528C139.153 30.8528 138.671 26.0925 141.877 24.5207C144.245 23.3594 146.769 25.2476 148.436 26.5277" stroke="#7F7F7F" stroke-linecap="round" stroke-linejoin="round"/>
<path d="M143.083 26.2815C143.86 26.2725 144.936 26.7728 146.363 28.4577" stroke="#7F7F7F" stroke-linecap="round" stroke-linejoin="round"/>
<path d="M141.411 27.4763C141.411 27.4763 141.603 27.0186 142.031 26.6696" stroke="#7F7F7F" stroke-linecap="round" stroke-linejoin="round"/>
<path d="M137.003 47.3687L138.551 45.9153L143.812 47.4145L146.235 44.9403L147.926 45.5487L146.316 49.0464L144 48.214L142.33 50.0726L137.003 47.3687Z" fill="#92E3A9"/>
<mask id="mask3_402_59" style="mask-type:luminance" maskUnits="userSpaceOnUse" x="137" y="44" width="11" height="7">
<path d="M137.003 47.3687L138.551 45.9153L143.812 47.4145L146.235 44.9403L147.926 45.5487L146.316 49.0464L144 48.214L142.33 50.0726L137.003 47.3687Z" fill="white"/>
</mask>
<g mask="url(#mask3_402_59)">
<path opacity="0.5" d="M137.003 47.3687L138.551 45.9153L143.812 47.4145L146.235 44.9403L147.926 45.5487L146.316 49.0464L144 48.214L142.33 50.0726L137.003 47.3687Z" fill="white"/>
</g>
<path d="M137.003 47.3687L138.551 45.9153L143.812 47.4145L146.235 44.9403L147.926 45.5487L146.316 49.0464L144 48.214L142.33 50.0726L137.003 47.3687Z" fill="url(#paint3_linear_402_59)" stroke="#263238" stroke-miterlimit="10" stroke-linecap="round" stroke-linejoin="round"/>
</g>
<path d="M142.716 52.7051C151.479 52.7051 158.583 45.6014 158.583 36.8385C158.583 28.0756 151.479 20.9719 142.716 20.9719C133.953 20.9719 126.85 28.0756 126.85 36.8385C126.85 45.6014 133.953 52.7051 142.716 52.7051Z" stroke="#263238" stroke-miterlimit="10" stroke-linecap="round" stroke-linejoin="round"/>
<path d="M154.091 54.1931H148.983C147.6 54.1931 146.479 53.0722 146.479 51.6893V46.5813C146.479 45.1984 147.6 44.0775 148.983 44.0775H154.091C155.474 44.0775 156.595 45.1984 156.595 46.5813V51.6893C156.595 53.0722 155.474 54.1931 154.091 54.1931Z" fill="url(#paint4_linear_402_59)" stroke="#263238" stroke-miterlimit="10" stroke-linecap="round" stroke-linejoin="round"/>
<path d="M152.888 46.9941C152.748 46.7123 152.459 46.5342 152.144 46.5342H150.93C150.615 46.5342 150.327 46.7123 150.186 46.9941" stroke="#263238" stroke-miterlimit="10" stroke-linecap="round" stroke-linejoin="round"/>
<path d="M149.383 47.2418C148.924 47.2418 148.551 47.6142 148.551 48.0742V50.905C148.551 51.3645 148.923 51.7374 149.383 51.7374H153.691C154.15 51.7374 154.523 51.365 154.523 50.905V48.0742C154.523 47.6147 154.151 47.2418 153.691 47.2418" stroke="#263238" stroke-miterlimit="10" stroke-linecap="round" stroke-linejoin="round"/>
<path d="M151.537 48.3192C150.891 48.3192 150.367 48.8433 150.367 49.4894C150.367 50.1356 150.891 50.6596 151.537 50.6596C152.183 50.6596 152.707 50.1356 152.707 49.4894C152.707 48.8433 152.184 48.3192 151.537 48.3192Z" stroke="#263238" stroke-miterlimit="10" stroke-linecap="round" stroke-linejoin="round"/>
<path d="M0 188.904L182.622 187.109" stroke="#263238" stroke-miterlimit="10"/>
<path d="M165.462 165.162C166.178 165.383 167.856 165.022 167.857 165.021C167.874 165.018 167.387 163.808 167.348 163.736C166.904 162.907 165.612 161.644 164.675 161.972C164.001 162.208 163.688 163.076 163.906 163.796C164.128 164.533 164.851 164.975 165.462 165.162Z" fill="#263238"/>
<path d="M175.906 186.343C175.917 186.387 175.926 186.427 175.937 186.47L176.59 186.644C176.546 186.471 176.501 186.296 176.454 186.117C176.32 185.607 176.169 185.066 176.009 184.513C176.116 184.44 176.726 184.021 177.258 183.549C177.8 184.075 179.117 184.562 179.288 184.624C179.158 185.145 179.028 185.651 178.899 186.127C178.811 186.455 178.723 186.769 178.638 187.071L179.273 186.951C179.329 186.735 179.386 186.515 179.443 186.286C179.576 185.757 179.71 185.189 179.843 184.605C180.026 184.615 181.53 184.686 182.201 184.376C182.81 184.095 183.53 183.542 183.748 182.772C183.962 182.019 183.644 181.199 182.968 181.066C182.03 180.882 180.747 182.343 180.307 183.24C180.281 183.293 180.052 183.9 179.913 184.285C179.966 184.046 180.02 183.815 180.072 183.568C180.178 183.081 180.272 182.592 180.374 182.067C180.416 181.812 180.458 181.554 180.501 181.293C180.548 181.036 180.57 180.758 180.606 180.489C180.678 179.862 180.726 179.224 180.761 178.582C181.12 178.663 182.398 178.931 183.033 178.758C183.666 178.586 184.442 178.163 184.755 177.434C185.061 176.72 184.856 175.845 184.212 175.593C183.317 175.242 181.871 176.471 181.325 177.288C181.291 177.338 180.952 177.972 180.772 178.324C180.791 177.938 180.811 177.552 180.819 177.162C180.843 176.034 180.838 174.894 180.837 173.756C180.836 173.407 180.839 173.06 180.841 172.712C180.968 172.742 182.479 173.1 183.191 172.907C183.824 172.735 184.6 172.312 184.913 171.582C185.219 170.869 185.014 169.994 184.37 169.741C183.475 169.39 182.029 170.62 181.483 171.436C181.442 171.498 180.956 172.41 180.841 172.649C180.846 171.882 180.856 171.119 180.893 170.364C180.941 169.324 181.039 168.302 181.195 167.316C181.254 167.33 182.829 167.712 183.558 167.514C184.191 167.341 184.967 166.918 185.28 166.19C185.586 165.476 185.381 164.601 184.737 164.348C183.842 163.997 182.396 165.227 181.85 166.043C181.807 166.107 181.285 167.09 181.2 167.274C181.21 167.216 181.214 167.154 181.224 167.096C181.402 166.045 181.685 165.044 181.989 164.121C182.165 163.583 182.358 163.08 182.555 162.594C182.84 162.7 184.149 163.172 184.818 163.077C185.458 162.987 186.264 162.664 186.641 161.974C187.011 161.3 186.89 160.398 186.278 160.062C185.428 159.595 183.886 160.639 183.27 161.385C183.236 161.426 182.932 161.88 182.715 162.214C182.806 161.996 182.897 161.77 182.989 161.563C183.33 160.785 183.682 160.094 183.997 159.485C184.179 159.141 184.349 158.833 184.511 158.546C184.846 158.476 186.197 158.173 186.762 157.738C187.314 157.313 187.925 156.598 187.999 155.802C188.072 155.022 187.607 154.313 186.914 154.356C185.952 154.416 184.949 156.148 184.679 157.123C184.655 157.207 184.416 158.566 184.434 158.562C184.434 158.562 184.45 158.559 184.454 158.558C184.294 158.83 184.125 159.124 183.946 159.449C183.618 160.052 183.253 160.736 182.897 161.51C182.539 162.281 182.168 163.13 181.845 164.061C181.519 164.993 181.217 165.991 181.015 167.058C181.013 167.07 181.012 167.082 181.01 167.095C180.987 166.767 180.897 165.855 180.884 165.787C180.69 164.82 179.824 163.121 178.865 163.096C178.174 163.078 177.652 163.805 177.663 164.583C177.674 165.378 178.229 166.071 178.748 166.477C179.332 166.935 180.869 167.195 180.992 167.216C180.808 168.233 180.689 169.29 180.619 170.363C180.578 170.977 180.553 171.595 180.535 172.216C180.507 171.933 180.481 171.682 180.473 171.648C180.28 170.681 179.414 168.982 178.455 168.956C177.764 168.938 177.242 169.665 177.253 170.443C177.264 171.238 177.819 171.932 178.338 172.337C178.864 172.749 180.168 173.002 180.515 173.064C180.51 173.301 180.503 173.539 180.499 173.777C180.479 174.917 180.463 176.056 180.418 177.173C180.403 177.567 180.375 177.955 180.349 178.344C180.324 178.094 180.301 177.883 180.295 177.851C180.102 176.884 179.235 175.186 178.277 175.16C177.586 175.142 177.064 175.869 177.075 176.647C177.086 177.442 177.641 178.136 178.16 178.541C178.662 178.934 179.864 179.181 180.275 179.257C180.238 179.654 180.201 180.052 180.15 180.437C180.11 180.699 180.086 180.953 180.034 181.214C179.986 181.474 179.939 181.731 179.893 181.986C179.787 182.473 179.682 182.977 179.57 183.45C179.494 183.78 179.416 184.092 179.339 184.408C179.358 184.016 179.382 183.248 179.378 183.184C179.335 182.52 179.042 181.483 178.577 180.802C178.571 180.704 178.558 180.607 178.536 180.513C178.367 179.772 177.705 179.322 177.056 179.655C176.155 180.116 175.728 182.118 175.769 183.12C175.771 183.18 175.858 183.814 175.919 184.212C175.852 183.986 175.79 183.767 175.72 183.535C175.582 183.077 175.433 182.626 175.275 182.138C175.191 181.907 175.106 181.673 175.021 181.437C174.94 181.2 174.829 180.964 174.733 180.725C174.501 180.177 174.242 179.636 173.97 179.099C174.32 178.932 175.556 178.317 176.026 177.766C176.494 177.218 176.969 176.376 176.897 175.59C176.827 174.82 176.238 174.253 175.559 174.469C174.617 174.769 173.941 176.69 173.851 177.698C173.845 177.761 173.849 178.487 173.858 178.886C173.693 178.565 173.529 178.243 173.352 177.925C172.842 177.007 172.301 176.099 171.764 175.19C171.599 174.911 171.438 174.631 171.276 174.352C171.401 174.294 172.881 173.599 173.408 172.982C173.877 172.435 174.351 171.592 174.279 170.806C174.209 170.037 173.619 169.47 172.941 169.686C171.999 169.986 171.323 171.907 171.233 172.915C171.226 172.991 171.233 174.036 171.246 174.301C170.889 173.685 170.539 173.067 170.215 172.44C169.768 171.576 169.371 170.696 169.042 169.806C169.101 169.779 170.648 169.062 171.187 168.43C171.656 167.882 172.13 167.04 172.059 166.254C171.989 165.484 171.399 164.917 170.72 165.133C169.778 165.433 169.102 167.354 169.012 168.362C169.005 168.441 169.013 169.566 169.027 169.769C169.008 169.716 168.983 169.664 168.964 169.611C168.624 168.654 168.399 167.67 168.228 166.734C168.127 166.191 168.058 165.662 168 165.146C168.298 165.047 169.657 164.574 170.193 164.065C170.707 163.577 171.254 162.796 171.257 162C171.26 161.22 170.73 160.577 170.04 160.705C169.083 160.883 168.235 162.719 168.052 163.716C168.042 163.77 167.992 164.331 167.96 164.739C167.937 164.505 167.909 164.265 167.891 164.04C167.821 163.196 167.801 162.415 167.789 161.724C167.784 161.33 167.787 160.973 167.792 160.64C168.05 160.365 169.081 159.247 169.366 158.532C169.645 157.834 169.839 156.866 169.529 156.181C169.225 155.509 168.487 155.244 167.906 155.728C167.098 156.4 167.044 158.436 167.268 159.392C167.287 159.475 167.719 160.716 167.733 160.702C167.733 160.702 167.745 160.688 167.748 160.685C167.738 161.007 167.729 161.352 167.726 161.728C167.726 162.422 167.731 163.207 167.786 164.056C167.839 164.906 167.917 165.826 168.074 166.78C168.23 167.737 168.437 168.731 168.765 169.715C168.768 169.727 168.773 169.737 168.777 169.749C168.603 169.501 168.096 168.831 168.052 168.785C167.428 168.137 165.876 167.34 165.032 167.942C164.424 168.376 164.312 169.296 164.689 169.912C165.073 170.54 165.881 170.734 166.522 170.723C167.245 170.709 168.702 169.92 168.818 169.857C169.138 170.791 169.532 171.713 169.976 172.617C170.23 173.135 170.5 173.646 170.775 174.154C170.619 173.946 170.477 173.762 170.455 173.739C169.832 173.091 168.28 172.294 167.435 172.896C166.827 173.329 166.716 174.25 167.092 174.865C167.476 175.493 168.285 175.688 168.926 175.676C169.576 175.664 170.828 175.02 171.158 174.845C171.266 175.038 171.371 175.233 171.48 175.425C172 176.351 172.522 177.271 173.01 178.194C173.182 178.519 173.34 178.848 173.501 179.175C173.362 178.991 173.243 178.838 173.222 178.816C172.599 178.169 171.047 177.372 170.203 177.974C169.594 178.407 169.483 179.328 169.859 179.943C170.244 180.572 171.052 180.766 171.693 180.754C172.314 180.743 173.474 180.16 173.866 179.954C174.021 180.296 174.177 180.639 174.313 180.979C174.402 181.215 174.501 181.433 174.578 181.676C174.66 181.915 174.74 182.151 174.819 182.385C174.958 182.842 175.103 183.314 175.229 183.765C175.318 184.078 175.398 184.379 175.479 184.681C175.312 184.355 174.971 183.725 174.937 183.677C174.411 182.919 172.994 181.848 172.09 182.298C171.438 182.622 171.21 183.521 171.499 184.202C171.794 184.897 172.56 185.236 173.189 185.338C173.882 185.451 175.352 184.952 175.536 184.888C175.669 185.39 175.794 185.879 175.906 186.343Z" fill="#263238"/>
<path d="M182.499 162.392C182.515 162.4 182.694 161.033 182.697 160.947C182.732 159.939 182.293 158.003 181.39 157.68C180.739 157.448 180.08 157.999 179.915 158.766C179.747 159.549 180.117 160.401 180.517 160.96C180.987 161.616 182.498 162.392 182.499 162.392Z" fill="#263238"/>
<path d="M11.6966 174.558C12.1061 174.684 13.0639 174.478 13.0646 174.478C13.0746 174.476 12.7962 173.785 12.7744 173.744C12.5204 173.271 11.7821 172.549 11.2475 172.737C10.8624 172.872 10.6836 173.367 10.808 173.779C10.9354 174.199 11.3478 174.451 11.6966 174.558Z" fill="#263238"/>
<path d="M17.662 186.655C17.6679 186.68 17.6734 186.703 17.6794 186.728L18.0526 186.827C18.0274 186.729 18.0015 186.628 17.9744 186.526C17.8982 186.235 17.8119 185.926 17.7205 185.609C17.7819 185.568 18.1299 185.329 18.4335 185.059C18.7434 185.359 19.4958 185.637 19.5931 185.672C19.5195 185.97 19.445 186.259 19.371 186.531C19.3206 186.718 19.2707 186.898 19.2222 187.07L19.585 187.002C19.6172 186.878 19.6494 186.752 19.682 186.622C19.7583 186.32 19.8345 185.995 19.9101 185.662C20.0152 185.667 20.8738 185.708 21.2574 185.531C21.605 185.37 22.0164 185.055 22.1408 184.615C22.2626 184.185 22.0812 183.717 21.695 183.641C21.1596 183.536 20.4262 184.371 20.1752 184.883C20.1603 184.913 20.0297 185.259 19.9504 185.48C19.9808 185.343 20.0115 185.211 20.0411 185.07C20.1018 184.792 20.1552 184.513 20.2133 184.213C20.2374 184.067 20.2614 183.92 20.2859 183.771C20.3125 183.624 20.3255 183.465 20.3458 183.311C20.3869 182.953 20.414 182.589 20.4343 182.222C20.6391 182.269 21.3688 182.422 21.732 182.323C22.0934 182.224 22.5366 181.983 22.7154 181.567C22.8905 181.159 22.7731 180.659 22.4051 180.515C21.8942 180.314 21.0685 181.017 20.7564 181.483C20.7368 181.512 20.5435 181.874 20.4406 182.075C20.4514 181.854 20.4632 181.634 20.4676 181.411C20.4813 180.767 20.478 180.116 20.4776 179.466C20.4773 179.267 20.4791 179.068 20.4802 178.87C20.5528 178.887 21.4158 179.091 21.8224 178.98C22.1837 178.882 22.6269 178.641 22.8057 178.224C22.9808 177.817 22.8635 177.317 22.4955 177.173C21.9845 176.972 21.1589 177.674 20.8468 178.141C20.8234 178.176 20.5458 178.697 20.4802 178.833C20.4828 178.396 20.4888 177.96 20.5095 177.528C20.5376 176.934 20.5928 176.35 20.682 175.787C20.7157 175.795 21.6154 176.013 22.0319 175.9C22.3933 175.802 22.8364 175.56 23.0153 175.143C23.1904 174.736 23.073 174.236 22.705 174.092C22.1941 173.891 21.3684 174.593 21.0563 175.06C21.0319 175.097 20.7335 175.658 20.6853 175.763C20.6909 175.729 20.6931 175.694 20.699 175.661C20.8005 175.061 20.9627 174.49 21.1363 173.962C21.2366 173.655 21.347 173.368 21.4592 173.09C21.6221 173.151 22.3699 173.42 22.7517 173.366C23.1175 173.315 23.5777 173.13 23.7931 172.736C24.0042 172.351 23.9353 171.836 23.5858 171.644C23.1001 171.377 22.2193 171.973 21.8675 172.4C21.8486 172.423 21.675 172.682 21.5506 172.873C21.6028 172.749 21.655 172.619 21.7072 172.501C21.902 172.057 22.103 171.662 22.2833 171.315C22.387 171.118 22.484 170.942 22.5765 170.778C22.7683 170.739 23.5399 170.565 23.8624 170.317C24.1771 170.074 24.5262 169.666 24.5688 169.211C24.6103 168.766 24.3448 168.36 23.949 168.385C23.3996 168.419 22.8268 169.409 22.6724 169.965C22.6591 170.013 22.5225 170.789 22.5325 170.787C22.5325 170.787 22.5417 170.785 22.544 170.785C22.4525 170.94 22.3562 171.108 22.2537 171.294C22.0667 171.638 21.8583 172.029 21.6546 172.471C21.4503 172.911 21.2385 173.396 21.0537 173.928C20.8679 174.461 20.695 175.03 20.5802 175.64C20.5787 175.646 20.5783 175.654 20.5769 175.661C20.5639 175.474 20.5124 174.953 20.5047 174.914C20.394 174.362 19.8993 173.392 19.3517 173.377C18.9574 173.367 18.659 173.782 18.6653 174.226C18.672 174.68 18.9889 175.076 19.2851 175.308C19.6191 175.569 20.4969 175.718 20.5665 175.73C20.4617 176.311 20.3936 176.915 20.3536 177.528C20.3303 177.878 20.3162 178.232 20.3055 178.586C20.2899 178.425 20.2748 178.281 20.2707 178.262C20.16 177.709 19.6653 176.739 19.1177 176.725C18.7231 176.714 18.425 177.129 18.4313 177.574C18.4376 178.028 18.7549 178.424 19.0507 178.656C19.351 178.891 20.0963 179.036 20.2944 179.071C20.2918 179.207 20.2873 179.342 20.2851 179.478C20.2736 180.13 20.2648 180.78 20.2392 181.418C20.2303 181.643 20.2148 181.865 20.1996 182.087C20.1855 181.944 20.1726 181.824 20.1689 181.806C20.0582 181.253 19.5635 180.283 19.0159 180.269C18.6213 180.258 18.3232 180.673 18.3295 181.118C18.3358 181.572 18.6531 181.968 18.9493 182.199C19.2359 182.424 19.9223 182.565 20.1574 182.608C20.1359 182.835 20.1152 183.062 20.0859 183.282C20.063 183.431 20.0496 183.576 20.0197 183.726C19.9926 183.874 19.9656 184.021 19.9393 184.166C19.8793 184.445 19.819 184.733 19.7549 185.003C19.7116 185.191 19.6672 185.37 19.6231 185.55C19.6342 185.326 19.6479 184.888 19.6457 184.851C19.6213 184.472 19.4539 183.88 19.1881 183.491C19.1848 183.435 19.1774 183.38 19.1651 183.326C19.0685 182.903 18.6901 182.646 18.3195 182.836C17.8049 183.099 17.5613 184.242 17.5846 184.815C17.5861 184.848 17.6357 185.211 17.6705 185.438C17.6323 185.309 17.5968 185.184 17.5564 185.052C17.478 184.79 17.3928 184.532 17.3025 184.254C17.2547 184.122 17.2062 183.988 17.1573 183.854C17.1114 183.719 17.0477 183.584 16.9929 183.447C16.86 183.134 16.7123 182.825 16.5572 182.518C16.7571 182.423 17.4624 182.071 17.7312 181.757C17.9985 181.444 18.2695 180.963 18.2288 180.514C18.1888 180.074 17.8519 179.751 17.4643 179.874C16.9263 180.045 16.5401 181.142 16.4887 181.718C16.4857 181.754 16.4879 182.169 16.4931 182.396C16.3987 182.213 16.305 182.029 16.204 181.848C15.9126 181.323 15.6034 180.804 15.2965 180.285C15.2025 180.126 15.1106 179.966 15.0181 179.807C15.0895 179.774 15.9348 179.377 16.2358 179.025C16.5031 178.712 16.7741 178.231 16.7334 177.782C16.6934 177.342 16.3565 177.019 15.9689 177.142C15.4309 177.313 15.0447 178.41 14.9933 178.986C14.9896 179.03 14.9936 179.626 15.001 179.778C14.7974 179.426 14.5971 179.073 14.4124 178.715C14.1569 178.222 13.9303 177.719 13.7422 177.21C13.7755 177.195 14.6589 176.785 14.9674 176.425C15.2347 176.111 15.5057 175.631 15.465 175.182C15.425 174.742 15.0881 174.418 14.7004 174.542C14.1624 174.713 13.7763 175.81 13.7248 176.386C13.7208 176.431 13.7256 177.073 13.7337 177.189C13.7226 177.159 13.7082 177.129 13.6974 177.099C13.5031 176.552 13.3746 175.991 13.2768 175.456C13.2194 175.145 13.1798 174.844 13.1469 174.548C13.3172 174.492 14.0928 174.222 14.399 173.931C14.6926 173.652 15.0051 173.206 15.007 172.751C15.0088 172.306 14.7063 171.939 14.3124 172.012C13.7652 172.114 13.2813 173.162 13.1765 173.731C13.1709 173.762 13.1421 174.083 13.1243 174.316C13.1113 174.182 13.0954 174.045 13.085 173.916C13.0451 173.434 13.0336 172.989 13.0266 172.593C13.024 172.369 13.0254 172.165 13.0288 171.974C13.1761 171.818 13.7648 171.179 13.9277 170.77C14.0869 170.372 14.1976 169.819 14.0206 169.428C13.847 169.045 13.4257 168.893 13.0936 169.169C12.6326 169.554 12.6011 170.717 12.7292 171.262C12.7404 171.309 12.9869 172.018 12.9947 172.01C12.9947 172.01 13.0017 172.003 13.0036 172.001C12.9973 172.184 12.9929 172.381 12.9914 172.596C12.991 172.993 12.994 173.441 13.0254 173.926C13.0558 174.411 13.1002 174.937 13.1898 175.482C13.2791 176.028 13.3972 176.596 13.5845 177.158C13.5867 177.164 13.5897 177.171 13.5919 177.177C13.4927 177.036 13.2028 176.653 13.1776 176.626C12.8214 176.257 11.9351 175.801 11.453 176.145C11.1057 176.393 11.0421 176.918 11.2572 177.27C11.4767 177.629 11.9384 177.74 12.3042 177.733C12.717 177.725 13.5493 177.275 13.6156 177.238C13.7981 177.772 14.0232 178.298 14.2772 178.815C14.422 179.11 14.576 179.402 14.7337 179.692C14.6441 179.574 14.5634 179.468 14.5508 179.455C14.1947 179.085 13.3083 178.63 12.8263 178.974C12.4786 179.221 12.4153 179.747 12.63 180.098C12.8492 180.457 13.3113 180.568 13.6774 180.562C14.0492 180.555 14.7641 180.187 14.9525 180.087C15.014 180.197 15.0744 180.309 15.1362 180.418C15.4331 180.947 15.7312 181.473 16.01 182C16.1081 182.186 16.1988 182.373 16.2902 182.561C16.2106 182.455 16.1429 182.368 16.1314 182.355C15.7752 181.986 14.8889 181.53 14.4068 181.874C14.0595 182.122 13.9958 182.647 14.211 182.999C14.4305 183.358 14.8922 183.469 15.2584 183.462C15.6131 183.456 16.2754 183.123 16.4994 183.005C16.5879 183.2 16.6768 183.396 16.7545 183.59C16.8052 183.725 16.8622 183.85 16.9063 183.988C16.9526 184.125 16.9985 184.259 17.0437 184.393C17.1229 184.655 17.2058 184.924 17.2773 185.181C17.3284 185.36 17.3739 185.532 17.4206 185.705C17.3247 185.518 17.1303 185.159 17.111 185.131C16.8104 184.698 16.0014 184.086 15.4846 184.343C15.1125 184.529 14.9825 185.041 15.1473 185.43C15.3157 185.828 15.7534 186.021 16.1125 186.079C16.5083 186.143 17.348 185.859 17.4528 185.822C17.5265 186.111 17.5979 186.39 17.662 186.655Z" fill="#263238"/>
<path d="M21.4273 172.976C21.4362 172.981 21.5388 172.2 21.5406 172.151C21.5602 171.575 21.3096 170.469 20.7938 170.285C20.4221 170.152 20.046 170.467 19.9519 170.905C19.8557 171.352 20.0671 171.839 20.2955 172.158C20.5636 172.533 21.4266 172.976 21.4273 172.976Z" fill="#263238"/>
<path d="M153.737 76.7282H113.466C111.267 76.7282 109.484 74.945 109.484 72.7455V64.5575C109.484 62.358 111.267 60.5748 113.466 60.5748H153.737C155.936 60.5748 157.719 62.358 157.719 64.5575V72.7455C157.719 74.9455 155.936 76.7282 153.737 76.7282Z" fill="url(#paint5_linear_402_59)" stroke="#263238" stroke-miterlimit="10" stroke-linecap="round" stroke-linejoin="round"/>
<path d="M147.397 63.5637C146.858 63.5637 125.193 63.5637 124.654 63.5637C123.962 63.5637 123.402 64.1241 123.402 64.8156C123.402 65.5071 123.962 66.0675 124.654 66.0675C125.057 66.0675 146.994 66.0675 147.397 66.0675C148.089 66.0675 148.649 65.5071 148.649 64.8156C148.649 64.1246 148.089 63.5637 147.397 63.5637Z" fill="#858585" stroke="#263238" stroke-miterlimit="10" stroke-linecap="round" stroke-linejoin="round"/>
<path d="M143.469 67.5923C142.93 67.5923 125.193 67.5923 124.654 67.5923C123.963 67.5923 123.402 68.1527 123.402 68.8442C123.402 69.5356 123.963 70.0961 124.654 70.0961C125.057 70.0961 143.066 70.0961 143.469 70.0961C144.16 70.0961 144.721 69.5356 144.721 68.8442C144.721 68.1527 144.16 67.5923 143.469 67.5923Z" fill="#999999" stroke="#263238" stroke-miterlimit="10" stroke-linecap="round" stroke-linejoin="round"/>
<path d="M174.377 95.1253H134.107C131.907 95.1253 130.124 93.3421 130.124 91.1426V82.9546C130.124 80.7551 131.907 78.9719 134.107 78.9719H174.377C176.577 78.9719 178.36 80.7551 178.36 82.9546V91.1426C178.36 93.3425 176.577 95.1253 174.377 95.1253Z" fill="url(#paint6_linear_402_59)" stroke="#263238" stroke-miterlimit="10" stroke-linecap="round" stroke-linejoin="round"/>
<path d="M168.038 81.9606C167.499 81.9606 145.833 81.9606 145.294 81.9606C144.603 81.9606 144.042 82.521 144.042 83.2125C144.042 83.9039 144.603 84.4643 145.294 84.4643C145.697 84.4643 167.634 84.4643 168.038 84.4643C168.729 84.4643 169.29 83.9039 169.29 83.2125C169.29 82.5214 168.729 81.9606 168.038 81.9606Z" fill="#858585" stroke="#263238" stroke-miterlimit="10" stroke-linecap="round" stroke-linejoin="round"/>
<path d="M164.109 85.9891C163.57 85.9891 145.834 85.9891 145.295 85.9891C144.603 85.9891 144.043 86.5496 144.043 87.241C144.043 87.9325 144.603 88.4929 145.295 88.4929C145.698 88.4929 163.706 88.4929 164.109 88.4929C164.801 88.4929 165.361 87.9325 165.361 87.241C165.361 86.5496 164.801 85.9891 164.109 85.9891Z" fill="#999999" stroke="#263238" stroke-miterlimit="10" stroke-linecap="round" stroke-linejoin="round"/>
<path d="M154.185 113.522H113.915C111.716 113.522 109.932 111.739 109.932 109.539V101.351C109.932 99.1518 111.716 97.3687 113.915 97.3687H154.185C156.385 97.3687 158.168 99.1518 158.168 101.351V109.539C158.168 111.739 156.385 113.522 154.185 113.522Z" fill="url(#paint7_linear_402_59)" stroke="#263238" stroke-miterlimit="10" stroke-linecap="round" stroke-linejoin="round"/>
<path d="M147.846 100.358C147.307 100.358 125.641 100.358 125.103 100.358C124.411 100.358 123.851 100.918 123.851 101.609C123.851 102.301 124.411 102.861 125.103 102.861C125.506 102.861 147.443 102.861 147.846 102.861C148.537 102.861 149.098 102.301 149.098 101.609C149.098 100.918 148.537 100.358 147.846 100.358Z" fill="#858585" stroke="#263238" stroke-miterlimit="10" stroke-linecap="round" stroke-linejoin="round"/>
<path d="M143.918 104.386C143.379 104.386 125.642 104.386 125.103 104.386C124.412 104.386 123.851 104.946 123.851 105.638C123.851 106.329 124.412 106.89 125.103 106.89C125.506 106.89 143.515 106.89 143.918 106.89C144.609 106.89 145.17 106.329 145.17 105.638C145.17 104.946 144.609 104.386 143.918 104.386Z" fill="#999999" stroke="#263238" stroke-miterlimit="10" stroke-linecap="round" stroke-linejoin="round"/>
<path d="M113.522 65.7159C113.522 64.6114 114.417 63.7159 115.522 63.7159H116.458C117.562 63.7159 118.458 64.6114 118.458 65.7159V66.6517C118.458 67.7563 117.562 68.6517 116.458 68.6517H115.522C114.417 68.6517 113.522 67.7563 113.522 66.6517V65.7159Z" fill="#263238"/>
<path d="M133.265 84.1128C133.265 83.0082 134.16 82.1128 135.265 82.1128H136.201C137.305 82.1128 138.201 83.0082 138.201 84.1128V85.0485C138.201 86.1531 137.305 87.0485 136.201 87.0485H135.265C134.16 87.0485 133.265 86.1531 133.265 85.0485V84.1128Z" fill="#263238"/>
<path d="M113.522 102.51C113.522 101.405 114.417 100.51 115.522 100.51H116.458C117.562 100.51 118.458 101.405 118.458 102.51V103.445C118.458 104.55 117.562 105.445 116.458 105.445H115.522C114.417 105.445 113.522 104.55 113.522 103.445V102.51Z" fill="#263238"/>
<path d="M113.971 66.1837C113.971 65.0791 114.885 64.1646 115.99 64.1646V64.1646C117.094 64.1646 118.009 65.0791 118.009 66.1837V66.1837C118.009 67.2883 117.094 68.2029 115.99 68.2029V68.2029C114.885 68.2029 113.971 67.2883 113.971 66.1837V66.1837Z" fill="white"/>
<path d="M133.714 84.5806C133.714 83.476 134.628 82.5614 135.733 82.5614V82.5614C136.837 82.5614 137.752 83.476 137.752 84.5806V84.5806C137.752 85.6851 136.837 86.5997 135.733 86.5997V86.5997C134.628 86.5997 133.714 85.6851 133.714 84.5806V84.5806Z" fill="white"/>
<path d="M113.971 102.978C113.971 101.873 114.885 100.958 115.99 100.958V100.958C117.094 100.958 118.009 101.873 118.009 102.978V102.978C118.009 104.082 117.094 104.997 115.99 104.997V104.997C114.885 104.997 113.971 104.082 113.971 102.978V102.978Z" fill="white"/>
<path d="M115.462 73.3036C119.326 72.6569 121.953 68.8879 121.329 64.8852C120.704 60.8826 117.065 58.1621 113.201 58.8088C109.336 59.4555 106.71 63.2245 107.334 67.2271C107.958 71.2298 111.597 73.9503 115.462 73.3036Z" stroke="#263238" stroke-width="2" stroke-miterlimit="10"/>
<path d="M118.296 72.5209L125.951 83.0922" stroke="#263238" stroke-width="3" stroke-miterlimit="10"/>
<path d="M105.896 60.5567C105.896 60.5567 106.372 62.0376 106.293 63.5191C106.213 65 106.372 67.1392 106.77 67.4686C107.167 67.798 108.279 68.6207 107.961 69.2789C107.644 69.9372 106.928 70.2665 106.928 70.2665C106.928 70.2665 106.531 72.4057 105.737 73.9692C104.943 75.5326 104.386 76.6022 103.433 76.6846C102.48 76.7671 101.924 76.5202 101.924 76.5202L100.891 77.5898L93.026 75.862L93.2644 72.2413C93.2644 72.2413 90.8809 68.0449 90.8809 63.766C90.8809 59.4871 95.0914 57.019 97.5544 56.8541C100.017 56.6896 104.625 57.7592 105.896 60.5567Z" fill="white" stroke="#263238" stroke-miterlimit="10"/>
<path d="M107.961 58.4999C107.961 58.4999 108.12 59.5695 107.325 60.8035C106.531 62.0375 104.386 62.4489 104.386 62.4489C104.386 62.4489 104.307 64.2592 103.83 64.9999C103.353 65.7407 102.241 66.3164 102.241 66.3164C102.241 66.3164 100.652 66.4809 101.129 68.2912C101.606 70.1015 102.003 70.3484 101.208 71.8294C100.414 73.3103 95.7269 75.2851 94.1378 74.1335C92.5487 72.9815 91.3572 72.4057 90.4041 68.95C89.4506 65.4943 88.4975 60.6396 91.1984 57.3483C93.8994 54.057 100.017 54.8797 100.017 54.8797C100.017 54.8797 98.4283 53.3163 100.652 53.3988C102.877 53.4813 104.386 55.1266 104.386 55.1266C104.386 55.1266 104.625 53.4812 105.816 53.8926C107.008 54.3034 107.802 57.5947 107.961 58.4999Z" fill="#263238" stroke="#263238" stroke-miterlimit="10"/>
<path d="M102.877 67.5511C102.877 67.5511 101.526 64.918 100.493 65.9052C99.4606 66.8928 100.493 72.1588 102.241 71.1712" fill="white"/>
<path d="M102.877 67.5511C102.877 67.5511 101.526 64.918 100.493 65.9052C99.4606 66.8928 100.493 72.1588 102.241 71.1712" stroke="#263238" stroke-miterlimit="10"/>
<path d="M102.241 66.3165H108.676" stroke="#263238" stroke-miterlimit="10"/>
<path d="M106.021 64.671C106.413 64.499 106.868 64.4518 107.34 64.576C108.051 64.7631 108.619 65.3715 108.782 66.1127C108.975 66.9968 108.63 67.817 108.019 68.2882" stroke="#263238" stroke-miterlimit="10"/>
<path d="M102.685 79.9934C102.685 79.9934 102.685 78.1545 100.355 76.7756C98.0244 75.3962 93.3639 73.5577 91.2558 73.7876C89.1471 74.0174 87.9265 77.1206 87.9265 77.1206C87.9265 77.1206 96.2488 77.9251 98.2463 78.3848C100.244 78.8439 102.685 79.9934 102.685 79.9934Z" fill="white" stroke="#263238" stroke-miterlimit="10"/>
<path d="M67.842 91.9462C67.842 91.9462 65.1789 95.164 61.6279 99.7612C58.0768 104.358 55.1918 109.071 55.1918 109.071C55.1918 109.071 51.8631 112.059 51.4188 113.323C50.9751 114.587 49.8652 118.265 49.4214 119.3C48.9776 120.334 50.9751 118.955 51.3076 118.15C51.6407 117.346 51.9733 116.771 51.9733 116.771L54.8582 115.391C54.8582 115.391 53.9707 117.69 54.8582 118.035C55.7458 118.38 55.857 116.771 56.8557 115.507C57.8544 114.242 58.7419 113.323 58.8531 111.829C58.9643 110.335 58.8531 108.725 58.8531 108.725L73.0565 99.186L67.842 91.9462Z" fill="white" stroke="#263238" stroke-miterlimit="10"/>
<path d="M51.9738 116.771L53.2881 114.724C53.2881 114.724 54.2071 114.47 55.0646 113.899C55.9225 113.328 56.3512 112.694 56.3512 112.694" stroke="#263238" stroke-miterlimit="10"/>
<path d="M116.068 87.438L119.664 79.6034C119.664 79.6034 120.284 76.5851 120.532 76.1356C120.78 75.686 122.268 73.2456 122.826 73.1817C123.384 73.1174 123.942 73.3743 124.004 73.8883C124.066 74.4022 123.818 74.7874 123.818 74.7874C123.818 74.7874 124.624 75.1726 125.244 76.0073C125.864 76.8421 125.864 77.4843 125.988 77.9982C126.112 78.5121 126.546 78.576 126.051 79.6677C125.554 80.7595 124.748 81.0803 124.314 81.4016C123.88 81.7229 122.826 82.2364 122.826 82.2364C122.826 82.2364 122.764 89.6215 121.896 92.511C121.028 95.401 120.408 96.3639 120.408 96.3639C120.408 96.3639 118.92 91.0979 118.052 90.0705C117.184 89.0432 116.068 87.438 116.068 87.438Z" fill="white" stroke="#263238" stroke-miterlimit="10"/>
<path d="M72.7244 108.841C72.7244 108.841 67.994 121.481 67.1822 124.424C66.3704 127.366 64.4517 133.348 63.637 140.943C63.1587 145.403 63.6782 150.225 63.6782 150.225C63.6782 150.225 62.0547 153.448 60.2956 158.353C58.5366 163.258 52.569 187.576 52.569 187.576C52.569 187.576 53.6513 189.257 56.0871 188.837C58.5225 188.416 58.5225 188.416 58.5225 188.416C58.5225 188.416 59.3343 188.557 60.2815 188.276C61.2288 187.996 63.3937 188.136 63.5287 187.155C63.6642 186.174 62.9873 185.894 62.1755 184.913C61.3638 183.932 60.1461 180.849 60.1461 180.849C60.1461 180.849 66.9113 168.568 69.3467 164.084C71.782 159.599 75.1792 151.206 75.3142 149.945C75.4497 148.683 82.2081 130.152 82.2081 130.152H83.6962L94.3777 148.668C94.3777 148.668 93.9718 156.096 95.1894 160.44C96.4071 164.784 99.2489 181.181 99.2489 181.181L98.9784 184.123C98.9784 184.123 99.5198 185.525 99.5198 185.945C99.5198 186.366 99.5198 187.487 99.5198 187.487C99.5198 187.487 99.9257 188.468 102.632 188.468C103.85 188.468 107.909 188.047 108.585 187.907C109.262 187.767 114.403 187.627 114.539 186.926C114.674 186.225 114.809 185.665 113.998 185.384C113.186 185.104 107.368 182.301 107.368 182.301V179.779C107.368 179.779 106.285 178.938 106.015 178.097C105.744 177.256 106.285 154.694 106.015 150.77C105.744 146.846 106.15 146.846 105.067 143.342C103.985 139.839 99.6888 115.277 99.6888 115.277L97.4981 111.373L74.4961 106.468L72.7244 108.841Z" fill="#263238" stroke="#263238" stroke-miterlimit="10"/>
<path d="M114.78 87.6939C114.78 87.6939 115.224 86.1998 117.11 86.8893C118.996 87.5787 121.882 93.2103 121.216 96.1989C120.55 99.1874 118.775 100.221 117.221 100.107C115.667 99.9915 113.781 98.0379 114.225 97.8081C114.669 97.5777 114.78 87.6939 114.78 87.6939Z" fill="white" stroke="#263238" stroke-miterlimit="10"/>
<path d="M73.7231 86.3147C73.7231 86.3147 72.9463 86.3147 71.8369 86.1995C70.7275 86.0849 69.1738 88.0385 68.2858 89.1876C67.3982 90.3366 66.2883 91.0266 67.0652 93.4398C67.842 95.8531 69.9501 98.9563 73.0575 99.1861C76.1648 99.4159 77.9399 97.6921 77.9399 97.6921L73.7231 86.3147Z" fill="white" stroke="#263238" stroke-miterlimit="10"/>
<path d="M87.9265 77.1201C87.9265 77.1201 86.151 76.8903 82.3785 79.0738C78.6055 81.2572 70.5051 88.0384 69.9502 89.1875C69.3952 90.3365 70.9489 95.5085 72.9463 96.4283C74.9437 97.348 76.7193 96.6581 76.7193 96.6581L72.7244 108.841C72.7244 108.841 77.1631 108.611 84.5978 109.99C92.0326 111.369 99.6892 115.276 99.6892 115.276C99.6892 115.276 100.244 115.161 100.355 113.667C100.466 112.173 100.91 111.254 101.242 110.564C101.575 109.874 105.792 95.0484 105.792 95.0484C105.792 95.0484 114.114 98.841 116.333 98.841C118.553 98.841 119.329 94.7034 118.441 91.6002C117.554 88.497 115.667 87.5778 115.667 87.5778C115.667 87.5778 113.115 86.7732 111.007 84.9342C108.899 83.0952 102.684 79.992 102.684 79.992C102.684 79.992 93.8077 76.0857 87.9265 77.1201Z" fill="url(#paint8_linear_402_59)" stroke="#263238" stroke-miterlimit="10"/>
<path d="M102.574 92.6356L105.792 95.0494L101.575 94.015" stroke="#263238" stroke-miterlimit="10"/>
<path d="M80.4699 84.5053L81.0467 82.6366" stroke="#263238" stroke-miterlimit="10"/>
<path d="M76.7193 96.658L79.914 86.307" stroke="#263238" stroke-miterlimit="10"/>
<defs>
<linearGradient id="paint0_linear_402_59" x1="99.943" y1="16.66" x2="98.8684" y2="189.452" gradientUnits="userSpaceOnUse">
<stop stop-color="#5FFBD6"/>
<stop offset="1" stop-color="#F663E4"/>
</linearGradient>
<linearGradient id="paint1_linear_402_59" x1="142.716" y1="8.07654" x2="142.716" y2="129.675" gradientUnits="userSpaceOnUse">
<stop stop-color="#5FFBD6"/>
<stop offset="1" stop-color="#B063F6"/>
</linearGradient>
<linearGradient id="paint2_linear_402_59" x1="86.9606" y1="19.3007" x2="86.9606" y2="228.718" gradientUnits="userSpaceOnUse">
<stop stop-color="#5FFBD6"/>
<stop offset="1" stop-color="#B063F6"/>
</linearGradient>
<linearGradient id="paint3_linear_402_59" x1="142.465" y1="44.9403" x2="142.465" y2="50.0726" gradientUnits="userSpaceOnUse">
<stop stop-color="#5FFBD6"/>
<stop offset="1" stop-color="#B063F6"/>
</linearGradient>
<linearGradient id="paint4_linear_402_59" x1="151.537" y1="44.0775" x2="151.537" y2="54.1931" gradientUnits="userSpaceOnUse">
<stop stop-color="#5FFBD6"/>
<stop offset="1" stop-color="#B063F6"/>
</linearGradient>
<linearGradient id="paint5_linear_402_59" x1="133.601" y1="60.5748" x2="133.601" y2="76.7282" gradientUnits="userSpaceOnUse">
<stop stop-color="#5FFBD6"/>
<stop offset="1" stop-color="#B063F6"/>
</linearGradient>
<linearGradient id="paint6_linear_402_59" x1="154.242" y1="78.9719" x2="154.242" y2="95.1253" gradientUnits="userSpaceOnUse">
<stop stop-color="#5FFBD6"/>
<stop offset="1" stop-color="#B063F6"/>
</linearGradient>
<linearGradient id="paint7_linear_402_59" x1="134.05" y1="97.3687" x2="134.05" y2="113.522" gradientUnits="userSpaceOnUse">
<stop stop-color="#5FFBD6"/>
<stop offset="1" stop-color="#B063F6"/>
</linearGradient>
<linearGradient id="paint8_linear_402_59" x1="94.3188" y1="76.9458" x2="94.3188" y2="115.276" gradientUnits="userSpaceOnUse">
<stop stop-color="#5FFBD6"/>
<stop offset="1" stop-color="#B063F6"/>
</linearGradient>
</defs>
</svg>
