<svg width="220" height="192" viewBox="0 0 220 192" fill="none" xmlns="http://www.w3.org/2000/svg">
<path d="M94.9438 178.118C96.9043 178.118 98.4936 177.526 98.4936 176.797C98.4936 176.068 96.9043 175.476 94.9438 175.476C92.9833 175.476 91.394 176.068 91.394 176.797C91.394 177.526 92.9833 178.118 94.9438 178.118Z" stroke="#263238" stroke-miterlimit="10"/>
<path d="M109.39 178.696C109.39 179.015 108.466 179.274 107.326 179.274C106.187 179.274 105.263 179.015 105.263 178.696C105.263 178.377 106.187 178.118 107.326 178.118C108.466 178.118 109.39 178.377 109.39 178.696Z" stroke="#263238" stroke-miterlimit="10"/>
<path d="M99.3193 181.502C99.3193 181.913 98.5804 182.245 97.6682 182.245C96.7565 182.245 96.0171 181.913 96.0171 181.502C96.0171 181.092 96.756 180.759 97.6682 180.759C98.5799 180.759 99.3193 181.092 99.3193 181.502Z" stroke="#263238" stroke-miterlimit="10"/>
<path d="M133.494 174.816C133.494 175.363 132.386 175.806 131.018 175.806C129.65 175.806 128.541 175.363 128.541 174.816C128.541 174.269 129.65 173.825 131.018 173.825C132.386 173.825 133.494 174.269 133.494 174.816Z" stroke="#263238" stroke-miterlimit="10"/>
<path d="M156.938 177.788C156.938 178.243 156.236 178.613 155.37 178.613C154.504 178.613 153.801 178.243 153.801 177.788C153.801 177.332 154.503 176.962 155.37 176.962C156.236 176.962 156.938 177.332 156.938 177.788Z" stroke="#263238" stroke-miterlimit="10"/>
<path d="M183.381 179.977C183.381 180.159 182.9 180.307 182.307 180.307C181.715 180.307 181.234 180.159 181.234 179.977C181.234 179.795 181.715 179.647 182.307 179.647C182.9 179.647 183.381 179.795 183.381 179.977Z" stroke="#263238" stroke-miterlimit="10"/>
<path d="M67.7024 183.896C68.5687 183.896 69.271 183.748 69.271 183.566C69.271 183.384 68.5687 183.236 67.7024 183.236C66.8361 183.236 66.1338 183.384 66.1338 183.566C66.1338 183.748 66.8361 183.896 67.7024 183.896Z" stroke="#263238" stroke-miterlimit="10"/>
<path d="M42.5253 179.934C44.5314 179.934 46.1576 179.49 46.1576 178.943C46.1576 178.396 44.5314 177.953 42.5253 177.953C40.5193 177.953 38.8931 178.396 38.8931 178.943C38.8931 179.49 40.5193 179.934 42.5253 179.934Z" stroke="#263238" stroke-miterlimit="10"/>
<path d="M36.5813 183.484C36.5813 183.62 36.1376 183.731 35.5907 183.731C35.0437 183.731 34.6001 183.62 34.6001 183.484C34.6001 183.347 35.0437 183.236 35.5907 183.236C36.1381 183.236 36.5813 183.347 36.5813 183.484Z" stroke="#263238" stroke-miterlimit="10"/>
<path d="M152.083 182.245C154.043 182.245 155.633 181.654 155.633 180.924C155.633 180.195 154.043 179.604 152.083 179.604C150.122 179.604 148.533 180.195 148.533 180.924C148.533 181.654 150.122 182.245 152.083 182.245Z" stroke="#263238" stroke-miterlimit="10"/>
<path d="M166.529 179.026C166.529 178.707 165.605 178.448 164.465 178.448C163.325 178.448 162.401 178.706 162.401 179.026C162.401 179.345 163.325 179.604 164.465 179.604C165.605 179.604 166.529 179.345 166.529 179.026Z" stroke="#263238" stroke-miterlimit="10"/>
<path d="M160.297 180.69C160.297 180.279 159.558 179.947 158.646 179.947C157.734 179.947 156.995 180.279 156.995 180.69C156.995 181.1 157.734 181.433 158.646 181.433C159.557 181.433 160.297 181.1 160.297 180.69Z" stroke="#263238" stroke-miterlimit="10"/>
<path d="M188.157 183.896C189.525 183.896 190.634 183.453 190.634 182.906C190.634 182.359 189.525 181.915 188.157 181.915C186.789 181.915 185.68 182.359 185.68 182.906C185.68 183.453 186.789 183.896 188.157 183.896Z" stroke="#263238" stroke-miterlimit="10"/>
<path d="M214.077 179.934C214.077 179.478 213.375 179.108 212.509 179.108C211.643 179.108 210.94 179.478 210.94 179.934C210.94 180.39 211.643 180.759 212.509 180.759C213.375 180.759 214.077 180.39 214.077 179.934Z" stroke="#263238" stroke-miterlimit="10"/>
<path d="M212.344 176.302C212.936 176.302 213.417 176.154 213.417 175.972C213.417 175.789 212.936 175.641 212.344 175.641C211.751 175.641 211.271 175.789 211.271 175.972C211.271 176.154 211.751 176.302 212.344 176.302Z" stroke="#263238" stroke-miterlimit="10"/>
<path d="M126.41 174.155C126.41 173.973 125.708 173.825 124.842 173.825C123.975 173.825 123.273 173.973 123.273 174.155C123.273 174.338 123.975 174.485 124.842 174.485C125.708 174.486 126.41 174.338 126.41 174.155Z" stroke="#263238" stroke-miterlimit="10"/>
<path d="M99.6635 179.769C101.67 179.769 103.296 179.325 103.296 178.778C103.296 178.231 101.67 177.788 99.6635 177.788C97.6575 177.788 96.0312 178.231 96.0312 178.778C96.0312 179.325 97.6575 179.769 99.6635 179.769Z" stroke="#263238" stroke-miterlimit="10"/>
<path d="M93.7204 174.238C93.7204 174.101 93.2768 173.99 92.7298 173.99C92.1829 173.99 91.7393 174.101 91.7393 174.238C91.7393 174.375 92.1829 174.485 92.7298 174.485C93.2768 174.486 93.7204 174.375 93.7204 174.238Z" stroke="#263238" stroke-miterlimit="10"/>
<path d="M21.6499 170.114H216.547" stroke="#263238" stroke-miterlimit="10"/>
<path opacity="0.7" d="M47.6486 169.938C37.6124 144.174 24.4856 89.0882 36.9478 63.5298C50.2944 36.157 94.1472 21.4433 122.238 36.3294C147.883 49.9198 125.67 92.7882 142.904 105.22C160.431 117.863 169.098 86.127 184.149 109.97C196.653 129.778 184.538 158.729 178.944 169.938H47.6486Z" fill="url(#paint0_linear_16_616)" fill-opacity="0.5"/>
<path d="M160.344 75.6831V64.3157C153.522 64.3157 147.848 69.213 146.636 75.6831H143.471V161.799H162.127V75.6831H160.344Z" fill="url(#paint1_linear_16_616)"/>
<mask id="mask0_16_616" style="mask-type:luminance" maskUnits="userSpaceOnUse" x="143" y="64" width="20" height="98">
<path d="M160.344 75.6831V64.3157C153.522 64.3157 147.848 69.213 146.636 75.6831H143.471V161.799H162.127V75.6831H160.344Z" fill="white"/>
</mask>
<g mask="url(#mask0_16_616)">
<path opacity="0.3" d="M160.344 75.6831V64.3157C153.522 64.3157 147.848 69.213 146.636 75.6831H143.471V161.799H162.127V75.6831H160.344Z" fill="white"/>
</g>
<path d="M160.344 75.6831V64.3157C153.522 64.3157 147.848 69.213 146.636 75.6831H143.471V161.799H162.127V75.6831H160.344Z" stroke="#263238" stroke-width="0.5" stroke-miterlimit="10" stroke-linecap="round" stroke-linejoin="round"/>
<path d="M148.04 80.1904H145.057V83.174H148.04V80.1904Z" fill="#FAFAFA"/>
<path d="M148.04 84.6896H145.057V87.6732H148.04V84.6896Z" fill="#FAFAFA"/>
<path d="M156.373 84.6896H153.39V87.6732H156.373V84.6896Z" fill="#FAFAFA"/>
<path d="M160.54 84.6896H157.557V87.6732H160.54V84.6896Z" fill="#FAFAFA"/>
<path d="M152.207 89.1886H149.224V92.1722H152.207V89.1886Z" fill="#FAFAFA"/>
<path d="M160.54 89.1886H157.557V92.1722H160.54V89.1886Z" fill="#FAFAFA"/>
<path d="M148.04 93.6881H145.057V96.6717H148.04V93.6881Z" fill="#FAFAFA"/>
<path d="M156.373 93.6881H153.39V96.6717H156.373V93.6881Z" fill="#FAFAFA"/>
<path d="M156.373 98.1871H153.39V101.171H156.373V98.1871Z" fill="#FAFAFA"/>
<path d="M160.54 98.1871H157.557V101.171H160.54V98.1871Z" fill="#FAFAFA"/>
<path d="M152.207 102.686H149.224V105.669H152.207V102.686Z" fill="#FAFAFA"/>
<path d="M160.54 102.686H157.557V105.669H160.54V102.686Z" fill="#FAFAFA"/>
<path d="M152.207 107.185H149.224V110.169H152.207V107.185Z" fill="#FAFAFA"/>
<path d="M156.373 107.185H153.39V110.169H156.373V107.185Z" fill="#FAFAFA"/>
<path d="M156.373 111.684H153.39V114.668H156.373V111.684Z" fill="#FAFAFA"/>
<path d="M160.54 111.684H157.557V114.668H160.54V111.684Z" fill="#FAFAFA"/>
<path d="M152.233 120.67L149.25 120.627L149.207 123.61L152.19 123.653L152.233 120.67Z" fill="#FAFAFA"/>
<path d="M160.565 120.789L157.582 120.747L157.539 123.73L160.522 123.773L160.565 120.789Z" fill="#FAFAFA"/>
<path d="M160.54 125.182H157.557V128.166H160.54V125.182Z" fill="#FAFAFA"/>
<path d="M148.04 132.664H145.057V135.648H148.04V132.664Z" fill="#FAFAFA"/>
<path d="M156.373 132.664H153.39V135.648H156.373V132.664Z" fill="#FAFAFA"/>
<path d="M152.207 137.163H149.224V140.147H152.207V137.163Z" fill="#FAFAFA"/>
<path d="M160.54 137.163H157.557V140.147H160.54V137.163Z" fill="#FAFAFA"/>
<path d="M156.373 141.663H153.39V144.647H156.373V141.663Z" fill="#FAFAFA"/>
<path d="M156.373 146.162H153.39V149.146H156.373V146.162Z" fill="#FAFAFA"/>
<path d="M152.207 150.661H149.224V153.645H152.207V150.661Z" fill="#FAFAFA"/>
<path d="M160.54 150.661H157.557V153.645H160.54V150.661Z" fill="#FAFAFA"/>
<path d="M174.682 161.799H198.037V68.4301L174.682 77.9205V161.799Z" fill="url(#paint2_linear_16_616)"/>
<mask id="mask1_16_616" style="mask-type:luminance" maskUnits="userSpaceOnUse" x="174" y="68" width="25" height="94">
<path d="M174.682 161.799H198.037V68.4301L174.682 77.9205V161.799Z" fill="white"/>
</mask>
<g mask="url(#mask1_16_616)">
<path opacity="0.6" d="M174.682 161.799H198.037V68.4301L174.682 77.9205V161.799Z" fill="white"/>
</g>
<path d="M174.682 161.799H198.037V68.4301L174.682 77.9205V161.799Z" stroke="#263238" stroke-width="0.5" stroke-miterlimit="10" stroke-linecap="round" stroke-linejoin="round"/>
<path d="M187.057 80.2072H190.579V76.686H187.057V80.2072Z" fill="white"/>
<path d="M191.974 85.5172H195.496V81.996H191.974V85.5172Z" fill="white"/>
<path d="M187.057 90.8273H190.579V87.3061H187.057V90.8273Z" fill="white"/>
<path d="M182.14 90.8273H185.661V87.3061H182.14V90.8273Z" fill="white"/>
<path d="M191.974 101.447H195.496V97.9261H191.974V101.447Z" fill="white"/>
<path d="M182.14 101.447H185.661V97.9261H182.14V101.447Z" fill="white"/>
<path d="M187.057 106.757H190.579V103.236H187.057V106.757Z" fill="white"/>
<path d="M191.974 112.067H195.496V108.546H191.974V112.067Z" fill="white"/>
<path d="M182.14 112.067H185.661V108.546H182.14V112.067Z" fill="white"/>
<path d="M177.222 112.067H180.744V108.546H177.222V112.067Z" fill="white"/>
<path d="M187.057 117.377H190.579V113.856H187.057V117.377Z" fill="white"/>
<path d="M191.974 122.687H195.496V119.166H191.974V122.687Z" fill="white"/>
<path d="M177.222 122.687H180.744V119.166H177.222V122.687Z" fill="white"/>
<path d="M182.168 128.052L185.689 128.002L185.639 124.481L182.118 124.532L182.168 128.052Z" fill="white"/>
<path d="M187.057 133.181H190.579V129.66H187.057V133.181Z" fill="white"/>
<path d="M182.14 138.491H185.661V134.97H182.14V138.491Z" fill="white"/>
<path d="M177.222 138.491H180.744V134.97H177.222V138.491Z" fill="white"/>
<path d="M187.057 143.801H190.579V140.28H187.057V143.801Z" fill="white"/>
<path d="M191.974 149.111H195.496V145.59H191.974V149.111Z" fill="white"/>
<path d="M182.169 154.477L185.69 154.426L185.64 150.905L182.119 150.956L182.169 154.477Z" fill="white"/>
<path d="M177.252 128.123L180.772 128.073L180.722 124.552L177.201 124.602L177.252 128.123Z" fill="white"/>
<path d="M158.516 96.9769V93.2858H165.981V96.9769H178.369V161.799H156.71V96.9769H158.516Z" fill="url(#paint3_linear_16_616)"/>
<mask id="mask2_16_616" style="mask-type:luminance" maskUnits="userSpaceOnUse" x="156" y="93" width="23" height="69">
<path d="M158.516 96.9769V93.2858H165.981V96.9769H178.369V161.799H156.71V96.9769H158.516Z" fill="white"/>
</mask>
<g mask="url(#mask2_16_616)">
<path opacity="0.8" d="M158.516 96.9769V93.2858H165.981V96.9769H178.369V161.799H156.71V96.9769H158.516Z" fill="white"/>
</g>
<path d="M158.516 96.9769V93.2858H165.981V96.9769H178.369V161.799H156.71V96.9769H158.516Z" stroke="#263238" stroke-width="0.5" stroke-miterlimit="10" stroke-linecap="round" stroke-linejoin="round"/>
<path d="M163.706 104.843H166.905V101.644H163.706V104.843Z" fill="url(#paint4_linear_16_616)"/>
<path d="M168.173 109.667H171.372V106.468H168.173V109.667Z" fill="url(#paint5_linear_16_616)"/>
<path d="M159.239 109.667H162.438V106.468H159.239V109.667Z" fill="url(#paint6_linear_16_616)"/>
<path d="M172.641 114.491H175.84V111.292H172.641V114.491Z" fill="url(#paint7_linear_16_616)"/>
<path d="M163.706 114.491H166.905V111.292H163.706V114.491Z" fill="url(#paint8_linear_16_616)"/>
<path d="M159.239 114.491H162.438V111.292H159.239V114.491Z" fill="url(#paint9_linear_16_616)"/>
<path d="M172.641 124.139H175.84V120.94H172.641V124.139Z" fill="url(#paint10_linear_16_616)"/>
<path d="M163.706 124.139H166.905V120.94H163.706V124.139Z" fill="url(#paint11_linear_16_616)"/>
<path d="M168.173 128.962H171.372V125.763H168.173V128.962Z" fill="url(#paint12_linear_16_616)"/>
<path d="M159.239 128.962H162.438V125.763H159.239V128.962Z" fill="url(#paint13_linear_16_616)"/>
<path d="M159.239 133.786H162.438V130.587H159.239V133.786Z" fill="url(#paint14_linear_16_616)"/>
<path d="M172.641 138.61H175.84V135.411H172.641V138.61Z" fill="url(#paint15_linear_16_616)"/>
<path d="M168.173 138.61H171.372V135.411H168.173V138.61Z" fill="url(#paint16_linear_16_616)"/>
<path d="M163.733 143.484L166.931 143.439L166.885 140.24L163.687 140.286L163.733 143.484Z" fill="url(#paint17_linear_16_616)"/>
<path d="M172.641 148.258H175.84V145.059H172.641V148.258Z" fill="url(#paint18_linear_16_616)"/>
<path d="M135.206 108.542V106.772H130.723L121.474 101.875V106.772H120.41V108.542H119.279V161.799H136.337V108.542H135.206Z" fill="url(#paint19_linear_16_616)"/>
<mask id="mask3_16_616" style="mask-type:luminance" maskUnits="userSpaceOnUse" x="119" y="101" width="18" height="61">
<path d="M135.206 108.542V106.772H130.723L121.474 101.875V106.772H120.41V108.542H119.279V161.799H136.337V108.542H135.206Z" fill="white"/>
</mask>
<g mask="url(#mask3_16_616)">
<path opacity="0.4" d="M135.206 108.542V106.772H130.723L121.474 101.875V106.772H120.41V108.542H119.279V161.799H136.337V108.542H135.206Z" fill="white"/>
</g>
<path d="M135.206 108.542V106.772H130.723L121.474 101.875V106.772H120.41V108.542H119.279V161.799H136.337V108.542H135.206Z" stroke="#263238" stroke-width="0.5" stroke-miterlimit="10" stroke-linecap="round" stroke-linejoin="round"/>
<path d="M127.242 110.881H124.392V113.732H127.242V110.881Z" fill="#FAFAFA"/>
<path d="M127.242 115.181H124.392V118.032H127.242V115.181Z" fill="#FAFAFA"/>
<path d="M123.261 119.48H120.41V122.331H123.261V119.48Z" fill="#FAFAFA"/>
<path d="M131.224 119.48H128.373V122.331H131.224V119.48Z" fill="#FAFAFA"/>
<path d="M135.205 119.48H132.354V122.331H135.205V119.48Z" fill="#FAFAFA"/>
<path d="M131.224 123.78H128.373V126.631H131.224V123.78Z" fill="#FAFAFA"/>
<path d="M127.242 128.08H124.392V130.93H127.242V128.08Z" fill="#FAFAFA"/>
<path d="M135.205 128.08H132.354V130.93H135.205V128.08Z" fill="#FAFAFA"/>
<path d="M123.261 132.379H120.41V135.23H123.261V132.379Z" fill="#FAFAFA"/>
<path d="M127.242 132.379H124.392V135.23H127.242V132.379Z" fill="#FAFAFA"/>
<path d="M131.224 132.379H128.373V135.23H131.224V132.379Z" fill="#FAFAFA"/>
<path d="M135.205 136.679H132.354V139.53H135.205V136.679Z" fill="#FAFAFA"/>
<path d="M123.261 140.978H120.41V143.829H123.261V140.978Z" fill="#FAFAFA"/>
<path d="M135.205 145.278H132.354V148.129H135.205V145.278Z" fill="#FAFAFA"/>
<path d="M123.286 149.51L120.435 149.469L120.394 152.32L123.245 152.361L123.286 149.51Z" fill="#FAFAFA"/>
<path d="M135.205 153.877H132.354V156.728H135.205V153.877Z" fill="#FAFAFA"/>
<path d="M208.651 164.649H202.018L203.228 21.2316H207.407L208.651 164.649Z" fill="#263238" stroke="#263238" stroke-miterlimit="10" stroke-linecap="round" stroke-linejoin="round"/>
<path d="M209.975 20.498H200.279L199.067 6.25684H211.187L209.975 20.498Z" fill="#263238" stroke="#263238" stroke-miterlimit="10" stroke-linecap="round" stroke-linejoin="round"/>
<path d="M208.891 20.498H201.362L200.421 6.25684H209.832L208.891 20.498Z" fill="white" stroke="#263238" stroke-miterlimit="10" stroke-linecap="round" stroke-linejoin="round"/>
<path d="M212.207 4.94397H198.117V7.31892H212.207V4.94397Z" fill="#263238" stroke="#263238" stroke-miterlimit="10" stroke-linecap="round" stroke-linejoin="round"/>
<path d="M211.099 18.9535H199.225V21.8844H211.099V18.9535Z" fill="#263238" stroke="#263238" stroke-miterlimit="10" stroke-linecap="round" stroke-linejoin="round"/>
<path d="M210.149 3.36108H200.016V4.94439H210.149V3.36108Z" fill="#263238" stroke="#263238" stroke-miterlimit="10" stroke-linecap="round" stroke-linejoin="round"/>
<path d="M205.73 1H203.988V3.37495H205.73V1Z" fill="#263238" stroke="#263238" stroke-miterlimit="10" stroke-linecap="round" stroke-linejoin="round"/>
<path d="M211.305 154.586H199.631V168.757H211.305V154.586Z" fill="#263238" stroke="#263238" stroke-miterlimit="10" stroke-linecap="round" stroke-linejoin="round"/>
<path d="M33.9988 63.0902C15.2165 63.1211 0 77.7304 0 95.7489C0 95.8393 0.000247672 95.9295 0.00123354 96.0193C0.0847863 105.821 8.15391 113.696 17.8537 113.451C19.3603 113.414 20.9671 113.492 22.5738 113.754C25.7885 114.277 28.2771 116.182 29.9641 118.384C30.8963 119.601 32.297 120.369 33.8199 120.374C33.8795 120.374 33.9392 120.375 33.9991 120.375C34.0589 120.375 34.1186 120.374 34.1782 120.374C35.7012 120.369 37.1019 119.6 38.034 118.384C39.7211 116.182 42.2097 114.277 45.4243 113.754C47.0313 113.492 48.638 113.414 50.1447 113.451C59.8445 113.696 67.9136 105.821 67.9969 96.0193C67.9976 95.9295 67.9981 95.8396 67.9981 95.7489C67.9976 77.7304 52.7812 63.1211 33.9988 63.0902Z" fill="url(#paint20_linear_16_616)"/>
<path opacity="0.51" d="M33.9988 63.0902C15.2165 63.1211 0 77.7304 0 95.7489C0 95.8393 0.000247672 95.9295 0.00123354 96.0193C0.0847863 105.821 8.15391 113.696 17.8537 113.451C19.3603 113.414 20.9671 113.492 22.5738 113.754C25.7885 114.277 28.2771 116.182 29.9641 118.384C30.8963 119.601 32.297 120.369 33.8199 120.374C33.8795 120.374 33.9392 120.375 33.9991 120.375C34.059 120.375 34.1186 120.374 34.1782 120.374C35.7012 120.369 37.1019 119.6 38.034 118.384C39.7211 116.182 42.2097 114.277 45.4243 113.754C47.0313 113.492 48.638 113.414 50.1447 113.451C59.8445 113.696 67.9136 105.821 67.9969 96.0193C67.9976 95.9295 67.9981 95.8396 67.9981 95.7489C67.9976 77.7304 52.7812 63.1211 33.9988 63.0902Z" fill="white"/>
<path d="M28.1112 91.7838C28.1112 91.7838 27.4389 89.8431 25.9983 89.1639C24.5577 88.4846 23.5972 88.2906 23.5972 88.2906C23.5972 88.2906 24.3654 92.2688 28.1112 91.7838Z" fill="white"/>
<path d="M29.851 86.6257C29.851 86.6257 29.7403 84.5728 28.544 83.5153C27.3476 82.4576 26.4786 82.001 26.4786 82.001C26.4786 82.001 26.1197 86.0379 29.851 86.6257Z" fill="white"/>
<path d="M45.8591 102.346C45.8591 102.346 44.5701 100.754 42.9865 100.614C41.4027 100.474 40.4346 100.624 40.4346 100.624C40.4346 100.624 42.5037 104.096 45.8591 102.346Z" fill="white"/>
<path d="M52.6672 106.157C52.6672 106.157 51.3784 104.566 49.7946 104.426C48.2108 104.285 47.2427 104.435 47.2427 104.435C47.2427 104.435 49.3118 107.908 52.6672 106.157Z" fill="white"/>
<path d="M20.707 101.86C20.707 101.86 21.9958 100.268 23.5796 100.128C25.1634 99.9878 26.1316 100.137 26.1316 100.137C26.1316 100.137 24.0625 103.61 20.707 101.86Z" fill="white"/>
<path d="M11.209 104.76C11.209 104.76 12.498 103.169 14.0816 103.029C15.6654 102.889 16.6335 103.038 16.6335 103.038C16.6335 103.038 14.5647 106.511 11.209 104.76Z" fill="white"/>
<path d="M24.1845 84.8793C24.1845 84.8793 24.0738 82.8264 22.8775 81.7686C21.6811 80.7109 20.8121 80.2543 20.8121 80.2543C20.8121 80.2543 20.4532 84.2914 24.1845 84.8793Z" fill="white"/>
<path d="M18.6332 78.0277C18.6332 78.0277 18.5226 75.9748 17.3262 74.9171C16.1299 73.8594 15.2608 73.4027 15.2608 73.4027C15.2608 73.4027 14.9019 77.4396 18.6332 78.0277Z" fill="white"/>
<path d="M43.0093 86.0436C43.0093 86.0436 43.12 83.9907 44.3163 82.9329C45.5127 81.8752 46.3817 81.4186 46.3817 81.4186C46.3817 81.4186 46.7406 85.4557 43.0093 86.0436Z" fill="white"/>
<path d="M49.8564 82.2501C49.8564 82.2501 49.9674 80.1972 51.1637 79.1395C52.3601 78.0818 53.2291 77.6251 53.2291 77.6251C53.2291 77.6251 53.5877 81.6623 49.8564 82.2501Z" fill="white"/>
<path d="M33.6376 83.4027C33.6376 83.4027 34.8111 81.723 34.522 80.1437C34.2329 78.5643 33.8316 77.6617 33.8316 77.6617C33.8316 77.6617 31.0717 80.6036 33.6376 83.4027Z" fill="white"/>
<path d="M34.9446 91.1316C34.9446 91.1316 35.1351 89.0847 34.1064 87.8601C33.0776 86.6356 32.2852 86.0542 32.2852 86.0542C32.2852 86.0542 31.34 89.9935 34.9446 91.1316Z" fill="white"/>
<path d="M30.11 81.7807C30.11 81.7807 30.7176 79.8187 29.9634 78.4047C29.2092 76.9909 28.5536 76.2556 28.5536 76.2556C28.5536 76.2556 26.8187 79.9103 30.11 81.7807Z" fill="white"/>
<path d="M30.11 73.9707C30.11 73.9707 30.7176 72.0086 29.9634 70.5946C29.2092 69.1806 28.5536 68.4456 28.5536 68.4456C28.5536 68.4456 26.8187 72.1005 30.11 73.9707Z" fill="white"/>
<path d="M31.6472 97.0144C31.6472 97.0144 32.2549 95.0521 31.5005 93.6383C30.7463 92.2245 30.0907 91.4893 30.0907 91.4893C30.0907 91.4893 28.3558 95.144 31.6472 97.0144Z" fill="white"/>
<path d="M36.1995 94.71C36.1995 94.71 37.9186 93.6094 38.2474 92.038C38.5765 90.4667 38.5464 89.4777 38.5464 89.4777C38.5464 89.4777 34.8846 91.1335 36.1995 94.71Z" fill="white"/>
<path d="M36.4037 81.7807C36.4037 81.7807 35.7962 79.8187 36.5501 78.4047C37.3043 76.9909 37.9602 76.2556 37.9602 76.2556C37.9602 76.2556 39.6953 79.9103 36.4037 81.7807Z" fill="white"/>
<path d="M42.8023 75.169C42.8023 75.169 42.1945 73.207 42.9487 71.793C43.7029 70.3792 44.3585 69.6439 44.3585 69.6439C44.3585 69.6439 46.0936 73.2986 42.8023 75.169Z" fill="white"/>
<path d="M38.8005 86.7138C38.8005 86.7138 40.5152 85.6065 40.8383 84.0339C41.1614 82.4613 41.1274 81.4723 41.1274 81.4723C41.1274 81.4723 37.472 83.1428 38.8005 86.7138Z" fill="white"/>
<path d="M43.4256 92.0875C43.4256 92.0875 45.3956 91.5716 46.185 90.1775C46.9745 88.7834 47.2456 87.8325 47.2456 87.8325C47.2456 87.8325 43.2575 88.2762 43.4256 92.0875Z" fill="white"/>
<path d="M43.8677 96.8872C43.8677 96.8872 45.7157 97.7482 47.2007 97.1743C48.6856 96.6006 49.4913 96.0381 49.4913 96.0381C49.4913 96.0381 46.1268 93.8301 43.8677 96.8872Z" fill="white"/>
<path d="M46.4609 92.5211C46.4609 92.5211 48.309 93.3821 49.7939 92.8084C51.2787 92.2345 52.0846 91.672 52.0846 91.672C52.0846 91.672 48.7201 89.464 46.4609 92.5211Z" fill="white"/>
<path d="M54.6357 92.9276C54.6357 92.9276 56.4838 93.7886 57.9687 93.2149C59.4537 92.641 60.2594 92.0785 60.2594 92.0785C60.2594 92.0785 56.8949 89.8707 54.6357 92.9276Z" fill="white"/>
<path d="M20.5889 95.31C20.5889 95.31 21.8303 96.9392 23.4095 97.1269C24.9883 97.3147 25.9606 97.1942 25.9606 97.1942C25.9606 97.1942 23.9943 93.6615 20.5889 95.31Z" fill="white"/>
<path d="M16.5552 89.6825C16.5552 89.6825 17.7966 91.3117 19.3755 91.4994C20.9544 91.6872 21.9267 91.5667 21.9267 91.5667C21.9267 91.5667 19.9606 88.0335 16.5552 89.6825Z" fill="white"/>
<path d="M7.05713 88.5668C7.05713 88.5668 8.29859 90.196 9.87746 90.3837C11.4563 90.5715 12.4287 90.451 12.4287 90.451C12.4287 90.451 10.4626 86.918 7.05713 88.5668Z" fill="white"/>
<path d="M32.3452 115.361L33.3052 116.569L32.3474 171.858H36.2655L35.0177 108.923L36.252 107.37L45.7593 103.227L38.2385 104.869L47.2132 93.5732L34.957 105.115L34.8816 105.915L34.334 93.7829L33.4686 112.945L21.3838 101.564L30.3587 112.861L22.8377 111.218L32.3452 115.361Z" fill="#999999" stroke="#999999" stroke-miterlimit="10" stroke-linecap="round" stroke-linejoin="round"/>
<path d="M65.0747 143.332C65.6998 143.332 66.2659 142.876 66.4173 142.196C66.7396 140.747 66.5925 139.533 65.9811 138.589C65.1886 137.365 63.9381 137.166 63.7982 137.147C63.7415 137.14 63.6844 137.136 63.6272 137.136H40.8737C40.111 137.136 39.4927 137.798 39.4927 138.614C39.4927 139.431 40.1114 140.093 40.8737 140.093H63.4708C63.5399 140.119 63.6533 140.177 63.7198 140.288C63.7816 140.392 63.9065 140.719 63.73 141.511C63.5535 142.305 63.4857 143.103 64.2276 143.292C64.335 143.32 64.9686 143.332 65.0747 143.332Z" fill="white" stroke="#263238" stroke-miterlimit="10" stroke-linecap="round" stroke-linejoin="round"/>
<path d="M64.1543 143.332C64.7793 143.332 65.3455 142.876 65.4969 142.196C65.8192 140.747 65.6721 139.533 65.0607 138.589C64.2681 137.365 63.0176 137.166 62.8778 137.147C62.8211 137.14 62.764 137.136 62.7068 137.136H39.9533C39.1906 137.136 38.5723 137.798 38.5723 138.614C38.5723 139.431 39.191 140.093 39.9533 140.093H62.5504C62.6194 140.119 62.7328 140.177 62.7994 140.288C62.8612 140.392 62.9861 140.719 62.8096 141.511C62.6331 142.305 63.0914 143.103 63.8333 143.292C63.9407 143.32 64.0481 143.332 64.1543 143.332Z" fill="#263238"/>
<path d="M54.0127 150.621L52.364 139.178" stroke="#263238" stroke-width="4" stroke-miterlimit="10" stroke-linecap="round" stroke-linejoin="round"/>
<path d="M23.1547 172.157H21.4058L24.8055 151.542L17.9575 125.186L19.5921 124.699L26.5003 151.286C26.5395 151.438 26.5416 151.598 26.5058 151.75L23.1547 172.157Z" fill="#263238" stroke="#263238" stroke-miterlimit="10" stroke-linecap="round" stroke-linejoin="round"/>
<path d="M46.9181 172.157L44.0471 152.437H25.6824V150.621H44.7258C45.1224 150.621 45.4664 150.915 45.5534 151.33L48.6572 172.157H46.9181Z" fill="#263238" stroke="#263238" stroke-miterlimit="10" stroke-linecap="round" stroke-linejoin="round"/>
<path d="M64.5745 172.157L61.7034 152.437H43.3387V150.621H62.3822C62.7787 150.621 63.1227 150.915 63.2101 151.33L66.314 172.157H64.5745Z" fill="#263238" stroke="#263238" stroke-miterlimit="10" stroke-linecap="round" stroke-linejoin="round"/>
<path d="M40.8104 172.157H39.0615L42.4608 151.542L35.6127 125.186L37.2474 124.699L44.1555 151.286C44.1948 151.438 44.1969 151.598 44.1611 151.75L40.8104 172.157Z" fill="#263238" stroke="#263238" stroke-miterlimit="10" stroke-linecap="round" stroke-linejoin="round"/>
<path d="M39.3506 127.029H16.0449L15.1138 123.547H38.4194L39.3506 127.029Z" fill="#263238" stroke="#263238" stroke-miterlimit="10" stroke-linecap="round" stroke-linejoin="round"/>
<path d="M40.7944 132.426H17.4892L16.5576 128.944H39.8633L40.7944 132.426Z" fill="#263238" stroke="#263238" stroke-miterlimit="10" stroke-linecap="round" stroke-linejoin="round"/>
<path d="M42.2378 137.824H18.9321L18.001 134.342H41.3062L42.2378 137.824Z" fill="#263238" stroke="#263238" stroke-miterlimit="10" stroke-linecap="round" stroke-linejoin="round"/>
<path d="M43.6807 143.221H20.375L19.4438 139.739H42.7495L43.6807 143.221Z" fill="#263238" stroke="#263238" stroke-miterlimit="10" stroke-linecap="round" stroke-linejoin="round"/>
<path d="M45.124 148.618H21.8188L20.8872 145.136H44.1929L45.124 148.618Z" fill="#263238" stroke="#263238" stroke-miterlimit="10" stroke-linecap="round" stroke-linejoin="round"/>
<path d="M40.4419 127.029H17.1362L16.2051 123.547H39.5107L40.4419 127.029Z" fill="white" stroke="#263238" stroke-miterlimit="10" stroke-linecap="round" stroke-linejoin="round"/>
<path d="M41.8853 132.426H18.5796L17.6484 128.944H40.9541L41.8853 132.426Z" fill="white" stroke="#263238" stroke-miterlimit="10" stroke-linecap="round" stroke-linejoin="round"/>
<path d="M43.3281 137.824H20.0229L19.0917 134.342H42.397L43.3281 137.824Z" fill="white" stroke="#263238" stroke-miterlimit="10" stroke-linecap="round" stroke-linejoin="round"/>
<path d="M44.7715 143.221H21.4662L20.5351 139.739H43.8408L44.7715 143.221Z" fill="white" stroke="#263238" stroke-miterlimit="10" stroke-linecap="round" stroke-linejoin="round"/>
<path d="M46.2153 148.618H22.9097L21.9785 145.136H45.2842L46.2153 148.618Z" fill="white" stroke="#263238" stroke-miterlimit="10" stroke-linecap="round" stroke-linejoin="round"/>
<path d="M22.8643 150.33H63.876V152.329H22.8643V150.33Z" fill="white" stroke="#263238" stroke-miterlimit="10" stroke-linecap="round" stroke-linejoin="round"/>
<path d="M22.8638 150.33H44.8726V152.329H22.8638V150.33Z" fill="#263238" stroke="#263238" stroke-miterlimit="10" stroke-linecap="round" stroke-linejoin="round"/>
<path d="M36.5933 150.621L34.9446 139.178" stroke="#263238" stroke-width="4" stroke-miterlimit="10" stroke-linecap="round" stroke-linejoin="round"/>
<path d="M44.6888 143.332C45.3138 143.332 45.88 142.876 46.0314 142.196C46.3533 140.747 46.2062 139.533 45.5948 138.589C44.8018 137.365 43.5517 137.166 43.4119 137.147C43.3552 137.14 43.2976 137.136 43.2409 137.136H20.4874C19.7246 137.136 19.1064 137.798 19.1064 138.614C19.1064 139.431 19.725 140.093 20.4874 140.093H43.0844C43.1535 140.119 43.2669 140.177 43.3334 140.288C43.3957 140.392 43.5206 140.719 43.3441 141.511C43.1676 142.306 42.9386 143.103 43.6805 143.292C43.7879 143.32 44.5826 143.332 44.6888 143.332Z" fill="white" stroke="#263238" stroke-miterlimit="10" stroke-linecap="round" stroke-linejoin="round"/>
<path d="M43.637 143.332C44.262 143.332 44.8282 142.876 44.9791 142.196C45.301 140.747 45.1539 139.533 44.5425 138.589C43.7495 137.365 42.4995 137.166 42.3596 137.147C42.3029 137.14 42.2458 137.136 42.1886 137.136H19.4355C18.6728 137.136 18.0546 137.798 18.0546 138.614C18.0546 139.431 18.6732 140.093 19.4355 140.093H42.0326C42.1017 140.119 42.2151 140.177 42.2816 140.288C42.3438 140.392 42.4688 140.719 42.2923 141.511C42.1157 142.306 42.5745 143.103 43.3159 143.292C43.4234 143.32 43.5312 143.332 43.637 143.332Z" fill="#263238" stroke="#263238" stroke-miterlimit="10" stroke-linecap="round" stroke-linejoin="round"/>
<path d="M191.674 167.19C190.118 166.197 187.85 166.236 187.85 166.236C189.82 165.9 191.034 163.869 191.034 163.869C188.733 161.996 185.238 163.624 185.238 163.624C187.845 162.15 188.258 159.461 188.258 159.461C185.779 158.4 182.708 161.094 182.708 161.094C182.708 161.094 184.626 158.359 183.973 156.563C183.973 156.563 182.136 156.522 180.218 159.502C180.218 159.502 180.912 156.359 179.646 155.257C179.646 155.257 178.177 155.91 177.442 158.93C177.442 158.93 177.32 156.277 175.32 154.849C175.32 154.849 173.85 156.236 174.381 159.216C174.381 159.216 173.646 157.257 171.401 156.155C171.401 156.155 170.789 157.665 171.85 159.787C171.85 159.787 170.626 158.236 169.156 157.665C169.156 157.665 168.748 159.379 169.687 160.808C169.687 160.808 168.156 158.706 166.488 158.507C165.657 160.656 167.348 163.065 167.348 163.065C165.062 160.779 163.606 161.39 163.606 161.39C163.197 163.502 164.741 165.259 164.741 165.259C162.653 164.294 161.65 164.864 161.65 164.864C161.478 165.71 161.819 166.54 162.233 167.19H191.674V167.19Z" fill="url(#paint21_linear_16_616)"/>
<mask id="mask4_16_616" style="mask-type:luminance" maskUnits="userSpaceOnUse" x="161" y="154" width="31" height="14">
<path d="M191.674 167.19C190.118 166.197 187.85 166.236 187.85 166.236C189.82 165.9 191.034 163.869 191.034 163.869C188.733 161.996 185.238 163.624 185.238 163.624C187.845 162.15 188.258 159.461 188.258 159.461C185.779 158.4 182.708 161.094 182.708 161.094C182.708 161.094 184.626 158.359 183.973 156.563C183.973 156.563 182.136 156.522 180.218 159.502C180.218 159.502 180.912 156.359 179.646 155.257C179.646 155.257 178.177 155.91 177.442 158.93C177.442 158.93 177.32 156.277 175.32 154.849C175.32 154.849 173.85 156.236 174.381 159.216C174.381 159.216 173.646 157.257 171.401 156.155C171.401 156.155 170.789 157.665 171.85 159.787C171.85 159.787 170.626 158.236 169.156 157.665C169.156 157.665 168.748 159.379 169.687 160.808C169.687 160.808 168.156 158.706 166.488 158.507C165.657 160.656 167.348 163.065 167.348 163.065C165.062 160.779 163.606 161.39 163.606 161.39C163.197 163.502 164.741 165.259 164.741 165.259C162.653 164.294 161.65 164.864 161.65 164.864C161.478 165.71 161.819 166.54 162.233 167.19H191.674V167.19Z" fill="white"/>
</mask>
<g mask="url(#mask4_16_616)">
<path opacity="0.2" d="M191.674 167.19C190.118 166.197 187.85 166.236 187.85 166.236C189.82 165.9 191.034 163.869 191.034 163.869C188.733 161.996 185.238 163.624 185.238 163.624C187.845 162.15 188.258 159.461 188.258 159.461C185.779 158.4 182.708 161.094 182.708 161.094C182.708 161.094 184.626 158.359 183.973 156.563C183.973 156.563 182.136 156.522 180.218 159.502C180.218 159.502 180.912 156.359 179.646 155.257C179.646 155.257 178.177 155.91 177.442 158.93C177.442 158.93 177.32 156.277 175.32 154.849C175.32 154.849 173.85 156.236 174.381 159.216C174.381 159.216 173.646 157.257 171.401 156.155C171.401 156.155 170.789 157.665 171.85 159.787C171.85 159.787 170.626 158.236 169.156 157.665C169.156 157.665 168.748 159.379 169.687 160.808C169.687 160.808 168.156 158.706 166.488 158.507C165.657 160.656 167.348 163.065 167.348 163.065C165.062 160.779 163.606 161.39 163.606 161.39C163.197 163.502 164.741 165.259 164.741 165.259C162.653 164.294 161.65 164.864 161.65 164.864C161.478 165.71 161.819 166.54 162.233 167.19H191.674V167.19Z" fill="black"/>
</g>
<path d="M176.917 163.997C177.37 165.783 179.888 166.456 179.888 166.456C179.373 166.613 178.944 166.856 178.586 167.126H207.668C206.956 165.28 204.762 164.612 204.762 164.612C206.609 164.991 207.833 163.537 207.833 163.537C207.386 161.881 204.762 161.233 204.762 161.233C206.883 160.974 207.986 159.237 207.986 159.237C206.739 157.49 203.533 157.548 203.533 157.548C205.385 157.231 206.528 155.321 206.528 155.321C204.363 153.56 201.076 155.09 201.076 155.09C203.528 153.704 203.917 151.175 203.917 151.175C201.585 150.177 198.696 152.711 198.696 152.711C198.696 152.711 200.5 150.138 199.886 148.449C199.886 148.449 198.158 148.411 196.354 151.213C196.354 151.213 197.007 148.257 195.817 147.221C195.817 147.221 194.435 147.835 193.744 150.676C193.744 150.676 193.628 148.18 191.747 146.837C191.747 146.837 190.365 148.142 190.865 150.945C190.865 150.945 190.173 149.102 188.062 148.065C188.062 148.065 187.486 149.486 188.484 151.482C188.484 151.482 187.333 150.023 185.95 149.486C185.95 149.486 185.566 151.098 186.45 152.442C186.45 152.442 185.01 150.465 183.441 150.278C182.659 152.299 184.249 154.565 184.249 154.565C182.1 152.415 180.73 152.989 180.73 152.989C180.346 154.975 181.798 156.628 181.798 156.628C179.834 155.721 178.89 156.257 178.89 156.257C178.542 157.97 180.43 159.628 180.43 159.628C179.45 158.737 177.352 159.697 177.352 159.697C177.217 161.866 179.776 163.047 179.776 163.047C178.267 162.856 176.917 163.997 176.917 163.997Z" fill="url(#paint22_linear_16_616)"/>
<mask id="mask5_16_616" style="mask-type:luminance" maskUnits="userSpaceOnUse" x="176" y="146" width="32" height="22">
<path d="M176.917 163.997C177.37 165.783 179.888 166.456 179.888 166.456C179.373 166.613 178.944 166.856 178.586 167.126H207.668C206.956 165.28 204.762 164.612 204.762 164.612C206.609 164.991 207.833 163.537 207.833 163.537C207.386 161.881 204.762 161.233 204.762 161.233C206.883 160.974 207.986 159.237 207.986 159.237C206.739 157.49 203.533 157.548 203.533 157.548C205.385 157.231 206.528 155.321 206.528 155.321C204.363 153.56 201.076 155.09 201.076 155.09C203.528 153.704 203.917 151.175 203.917 151.175C201.585 150.177 198.696 152.711 198.696 152.711C198.696 152.711 200.5 150.138 199.886 148.449C199.886 148.449 198.158 148.411 196.354 151.213C196.354 151.213 197.007 148.257 195.817 147.221C195.817 147.221 194.435 147.835 193.744 150.676C193.744 150.676 193.628 148.18 191.747 146.837C191.747 146.837 190.365 148.142 190.865 150.945C190.865 150.945 190.173 149.102 188.062 148.065C188.062 148.065 187.486 149.486 188.484 151.482C188.484 151.482 187.333 150.023 185.95 149.486C185.95 149.486 185.566 151.098 186.45 152.442C186.45 152.442 185.01 150.465 183.441 150.278C182.659 152.299 184.249 154.565 184.249 154.565C182.1 152.415 180.73 152.989 180.73 152.989C180.346 154.975 181.798 156.628 181.798 156.628C179.834 155.721 178.89 156.257 178.89 156.257C178.542 157.97 180.43 159.628 180.43 159.628C179.45 158.737 177.352 159.697 177.352 159.697C177.217 161.866 179.776 163.047 179.776 163.047C178.267 162.856 176.917 163.997 176.917 163.997Z" fill="white"/>
</mask>
<g mask="url(#mask5_16_616)">
<path opacity="0.2" d="M214.715 171.107C214.262 172.892 211.745 173.566 211.745 173.566C212.259 173.723 212.689 173.965 213.047 174.236H183.965C184.676 172.39 186.871 171.722 186.871 171.722C185.024 172.101 183.8 170.646 183.8 170.646C184.246 168.991 186.871 168.343 186.871 168.343C184.75 168.084 183.646 166.347 183.646 166.347C184.894 164.6 188.1 164.658 188.1 164.658C186.247 164.341 185.106 162.431 185.106 162.431C187.27 160.67 190.557 162.2 190.557 162.2C188.105 160.814 187.716 158.285 187.716 158.285C190.048 157.286 192.937 159.82 192.937 159.82C192.937 159.82 191.132 157.248 191.747 155.559C191.747 155.559 193.474 155.521 195.279 158.323C195.279 158.323 194.626 155.367 195.816 154.331C195.816 154.331 197.198 154.945 197.889 157.786C197.889 157.786 198.004 155.29 199.886 153.947C199.886 153.947 201.267 155.252 200.769 158.054C200.769 158.054 201.46 156.212 203.571 155.175C203.571 155.175 204.147 156.595 203.149 158.592C203.149 158.592 204.301 157.133 205.683 156.595C205.683 156.595 206.067 158.208 205.184 159.552C205.184 159.552 206.623 157.574 208.192 157.388C208.974 159.409 207.384 161.675 207.384 161.675C209.534 159.525 210.903 160.099 210.903 160.099C211.288 162.085 209.835 163.738 209.835 163.738C211.799 162.831 212.743 163.367 212.743 163.367C213.092 165.08 211.203 166.738 211.203 166.738C212.183 165.847 214.281 166.807 214.281 166.807C214.416 168.976 211.858 170.157 211.858 170.157C213.366 169.966 214.715 171.107 214.715 171.107Z" fill="black"/>
</g>
<path d="M121.171 162.152C122.751 162.46 124.437 161.754 124.437 161.754C123.122 162.388 122.631 163.401 122.447 164.091H146.23C146.132 163.644 146.012 163.357 146.012 163.357C146.357 163.693 146.701 163.926 147.028 164.091H149.149C149.728 162.524 148.108 160.481 148.108 160.481C150.027 161.293 151.903 160.246 151.903 160.246C151.445 157.877 148.669 157.044 148.669 157.044C150.612 157.442 151.897 155.929 151.897 155.929C151.426 154.205 148.664 153.527 148.664 153.527C150.895 153.26 152.053 151.452 152.053 151.452C150.738 149.632 147.367 149.688 147.367 149.688C149.315 149.361 150.514 147.373 150.514 147.373C148.235 145.537 144.78 147.126 144.78 147.126C147.357 145.685 147.763 143.053 147.763 143.053C145.309 142.01 142.274 144.645 142.274 144.645C142.274 144.645 144.168 141.969 143.52 140.209C143.52 140.209 141.703 140.167 139.81 143.082C139.81 143.082 140.492 140.005 139.239 138.924C139.239 138.924 137.787 139.562 137.064 142.519C137.064 142.519 136.939 139.921 134.959 138.519C134.959 138.519 133.508 139.876 134.036 142.795C134.036 142.795 133.307 140.876 131.085 139.794C131.085 139.794 130.482 141.272 131.534 143.352C131.534 143.352 130.321 141.831 128.867 141.27C128.867 141.27 128.866 141.272 128.866 141.272C128.15 140.983 127.476 140.9 127.476 140.9C129.181 140.214 129.691 138.383 129.691 138.383C127.916 137.174 125.663 138.383 125.663 138.383C127.123 137.42 126.972 135.664 126.972 135.664C125.594 134.871 123.447 136.168 123.447 136.168C124.668 134.607 124.253 132.744 124.253 132.744C122.885 132.516 121.469 133.485 120.736 134.094C120.814 133.737 120.831 133.388 120.798 133.054C120.953 132.033 120.728 131.133 120.728 131.133C120.539 131.152 120.359 131.191 120.185 131.24C119.799 130.568 119.38 130.145 119.38 130.145C120.997 131.552 122.712 131.078 122.712 131.078C122.624 128.927 121.22 127.763 120.39 127.259C122.505 128.166 124.272 126.81 124.272 126.81C122.92 124.182 120.182 123.852 120.182 123.852C120.182 123.852 122.052 123.822 122.92 122.224C121.905 120.925 119.644 120.942 119.644 120.942C121.531 120.043 121.851 119.055 121.851 119.055C120.868 117.929 118.22 118.236 118.22 118.236C119.822 117.64 120.022 116.371 120.022 116.371C118.353 114.863 116.084 115.815 116.084 115.815C117.379 114.502 117.009 113.18 117.009 113.18C115.589 112.339 113.52 113.964 113.52 113.964C114.241 112.273 113.306 110.617 113.306 110.617C111.197 111.017 110.458 113.465 110.458 113.465C110.81 111.752 109.461 110.617 109.461 110.617C107.926 111.031 107.325 113.465 107.325 113.465C107.085 111.498 105.474 110.475 105.474 110.475C103.853 111.632 103.907 114.605 103.907 114.605C103.613 112.887 101.842 111.828 101.842 111.828C100.209 113.835 101.628 116.884 101.628 116.884C100.968 115.718 100.031 115.057 99.2739 114.688C99.2347 114.628 99.2094 114.592 99.2094 114.592C99.1853 114.602 99.1628 114.614 99.1387 114.624C98.4864 114.327 97.9966 114.249 97.9966 114.249C97.8038 114.7 97.7584 115.173 97.7989 115.64C97.2356 116.305 96.8614 117.134 96.6151 117.903C96.2193 117.849 95.8279 117.86 95.4774 117.985C95.0755 117.048 94.4734 116.079 93.6062 115.675C93.6062 115.675 92.1417 117.076 92.9693 120.896C92.9693 120.896 91.0592 117.903 89.2129 118.031C89.2129 118.031 88.576 119.686 90.3591 122.615C90.3591 122.615 88.1945 120.641 85.5201 121.087C85.5201 121.087 85.4564 123.315 88.1941 125.225C88.1941 125.225 86.0928 124.27 83.4826 125.162C83.4826 125.162 84.1831 126.817 86.6659 127.645C86.6659 127.645 84.5009 127.39 82.9095 128.091C82.9095 128.091 83.9282 129.746 85.7746 130.128C85.7746 130.128 82.9413 129.682 81.4855 130.828C82.5128 133.152 85.7109 133.713 85.7109 133.713C82.1452 133.713 81.4855 135.325 81.4855 135.325C82.8139 137.291 85.389 137.457 85.389 137.457C83.0079 138.333 82.6697 139.561 82.6697 139.561C82.8396 139.818 83.0533 140.027 83.289 140.205L80.3413 144.013L83.1329 151.481L106.195 160.385L119.874 163.258L121.171 162.152Z" fill="url(#paint23_linear_16_616)"/>
<mask id="mask6_16_616" style="mask-type:luminance" maskUnits="userSpaceOnUse" x="80" y="110" width="73" height="55">
<path d="M121.171 162.152C122.751 162.46 124.437 161.754 124.437 161.754C123.122 162.388 122.631 163.401 122.447 164.091H146.23C146.132 163.644 146.012 163.357 146.012 163.357C146.357 163.693 146.701 163.926 147.028 164.091H149.149C149.728 162.524 148.108 160.481 148.108 160.481C150.027 161.293 151.903 160.246 151.903 160.246C151.445 157.877 148.669 157.044 148.669 157.044C150.612 157.442 151.897 155.929 151.897 155.929C151.426 154.205 148.664 153.527 148.664 153.527C150.895 153.26 152.053 151.452 152.053 151.452C150.738 149.632 147.367 149.688 147.367 149.688C149.315 149.361 150.514 147.373 150.514 147.373C148.235 145.537 144.78 147.126 144.78 147.126C147.357 145.685 147.763 143.053 147.763 143.053C145.309 142.01 142.274 144.645 142.274 144.645C142.274 144.645 144.168 141.969 143.52 140.209C143.52 140.209 141.703 140.167 139.81 143.082C139.81 143.082 140.492 140.005 139.239 138.924C139.239 138.924 137.787 139.562 137.064 142.519C137.064 142.519 136.939 139.921 134.959 138.519C134.959 138.519 133.508 139.876 134.036 142.795C134.036 142.795 133.307 140.876 131.085 139.794C131.085 139.794 130.482 141.272 131.534 143.352C131.534 143.352 130.321 141.831 128.867 141.27C128.867 141.27 128.866 141.272 128.866 141.272C128.15 140.983 127.476 140.9 127.476 140.9C129.181 140.214 129.691 138.383 129.691 138.383C127.916 137.174 125.663 138.383 125.663 138.383C127.123 137.42 126.972 135.664 126.972 135.664C125.594 134.871 123.447 136.168 123.447 136.168C124.668 134.607 124.253 132.744 124.253 132.744C122.885 132.516 121.469 133.485 120.736 134.094C120.814 133.737 120.831 133.388 120.798 133.054C120.953 132.033 120.728 131.133 120.728 131.133C120.539 131.152 120.359 131.191 120.185 131.24C119.799 130.568 119.38 130.145 119.38 130.145C120.997 131.552 122.712 131.078 122.712 131.078C122.624 128.927 121.22 127.763 120.39 127.259C122.505 128.166 124.272 126.81 124.272 126.81C122.92 124.182 120.182 123.852 120.182 123.852C120.182 123.852 122.052 123.822 122.92 122.224C121.905 120.925 119.644 120.942 119.644 120.942C121.531 120.043 121.851 119.055 121.851 119.055C120.868 117.929 118.22 118.236 118.22 118.236C119.822 117.64 120.022 116.371 120.022 116.371C118.353 114.863 116.084 115.815 116.084 115.815C117.379 114.502 117.009 113.18 117.009 113.18C115.589 112.339 113.52 113.964 113.52 113.964C114.241 112.273 113.306 110.617 113.306 110.617C111.197 111.017 110.458 113.465 110.458 113.465C110.81 111.752 109.461 110.617 109.461 110.617C107.926 111.031 107.325 113.465 107.325 113.465C107.085 111.498 105.474 110.475 105.474 110.475C103.853 111.632 103.907 114.605 103.907 114.605C103.613 112.887 101.842 111.828 101.842 111.828C100.209 113.835 101.628 116.884 101.628 116.884C100.968 115.718 100.031 115.057 99.2739 114.688C99.2347 114.628 99.2094 114.592 99.2094 114.592C99.1853 114.602 99.1628 114.614 99.1387 114.624C98.4864 114.327 97.9966 114.249 97.9966 114.249C97.8038 114.7 97.7584 115.173 97.7989 115.64C97.2356 116.305 96.8614 117.134 96.6151 117.903C96.2193 117.849 95.8279 117.86 95.4774 117.985C95.0755 117.048 94.4734 116.079 93.6062 115.675C93.6062 115.675 92.1417 117.076 92.9693 120.896C92.9693 120.896 91.0592 117.903 89.2129 118.031C89.2129 118.031 88.576 119.686 90.3591 122.615C90.3591 122.615 88.1945 120.641 85.5201 121.087C85.5201 121.087 85.4564 123.315 88.1941 125.225C88.1941 125.225 86.0928 124.27 83.4826 125.162C83.4826 125.162 84.1831 126.817 86.6659 127.645C86.6659 127.645 84.5009 127.39 82.9095 128.091C82.9095 128.091 83.9282 129.746 85.7746 130.128C85.7746 130.128 82.9413 129.682 81.4855 130.828C82.5128 133.152 85.7109 133.713 85.7109 133.713C82.1452 133.713 81.4855 135.325 81.4855 135.325C82.8139 137.291 85.389 137.457 85.389 137.457C83.0079 138.333 82.6697 139.561 82.6697 139.561C82.8396 139.818 83.0533 140.027 83.289 140.205L80.3413 144.013L83.1329 151.481L106.195 160.385L119.874 163.258L121.171 162.152Z" fill="white"/>
</mask>
<g mask="url(#mask6_16_616)">
<path opacity="0.2" d="M102.281 159.524L116.728 162.596L132.724 164.765L143.319 166.442C142.344 165.235 140.814 164.774 140.814 164.774C142.757 165.172 144.042 163.659 144.042 163.659C143.571 161.935 140.809 161.257 140.809 161.257C143.04 160.989 144.198 159.182 144.198 159.182C142.883 157.362 139.512 157.418 139.512 157.418C141.46 157.09 142.659 155.103 142.659 155.103C140.38 153.267 136.925 154.856 136.925 154.856C139.502 153.415 139.907 150.783 139.907 150.783C137.454 149.74 134.419 152.374 134.419 152.374C134.419 152.374 136.313 149.699 135.665 147.939C135.665 147.939 133.848 147.897 131.954 150.812C131.954 150.812 132.637 147.735 131.384 146.654C131.384 146.654 129.931 147.292 129.208 150.249C129.208 150.249 129.084 147.651 127.104 146.249C127.104 146.249 125.652 147.607 126.181 150.525C126.181 150.525 125.451 148.606 123.23 147.524C123.23 147.524 122.626 149.002 123.678 151.082C123.678 151.082 122.465 149.562 121.011 149C121.011 149 120.609 150.678 121.54 152.078C121.54 152.078 120.023 150.018 118.373 149.821C117.554 151.924 119.229 154.286 119.229 154.286C118.222 153.29 117.38 152.856 116.754 152.679C116.962 152.415 117.074 152.23 117.074 152.23C114.796 150.394 111.341 151.983 111.341 151.983C113.918 150.542 114.323 147.91 114.323 147.91C111.87 146.867 108.835 149.502 108.835 149.502C108.835 149.502 110.729 146.826 110.081 145.066C110.081 145.066 108.264 145.024 106.37 147.939C106.37 147.939 107.053 144.862 105.8 143.781C105.8 143.781 104.347 144.419 103.624 147.376C103.624 147.376 103.5 144.778 101.52 143.376C101.52 143.376 100.068 144.734 100.596 147.652C100.596 147.652 99.8673 145.732 97.6455 144.65C97.6455 144.65 97.0418 146.129 98.0945 148.208C98.0945 148.208 96.8813 146.688 95.427 146.126C95.427 146.126 95.0255 147.805 95.956 149.205C95.956 149.205 94.4393 147.144 92.7894 146.948C91.97 149.051 93.6452 151.412 93.6452 151.412C91.3814 149.171 89.9419 149.767 89.9419 149.767C89.5403 151.834 91.0701 153.557 91.0701 153.557C89.0036 152.61 88.0113 153.167 88.0113 153.167C88.0077 153.185 88.0077 153.203 88.0044 153.221L102.281 159.524Z" fill="black"/>
</g>
<path d="M85.4588 140.14C79.9683 140.14 71.0771 143.171 71.0771 148.748C71.0771 166.499 146.44 177.765 218.186 177.765" stroke="#263238" stroke-miterlimit="10" stroke-linecap="round" stroke-linejoin="round"/>
<path d="M88.629 142.944H81.6222C80.6582 142.944 79.8261 142.269 79.6276 141.326L79.5438 140.929C79.2898 139.722 80.1574 138.568 81.3878 138.476L88.6409 137.938C89.9644 137.84 91.0277 139.012 90.8002 140.32L90.6376 141.255C90.4676 142.232 89.62 142.944 88.629 142.944Z" fill="url(#paint24_linear_16_616)" stroke="#263238" stroke-miterlimit="10" stroke-linecap="round" stroke-linejoin="round"/>
<path d="M84.824 146.402H78.1844C77.3192 146.402 76.5798 145.779 76.4336 144.926L76.2228 143.697C76.0312 142.579 76.9222 141.57 78.0553 141.623L85.0797 141.946C86.1609 141.996 86.9465 142.993 86.7426 144.056L86.569 144.961C86.4081 145.797 85.6761 146.402 84.824 146.402Z" fill="url(#paint25_linear_16_616)"/>
<mask id="mask7_16_616" style="mask-type:luminance" maskUnits="userSpaceOnUse" x="76" y="141" width="11" height="6">
<path d="M84.824 146.402H78.1844C77.3192 146.402 76.5798 145.779 76.4336 144.926L76.2228 143.697C76.0312 142.579 76.9222 141.57 78.0553 141.623L85.0797 141.946C86.1609 141.996 86.9465 142.993 86.7426 144.056L86.569 144.961C86.4081 145.797 85.6761 146.402 84.824 146.402Z" fill="white"/>
</mask>
<g mask="url(#mask7_16_616)">
<path opacity="0.5" d="M84.824 146.402H78.1844C77.3192 146.402 76.5798 145.779 76.4336 144.926L76.2228 143.697C76.0312 142.579 76.9222 141.57 78.0553 141.623L85.0797 141.946C86.1609 141.996 86.9465 142.993 86.7426 144.056L86.569 144.961C86.4081 145.797 85.6761 146.402 84.824 146.402Z" fill="white"/>
</g>
<path d="M84.824 146.402H78.1844C77.3192 146.402 76.5798 145.779 76.4336 144.926L76.2228 143.697C76.0312 142.579 76.9222 141.57 78.0553 141.623L85.0797 141.946C86.1609 141.996 86.9465 142.993 86.7426 144.056L86.569 144.961C86.4081 145.797 85.6761 146.402 84.824 146.402Z" stroke="#263238" stroke-miterlimit="10" stroke-linecap="round" stroke-linejoin="round"/>
<path d="M82.7515 150.271L78.1666 150.554C77.3247 150.606 76.5788 150.015 76.4363 149.184L76.1834 147.71C76.0094 146.696 76.7953 145.77 77.8243 145.778L82.8834 145.816C83.9161 145.823 84.6885 146.765 84.4941 147.78L84.2727 148.933C84.1305 149.674 83.5047 150.225 82.7515 150.271Z" fill="url(#paint26_linear_16_616)" stroke="#263238" stroke-miterlimit="10" stroke-linecap="round" stroke-linejoin="round"/>
<path d="M87.6973 155.526H82.0601C80.9209 155.526 79.9597 154.677 79.8183 153.547L79.5618 151.497C79.3878 150.107 80.5079 148.895 81.9078 148.959L88.0416 149.242C89.3672 149.303 90.3549 150.488 90.1768 151.802L89.937 153.57C89.7842 154.69 88.828 155.526 87.6973 155.526Z" fill="url(#paint27_linear_16_616)"/>
<mask id="mask8_16_616" style="mask-type:luminance" maskUnits="userSpaceOnUse" x="79" y="148" width="12" height="8">
<path d="M87.6973 155.526H82.0601C80.9209 155.526 79.9597 154.677 79.8183 153.547L79.5618 151.497C79.3878 150.107 80.5079 148.895 81.9078 148.959L88.0416 149.242C89.3672 149.303 90.3549 150.488 90.1768 151.802L89.937 153.57C89.7842 154.69 88.828 155.526 87.6973 155.526Z" fill="white"/>
</mask>
<g mask="url(#mask8_16_616)">
<path opacity="0.4" d="M87.6973 155.526H82.0601C80.9209 155.526 79.9597 154.677 79.8183 153.547L79.5618 151.497C79.3878 150.107 80.5079 148.895 81.9078 148.959L88.0416 149.242C89.3672 149.303 90.3549 150.488 90.1768 151.802L89.937 153.57C89.7842 154.69 88.828 155.526 87.6973 155.526Z" fill="white"/>
</g>
<path d="M87.6973 155.526H82.0601C80.9209 155.526 79.9597 154.677 79.8183 153.547L79.5618 151.497C79.3878 150.107 80.5079 148.895 81.9078 148.959L88.0416 149.242C89.3672 149.303 90.3549 150.488 90.1768 151.802L89.937 153.57C89.7842 154.69 88.828 155.526 87.6973 155.526Z" stroke="#263238" stroke-miterlimit="10" stroke-linecap="round" stroke-linejoin="round"/>
<path d="M113.046 140.802C114.965 141.614 116.84 140.567 116.84 140.567C116.383 138.198 113.606 137.365 113.606 137.365C115.549 137.762 116.835 136.25 116.835 136.25C116.363 134.526 113.602 133.847 113.602 133.847C115.832 133.58 116.99 131.773 116.99 131.773C115.676 129.952 112.305 130.008 112.305 130.008C114.253 129.681 115.451 127.694 115.451 127.694C113.173 125.857 109.717 127.446 109.717 127.446C112.295 126.006 112.7 123.373 112.7 123.373C110.246 122.331 107.212 124.965 107.212 124.965C107.212 124.965 109.106 122.29 108.458 120.53C108.458 120.53 106.641 120.487 104.747 123.403C104.747 123.403 105.43 120.326 104.177 119.245C104.177 119.245 102.724 119.883 102.001 122.84C102.001 122.84 101.877 120.241 99.8966 118.84C99.8966 118.84 98.4448 120.197 98.9734 123.116C98.9734 123.116 98.2443 121.197 96.0225 120.114C96.0225 120.114 95.4188 121.593 96.4714 123.673C96.4714 123.673 95.2582 122.152 93.804 121.591C93.804 121.591 93.4025 123.269 94.333 124.669C94.333 124.669 92.8163 122.609 91.1664 122.412C90.347 124.515 92.0222 126.877 92.0222 126.877C89.7583 124.636 88.3188 125.232 88.3188 125.232C87.9173 127.299 89.4471 129.023 89.4471 129.023C87.3805 128.075 86.3883 128.633 86.3883 128.633C86.0239 130.415 88.0125 132.145 88.0125 132.145C86.9798 131.216 84.7748 132.213 84.7748 132.213C84.6363 134.471 87.3282 135.704 87.3282 135.704C85.7421 135.502 84.3242 136.688 84.3242 136.688C84.803 138.548 87.4512 139.252 87.4512 139.252C85.4104 139.868 84.6012 141.737 84.6012 141.737C86.3434 143.346 89.3748 142.076 89.3748 142.076C87.2314 143.108 87.2739 145.155 87.2739 145.155" fill="url(#paint28_linear_16_616)"/>
<path d="M113.046 140.802C114.965 141.614 116.84 140.567 116.84 140.567C116.383 138.198 113.606 137.365 113.606 137.365C115.549 137.762 116.835 136.25 116.835 136.25C116.363 134.526 113.602 133.847 113.602 133.847C115.832 133.58 116.99 131.773 116.99 131.773C115.676 129.952 112.305 130.008 112.305 130.008C114.253 129.681 115.451 127.694 115.451 127.694C113.173 125.857 109.717 127.446 109.717 127.446C112.295 126.006 112.7 123.373 112.7 123.373C110.246 122.331 107.212 124.965 107.212 124.965C107.212 124.965 109.106 122.29 108.458 120.53C108.458 120.53 106.641 120.487 104.747 123.403C104.747 123.403 105.43 120.326 104.177 119.245C104.177 119.245 102.724 119.883 102.001 122.84C102.001 122.84 101.877 120.241 99.8966 118.84C99.8966 118.84 98.4448 120.197 98.9734 123.116C98.9734 123.116 98.2443 121.197 96.0225 120.114C96.0225 120.114 95.4188 121.593 96.4714 123.673C96.4714 123.673 95.2582 122.152 93.804 121.591C93.804 121.591 93.4025 123.269 94.333 124.669C94.333 124.669 92.8163 122.609 91.1664 122.412C90.347 124.515 92.0222 126.877 92.0222 126.877C89.7583 124.636 88.3188 125.232 88.3188 125.232C87.9173 127.299 89.4471 129.023 89.4471 129.023C87.3805 128.075 86.3883 128.633 86.3883 128.633C86.0239 130.415 88.0125 132.145 88.0125 132.145C86.9798 131.216 84.7748 132.213 84.7748 132.213C84.6363 134.471 87.3282 135.704 87.3282 135.704C85.7421 135.502 84.3242 136.688 84.3242 136.688C84.803 138.548 87.4512 139.252 87.4512 139.252C85.4104 139.868 84.6012 141.737 84.6012 141.737C86.3434 143.346 89.3748 142.076 89.3748 142.076C87.2314 143.108 87.2739 145.155 87.2739 145.155" stroke="#263238" stroke-width="0.75" stroke-miterlimit="10" stroke-linecap="round" stroke-linejoin="round"/>
<path d="M98.7661 159.511L89.359 158.625C88.1205 158.508 87.1017 157.599 86.8456 156.382L86.6961 155.671C86.3419 153.989 87.5514 152.38 89.2659 152.253L99.2289 151.513C101.074 151.376 102.555 153.011 102.238 154.833L101.832 157.17C101.577 158.63 100.242 159.65 98.7661 159.511Z" fill="url(#paint29_linear_16_616)"/>
<mask id="mask9_16_616" style="mask-type:luminance" maskUnits="userSpaceOnUse" x="86" y="151" width="17" height="9">
<path d="M98.7661 159.511L89.359 158.625C88.1205 158.508 87.1017 157.599 86.8456 156.382L86.6961 155.671C86.3419 153.989 87.5514 152.38 89.2659 152.253L99.2289 151.513C101.074 151.376 102.555 153.011 102.238 154.833L101.832 157.17C101.577 158.63 100.242 159.65 98.7661 159.511Z" fill="white"/>
</mask>
<g mask="url(#mask9_16_616)">
<path opacity="0.3" d="M98.7661 159.511L89.359 158.625C88.1205 158.508 87.1017 157.599 86.8456 156.382L86.6961 155.671C86.3419 153.989 87.5514 152.38 89.2659 152.253L99.2289 151.513C101.074 151.376 102.555 153.011 102.238 154.833L101.832 157.17C101.577 158.63 100.242 159.65 98.7661 159.511Z" fill="white"/>
</g>
<path d="M98.7661 159.511L89.359 158.625C88.1205 158.508 87.1017 157.599 86.8456 156.382L86.6961 155.671C86.3419 153.989 87.5514 152.38 89.2659 152.253L99.2289 151.513C101.074 151.376 102.555 153.011 102.238 154.833L101.832 157.17C101.577 158.63 100.242 159.65 98.7661 159.511Z" stroke="#263238" stroke-miterlimit="10" stroke-linecap="round" stroke-linejoin="round"/>
<path d="M109.009 163.482L98.2245 161.781C97.3417 161.642 96.622 160.999 96.3851 160.137C95.9664 158.617 97.1832 157.142 98.7551 157.264L109.732 158.116C111.117 158.223 112.084 159.535 111.776 160.889L111.582 161.739C111.317 162.906 110.192 163.669 109.009 163.482Z" fill="url(#paint30_linear_16_616)" stroke="#263238" stroke-miterlimit="10" stroke-linecap="round" stroke-linejoin="round"/>
<path d="M121.52 165.145H111.827C110.498 165.145 109.351 164.214 109.077 162.914L108.959 162.352C108.609 160.688 109.805 159.097 111.5 158.972L121.539 158.226C123.364 158.091 124.829 159.707 124.515 161.509L124.288 162.817C124.054 164.163 122.886 165.145 121.52 165.145Z" fill="url(#paint31_linear_16_616)"/>
<mask id="mask10_16_616" style="mask-type:luminance" maskUnits="userSpaceOnUse" x="108" y="158" width="17" height="8">
<path d="M121.52 165.145H111.827C110.498 165.145 109.351 164.214 109.077 162.914L108.959 162.352C108.609 160.688 109.805 159.097 111.5 158.972L121.539 158.226C123.364 158.091 124.829 159.707 124.515 161.509L124.288 162.817C124.054 164.163 122.886 165.145 121.52 165.145Z" fill="white"/>
</mask>
<g mask="url(#mask10_16_616)">
<path opacity="0.5" d="M121.52 165.145H111.827C110.498 165.145 109.351 164.214 109.077 162.914L108.959 162.352C108.609 160.688 109.805 159.097 111.5 158.972L121.539 158.226C123.364 158.091 124.829 159.707 124.515 161.509L124.288 162.817C124.054 164.163 122.886 165.145 121.52 165.145Z" fill="white"/>
</g>
<path d="M121.52 165.145H111.827C110.498 165.145 109.351 164.214 109.077 162.914L108.959 162.352C108.609 160.688 109.805 159.097 111.5 158.972L121.539 158.226C123.364 158.091 124.829 159.707 124.515 161.509L124.288 162.817C124.054 164.163 122.886 165.145 121.52 165.145Z" stroke="#263238" stroke-miterlimit="10" stroke-linecap="round" stroke-linejoin="round"/>
<path d="M135.665 168.226H126.038C124.691 168.226 123.527 167.283 123.25 165.964L123.147 165.478C122.792 163.791 124.005 162.177 125.725 162.049L135.668 161.311C137.518 161.174 139.003 162.813 138.685 164.641L138.473 165.865C138.235 167.23 137.051 168.226 135.665 168.226Z" fill="url(#paint32_linear_16_616)"/>
<mask id="mask11_16_616" style="mask-type:luminance" maskUnits="userSpaceOnUse" x="123" y="161" width="16" height="8">
<path d="M135.665 168.226H126.038C124.691 168.226 123.527 167.283 123.25 165.964L123.147 165.478C122.792 163.791 124.005 162.177 125.725 162.049L135.668 161.311C137.518 161.174 139.003 162.813 138.685 164.641L138.473 165.865C138.235 167.23 137.051 168.226 135.665 168.226Z" fill="white"/>
</mask>
<g mask="url(#mask11_16_616)">
<path opacity="0.3" d="M135.665 168.226H126.038C124.691 168.226 123.527 167.283 123.25 165.964L123.147 165.478C122.792 163.791 124.005 162.177 125.725 162.049L135.668 161.311C137.518 161.174 139.003 162.813 138.685 164.641L138.473 165.865C138.235 167.23 137.051 168.226 135.665 168.226Z" fill="white"/>
</g>
<path d="M135.665 168.226H126.038C124.691 168.226 123.527 167.283 123.25 165.964L123.147 165.478C122.792 163.791 124.005 162.177 125.725 162.049L135.668 161.311C137.518 161.174 139.003 162.813 138.685 164.641L138.473 165.865C138.235 167.23 137.051 168.226 135.665 168.226Z" stroke="#263238" stroke-miterlimit="10" stroke-linecap="round" stroke-linejoin="round"/>
<path d="M149.309 169.68H139.866C138.465 169.68 137.257 168.7 136.968 167.33L136.547 165.329C136.146 163.424 137.662 161.657 139.606 161.763L149.722 162.314C151.493 162.411 152.782 164.031 152.478 165.778L152.226 167.227C151.979 168.645 150.748 169.68 149.309 169.68Z" fill="url(#paint33_linear_16_616)"/>
<mask id="mask12_16_616" style="mask-type:luminance" maskUnits="userSpaceOnUse" x="136" y="161" width="17" height="9">
<path d="M149.309 169.68H139.866C138.465 169.68 137.257 168.7 136.968 167.33L136.547 165.329C136.146 163.424 137.662 161.657 139.606 161.763L149.722 162.314C151.493 162.411 152.782 164.031 152.478 165.778L152.226 167.227C151.979 168.645 150.748 169.68 149.309 169.68Z" fill="white"/>
</mask>
<g mask="url(#mask12_16_616)">
<path opacity="0.4" d="M149.309 169.68H139.866C138.465 169.68 137.257 168.7 136.968 167.33L136.547 165.329C136.146 163.424 137.662 161.657 139.606 161.763L149.722 162.314C151.493 162.411 152.782 164.031 152.478 165.778L152.226 167.227C151.979 168.645 150.748 169.68 149.309 169.68Z" fill="white"/>
</g>
<path d="M149.309 169.68H139.866C138.465 169.68 137.257 168.7 136.968 167.33L136.547 165.329C136.146 163.424 137.662 161.657 139.606 161.763L149.722 162.314C151.493 162.411 152.782 164.031 152.478 165.778L152.226 167.227C151.979 168.645 150.748 169.68 149.309 169.68Z" stroke="#263238" stroke-miterlimit="10" stroke-linecap="round" stroke-linejoin="round"/>
<path d="M154.431 171.087H163.865C165.268 171.087 166.479 170.105 166.768 168.732L167.187 166.743C167.589 164.834 166.07 163.064 164.123 163.17L154.02 163.721C152.246 163.817 150.954 165.441 151.259 167.191L151.509 168.629C151.756 170.05 152.989 171.087 154.431 171.087Z" fill="url(#paint34_linear_16_616)"/>
<mask id="mask13_16_616" style="mask-type:luminance" maskUnits="userSpaceOnUse" x="151" y="163" width="17" height="9">
<path d="M154.431 171.087H163.865C165.268 171.087 166.479 170.105 166.768 168.732L167.187 166.743C167.589 164.834 166.07 163.064 164.123 163.17L154.02 163.721C152.246 163.817 150.954 165.441 151.259 167.191L151.509 168.629C151.756 170.05 152.989 171.087 154.431 171.087Z" fill="white"/>
</mask>
<g mask="url(#mask13_16_616)">
<path opacity="0.6" d="M154.431 171.087H163.865C165.268 171.087 166.479 170.105 166.768 168.732L167.187 166.743C167.589 164.834 166.07 163.064 164.123 163.17L154.02 163.721C152.246 163.817 150.954 165.441 151.259 167.191L151.509 168.629C151.756 170.05 152.989 171.087 154.431 171.087Z" fill="white"/>
</g>
<path d="M154.431 171.087H163.865C165.268 171.087 166.479 170.105 166.768 168.732L167.187 166.743C167.589 164.834 166.07 163.064 164.123 163.17L154.02 163.721C152.246 163.817 150.954 165.441 151.259 167.191L151.509 168.629C151.756 170.05 152.989 171.087 154.431 171.087Z" stroke="#263238" stroke-miterlimit="10" stroke-linecap="round" stroke-linejoin="round"/>
<path d="M168.395 171.087H179.999C181.143 171.087 182.143 170.316 182.434 169.211L182.95 167.25C183.377 165.631 182.133 164.055 180.459 164.092L167.995 164.37C166.425 164.406 165.27 165.853 165.584 167.392L165.928 169.074C166.168 170.246 167.199 171.087 168.395 171.087Z" fill="url(#paint35_linear_16_616)" stroke="#263238" stroke-miterlimit="10" stroke-linecap="round" stroke-linejoin="round"/>
<path d="M196.072 172.569H184.918C183.26 172.569 181.828 171.407 181.486 169.784L180.991 167.433C180.516 165.176 182.312 163.082 184.615 163.208L196.559 163.859C198.656 163.973 200.183 165.893 199.823 167.962L199.528 169.662C199.236 171.343 197.777 172.569 196.072 172.569Z" fill="url(#paint36_linear_16_616)"/>
<mask id="mask14_16_616" style="mask-type:luminance" maskUnits="userSpaceOnUse" x="180" y="163" width="20" height="10">
<path d="M196.072 172.569H184.918C183.26 172.569 181.828 171.407 181.486 169.784L180.991 167.433C180.516 165.176 182.312 163.082 184.615 163.208L196.559 163.859C198.656 163.973 200.183 165.893 199.823 167.962L199.528 169.662C199.236 171.343 197.777 172.569 196.072 172.569Z" fill="white"/>
</mask>
<g mask="url(#mask14_16_616)">
<path opacity="0.6" d="M196.072 172.569H184.918C183.26 172.569 181.828 171.407 181.486 169.784L180.991 167.433C180.516 165.176 182.312 163.082 184.615 163.208L196.559 163.859C198.656 163.973 200.183 165.893 199.823 167.962L199.528 169.662C199.236 171.343 197.777 172.569 196.072 172.569Z" fill="white"/>
</g>
<path d="M196.072 172.569H184.918C183.26 172.569 181.828 171.407 181.486 169.784L180.991 167.433C180.516 165.176 182.312 163.082 184.615 163.208L196.559 163.859C198.656 163.973 200.183 165.893 199.823 167.962L199.528 169.662C199.236 171.343 197.777 172.569 196.072 172.569Z" stroke="#263238" stroke-miterlimit="10" stroke-linecap="round" stroke-linejoin="round"/>
<path d="M214.356 174.3H203.091C201.22 174.3 199.614 172.967 199.268 171.128L198.656 167.864C198.189 165.374 200.188 163.11 202.716 163.264L214.983 164.014C217.27 164.154 218.941 166.229 218.59 168.493L218.2 171.006C217.906 172.901 216.275 174.3 214.356 174.3Z" fill="url(#paint37_linear_16_616)"/>
<mask id="mask15_16_616" style="mask-type:luminance" maskUnits="userSpaceOnUse" x="198" y="163" width="21" height="12">
<path d="M214.356 174.3H203.091C201.22 174.3 199.614 172.967 199.268 171.128L198.656 167.864C198.189 165.374 200.188 163.11 202.716 163.264L214.983 164.014C217.27 164.154 218.941 166.229 218.59 168.493L218.2 171.006C217.906 172.901 216.275 174.3 214.356 174.3Z" fill="white"/>
</mask>
<g mask="url(#mask15_16_616)">
<path opacity="0.2" d="M214.356 174.3H203.091C201.22 174.3 199.614 172.967 199.268 171.128L198.656 167.864C198.189 165.374 200.188 163.11 202.716 163.264L214.983 164.014C217.27 164.154 218.941 166.229 218.59 168.493L218.2 171.006C217.906 172.901 216.275 174.3 214.356 174.3Z" fill="white"/>
</g>
<path d="M214.356 174.3H203.091C201.22 174.3 199.614 172.967 199.268 171.128L198.656 167.864C198.189 165.374 200.188 163.11 202.716 163.264L214.983 164.014C217.27 164.154 218.941 166.229 218.59 168.493L218.2 171.006C217.906 172.901 216.275 174.3 214.356 174.3Z" stroke="#263238" stroke-miterlimit="10" stroke-linecap="round" stroke-linejoin="round"/>
<path d="M59.0375 117.19C59.0375 117.19 56.8063 122.96 56.7291 123.73C56.6523 124.5 57.1907 127.192 57.3447 127.423C57.4987 127.654 58.0371 128.5 58.6527 128.731C59.2683 128.962 59.8067 128.346 59.8067 128.346C59.8067 128.346 60.8071 128.808 61.1915 128.654C61.5759 128.5 61.4991 127.192 61.4991 127.192C61.4991 127.192 61.4223 126.576 61.4223 125.884C61.4223 125.192 61.7303 124.73 62.2686 123.884C62.807 123.037 63.6538 120.344 63.6538 119.421C63.6538 118.498 63.593 117.289 63.593 117.289L59.0375 117.19Z" fill="white" stroke="#263238" stroke-width="0.5" stroke-miterlimit="10" stroke-linecap="round" stroke-linejoin="round"/>
<path d="M58.6892 121.83C58.6892 121.83 58.9016 124.38 58.7423 125.017C58.5829 125.655 58.5829 126.08 59.0609 126.345C59.5388 126.611 59.8047 125.389 60.0171 124.858C60.2296 124.327 60.442 122.999 60.442 122.999C60.442 122.999 61.1858 122.042 61.4513 121.458C61.7169 120.874 61.77 120.077 61.8231 119.758" fill="white"/>
<path d="M58.6892 121.83C58.6892 121.83 58.9016 124.38 58.7423 125.017C58.5829 125.655 58.5829 126.08 59.0609 126.345C59.5388 126.611 59.8047 125.389 60.0171 124.858C60.2296 124.327 60.442 122.999 60.442 122.999C60.442 122.999 61.1858 122.042 61.4513 121.458C61.7169 120.874 61.77 120.077 61.8231 119.758" stroke="#263238" stroke-width="0.5" stroke-miterlimit="10" stroke-linecap="round" stroke-linejoin="round"/>
<path d="M63.1202 109.723C63.1202 109.723 62.2534 127.378 63.1202 134.629C63.9874 141.88 64.2235 160.087 64.8542 164.579C65.4849 169.071 66.6671 180.894 66.6671 180.894C66.6671 180.894 64.5393 183.889 61.3866 185.386C58.2338 186.884 54.372 187.83 54.7662 189.012C55.1604 190.194 55.4753 190.825 58.628 190.982C61.7807 191.14 64.6181 190.194 65.8003 190.194C66.9824 190.194 71.3962 190.51 72.1057 189.879C72.8148 189.248 72.5787 185.702 72.421 184.204C72.2634 182.707 72.1057 180.736 72.1057 180.736C72.1057 180.736 73.8397 162.214 73.8397 159.377C73.8397 156.54 73.7609 149.762 73.7609 149.762L76.7559 127.063C76.7559 127.063 81.3273 149.21 85.1103 153.624C86.3803 155.106 106.233 175.85 106.233 175.85C106.233 175.85 105.255 178.42 105.051 178.766C104.616 179.506 104.159 181.099 103.475 181.761C102.228 182.969 99.6917 184.914 99.6917 185.466C99.6917 186.018 100.716 186.569 102.45 186.806C104.184 187.042 107.574 185.151 108.835 184.442C110.096 183.732 113.485 179.555 113.958 179.161C114.431 178.767 115.455 176.876 115.061 176.245C114.667 175.614 111.278 173.644 110.253 172.698C109.229 171.752 105.13 165.131 103.948 163.476C102.766 161.821 100.086 155.201 97.7212 152.836C95.3569 150.472 91.3369 147.161 91.3369 147.161L92.0461 117.447L91.2581 107.911L62.7268 106.807L63.1202 109.723Z" fill="white" stroke="#263238" stroke-width="0.5" stroke-miterlimit="10" stroke-linecap="round" stroke-linejoin="round"/>
<path d="M72.4204 184.204C72.3939 183.952 72.3673 183.687 72.3416 183.419L68.5582 183.968C68.5582 183.968 68.637 183.258 68.0851 181.997C67.5333 180.736 66.6665 180.894 66.6665 180.894C66.6665 180.894 64.5386 183.889 61.3859 185.386C58.2332 186.884 54.3714 187.829 54.7651 189.012C55.1593 190.194 55.4743 190.825 58.627 190.982C61.7797 191.14 64.6171 190.194 65.7992 190.194C66.9814 190.194 71.3951 190.509 72.1047 189.878C72.8142 189.248 72.5777 185.702 72.4204 184.204Z" fill="white" stroke="#263238" stroke-width="0.5" stroke-miterlimit="10" stroke-linecap="round" stroke-linejoin="round"/>
<path d="M72.5802 187.732C71.0941 188.137 68.2101 188.715 67.2976 188.775C66.1154 188.854 62.6473 189.8 58.7855 189.879C56.4538 189.926 55.3048 189.256 54.7562 188.718C54.7321 188.814 54.7325 188.912 54.7656 189.012C55.1597 190.194 55.4747 190.825 58.6274 190.982C61.7801 191.14 64.6175 190.194 65.7997 190.194C66.9818 190.194 71.3955 190.509 72.1051 189.879C72.4217 189.598 72.5491 188.734 72.5802 187.732Z" fill="white" stroke="#263238" stroke-width="0.5" stroke-miterlimit="10" stroke-linecap="round" stroke-linejoin="round"/>
<path d="M111.059 173.333C111.053 173.358 111.045 173.382 111.04 173.406C110.883 174.194 109.701 176.007 109.701 176.007C109.701 176.007 108.361 175.376 107.888 175.298C107.415 175.219 106.232 175.849 106.232 175.849C106.232 175.849 105.254 178.419 105.05 178.766C104.616 179.505 104.159 181.098 103.474 181.761C102.227 182.968 99.6909 184.913 99.6909 185.465C99.6909 186.017 100.715 186.569 102.449 186.805C104.183 187.042 107.572 185.15 108.834 184.441C110.095 183.731 113.484 179.554 113.957 179.16C114.43 178.766 115.454 176.875 115.06 176.244C114.741 175.733 112.46 174.345 111.059 173.333Z" fill="white" stroke="#263238" stroke-width="0.5" stroke-miterlimit="10" stroke-linecap="round" stroke-linejoin="round"/>
<path d="M113.957 179.16C114.43 178.766 115.454 176.874 115.06 176.244C115.011 176.166 114.913 176.066 114.784 175.952C113.316 176.82 112.669 179.353 111.356 180.736C109.858 182.312 107.021 184.834 104.105 185.622C102.113 186.161 100.638 185.523 99.9013 185.064C99.7706 185.231 99.6909 185.37 99.6909 185.465C99.6909 186.017 100.715 186.568 102.449 186.805C104.183 187.041 107.572 185.149 108.834 184.44C110.095 183.731 113.484 179.554 113.957 179.16Z" fill="white" stroke="#263238" stroke-width="0.5" stroke-miterlimit="10" stroke-linecap="round" stroke-linejoin="round"/>
<path d="M97.7205 152.835C95.3561 150.471 91.3362 147.16 91.3362 147.16L92.0453 117.447L91.2574 107.91L62.7261 106.807L63.1203 109.723C63.1203 109.723 62.2535 127.378 63.1203 134.629C63.9875 141.88 64.2236 160.087 64.8543 164.579C65.1995 167.039 65.7101 171.695 66.1014 175.406L72.5788 175.561C73.0923 169.856 73.839 161.239 73.839 159.377C73.839 156.54 73.7602 149.762 73.7602 149.762L76.7552 127.063C76.7552 127.063 81.3266 149.21 85.1096 153.624C85.976 154.635 95.4869 164.606 101.447 170.845L106.188 166.867C105.242 165.412 104.39 164.096 103.947 163.476C102.765 161.82 100.085 155.2 97.7205 152.835Z" fill="#263238" stroke="#263238" stroke-width="0.5" stroke-miterlimit="10" stroke-linecap="round" stroke-linejoin="round"/>
<path d="M64.302 110.038L80.4594 110.354C80.4594 110.354 88.8138 84.7385 89.8387 80.4036C90.8632 76.0687 89.8387 67.4778 88.4988 66.611C87.159 65.7442 82.4299 64.4039 81.3266 64.3255C80.2233 64.2466 74.5485 66.0595 72.578 67.7147C70.6074 69.3699 66.1149 80.5617 66.0365 83.5567C65.9576 86.5518 66.1941 94.1182 66.1941 94.5908C66.1941 95.0638 62.7261 108.935 62.7261 108.935L64.302 110.038Z" fill="white" stroke="#263238" stroke-width="0.5" stroke-miterlimit="10" stroke-linecap="round" stroke-linejoin="round"/>
<path d="M72.3609 71.5485C72.3609 71.5485 72.2323 76.434 74.8037 80.1623" stroke="#263238" stroke-width="0.5" stroke-miterlimit="10" stroke-linecap="round" stroke-linejoin="round"/>
<path d="M72.2324 88.2614L77.1179 93.0182" stroke="#263238" stroke-width="0.5" stroke-miterlimit="10" stroke-linecap="round" stroke-linejoin="round"/>
<path d="M77.4355 97.0781C78.1843 97.9253 78.8183 98.5765 79.1745 98.8032" stroke="#263238" stroke-width="0.5" stroke-miterlimit="10" stroke-linecap="round" stroke-linejoin="round"/>
<path d="M71.9751 90.3181C71.9751 90.3181 74.013 92.99 75.9652 95.3503" stroke="#263238" stroke-width="0.5" stroke-miterlimit="10" stroke-linecap="round" stroke-linejoin="round"/>
<path d="M76.2034 64.64C76.2034 64.64 69.3465 68.1869 68.0067 69.2902C66.6669 70.3936 65.6424 75.6745 65.1693 78.433C64.6963 81.1916 63.4353 89.546 62.0166 95.8514C60.598 102.157 59.6523 108.146 59.1793 113.191C58.7062 118.235 58.4697 124.304 58.4697 124.304C58.4697 124.304 60.4403 124.304 60.9129 123.91C61.3859 123.515 62.2527 122.964 62.2527 122.964C62.2527 122.964 62.8046 122.254 63.5926 117.289C64.381 112.324 64.8536 107.122 65.2478 105.703C65.642 104.285 68.0851 94.1174 68.0063 92.6198C67.9275 91.1223 67.1571 84.332 67.2179 83.1621C67.4749 78.2337 71.3163 70.6305 71.6316 70.1575C71.9474 69.6844 76.2034 64.64 76.2034 64.64Z" fill="url(#paint38_linear_16_616)" stroke="#263238" stroke-width="0.5" stroke-miterlimit="10" stroke-linecap="round" stroke-linejoin="round"/>
<path d="M62.726 108.934L60.9136 123.91" stroke="#263238" stroke-width="0.5" stroke-miterlimit="10" stroke-linecap="round" stroke-linejoin="round"/>
<path d="M74.1344 65.8949C74.1344 65.8949 72.6295 76.6917 75.2467 77.6075C77.8639 78.5238 83.4259 71.3911 84.7347 68.5121L85.6509 65.8292L84.0149 61.4453L73.48 61.2488L74.1344 65.8949Z" fill="white" stroke="#263238" stroke-width="0.5" stroke-miterlimit="10" stroke-linecap="round" stroke-linejoin="round"/>
<path d="M78.5187 43.647C78.5187 43.647 79.8479 42.991 81.9214 44.3014C82.9814 44.9713 83.6419 44.9917 84.735 47.4423C85.3686 48.8626 83.8188 49.4708 83.8188 49.798C83.8188 50.1252 84.2113 50.1252 84.9965 51.5647C85.7816 53.0042 84.8657 53.4622 85.389 54.0512C85.9123 54.6402 86.6325 55.6872 86.2395 56.9956C85.8469 58.3044 85.6504 58.5005 86.1088 59.286C86.5667 60.0711 86.1741 61.0527 85.7162 61.6417C85.2583 62.2308 84.6039 63.0159 84.6039 63.0159L84.0149 62.6233C84.0149 62.6233 84.1456 61.4457 84.4074 60.6601C84.6693 59.875 84.5381 54.5749 84.5381 54.5749C84.5381 54.5749 82.3789 48.2278 81.3319 48.1624C80.285 48.0971 78.3218 48.555 75.1155 51.6305C71.9093 54.706 74.0686 58.5666 74.1993 59.221C74.33 59.8754 74.5919 60.3987 74.7883 61.3803C74.9848 62.3619 75.0502 62.8198 75.3116 64.39C75.5735 65.9603 75.2463 65.3716 74.8537 66.484C74.4611 67.5963 74.1339 67.3344 74.1339 67.3344C74.1339 67.3344 74.6572 69.2976 74.0032 70.606C73.3488 71.9148 72.3672 71.4565 71.2549 71.9148C70.1426 72.3727 70.9931 73.3543 70.9931 73.3543C70.9931 73.3543 70.0768 74.0087 68.8338 73.289C67.5904 72.5692 68.114 72.5039 68.4412 71.8495C68.7684 71.1951 69.161 70.3446 68.3759 69.952C67.5908 69.5595 67.1324 69.2323 67.3943 67.6616C67.6561 66.0914 68.5066 66.484 67.8522 65.7642C67.1978 65.0444 65.8236 63.9321 66.0855 62.8852C66.3473 61.8382 67.7215 61.4457 67.2632 60.7913C66.8048 60.1369 66.6088 59.4825 66.936 58.4355C67.2632 57.3886 70.5347 57.6504 69.7496 57.0614C68.9645 56.4723 67.1978 52.2845 68.3755 49.798C69.5531 47.3115 73.6103 43.8435 76.0314 43.5816C76.4231 43.5392 76.8014 43.5567 77.1596 43.6164L78.5187 43.647Z" fill="#263238" stroke="#263238" stroke-width="0.5" stroke-miterlimit="10" stroke-linecap="round" stroke-linejoin="round"/>
<path d="M79.8925 46.9186C79.8925 46.9186 77.9293 46.7225 75.4428 48.816C72.9563 50.9099 72.8252 56.7337 72.8252 56.7337C72.8252 56.7337 71.5818 56.0793 71.6475 57.3228C71.7133 58.5662 72.1708 59.7439 72.7599 60.0057C73.3489 60.2676 73.6761 60.2676 73.6761 60.2676C73.6761 60.2676 74.0241 61.7295 75.2676 62.5147C76.5106 63.2998 80.9394 65.044 81.9864 64.5861C83.0333 64.1282 84.8103 64.6968 85.3266 56.6953C85.4847 54.2477 84.8654 53.3968 84.5382 52.2845C84.211 51.1722 83.5566 48.6203 82.5097 47.7695C81.4627 46.9186 79.8925 46.9186 79.8925 46.9186Z" fill="white" stroke="#263238" stroke-width="0.5" stroke-miterlimit="10" stroke-linecap="round" stroke-linejoin="round"/>
<path d="M81.514 53.0717C81.514 53.0717 81.0782 54.3249 81.5684 55.3604C82.059 56.3959 82.5491 57.2133 82.1133 57.5401C81.6774 57.8669 81.0234 57.8126 81.0234 57.8126" stroke="#263238" stroke-width="0.5" stroke-miterlimit="10" stroke-linecap="round" stroke-linejoin="round"/>
<path d="M79.6963 61.1241C79.6963 61.1241 81.0804 59.93 82.5752 60.4905C83.4227 60.8084 83.4461 60.7378 83.4461 60.7378" stroke="#263238" stroke-width="0.5" stroke-miterlimit="10" stroke-linecap="round" stroke-linejoin="round"/>
<path d="M79.1256 52.791C79.1256 52.791 77.4242 52.0059 75.854 53.5108" stroke="#263238" stroke-width="0.5" stroke-miterlimit="10" stroke-linecap="round" stroke-linejoin="round"/>
<path d="M81.7676 52.3785C81.7676 52.3785 83.011 51.4622 84.058 52.3131" stroke="#263238" stroke-width="0.5" stroke-miterlimit="10" stroke-linecap="round" stroke-linejoin="round"/>
<path d="M78.2994 54.3469C78.3835 54.7538 78.2369 55.1284 77.9713 55.1835C77.7058 55.2387 77.4223 54.9531 77.3382 54.5463C77.254 54.1394 77.4007 53.7648 77.6662 53.7097C77.9313 53.6546 78.2148 53.9401 78.2994 54.3469Z" fill="#263238"/>
<path d="M83.5997 53.7579C83.6838 54.1648 83.5372 54.5394 83.2716 54.5945C83.0061 54.6497 82.7226 54.3641 82.6385 53.9573C82.5543 53.5504 82.701 53.1759 82.9665 53.1207C83.2316 53.0656 83.5151 53.3511 83.5997 53.7579Z" fill="#263238"/>
<path d="M79.0408 45.408C79.0408 45.408 77.7667 50.4998 75.4371 52.6648C71.6786 56.1574 73.7313 54.617 72.2289 52.7106C72.2289 52.7106 72.833 55.9781 73.0463 56.3616C73.8334 57.7795 72.8085 57.3873 72.3265 56.8853L70.7914 55.0859C70.7914 55.0859 70.3335 51.5525 73.2779 48.1498C76.2223 44.7471 78.6483 45.3427 79.0408 45.408Z" fill="#263238" stroke="#263238" stroke-width="0.5" stroke-miterlimit="10" stroke-linecap="round" stroke-linejoin="round"/>
<path d="M75.2676 62.5146C75.2676 62.5146 76.6209 68.7086 76.4902 69.8862L75.2676 62.5146Z" fill="white"/>
<path d="M75.2676 62.5146C75.2676 62.5146 76.6209 68.7086 76.4902 69.8862" stroke="#263238" stroke-width="0.5" stroke-miterlimit="10" stroke-linecap="round" stroke-linejoin="round"/>
<path d="M88.0965 65.0997C88.0965 65.0997 95.4681 68.6437 95.6805 69.6359C95.8929 70.6281 91.1001 93.7233 91.1789 96.4818C91.2578 99.2403 92.5188 108.777 92.913 112.481C93.3072 116.186 92.8341 120.048 92.8341 120.048L88.5781 116.344C88.5781 116.344 84.7951 118.235 83.1399 118.866C81.4847 119.496 78.2531 119.969 78.2531 119.969C78.2531 119.969 77.7013 112.718 78.8838 108.777C80.066 104.837 84.8739 87.5759 84.8739 87.5759C84.8739 87.5759 86.9233 67.7932 86.9233 67.0837C86.9233 66.3741 86.9233 65.0343 86.9233 65.0343L88.0965 65.0997Z" fill="url(#paint39_linear_16_616)" stroke="#263238" stroke-width="0.5" stroke-miterlimit="10" stroke-linecap="round" stroke-linejoin="round"/>
<path d="M84.1642 90.807C84.1642 90.807 81.6422 104.442 81.4845 107.91C81.3268 111.378 80.2235 114.215 79.3563 116.264C78.4895 118.314 78.0953 120.599 78.0953 120.599C78.0953 120.599 77.0708 115.082 77.7011 112.245C78.3318 109.408 84.1642 90.807 84.1642 90.807Z" fill="url(#paint40_linear_16_616)" stroke="#263238" stroke-width="0.5" stroke-miterlimit="10" stroke-linecap="round" stroke-linejoin="round"/>
<path d="M94.4894 68.6595C95.1197 68.8961 95.6805 69.6358 96.7749 71.5757C97.8692 73.5157 97.6417 76.3837 97.7205 78.5903C97.7994 80.797 100.164 92.1468 100.164 93.1713C100.164 94.1958 99.7695 96.4817 98.8239 97.585C97.8782 98.6884 96.538 99.2402 95.75 99.3191C94.9616 99.3979 91.1786 96.4817 89.4446 93.7232C87.7105 90.9647 84.0063 82.8464 84.0063 82.8464L88.7354 79.7725L92.5184 83.0829C92.5184 83.0829 92.6761 79.4571 93.6218 76.6198" fill="url(#paint41_linear_16_616)"/>
<path d="M94.4894 68.6595C95.1197 68.8961 95.6805 69.6358 96.7749 71.5757C97.8692 73.5157 97.6417 76.3837 97.7205 78.5903C97.7994 80.797 100.164 92.1468 100.164 93.1713C100.164 94.1958 99.7695 96.4817 98.8239 97.585C97.8782 98.6884 96.538 99.2402 95.75 99.3191C94.9616 99.3979 91.1786 96.4817 89.4446 93.7232C87.7105 90.9647 84.0063 82.8464 84.0063 82.8464L88.7354 79.7725L92.5184 83.0829C92.5184 83.0829 92.6761 79.4571 93.6218 76.6198" stroke="#263238" stroke-width="0.5" stroke-miterlimit="10" stroke-linecap="round" stroke-linejoin="round"/>
<path d="M92.5186 83.0829C92.5186 83.0829 96.7746 87.7331 97.3265 88.9153L92.5186 83.0829Z" fill="white"/>
<path d="M92.5186 83.0829C92.5186 83.0829 96.7746 87.7331 97.3265 88.9153" stroke="#263238" stroke-width="0.5" stroke-miterlimit="10" stroke-linecap="round" stroke-linejoin="round"/>
<path d="M85.4027 65.0996C85.4027 65.0996 84.5522 65.0285 84.4105 65.8083C84.2687 66.5881 84.127 67.5092 83.9142 67.8638C83.7014 68.2184 82.6385 69.0689 82.4967 70.2739C82.355 71.4789 82.355 72.1877 82.355 72.1877C82.355 72.1877 84.4105 70.5574 85.0486 69.8487C85.6866 69.1399 86.466 67.8638 86.3953 66.8009C86.3243 65.7376 86.3949 64.3908 85.4027 65.0996Z" fill="white" stroke="#263238" stroke-width="0.5" stroke-miterlimit="10" stroke-linecap="round" stroke-linejoin="round"/>
<path d="M85.828 73.1799C85.828 73.1799 88.9468 69.2106 88.9468 68.6436C88.9468 68.0766 88.8762 65.8794 88.8051 65.3124C88.7344 64.7454 87.1748 63.2569 86.5372 62.8316C85.8991 62.4064 84.9069 61.8394 84.9069 62.1936C84.9069 62.5482 84.6042 63.0155 84.6042 63.0155C84.6042 63.0155 83.7023 62.6895 83.9147 63.2565C84.1271 63.8235 85.4032 65.0992 85.4032 65.0992L85.1197 68.0052C85.1197 68.0052 82.71 70.7694 82.3555 72.1869C82.0009 73.6043 82.4261 74.1006 82.639 74.7387C82.8518 75.3767 83.844 80.7635 83.844 80.7635L87.5298 78.141L85.828 73.1799Z" fill="white" stroke="#263238" stroke-width="0.5" stroke-miterlimit="10" stroke-linecap="round" stroke-linejoin="round"/>
<path d="M84.604 63.0155C84.604 63.0155 86.6313 64.424 86.923 65.0338C87.2147 65.6437 86.8474 68.2854 86.8474 68.2854" stroke="#263238" stroke-width="0.5" stroke-miterlimit="10" stroke-linecap="round" stroke-linejoin="round"/>
<path d="M86.5366 62.8317C86.5366 62.8317 88.2412 64.9105 88.3144 65.571C88.3879 66.2315 88.3879 68.1392 88.3879 68.1392" stroke="#263238" stroke-width="0.5" stroke-miterlimit="10" stroke-linecap="round" stroke-linejoin="round"/>
<path d="M88.1672 76.8657L82.2842 81.5437L84.1273 84.5204L90.4356 79.7006L88.1672 76.8657Z" fill="url(#paint42_linear_16_616)" stroke="#263238" stroke-width="0.5" stroke-miterlimit="10" stroke-linecap="round" stroke-linejoin="round"/>
<defs>
<linearGradient id="paint0_linear_16_616" x1="110.736" y1="30.4111" x2="110.736" y2="169.938" gradientUnits="userSpaceOnUse">
<stop stop-color="#5FFBD6"/>
<stop offset="1" stop-color="#B063F6"/>
</linearGradient>
<linearGradient id="paint1_linear_16_616" x1="152.799" y1="64.3157" x2="152.799" y2="161.799" gradientUnits="userSpaceOnUse">
<stop stop-color="#5FFBD6"/>
<stop offset="1" stop-color="#B063F6"/>
</linearGradient>
<linearGradient id="paint2_linear_16_616" x1="186.359" y1="68.4301" x2="186.359" y2="161.799" gradientUnits="userSpaceOnUse">
<stop stop-color="#5FFBD6"/>
<stop offset="1" stop-color="#B063F6"/>
</linearGradient>
<linearGradient id="paint3_linear_16_616" x1="167.539" y1="93.2858" x2="167.539" y2="161.799" gradientUnits="userSpaceOnUse">
<stop stop-color="#5FFBD6"/>
<stop offset="1" stop-color="#B063F6"/>
</linearGradient>
<linearGradient id="paint4_linear_16_616" x1="165.306" y1="104.843" x2="165.306" y2="101.644" gradientUnits="userSpaceOnUse">
<stop stop-color="#5FFBD6"/>
<stop offset="1" stop-color="#B063F6"/>
</linearGradient>
<linearGradient id="paint5_linear_16_616" x1="169.773" y1="109.667" x2="169.773" y2="106.468" gradientUnits="userSpaceOnUse">
<stop stop-color="#5FFBD6"/>
<stop offset="1" stop-color="#B063F6"/>
</linearGradient>
<linearGradient id="paint6_linear_16_616" x1="160.839" y1="109.667" x2="160.839" y2="106.468" gradientUnits="userSpaceOnUse">
<stop stop-color="#5FFBD6"/>
<stop offset="1" stop-color="#B063F6"/>
</linearGradient>
<linearGradient id="paint7_linear_16_616" x1="174.24" y1="114.491" x2="174.24" y2="111.292" gradientUnits="userSpaceOnUse">
<stop stop-color="#5FFBD6"/>
<stop offset="1" stop-color="#B063F6"/>
</linearGradient>
<linearGradient id="paint8_linear_16_616" x1="165.306" y1="114.491" x2="165.306" y2="111.292" gradientUnits="userSpaceOnUse">
<stop stop-color="#5FFBD6"/>
<stop offset="1" stop-color="#B063F6"/>
</linearGradient>
<linearGradient id="paint9_linear_16_616" x1="160.839" y1="114.491" x2="160.839" y2="111.292" gradientUnits="userSpaceOnUse">
<stop stop-color="#5FFBD6"/>
<stop offset="1" stop-color="#B063F6"/>
</linearGradient>
<linearGradient id="paint10_linear_16_616" x1="174.24" y1="124.139" x2="174.24" y2="120.94" gradientUnits="userSpaceOnUse">
<stop stop-color="#5FFBD6"/>
<stop offset="1" stop-color="#B063F6"/>
</linearGradient>
<linearGradient id="paint11_linear_16_616" x1="165.306" y1="124.139" x2="165.306" y2="120.94" gradientUnits="userSpaceOnUse">
<stop stop-color="#5FFBD6"/>
<stop offset="1" stop-color="#B063F6"/>
</linearGradient>
<linearGradient id="paint12_linear_16_616" x1="169.773" y1="128.962" x2="169.773" y2="125.763" gradientUnits="userSpaceOnUse">
<stop stop-color="#5FFBD6"/>
<stop offset="1" stop-color="#B063F6"/>
</linearGradient>
<linearGradient id="paint13_linear_16_616" x1="160.839" y1="128.962" x2="160.839" y2="125.763" gradientUnits="userSpaceOnUse">
<stop stop-color="#5FFBD6"/>
<stop offset="1" stop-color="#B063F6"/>
</linearGradient>
<linearGradient id="paint14_linear_16_616" x1="160.839" y1="133.786" x2="160.839" y2="130.587" gradientUnits="userSpaceOnUse">
<stop stop-color="#5FFBD6"/>
<stop offset="1" stop-color="#B063F6"/>
</linearGradient>
<linearGradient id="paint15_linear_16_616" x1="174.24" y1="138.61" x2="174.24" y2="135.411" gradientUnits="userSpaceOnUse">
<stop stop-color="#5FFBD6"/>
<stop offset="1" stop-color="#B063F6"/>
</linearGradient>
<linearGradient id="paint16_linear_16_616" x1="169.773" y1="138.61" x2="169.773" y2="135.411" gradientUnits="userSpaceOnUse">
<stop stop-color="#5FFBD6"/>
<stop offset="1" stop-color="#B063F6"/>
</linearGradient>
<linearGradient id="paint17_linear_16_616" x1="165.332" y1="143.461" x2="165.286" y2="140.263" gradientUnits="userSpaceOnUse">
<stop stop-color="#5FFBD6"/>
<stop offset="1" stop-color="#B063F6"/>
</linearGradient>
<linearGradient id="paint18_linear_16_616" x1="174.24" y1="148.258" x2="174.24" y2="145.059" gradientUnits="userSpaceOnUse">
<stop stop-color="#5FFBD6"/>
<stop offset="1" stop-color="#B063F6"/>
</linearGradient>
<linearGradient id="paint19_linear_16_616" x1="127.808" y1="101.875" x2="127.808" y2="161.799" gradientUnits="userSpaceOnUse">
<stop stop-color="#5FFBD6"/>
<stop offset="1" stop-color="#B063F6"/>
</linearGradient>
<linearGradient id="paint20_linear_16_616" x1="3.22496" y1="64.6514" x2="9.78473" y2="125.585" gradientUnits="userSpaceOnUse">
<stop stop-color="#5FFBD6"/>
<stop offset="1" stop-color="#B063F6"/>
</linearGradient>
<linearGradient id="paint21_linear_16_616" x1="176.639" y1="154.849" x2="176.639" y2="167.19" gradientUnits="userSpaceOnUse">
<stop stop-color="#5FFBD6"/>
<stop offset="1" stop-color="#B063F6"/>
</linearGradient>
<linearGradient id="paint22_linear_16_616" x1="192.452" y1="146.837" x2="192.452" y2="167.126" gradientUnits="userSpaceOnUse">
<stop stop-color="#5FFBD6"/>
<stop offset="1" stop-color="#B063F6"/>
</linearGradient>
<linearGradient id="paint23_linear_16_616" x1="116.197" y1="110.475" x2="116.197" y2="164.091" gradientUnits="userSpaceOnUse">
<stop stop-color="#5FFBD6"/>
<stop offset="1" stop-color="#B063F6"/>
</linearGradient>
<linearGradient id="paint24_linear_16_616" x1="85.1652" y1="137.932" x2="85.1652" y2="142.944" gradientUnits="userSpaceOnUse">
<stop stop-color="#5FFBD6"/>
<stop offset="1" stop-color="#B063F6"/>
</linearGradient>
<linearGradient id="paint25_linear_16_616" x1="81.4859" y1="141.621" x2="81.4859" y2="146.402" gradientUnits="userSpaceOnUse">
<stop stop-color="#5FFBD6"/>
<stop offset="1" stop-color="#B063F6"/>
</linearGradient>
<linearGradient id="paint26_linear_16_616" x1="80.3417" y1="145.778" x2="80.3417" y2="150.557" gradientUnits="userSpaceOnUse">
<stop stop-color="#5FFBD6"/>
<stop offset="1" stop-color="#B063F6"/>
</linearGradient>
<linearGradient id="paint27_linear_16_616" x1="84.8708" y1="148.957" x2="84.8708" y2="155.526" gradientUnits="userSpaceOnUse">
<stop stop-color="#5FFBD6"/>
<stop offset="1" stop-color="#B063F6"/>
</linearGradient>
<linearGradient id="paint28_linear_16_616" x1="100.657" y1="118.84" x2="100.657" y2="145.155" gradientUnits="userSpaceOnUse">
<stop stop-color="#5FFBD6"/>
<stop offset="1" stop-color="#B063F6"/>
</linearGradient>
<linearGradient id="paint29_linear_16_616" x1="94.4577" y1="151.505" x2="94.4577" y2="159.524" gradientUnits="userSpaceOnUse">
<stop stop-color="#5FFBD6"/>
<stop offset="1" stop-color="#B063F6"/>
</linearGradient>
<linearGradient id="paint30_linear_16_616" x1="104.067" y1="157.257" x2="104.067" y2="163.51" gradientUnits="userSpaceOnUse">
<stop stop-color="#5FFBD6"/>
<stop offset="1" stop-color="#B063F6"/>
</linearGradient>
<linearGradient id="paint31_linear_16_616" x1="116.728" y1="158.219" x2="116.728" y2="165.145" gradientUnits="userSpaceOnUse">
<stop stop-color="#5FFBD6"/>
<stop offset="1" stop-color="#B063F6"/>
</linearGradient>
<linearGradient id="paint32_linear_16_616" x1="130.907" y1="161.303" x2="130.907" y2="168.226" gradientUnits="userSpaceOnUse">
<stop stop-color="#5FFBD6"/>
<stop offset="1" stop-color="#B063F6"/>
</linearGradient>
<linearGradient id="paint33_linear_16_616" x1="144.503" y1="161.758" x2="144.503" y2="169.68" gradientUnits="userSpaceOnUse">
<stop stop-color="#5FFBD6"/>
<stop offset="1" stop-color="#B063F6"/>
</linearGradient>
<linearGradient id="paint34_linear_16_616" x1="159.233" y1="163.165" x2="159.233" y2="171.087" gradientUnits="userSpaceOnUse">
<stop stop-color="#5FFBD6"/>
<stop offset="1" stop-color="#B063F6"/>
</linearGradient>
<linearGradient id="paint35_linear_16_616" x1="174.283" y1="164.092" x2="174.283" y2="171.087" gradientUnits="userSpaceOnUse">
<stop stop-color="#5FFBD6"/>
<stop offset="1" stop-color="#B063F6"/>
</linearGradient>
<linearGradient id="paint36_linear_16_616" x1="190.395" y1="163.203" x2="190.395" y2="172.569" gradientUnits="userSpaceOnUse">
<stop stop-color="#5FFBD6"/>
<stop offset="1" stop-color="#B063F6"/>
</linearGradient>
<linearGradient id="paint37_linear_16_616" x1="208.612" y1="163.257" x2="208.612" y2="174.3" gradientUnits="userSpaceOnUse">
<stop stop-color="#5FFBD6"/>
<stop offset="1" stop-color="#B063F6"/>
</linearGradient>
<linearGradient id="paint38_linear_16_616" x1="67.3366" y1="64.64" x2="67.3366" y2="124.304" gradientUnits="userSpaceOnUse">
<stop stop-color="#5FFBD6"/>
<stop offset="1" stop-color="#B063F6"/>
</linearGradient>
<linearGradient id="paint39_linear_16_616" x1="86.9059" y1="65.0343" x2="86.9059" y2="120.048" gradientUnits="userSpaceOnUse">
<stop stop-color="#5FFBD6"/>
<stop offset="1" stop-color="#B063F6"/>
</linearGradient>
<linearGradient id="paint40_linear_16_616" x1="80.8301" y1="90.807" x2="80.8301" y2="120.599" gradientUnits="userSpaceOnUse">
<stop stop-color="#5FFBD6"/>
<stop offset="1" stop-color="#B063F6"/>
</linearGradient>
<linearGradient id="paint41_linear_16_616" x1="92.085" y1="68.6595" x2="92.085" y2="99.3206" gradientUnits="userSpaceOnUse">
<stop stop-color="#5FFBD6"/>
<stop offset="1" stop-color="#B063F6"/>
</linearGradient>
<linearGradient id="paint42_linear_16_616" x1="86.3599" y1="76.8657" x2="86.3599" y2="84.5204" gradientUnits="userSpaceOnUse">
<stop stop-color="#5FFBD6"/>
<stop offset="1" stop-color="#B063F6"/>
</linearGradient>
</defs>
</svg>
