<svg width="190" height="166" viewBox="0 0 190 166" fill="none" xmlns="http://www.w3.org/2000/svg">
<g clip-path="url(#clip0_78_1475)">
<path d="M144.704 101.712C144.511 101.122 143.049 101.381 142.908 100.854C142.768 100.327 144.171 99.8864 145.247 98.4039C145.441 98.1366 146.664 96.4518 146.195 95.7432C145.306 94.4001 139.122 97.7453 137.637 95.8681C137.311 95.4561 137.177 94.7489 136.207 93.4327C135.821 92.909 135.573 92.6563 135.277 92.6637C134.857 92.6743 134.707 93.1997 134.047 94.1514C133.057 95.5786 132.7 95.3994 132.048 96.5689C131.563 97.437 131.506 97.9916 131.157 98.0243C130.663 98.0706 130.459 96.9898 129.855 96.9478C129.239 96.9051 128.623 97.973 128.317 98.8074C127.744 100.373 128.099 101.57 128.178 102.763C128.263 104.059 128.063 105.956 126.654 108.392L113.37 129.556C116.223 125.241 124.321 113.476 127.584 109.161C128.526 107.915 129.538 106.664 131.096 106.428C132.596 106.202 134.421 106.944 136.968 106.901C137.266 106.896 138.093 106.871 138.295 106.432C138.461 106.069 138.048 105.754 138.198 105.413C138.4 104.956 139.308 105.152 140.544 104.848C141.416 104.634 142.009 104.28 142.518 103.976C142.672 103.884 144.96 102.498 144.704 101.712Z" fill="#F2F2F2"/>
<path d="M109.911 106.653C109.566 106.578 109.271 107.37 108.972 107.287C108.673 107.204 108.862 106.388 108.444 105.432C108.369 105.26 107.895 104.173 107.412 104.199C106.496 104.248 106.354 108.248 105.004 108.435C104.708 108.477 104.322 108.338 103.396 108.435C103.028 108.473 102.832 108.522 102.75 108.669C102.634 108.878 102.849 109.104 103.125 109.702C103.54 110.6 103.349 110.724 103.735 111.381C104.022 111.869 104.277 112.057 104.193 112.238C104.073 112.494 103.483 112.282 103.289 112.566C103.09 112.856 103.436 113.467 103.758 113.858C104.361 114.591 105.05 114.762 105.659 115.067C106.319 115.399 107.193 116.045 107.982 117.439L114.536 130.066C113.242 127.421 109.804 120.051 108.627 117.205C108.288 116.383 107.966 115.525 108.3 114.693C108.621 113.891 109.512 113.21 110.226 111.947C110.309 111.8 110.536 111.386 110.379 111.161C110.249 110.974 109.975 111.086 109.851 110.914C109.684 110.683 110.042 110.294 110.25 109.6C110.397 109.11 110.394 108.717 110.392 108.379C110.391 108.277 110.371 106.754 109.911 106.653Z" fill="#F2F2F2"/>
<path d="M116.45 109.734L116.656 107.832L116.783 107.712C117.367 107.16 117.733 106.574 117.87 105.972C117.892 105.876 117.909 105.779 117.926 105.681C117.995 105.29 118.08 104.803 118.456 104.298C118.666 104.017 119.223 103.381 119.797 103.603C119.952 103.661 120.057 103.762 120.129 103.868C120.148 103.85 120.166 103.831 120.186 103.811C120.434 103.57 120.608 103.482 120.775 103.397C120.903 103.332 121.036 103.264 121.26 103.085C121.359 103.006 121.438 102.935 121.504 102.876C121.705 102.696 121.963 102.485 122.316 102.569C122.69 102.671 122.819 103.028 122.904 103.264C123.056 103.686 123.102 103.975 123.133 104.168C123.145 104.238 123.158 104.317 123.167 104.343C123.249 104.549 124.277 104.602 124.664 104.625C125.534 104.672 126.286 104.713 126.467 105.308C126.597 105.734 126.326 106.199 125.639 106.726C125.426 106.889 125.212 107.003 125.025 107.087C125.14 107.195 125.231 107.343 125.237 107.544C125.249 108.019 124.762 108.383 123.789 108.629C123.547 108.691 123.222 108.772 122.796 108.752C122.595 108.742 122.42 108.711 122.27 108.682C122.248 108.768 122.207 108.856 122.133 108.94C121.916 109.188 121.566 109.252 121.091 109.112C120.567 108.966 120.153 108.767 119.787 108.592C119.468 108.44 119.193 108.31 118.962 108.275C118.532 108.214 118.131 108.48 117.652 108.833L116.45 109.734Z" fill="#F2F2F2"/>
<path d="M119.879 98.8992L117.987 99.1824L117.839 99.0905C117.157 98.6651 116.498 98.4598 115.88 98.4799C115.782 98.4831 115.684 98.4913 115.584 98.4996C115.188 98.5326 114.696 98.5738 114.113 98.3382C113.787 98.206 113.031 97.8288 113.1 97.2171C113.117 97.0525 113.187 96.9258 113.272 96.8285C113.25 96.8156 113.227 96.8022 113.203 96.7879C112.907 96.6092 112.777 96.4637 112.653 96.3236C112.557 96.216 112.458 96.1048 112.227 95.9333C112.126 95.858 112.038 95.7997 111.963 95.7506C111.738 95.6013 111.469 95.4055 111.46 95.0429C111.464 94.6551 111.777 94.4404 111.984 94.2982C112.353 94.0442 112.622 93.9254 112.8 93.8467C112.865 93.8181 112.938 93.7855 112.96 93.7696C113.139 93.638 112.93 92.63 112.854 92.2502C112.679 91.3972 112.527 90.659 113.057 90.333C113.436 90.0994 113.954 90.2433 114.638 90.7738C114.851 90.9391 115.015 91.1173 115.144 91.2761C115.22 91.1377 115.339 91.012 115.532 90.9558C115.988 90.8231 116.464 91.2019 116.949 92.0812C117.07 92.2995 117.231 92.5935 117.319 93.0105C117.361 93.207 117.376 93.3847 117.386 93.5368C117.474 93.5368 117.57 93.5539 117.67 93.6039C117.965 93.7506 118.115 94.073 118.1 94.5679C118.092 95.1121 118.005 95.5632 117.928 95.9611C117.862 96.3086 117.806 96.6079 117.831 96.8403C117.881 97.2712 118.24 97.5914 118.703 97.9657L119.879 98.8992Z" fill="#F2F2F2"/>
<path d="M120.134 93.2168L120.34 91.3146L120.467 91.1951C121.051 90.6425 121.417 90.0571 121.554 89.4546C121.576 89.3589 121.593 89.262 121.61 89.1633C121.679 88.7722 121.764 88.286 122.14 87.781C122.35 87.4996 122.907 86.8637 123.481 87.0858C123.636 87.1439 123.741 87.2444 123.813 87.3509C123.832 87.3324 123.85 87.3139 123.87 87.2939C124.118 87.0529 124.292 86.9646 124.459 86.8796C124.587 86.8142 124.72 86.7469 124.944 86.5674C125.043 86.4887 125.122 86.4179 125.188 86.3584C125.389 86.1785 125.647 85.9679 126 86.0513C126.374 86.1535 126.503 86.5105 126.588 86.7467C126.74 87.1682 126.786 87.458 126.817 87.6503C126.829 87.7205 126.841 87.7996 126.851 87.8253C126.933 88.0317 127.961 88.0851 128.348 88.1074C129.218 88.1545 129.97 88.1954 130.151 88.7907C130.281 89.2167 130.01 89.6812 129.323 90.2082C129.11 90.3721 128.896 90.4853 128.709 90.5698C128.824 90.6781 128.915 90.8255 128.921 91.0262C128.933 91.5012 128.446 91.8657 127.473 92.1114C127.231 92.1732 126.906 92.2549 126.48 92.2343C126.279 92.2243 126.104 92.1936 125.954 92.1649C125.932 92.2503 125.891 92.339 125.817 92.4232C125.6 92.6711 125.25 92.7342 124.775 92.5944C124.251 92.4483 123.837 92.2496 123.471 92.075C123.152 91.9228 122.877 91.7928 122.646 91.7572C122.216 91.6971 121.815 91.9624 121.336 92.3155L120.134 93.2168Z" fill="#F2F2F2"/>
<path d="M113.998 129.664L113.664 129.334L113.199 129.285C113.201 129.241 113.198 129.139 113.195 128.979C113.177 128.104 113.121 125.441 113.492 121.349C113.751 118.492 114.184 115.592 114.778 112.729C115.374 109.861 115.992 107.727 116.488 106.012C116.863 104.718 117.241 103.491 117.61 102.296C118.595 99.1028 119.525 96.0865 120.101 92.646C120.23 91.878 120.497 90.2792 119.949 88.3922C119.631 87.2978 119.087 86.2677 118.331 85.3314L119.063 84.7402C119.897 85.7749 120.499 86.9157 120.853 88.1308C121.46 90.223 121.168 91.965 121.028 92.802C120.442 96.3033 119.503 99.3486 118.508 102.573C118.141 103.763 117.764 104.985 117.391 106.273C116.899 107.973 116.287 110.088 115.699 112.919C115.111 115.748 114.684 118.613 114.428 121.433C114.062 125.474 114.117 128.097 114.135 128.959C114.144 129.419 114.146 129.516 113.998 129.664Z" fill="#F2F2F2"/>
<path d="M116.323 86.4139C116.285 86.4055 116.247 86.3961 116.209 86.3849C115.437 86.1685 114.818 85.5393 114.368 84.5152C114.158 84.0336 114.108 83.5268 114.009 82.516C113.993 82.3602 113.924 81.5716 114.009 80.5265C114.064 79.8436 114.137 79.5693 114.323 79.3539C114.53 79.114 114.808 78.9766 115.101 78.9076C115.109 78.8172 115.139 78.7288 115.198 78.645C115.439 78.2972 115.844 78.4401 116.063 78.5145C116.174 78.5542 116.312 78.6047 116.467 78.6308C116.711 78.6729 116.856 78.6301 117.076 78.5663C117.287 78.5052 117.549 78.4291 117.911 78.4355C118.626 78.4454 119.155 78.7665 119.329 78.8722C120.248 79.4243 120.565 80.3049 120.932 81.3247C121.005 81.5291 121.247 82.2679 121.304 83.2193C121.344 83.9057 121.254 84.1866 121.151 84.3875C120.941 84.8005 120.618 84.992 119.817 85.3948C118.981 85.8169 118.562 86.0281 118.217 86.1366C117.417 86.388 116.914 86.5458 116.323 86.4139Z" fill="#F2F2F2"/>
<path d="M32.0357 82.5345C31.4153 82.5084 31.1466 83.9688 30.603 83.9154C30.0612 83.8621 30.1395 82.3936 29.1278 80.8666C28.9453 80.5912 27.7956 78.8558 26.9676 79.0469C25.3983 79.409 26.3653 86.3734 24.0871 87.1063C23.5871 87.2672 22.8777 87.145 21.3049 87.5931C20.6792 87.7713 20.3557 87.9148 20.259 88.1946C20.1218 88.5917 20.5613 88.9165 21.2215 89.868C22.2116 91.2951 21.9186 91.5669 22.7856 92.5873C23.4291 93.3448 23.9286 93.5928 23.8369 93.9312C23.7072 94.4101 22.6234 94.2227 22.3727 94.7734C22.1169 95.3354 22.9013 96.2867 23.5758 96.8652C24.8416 97.9507 26.0869 98.0373 27.2316 98.3814C28.4756 98.7552 30.1825 99.608 31.9702 101.78L47.1409 121.635C44.0989 117.452 35.9155 105.746 33.0161 101.179C32.1792 99.86 31.362 98.4738 31.6872 96.9321C32.0003 95.4479 33.3346 93.9985 34.1864 91.5974C34.2859 91.317 34.5528 90.5329 34.2123 90.1906C33.9309 89.9076 33.4906 90.1843 33.2239 89.924C32.8661 89.5749 33.3678 88.7936 33.5164 87.5287C33.6213 86.6368 33.4973 85.9579 33.3906 85.3741C33.3585 85.1981 32.8617 82.5692 32.0357 82.5345Z" fill="#F2F2F2"/>
<path d="M24.4775 116.854C24.2857 117.151 24.9249 117.704 24.7418 117.955C24.5594 118.206 23.8612 117.744 22.8198 117.8C22.632 117.81 21.4486 117.873 21.3035 118.335C21.0284 119.21 24.7256 120.744 24.428 122.074C24.3626 122.366 24.098 122.679 23.8641 123.58C23.771 123.939 23.7481 124.139 23.8576 124.267C24.0129 124.449 24.2991 124.327 24.9566 124.277C25.9427 124.203 25.9916 124.425 26.7425 124.294C27.3 124.197 27.5658 124.023 27.7055 124.166C27.9031 124.368 27.4984 124.846 27.6963 125.128C27.8983 125.415 28.5916 125.305 29.0701 125.141C29.9681 124.833 30.3699 124.246 30.8691 123.784C31.4115 123.281 32.3225 122.69 33.9045 122.439L48.0268 120.722C45.0959 121.008 36.9893 121.647 33.911 121.752C33.0223 121.782 32.1062 121.783 31.4434 121.179C30.8052 120.597 30.4788 119.524 29.5462 118.413C29.4372 118.283 29.1294 117.926 28.8632 117.994C28.6431 118.051 28.6519 118.347 28.4471 118.403C28.1725 118.478 27.9338 118.006 27.3559 117.568C26.9484 117.259 26.5794 117.124 26.2621 117.008C26.1664 116.973 24.7329 116.458 24.4775 116.854Z" fill="#F2F2F2"/>
<path d="M29.6535 111.808L27.9439 110.948L27.8763 110.788C27.5635 110.047 27.1433 109.499 26.6271 109.16C26.545 109.106 26.4602 109.056 26.3738 109.005C26.0314 108.804 25.6058 108.554 25.2645 108.025C25.0746 107.73 24.674 106.985 25.0831 106.525C25.1918 106.401 25.3225 106.338 25.4478 106.307C25.4368 106.284 25.4261 106.26 25.4144 106.234C25.2755 105.917 25.2536 105.724 25.2325 105.537C25.2162 105.394 25.1996 105.246 25.1101 104.973C25.0709 104.854 25.0321 104.755 24.9996 104.672C24.9017 104.42 24.7947 104.105 24.9965 103.804C25.2233 103.489 25.6025 103.494 25.8537 103.497C26.3017 103.502 26.5895 103.56 26.7804 103.598C26.8501 103.612 26.9287 103.628 26.9562 103.628C27.1782 103.623 27.5883 102.679 27.7447 102.325C28.0934 101.527 28.3952 100.836 29.0162 100.875C29.4607 100.903 29.801 101.319 30.0541 102.147C30.1327 102.405 30.1638 102.645 30.1777 102.849C30.3193 102.779 30.4893 102.745 30.6793 102.81C31.1286 102.965 31.2994 103.549 31.1886 104.547C31.1617 104.795 31.1243 105.128 30.9558 105.52C30.8763 105.704 30.786 105.858 30.7067 105.988C30.7788 106.039 30.8475 106.109 30.9005 106.207C31.0569 106.497 30.9934 106.847 30.6961 107.243C30.3756 107.683 30.0444 108.001 29.7528 108.282C29.4985 108.528 29.2802 108.74 29.166 108.944C28.9592 109.326 29.0674 109.794 29.2301 110.367L29.6535 111.808Z" fill="#F2F2F2"/>
<path d="M20.7062 104.801L20.3087 106.672L20.1709 106.779C19.5333 107.269 19.1102 107.814 18.9127 108.4C18.8813 108.493 18.8547 108.588 18.8275 108.684C18.7198 109.066 18.5861 109.541 18.1609 110.006C17.923 110.264 17.3048 110.841 16.7561 110.562C16.6078 110.488 16.5139 110.378 16.4524 110.264C16.4324 110.281 16.412 110.297 16.3901 110.315C16.1189 110.53 15.9374 110.6 15.7625 110.668C15.6281 110.72 15.4894 110.773 15.248 110.929C15.1421 110.997 15.0565 111.06 14.9844 111.112C14.7658 111.271 14.4881 111.454 14.1454 111.336C13.7835 111.196 13.692 110.828 13.6312 110.584C13.5227 110.15 13.5054 109.857 13.4941 109.662C13.4901 109.591 13.4852 109.511 13.4781 109.485C13.4175 109.271 12.4001 109.114 12.0176 109.053C11.1573 108.918 10.4129 108.801 10.2932 108.19C10.2072 107.753 10.5234 107.318 11.2599 106.864C11.4893 106.722 11.7135 106.631 11.9073 106.566C11.8043 106.447 11.7284 106.291 11.7432 106.091C11.7788 105.617 12.3004 105.304 13.2936 105.158C13.5405 105.121 13.8725 105.072 14.294 105.136C14.4924 105.166 14.6641 105.214 14.8102 105.258C14.841 105.176 14.8907 105.091 14.9727 105.015C15.2133 104.79 15.5678 104.763 16.0261 104.95C16.5329 105.149 16.925 105.388 17.2709 105.599C17.5732 105.783 17.8339 105.94 18.0602 105.999C18.4815 106.102 18.907 105.879 19.4197 105.576L20.7062 104.801Z" fill="#F2F2F2"/>
<path d="M15.4731 102.572L13.7635 101.712L13.6958 101.552C13.3831 100.811 12.9629 100.263 12.4466 99.9239C12.3646 99.87 12.2797 99.8202 12.1934 99.7694C11.851 99.5683 11.4253 99.3185 11.084 98.7894C10.8942 98.4937 10.4936 97.7496 10.9027 97.2896C11.0114 97.1648 11.1421 97.102 11.2673 97.0713C11.2564 97.0477 11.2457 97.0237 11.234 96.998C11.0951 96.6813 11.0732 96.4879 11.0521 96.3016C11.0358 96.1584 11.0192 96.0106 10.9297 95.7375C10.8904 95.6178 10.8517 95.5191 10.8192 95.4361C10.7213 95.1844 10.6143 94.8692 10.816 94.5678C11.0429 94.2532 11.4221 94.258 11.6733 94.2611C12.1213 94.2663 12.4091 94.324 12.6 94.3623C12.6697 94.3765 12.7483 94.3921 12.7758 94.3919C12.9978 94.3875 13.4079 93.4433 13.5643 93.0888C13.913 92.2909 14.2148 91.6005 14.8358 91.6395C15.2803 91.6671 15.6206 92.0833 15.8737 92.911C15.9523 93.1688 15.9834 93.4087 15.9973 93.6128C16.1389 93.5434 16.3089 93.5095 16.4988 93.5746C16.9482 93.7292 17.1189 94.3132 17.0082 95.311C16.9813 95.5592 16.9438 95.8926 16.7754 96.2841C16.6959 96.4685 16.6056 96.6222 16.5262 96.7525C16.5983 96.8033 16.6671 96.8727 16.7201 96.9713C16.8765 97.2611 16.813 97.6109 16.5157 98.0068C16.1952 98.4467 15.864 98.7651 15.5724 99.0463C15.3181 99.2921 15.0998 99.5044 14.9856 99.7083C14.7788 100.09 14.887 100.558 15.0497 101.131L15.4731 102.572Z" fill="#F2F2F2"/>
<path d="M47.4624 121.085L47.0356 121.283L46.8267 121.701C46.7865 121.684 46.6897 121.651 46.5389 121.598C45.713 121.308 43.199 120.427 39.496 118.647C36.9112 117.404 34.3468 115.983 31.8729 114.423C29.3952 112.861 27.6129 111.534 26.1802 110.469C25.0998 109.665 24.0829 108.881 23.0928 108.116C20.4469 106.075 17.9474 104.148 14.9266 102.403C14.2524 102.013 12.8487 101.203 10.8893 101.055C9.75286 100.97 8.59729 101.119 7.4554 101.499L7.15808 100.606C8.4195 100.187 9.69894 100.023 10.9608 100.118C13.1332 100.281 14.6628 101.165 15.3977 101.589C18.4718 103.365 20.9952 105.311 23.6665 107.372C24.6533 108.133 25.6655 108.914 26.7416 109.714C28.1609 110.77 29.9278 112.085 32.3737 113.627C34.8179 115.169 37.351 116.572 39.9031 117.8C43.5594 119.558 46.0361 120.425 46.8497 120.71C47.2841 120.863 47.375 120.895 47.4624 121.085Z" fill="#F2F2F2"/>
<path d="M7.76604 103.759C7.745 103.791 7.72293 103.824 7.69907 103.855C7.22596 104.502 6.41975 104.862 5.30297 104.925C4.77817 104.953 4.28604 104.822 3.30458 104.561C3.15314 104.521 2.39046 104.309 1.44116 103.864C0.820749 103.573 0.589549 103.409 0.452927 103.159C0.300473 102.882 0.269161 102.573 0.307467 102.274C0.225558 102.235 0.15311 102.176 0.0951664 102.092C-0.145902 101.743 0.129688 101.414 0.276233 101.235C0.352179 101.145 0.447758 101.034 0.526518 100.898C0.651314 100.684 0.662169 100.533 0.67958 100.304C0.696083 100.086 0.716599 99.8135 0.849496 99.4766C1.109 98.8107 1.59512 98.4277 1.75522 98.3013C2.59406 97.6342 3.53005 97.6456 4.61377 97.6589C4.83077 97.6622 5.60757 97.6942 6.51843 97.9747C7.17558 98.177 7.40724 98.3596 7.55927 98.5266C7.87234 98.8686 7.93868 99.2377 8.03557 100.129C8.13797 101.06 8.18881 101.527 8.17 101.887C8.12498 102.725 8.09675 103.251 7.76604 103.759Z" fill="#F2F2F2"/>
<path d="M18.5242 130.642C18.5242 130.792 18.7353 130.913 18.9981 130.913H169.97C170.233 130.913 170.444 130.792 170.444 130.642C170.444 130.491 170.233 130.37 169.97 130.37H18.9981C18.7353 130.37 18.5242 130.491 18.5242 130.642Z" fill="#CCCCCC"/>
<path d="M75.0953 41.5655C79.1192 41.5655 82.3812 38.3035 82.3812 34.2796C82.3812 30.2557 79.1192 26.9937 75.0953 26.9937C71.0714 26.9937 67.8093 30.2557 67.8093 34.2796C67.8093 38.3035 71.0714 41.5655 75.0953 41.5655Z" fill="#FF6884"/>
<path d="M107.944 129.42C107.985 129.768 107.997 130.093 107.973 130.411H90.4499C90.2905 130.093 90.1548 129.762 90.0367 129.42C87.8942 123.264 91.4179 113.017 86.9499 97.8253C83.6329 86.5521 77.4415 77.7342 74.5553 73.6263C71.0081 68.5741 66.9887 63.9113 62.3319 56.4628C61.3226 54.8515 60.2838 53.1044 59.2096 51.198C58.8496 50.5606 54.7004 43.1652 55.0781 42.935C55.2552 42.8287 56.353 44.322 56.7248 44.8237C60.0064 49.2621 61.9128 51.2039 64.6456 54.397C66.3041 56.3329 68.2636 58.7233 71.014 62.4122C78.0671 71.8616 81.5907 76.5833 82.8184 80.1187C83.143 81.0631 84.8723 86.1744 88.1303 92.5133C89.7948 95.7477 90.627 97.3649 91.0814 97.2351C92.3681 96.8632 90.6329 83.4712 85.1793 70.085C84.2467 67.8068 83.5502 66.3489 82.2282 63.5926C80.0798 59.0951 68.116 34.0994 59.3218 19.1374C58.2181 17.2546 57.1616 15.537 56.1877 14.032C55.9988 13.7487 55.8159 13.4712 55.6388 13.2057C54.4112 11.376 53.3252 9.92993 52.4221 8.99741C51.944 8.50161 50.7282 7.09688 48.2906 4.27566C47.3226 3.15423 46.6144 2.32204 46.1363 1.71409C46.0655 1.62558 46.0005 1.53703 45.9474 1.4603C45.369 0.704844 45.2038 0.338875 45.3395 0.144129C45.5343 -0.133293 46.2838 0.0260789 47.1042 0.315279C47.1928 0.344783 47.2872 0.380194 47.3758 0.415605C48.267 0.746127 49.17 1.17701 49.471 1.32457C52.2332 2.65256 54.9306 5.03112 57.4272 7.85829C58.3538 8.90295 59.245 10.0067 60.1068 11.1399C62.8808 14.7992 65.3007 18.7832 67.1304 22.0589C69.3732 26.096 70.7189 29.0648 70.7189 29.0648C76.9811 42.8936 83.928 58.7115 84.2939 58.5757C84.6953 58.4282 76.9929 38.7385 74.7501 28.0437C74.0005 24.4611 73.8648 21.8878 74.8504 21.392C74.8858 21.3743 74.9212 21.3566 74.9626 21.3448C75.116 21.2916 75.2577 21.2975 75.3344 21.3034C75.3344 21.3034 76.2492 21.1854 77.2113 21.392C78.4095 21.6517 79.7729 24.9864 81.1008 29.6668C84.5536 41.7309 87.8352 62.7073 87.8352 62.7073C91.1168 83.6895 96.0983 100.67 97.2787 100.481C97.9339 100.375 96.9954 95.1044 97.8689 86.316C98.4828 80.1541 99.1792 80.343 101.41 69.1997C104.952 51.5226 106.722 42.687 106.722 42.6399C106.704 42.268 106.657 41.5184 106.769 40.7393C106.888 39.8953 107.188 39.01 107.903 38.5083C108.989 37.7411 110.736 38.0716 111.444 38.5083C112.011 38.8624 112.3 39.5117 112.365 40.4442C112.754 46.311 104.326 63.3211 101.41 86.316C99.9583 97.7721 99.1615 104.023 101.41 112.286C103.635 120.478 107.513 125.695 107.944 129.42Z" fill="#CCCCCC"/>
<path d="M137.087 127.613L138.573 123.025L152.117 128.962L151.11 132.071L137.087 127.613Z" fill="#A0616A"/>
<path d="M147.914 126.882L148.019 128.717L148.965 129.082C148.965 129.082 147.725 129.033 146.703 130.958L147.526 131.555C147.526 131.555 148.12 132.686 149.797 133.183L154.348 134.359L154.904 132.824L151.971 131.402C151.971 131.402 151.447 130.716 155.462 130.053C155.462 130.053 156.817 129.76 156.992 126.037C157.016 125.526 156.715 125.047 156.235 124.868C155.971 124.769 155.687 124.777 155.471 125.073C154.923 125.828 154.886 126.759 154.003 127.041C153.121 127.324 147.914 126.882 147.914 126.882Z" fill="#2F2E41"/>
<path d="M128.768 137.693L130.595 133.23L143.655 140.169L142.417 143.193L128.768 137.693Z" fill="#A0616A"/>
<path d="M139.619 137.779L139.587 139.616L140.502 140.051C140.502 140.051 139.27 139.909 138.106 141.752L138.881 142.409C138.881 142.409 139.389 143.582 141.024 144.203L145.473 145.718L146.143 144.229L143.326 142.591C143.326 142.591 142.854 141.867 146.908 141.508C146.908 141.508 148.281 141.318 148.735 137.619C148.798 137.111 148.534 136.611 148.069 136.396C147.813 136.277 147.529 136.264 147.292 136.544C146.688 137.255 146.581 138.18 145.68 138.396C144.779 138.611 139.619 137.779 139.619 137.779Z" fill="#2F2E41"/>
<path d="M105.116 89.4494C105.637 89.9519 106.976 88.8533 107.026 89.575C107.076 90.2968 105.835 92.8321 105.388 93.4011C105.166 93.684 104.894 93.9246 104.674 94.2092C104.454 94.4938 104.285 94.8429 104.32 95.2008C104.381 95.8237 105.011 96.2354 105.222 96.8243C105.469 97.5102 105.103 98.2514 104.739 98.8827C104.425 99.4268 104.099 99.9735 103.653 100.416C103.207 100.858 102.621 101.192 101.993 101.213C101.194 101.239 100.47 100.77 99.8318 100.287C99.2187 99.8228 98.6228 99.3226 98.1584 98.7097C97.6939 98.0968 97.3657 97.3586 97.3484 96.5898C97.3267 95.6254 97.7977 94.6994 98.4564 93.9946C99.115 93.2899 99.9506 92.7777 100.793 92.3083C102.213 91.5177 103.685 90.8222 105.197 90.2281" fill="#2F2E41"/>
<path d="M102.424 98.0952C104.951 98.0952 107 96.0463 107 93.5189C107 90.9915 104.951 88.9426 102.424 88.9426C99.8962 88.9426 97.8473 90.9915 97.8473 93.5189C97.8473 96.0463 99.8962 98.0952 102.424 98.0952Z" fill="#A0616A"/>
<path d="M109.117 106.473L113.871 114.595L122.771 119.299L120.458 121.445L111.807 118.182L105.816 110.487L106.301 106.743L109.117 106.473Z" fill="#A0616A"/>
<path d="M99.3255 98.7217L103.46 99.8031L103.401 101.789L106.905 107.776C106.905 107.776 110.221 111.576 107.373 114.333L109.113 116.289L97.321 121.209L92.1382 106.597L96.8655 100.955L99.3255 98.7217Z" fill="url(#paint0_linear_78_1475)"/>
<path d="M102.662 102.221C102.662 102.221 105.158 99.372 107.096 102.005C109.034 104.638 109.999 107.642 109.999 107.642L105.427 109.822L102.662 102.221Z" fill="url(#paint1_linear_78_1475)"/>
<path d="M96.4332 120.539C96.4332 120.539 106.74 114.605 108.841 115.655L112.808 120.57L116.534 120.669L132.774 118.976L140.828 123.896L137.41 127.88L131.863 125.178L123.631 128.09C123.631 128.09 126.634 128.438 126.729 130.464L133.12 133.761L128.643 137.968L119.947 133.443C119.947 133.443 105.046 132.557 100.421 127.528C95.7957 122.498 96.4332 120.539 96.4332 120.539Z" fill="#2F2E41"/>
<path d="M99.52 97.0217L100.195 95.635C100.195 95.635 105.294 90.9654 106.774 92.4782L106.943 94.4609C106.943 94.4609 107.854 94.3241 107.575 93.0004C107.296 91.6768 107.833 92.2549 107.833 92.2549C107.833 92.2549 109.009 92.0622 108.139 91.0843C107.269 90.1064 107.26 88.2281 104.287 89.0763C102.635 89.5474 100.571 90.5664 99.0611 91.3793C97.3668 92.2917 96.8457 94.5297 98.04 96.0386C98.3969 96.4895 98.8762 96.8533 99.52 97.0217Z" fill="#2F2E41"/>
<path d="M125.776 123.29C126.418 122.382 125.798 120.838 124.391 119.842C122.983 118.846 121.321 118.775 120.679 119.683C120.036 120.591 120.656 122.135 122.064 123.131C123.471 124.127 125.133 124.198 125.776 123.29Z" fill="#A0616A"/>
<path d="M115.938 98.4727L116.394 99.8415H115.938C115.938 99.8415 116.508 102.921 114.683 103.378C112.858 103.834 111.174 100.925 111.174 100.925L110.349 101.324C110.349 101.324 111.033 104.746 108.524 105.203C106.014 105.659 105.102 102.693 105.102 102.693L99.1702 103.149L99.3983 101.324L104.772 101.861C104.772 101.861 104.645 100.412 107.839 100.184L112.402 99.2711L115.938 98.4727Z" fill="#2F2E41"/>
<path d="M96.9465 105.666L96.8024 108.129L104.724 105.574L104.791 108.073L95.3313 114.71C95.3313 114.71 92.581 110.807 92.256 109.457C91.9311 108.106 92.1003 106.024 92.1003 106.024L96.9465 105.666Z" fill="#A0616A"/>
<path d="M98.135 101.599C98.135 101.599 95.3473 98.8693 93.885 101.113C92.4227 103.357 91.6465 107.281 91.6465 107.281L97.4345 106.669L98.135 101.599Z" fill="url(#paint2_linear_78_1475)"/>
<path d="M95.6191 99.1476C96.2669 100.892 96.319 102.851 95.7648 104.628C97.0849 104.367 98.1893 103.374 98.7915 102.171C99.3938 100.968 99.5383 99.5765 99.427 98.2355L99.4235 98.1953C99.2489 96.1804 100.398 94.2801 102.284 93.5492C103.555 93.0562 104.737 92.3293 105.74 91.4042C106.306 90.882 106.853 90.1843 106.731 89.4238C106.619 88.723 105.981 88.2423 105.374 87.8737C103.989 87.032 102.46 86.3592 100.844 86.2399C99.2275 86.1205 97.5112 86.619 96.4193 87.8167C95.3275 89.0143 95.0229 90.9589 95.9366 92.2974C95.532 92.3204 95.1646 92.6468 95.094 93.0459C95.0235 93.445 95.2568 93.8776 95.629 94.0379C95.3784 93.9628 95.142 94.2568 95.1704 94.5168C95.1987 94.7769 95.3929 94.9846 95.583 95.1643C95.8537 95.4203 96.1566 95.6932 96.0392 96.1476C95.9921 96.3297 95.881 96.4894 95.7363 96.6096C95.3855 96.9009 94.9283 96.9539 94.4893 97.001C95.269 97.4708 95.7452 98.4021 95.6695 99.3092" fill="#2F2E41"/>
<path d="M106.574 107.416C107.786 106.19 108.127 104.562 107.336 103.78C106.544 102.998 104.92 103.358 103.708 104.585C102.497 105.811 102.156 107.439 102.947 108.221C103.738 109.003 105.362 108.643 106.574 107.416Z" fill="#A0616A"/>
<path d="M174.384 48.5747C173.727 48.9437 172.667 47.4842 172.427 48.1981C172.187 48.912 172.769 51.7924 173.069 52.4833C173.218 52.8266 173.429 53.1407 173.575 53.4853C173.721 53.8299 173.8 54.2261 173.671 54.5774C173.445 55.1888 172.702 55.4375 172.334 55.9748C171.905 56.6007 172.078 57.4437 172.279 58.1755C172.452 58.8063 172.636 59.4428 172.969 60.0058C173.302 60.5689 173.803 61.0591 174.43 61.2454C175.228 61.4826 176.082 61.2007 176.851 60.8825C177.591 60.5765 178.323 60.2297 178.952 59.7347C179.582 59.2397 180.107 58.5827 180.327 57.8129C180.602 56.8472 180.372 55.7905 179.894 54.9071C179.416 54.0237 178.71 53.2878 177.985 52.593C176.763 51.4228 175.464 50.3345 174.097 49.3376" fill="#2F2E41"/>
<path d="M184.149 98.1221L182.78 110.898C182.78 110.898 185.974 117.513 182.552 125.498L182.324 130.061L178.446 129.604L179.358 125.726L177.305 109.985L175.708 98.5783L184.149 98.1221Z" fill="#FFB6B6"/>
<path d="M173.199 97.894C173.199 97.894 174.111 107.932 172.286 113.179C172.286 113.179 173.199 121.164 170.689 129.605V135.889L166.583 135.08L166.811 111.582L165.67 98.8066L173.199 97.894Z" fill="#FFB6B6"/>
<path d="M172.615 58.8238C173.772 60.2806 175.81 60.7028 177.456 59.8357C179.805 58.5979 183.012 57.1793 183.579 58.3128C184.491 60.1379 184.491 61.9091 184.491 61.9091L185.404 83.1794C185.404 83.1794 185.86 91.7676 180.157 91.0095C174.453 90.2515 165.556 93.4454 165.556 93.4454L166.465 84.0224L168.892 80.4697L169.875 70.277L168.18 62.077L170.233 61.1645C170.233 61.1645 170.461 59.5676 171.145 59.5676C171.83 59.5676 171.995 58.0335 172.597 58.8006L172.615 58.8238Z" fill="url(#paint3_linear_78_1475)"/>
<path d="M184.605 82.8372L185.061 108.282C185.061 108.282 180.955 114.67 176.62 109.423L174.111 96.7533L173.655 111.476C173.655 111.476 167.495 114.67 165.67 112.161L165.556 93.4454L169.776 84.8904L184.605 82.8372Z" fill="#2F2E41"/>
<path d="M182.458 127.373C182.458 127.373 183.921 128.464 183.465 129.833C183.008 131.201 179.586 136.449 176.621 135.764C173.655 135.08 175.024 133.483 175.024 133.483L178.446 128.464C178.446 128.464 179.814 128.692 180.499 129.148C181.183 129.605 182.458 127.373 182.458 127.373Z" fill="#2F2E41"/>
<path d="M170.689 133.939C170.689 133.939 173.198 136.448 171.83 137.589C170.461 138.73 161.107 139.642 161.336 138.273C161.564 136.905 166.354 133.026 166.354 133.026C166.354 133.026 167.723 132.57 168.18 133.711C168.636 134.851 170.689 133.939 170.689 133.939Z" fill="#2F2E41"/>
<path d="M176.024 58.1471C178.655 58.1471 180.788 56.0141 180.788 53.3828C180.788 50.7515 178.655 48.6184 176.024 48.6184C173.392 48.6184 171.259 50.7515 171.259 53.3828C171.259 56.0141 173.392 58.1471 176.024 58.1471Z" fill="#FFB6B6"/>
<path d="M181.395 60.8446C180.283 62.4309 179.714 64.3908 179.804 66.3259C178.543 65.7151 177.692 64.4248 177.403 63.0541C177.113 61.6834 177.334 60.2442 177.8 58.9228C177.804 58.9096 177.809 58.8964 177.814 58.8832C178.52 56.8998 177.864 54.6831 176.157 53.4502C175.006 52.6185 174.007 51.5752 173.241 50.3793C172.808 49.7041 172.44 48.8571 172.764 48.1233C173.061 47.447 173.831 47.131 174.539 46.9195C176.155 46.4366 177.873 46.1618 179.533 46.4674C181.192 46.7729 182.789 47.7272 183.574 49.2211C184.358 50.715 184.152 52.7538 182.879 53.8613C183.281 53.9911 183.565 54.4167 183.531 54.8372C183.497 55.2578 183.148 55.632 182.731 55.6954C183.003 55.6858 183.164 56.0442 183.066 56.2986C182.969 56.5531 182.719 56.7111 182.48 56.8421C182.14 57.0287 181.763 57.2237 181.762 57.7123C181.761 57.9082 181.831 58.0983 181.945 58.2575C182.222 58.6433 182.668 58.817 183.098 58.9802C182.189 59.2479 181.464 60.0605 181.301 60.9941" fill="#2F2E41"/>
<path d="M179.998 87.6458C178.951 88.4232 177.702 88.5131 177.207 87.8469C176.713 87.1806 177.16 86.0105 178.208 85.233C178.622 84.9167 179.105 84.7041 179.619 84.6132L184.096 81.3755L185.57 83.5088L181 86.4741C180.764 86.9391 180.421 87.3409 179.998 87.6458Z" fill="#FFB6B6"/>
<path d="M182.819 61.2786C182.819 61.2786 186.43 61.3926 187.115 63.9021C187.799 66.4116 189.168 71.7604 188.94 79.187C188.94 79.187 190.08 83.9778 187.115 83.7497L183.008 85.5748L180.271 81.9246L182.552 79.187L182.819 61.2786Z" fill="url(#paint4_linear_78_1475)"/>
<path d="M78.833 142.148L75.4186 134.766L71.6309 136.671L73.7592 143.343L77.558 145.199L78.833 142.148Z" fill="#FFB6B6"/>
<path d="M51.8853 121.025C52.1894 121.162 53.1145 121.714 54.2519 121.528C55.0281 121.401 55.5495 120.987 55.7219 120.858C57.8607 119.256 64.377 117.885 69.2568 119.388C70.3619 119.728 71.0339 120.108 71.5651 120.679C72.3182 121.488 72.4426 122.308 73.0423 124.339C73.3703 125.45 73.7848 126.535 74.1226 127.643C76.1001 134.13 77.3974 135.044 76.6661 136.641C75.8548 138.411 73.2676 139.448 72.0276 138.783C71.5198 138.511 71.4442 138.064 70.9947 137.054C69.6767 134.093 68.6615 134.194 67.7656 131.966C66.7195 129.365 67.5305 127.803 66.641 127.417C65.816 127.058 64.96 128.332 62.4945 129.554C61.3664 130.114 60.6395 130.296 58.4063 130.904C49.71 133.274 49.478 133.574 47.9324 133.462C47.2562 133.412 42.4567 133.061 41.5746 130.601C40.1943 126.75 49.1449 119.79 51.8853 121.025Z" fill="#2F2E41"/>
<path d="M76.7559 142.807C77.2126 142.77 77.7466 142.726 78.0634 142.303C78.2778 142.016 78.3607 141.599 78.2505 141.251C78.1235 140.85 77.7842 140.683 77.8184 140.632C77.8704 140.554 78.6958 140.884 79.4998 141.535C79.6515 141.658 80.3354 142.223 81.0584 143.358C81.6377 144.267 81.4855 144.354 81.8599 144.892C83.0092 146.545 84.7639 146.185 85.2303 147.518C85.4103 148.033 85.3461 148.65 85.0477 149.062C84.4485 149.889 83.013 149.738 82.2319 149.645C80.3506 149.423 79.1469 148.634 77.8528 147.914C73.452 145.467 70.5678 145.254 70.6 144.045C70.6061 143.816 70.7081 143.872 71.6026 142.494C72.4855 141.134 72.6184 140.721 72.9639 140.71C73.484 140.692 73.5019 141.616 74.5533 142.302C75.4851 142.911 76.46 142.831 76.7559 142.807Z" fill="#2F2E41"/>
<path d="M63.4077 156.714L64.728 148.688L60.5241 148.137L58.5383 154.853L60.6396 158.522L63.4077 156.714Z" fill="#FFB6B6"/>
<path d="M52.5151 124.103C52.6898 124.387 53.1451 125.364 54.1909 125.848C54.9046 126.179 55.5681 126.129 55.7833 126.119C58.4526 125.995 64.6142 128.52 67.8082 132.503C68.5316 133.405 68.8742 134.097 68.9934 134.868C69.1623 135.96 68.8046 136.708 68.1602 138.726C67.8077 139.83 67.5419 140.959 67.1991 142.066C65.1923 148.545 65.7525 150.029 64.2511 150.939C62.5853 151.949 59.8627 151.354 59.21 150.107C58.9427 149.597 59.1311 149.185 59.3262 148.097C59.8984 144.907 59.0017 144.42 59.5113 142.074C60.1063 139.334 61.6544 138.497 61.1354 137.678C60.6542 136.918 59.2303 137.491 56.5039 137.118C55.2564 136.947 54.5526 136.69 52.3632 135.94C43.8369 133.017 43.476 133.135 42.2605 132.174C41.7287 131.753 37.8283 128.732 38.6063 126.237C42.1742 114.791 50.941 121.542 52.5151 124.103Z" fill="#2F2E41"/>
<path d="M60.8628 156.092C61.2616 156.318 61.728 156.582 62.2278 156.41C62.566 156.293 62.8689 155.994 62.9731 155.645C63.0932 155.241 62.9064 154.912 62.9632 154.889C63.0498 154.855 63.5475 155.591 63.8474 156.581C63.904 156.768 64.1524 157.62 64.1137 158.964C64.0826 160.042 63.9077 160.028 63.9152 160.684C63.9382 162.697 65.5922 163.384 65.2294 164.749C65.0894 165.276 64.6897 165.751 64.2116 165.924C63.2515 166.272 62.1485 165.341 61.5539 164.826C60.1218 163.586 59.5691 162.257 58.9024 160.935C56.635 156.439 54.3684 154.642 55.074 153.66C55.2075 153.474 55.2606 153.578 56.7746 152.94C58.2689 152.31 58.6104 152.043 58.9028 152.228C59.3429 152.505 58.839 153.28 59.3235 154.438C59.7529 155.465 60.6043 155.946 60.8628 156.092Z" fill="#2F2E41"/>
<path d="M48.5807 85.925L54.4454 85.5061L56.2606 88.4385L61.7064 89.9744L59.6817 104.147L61.1851 119.233C61.1851 119.233 54.0265 124.185 53.4679 126.419C52.9094 128.654 39.2251 124.185 39.2251 124.185L43.9029 109.733L43.484 98.4224L42.2273 91.8595L47.9523 89.2064L48.5807 85.925Z" fill="#3F3D56"/>
<path d="M45.9276 90.1141C45.9276 90.1141 41.2542 90.0443 40.6236 91.9992C39.9931 93.9541 37.8985 107.499 37.8985 107.499L36.2927 113.433L43.484 109.873L41.948 107.503L46.9749 97.8639L45.9276 90.1141Z" fill="#3F3D56"/>
<path d="M48.7866 111.827C49.5593 111.828 50.2777 111.383 50.5781 110.671C50.8053 110.133 50.7839 109.616 50.6139 109.173C50.6686 109.15 50.7228 109.127 50.7788 109.107C50.6965 109.073 50.6166 109.036 50.5366 108.998C50.2583 108.443 49.7246 108.041 49.089 107.943C48.3017 107.099 47.8177 105.969 47.8127 104.726C47.8023 102.162 49.8816 100.021 52.4441 99.9598C52.4643 99.9593 52.4845 99.9589 52.5046 99.9587C53.6521 99.9455 54.693 100.587 55.2744 101.577C55.6136 102.154 56.2405 102.542 56.9588 102.542C57.5086 102.542 58.0046 102.314 58.3592 101.949C59.1317 101.152 60.099 100.559 61.1937 100.377C61.9126 100.258 62.6567 100.213 63.418 100.251C68.6292 100.51 73.1126 105.128 73.2239 110.345C73.3479 116.155 68.6751 120.904 62.8933 120.904C59.8848 120.904 57.1779 119.617 55.2901 117.565C54.4519 116.654 53.2775 116.143 52.0395 116.156C52.0269 116.156 52.0143 116.156 52.0017 116.156C49.9966 116.156 48.3712 114.531 48.3712 112.526C48.3712 112.414 48.3767 112.305 48.3871 112.196C48.4064 111.993 48.5829 111.827 48.7866 111.827Z" fill="url(#paint5_linear_78_1475)"/>
<path d="M65.9653 108.756L31.196 102.193L31.0564 104.706L65.5464 112.945L65.9653 108.756Z" fill="url(#paint6_linear_78_1475)"/>
<path d="M31.6149 102.611L31.196 102.193C31.196 102.193 29.3808 101.355 29.3808 101.215C29.3808 101.128 26.7002 100.22 24.6947 99.5526C23.5747 99.18 22.3919 99.9173 22.2324 101.087L21.9811 102.93C21.8308 104.032 22.6623 105.024 23.7736 105.068L28.6826 105.264L31.0564 104.706L31.6149 102.611Z" fill="url(#paint7_linear_78_1475)"/>
<path d="M65.8955 109.523L65.9784 109.176L31.1869 102.524L31.1262 102.961L65.8955 109.523Z" fill="#3F3D56"/>
<path d="M65.8158 110.184L65.8955 109.803L31.1491 103.213L31.1262 103.659L65.8158 110.184Z" fill="#3F3D56"/>
<path d="M65.7361 110.975L65.7559 110.361L31.1218 103.714L31.1263 104.078L65.7361 110.975Z" fill="#3F3D56"/>
<path d="M65.6433 111.895L65.6162 111.339L31.0712 104.215L31.0415 104.351L65.6433 111.895Z" fill="#3F3D56"/>
<path d="M65.6427 112.452L65.6162 112.037L31.1232 104.446L31.0923 104.582L65.6427 112.452Z" fill="#3F3D56"/>
<path d="M45.6638 89.2238L47.3938 88.2659L48.1442 103.589L47.8825 105.474C47.8825 105.474 43.5148 93.4303 45.6638 89.2238Z" fill="#3F3D56"/>
<path d="M52.039 84.4589C54.4297 84.4589 56.3677 82.5209 56.3677 80.1302C56.3677 77.7395 54.4297 75.8015 52.039 75.8015C49.6484 75.8015 47.7103 77.7395 47.7103 80.1302C47.7103 82.5209 49.6484 84.4589 52.039 84.4589Z" fill="#FFB6B6"/>
<path d="M47.8825 82.7134L48.9173 83.5395L47.7428 79.0829C47.7428 79.0829 51.0243 79.0131 51.3035 77.1978C51.3035 77.1978 53.8868 77.128 54.585 77.128C55.2831 77.128 55.5982 81.7477 55.5982 81.7477C55.5982 81.7477 56.9588 77.9658 55.5624 76.0109C54.1661 74.056 54.6548 75.2429 54.3755 74.5447C54.0962 73.8465 51.2337 73.2044 49.4184 73.9164C47.6032 74.6283 47.5334 75.6431 46.9748 75.6525C46.4163 75.6618 44.4614 78.4545 46.2766 80.6887C48.0919 82.9229 47.8825 82.7134 47.8825 82.7134Z" fill="#2F2E41"/>
<path d="M61.5632 111.119C62.0763 110.71 62.4543 110.219 62.6674 109.733L67.8014 106.142L66.0211 103.749L61.0049 107.649C60.484 107.749 59.921 108.009 59.408 108.418C58.2358 109.353 57.7681 110.716 58.3633 111.462C58.9584 112.208 60.3911 112.055 61.5632 111.119Z" fill="#FFB6B6"/>
<path d="M41.8938 105.657C41.5131 106.191 41.2848 106.768 41.2135 107.293L37.265 112.158L39.6348 113.969L43.3849 108.839C43.8582 108.6 44.3281 108.196 44.7088 107.661C45.5785 106.439 45.6534 105 44.8761 104.447C44.0987 103.894 42.7636 104.435 41.8938 105.657Z" fill="#FFB6B6"/>
<path d="M59.4722 90.8822C59.4722 90.8822 60.7289 88.7877 61.9857 90.0444C62.9801 91.0388 68.4337 97.3667 70.6667 99.9647C71.2825 100.681 71.6205 101.594 71.6205 102.539C71.6205 104 70.8137 105.342 69.5231 106.027L62.5442 109.733L60.5893 106.801L66.5936 102.472L57.3777 97.4451L59.4722 90.8822Z" fill="#3F3D56"/>
<path d="M37.4043 110.184L36.2927 113.433L39.5043 115.109L41.948 113.433L43.484 109.872L38.9458 108.546" fill="#3F3D56"/>
<path d="M161.078 59.0015C160.948 57.6374 161.547 56.4646 162.415 56.382C163.283 56.2994 164.092 57.3382 164.222 58.7028C164.281 59.2472 164.209 59.7978 164.012 60.3087L164.49 66.0953L161.77 66.2617L161.588 60.5395C161.297 60.0749 161.123 59.5475 161.078 59.0015Z" fill="#FFB6B6"/>
<path d="M175.899 61.7465C175.899 61.7465 171.455 59.1323 170.54 59.5245C169.625 59.9166 165.18 66.5829 165.18 66.5829L164.772 65.3663L161.651 65.6679C161.651 65.6679 159.821 74.1641 163.873 73.3798C167.925 72.5956 174.592 65.2757 174.592 65.2757L175.899 61.7465Z" fill="url(#paint8_linear_78_1475)"/>
<path d="M154.668 62.7007L160.812 61.2723L161.252 62.5487L164.225 61.7458L166.185 61.216L168.089 57.5171L166.738 53.6014L162.716 53.5637L161.485 53.8056L158.054 54.4806C157.764 54.9611 157.922 55.5864 158.407 55.8702L158.566 55.9633L153.738 56.7993C153.738 56.7993 152.196 59.5436 154.668 62.7007Z" fill="#3F3D56"/>
<path d="M161.485 53.8056L164.225 61.7458L166.185 61.216L168.089 57.5171L166.738 53.6014L162.715 53.5637L161.485 53.8056Z" fill="#2F2E41"/>
<path d="M160.446 54.1368C160.869 54.0431 161.174 53.7958 161.127 53.5844C161.08 53.3729 160.7 53.2774 160.277 53.371C159.854 53.4646 159.549 53.7119 159.596 53.9234C159.642 54.1348 160.023 54.2304 160.446 54.1368Z" fill="#3F3D56"/>
</g>
<defs>
<linearGradient id="paint0_linear_78_1475" x1="92.9433" y1="99.3345" x2="96.9254" y2="122.858" gradientUnits="userSpaceOnUse">
<stop stop-color="#5FFBD6"/>
<stop offset="1" stop-color="#B063F6"/>
</linearGradient>
<linearGradient id="paint1_linear_78_1475" x1="103.01" y1="101.132" x2="104.471" y2="110.518" gradientUnits="userSpaceOnUse">
<stop stop-color="#5FFBD6"/>
<stop offset="1" stop-color="#B063F6"/>
</linearGradient>
<linearGradient id="paint2_linear_78_1475" x1="91.9542" y1="100.42" x2="92.9885" y2="107.866" gradientUnits="userSpaceOnUse">
<stop stop-color="#5FFBD6"/>
<stop offset="1" stop-color="#B063F6"/>
</linearGradient>
<linearGradient id="paint3_linear_78_1475" x1="166.498" y1="58.8669" x2="174.813" y2="95.2147" gradientUnits="userSpaceOnUse">
<stop stop-color="#5FFBD6"/>
<stop offset="1" stop-color="#B063F6"/>
</linearGradient>
<linearGradient id="paint4_linear_78_1475" x1="180.692" y1="61.9407" x2="188.834" y2="85.2391" gradientUnits="userSpaceOnUse">
<stop stop-color="#5FFBD6"/>
<stop offset="1" stop-color="#B063F6"/>
</linearGradient>
<linearGradient id="paint5_linear_78_1475" x1="49.0179" y1="100.529" x2="51.3655" y2="122.82" gradientUnits="userSpaceOnUse">
<stop stop-color="#5FFBD6"/>
<stop offset="1" stop-color="#B063F6"/>
</linearGradient>
<linearGradient id="paint6_linear_78_1475" x1="32.712" y1="102.486" x2="33.1667" y2="114.037" gradientUnits="userSpaceOnUse">
<stop stop-color="#5FFBD6"/>
<stop offset="1" stop-color="#B063F6"/>
</linearGradient>
<linearGradient id="paint7_linear_78_1475" x1="22.4212" y1="99.6136" x2="22.8992" y2="105.828" gradientUnits="userSpaceOnUse">
<stop stop-color="#5FFBD6"/>
<stop offset="1" stop-color="#B063F6"/>
</linearGradient>
<linearGradient id="paint8_linear_78_1475" x1="161.934" y1="59.8645" x2="163.732" y2="74.6529" gradientUnits="userSpaceOnUse">
<stop stop-color="#5FFBD6"/>
<stop offset="1" stop-color="#B063F6"/>
</linearGradient>
<clipPath id="clip0_78_1475">
<rect width="189.155" height="166" fill="white"/>
</clipPath>
</defs>
</svg>
