<svg width="264" height="200" viewBox="0 0 264 200" fill="none" xmlns="http://www.w3.org/2000/svg">
<g clip-path="url(#clip0_1616_2)">
<path opacity="0.1" d="M130.668 200C186.081 200 231.002 196.752 231.002 192.746C231.002 188.739 186.081 185.491 130.668 185.491C75.2543 185.491 30.333 188.739 30.333 192.746C30.333 196.752 75.2543 200 130.668 200Z" fill="url(#paint0_linear_1616_2)"/>
<path opacity="0.1" d="M260.587 159.443C259.494 161.125 258.153 162.633 256.61 163.915C256.185 164.265 255.744 164.607 255.297 164.925C249.565 169.042 241.891 170.851 234.435 172.023C219.961 174.298 205.185 174.741 190.47 175.175C178.082 175.544 165.687 175.913 153.294 176.158C135.58 176.513 117.864 176.619 100.178 176.158C90.5097 175.904 80.8494 175.456 71.1968 174.815C53.2869 173.59 34.9154 171.425 19.3244 163.866C16.4714 162.503 13.745 160.889 11.177 159.044C6.94293 155.959 3.45647 152.225 1.59209 147.804C-1.40751 140.698 0.177663 132.712 3.60414 125.744C5.68079 121.53 8.37813 117.585 11.177 113.674C12.8337 111.352 14.5273 109.045 16.1379 106.703C16.3063 106.472 16.4701 106.225 16.6317 105.985C16.9432 105.524 17.2524 105.062 17.5546 104.601C18.8191 102.656 20.0166 100.648 21.1149 98.6017C22.2098 96.5601 23.1994 94.4638 24.0799 92.321C24.8875 90.3631 25.5809 88.36 26.1566 86.3218C26.5396 84.9489 26.8626 83.5713 27.1118 82.1938C28.4755 74.6925 27.7556 67.1958 23.7177 60.4098C23.6784 60.3429 23.6369 60.2713 23.5954 60.2044L23.5446 60.1236C22.4048 58.2524 21.0296 56.4895 19.6774 54.7197C18.0622 52.5969 16.4725 50.4603 15.3534 48.1229C12.4091 41.946 13.046 35.0008 14.1166 28.404C15.5449 19.6359 18.203 10.1756 26.4335 4.70936C34.9823 -0.980664 47.1192 -0.69224 57.7309 1.34288C74.2195 4.49708 89.446 11.1124 104.82 17.0816C120.194 23.0508 136.291 28.5101 153.195 29.0939C168.121 29.613 185.53 25.7366 195.436 15.6533C205.058 5.86306 223.145 5.11777 236.187 11.0385C248.628 16.6801 256.674 28.6232 256.07 40.5477C255.188 57.9155 238.45 71.236 228.464 86.4325C228.016 87.1109 227.58 87.8054 227.165 88.5092C223.242 95.1383 220.826 102.75 223.72 109.652C227.601 118.897 239.124 123.408 248.843 129.216C253.536 132.02 257.819 135.128 260.587 139.226C260.691 139.373 260.786 139.519 260.88 139.664C264.787 145.709 264.492 153.43 260.587 159.443Z" fill="url(#paint1_linear_1616_2)"/>
<path opacity="0.3" d="M17.5523 104.596C18.8167 102.651 20.0143 100.644 21.1126 98.5971C22.2081 96.557 23.1985 94.4622 24.0799 92.321C24.8875 90.3631 25.5809 88.36 26.1566 86.3217C26.5396 84.9489 26.8626 83.5713 27.1118 82.1938C28.4755 74.6925 27.7556 67.1958 23.7176 60.4098C23.6784 60.3428 23.6369 60.2713 23.5954 60.2044L19.6728 54.7197H48.7805V74.0464H56.8772V132.02H67.325V113.214H79.8611V132.02H90.302V99.8938H90.8235V83.1791H100.745V99.8938H123.729V124.966H136.528V117.121H144.373V124.966H157.17V50.7926H173.885V39.0387H176.758V50.7926H181.458V74.0372H189.817V54.7105H196.869V34.8669H211.493V54.7105H218.547V74.0372H227.165V88.5068C223.242 95.136 220.826 102.748 223.72 109.649C227.601 118.895 239.124 123.406 248.843 129.214C253.536 132.02 257.819 135.128 260.587 139.226V159.45C259.494 161.13 258.153 162.635 256.609 163.915C256.185 164.265 255.744 164.607 255.297 164.925C249.565 169.042 241.891 170.851 234.435 172.023C219.961 174.298 205.185 174.741 190.47 175.175C178.082 175.544 165.687 175.913 153.294 176.158H100.173C90.5051 175.904 80.8448 175.456 71.1922 174.815C53.2822 173.59 34.9108 171.425 19.3198 163.866C16.4668 162.503 13.7403 160.889 11.1724 159.044V113.674C12.8291 111.352 14.5227 109.045 16.1333 106.703L17.5523 104.596Z" fill="url(#paint2_linear_1616_2)"/>
<path opacity="0.4" d="M27.1026 82.1847V86.3126H26.1566C26.5304 84.9397 26.8488 83.5622 27.1026 82.1847Z" fill="white"/>
<path opacity="0.4" d="M40.6839 86.3125H51.6532V80.0433H40.6839V86.3125Z" fill="white"/>
<path opacity="0.4" d="M27.1026 92.321V98.5879H21.1034C22.2017 96.5511 23.1952 94.4594 24.0799 92.321H27.1026Z" fill="white"/>
<path opacity="0.4" d="M40.6839 98.5879H51.6532V92.3187H40.6839V98.5879Z" fill="white"/>
<path opacity="0.4" d="M17.5523 104.594H27.1026V110.863H16.1333V106.703L17.5523 104.594Z" fill="white"/>
<path opacity="0.4" d="M40.6839 110.863H51.6532V104.594H40.6839V110.863Z" fill="white"/>
<path opacity="0.4" d="M27.1026 116.872H16.1333V123.141H27.1026V116.872Z" fill="white"/>
<path opacity="0.4" d="M40.6839 123.139H51.6532V116.869H40.6839V123.139Z" fill="white"/>
<path opacity="0.4" d="M27.1026 129.147H16.1333V135.416H27.1026V129.147Z" fill="white"/>
<path opacity="0.4" d="M40.6839 135.414H51.6532V129.145H40.6839V135.414Z" fill="white"/>
<path opacity="0.4" d="M27.1026 141.422H16.1333V147.691H27.1026V141.422Z" fill="white"/>
<path opacity="0.4" d="M40.6839 147.689H51.6532V141.42H40.6839V147.689Z" fill="white"/>
<path opacity="0.4" d="M27.1026 153.698H16.1333V159.967H27.1026V153.698Z" fill="white"/>
<path opacity="0.4" d="M40.6839 159.964H51.6532V153.695H40.6839V159.964Z" fill="white"/>
<path opacity="0.4" d="M86.391 138.286H60.7952V141.42H86.391V138.286Z" fill="white"/>
<path opacity="0.4" d="M86.391 142.989H60.7952V146.122H86.391V142.989Z" fill="white"/>
<path opacity="0.4" d="M86.391 147.689H60.7952V150.823H86.391V147.689Z" fill="white"/>
<path opacity="0.4" d="M153.252 139.856H127.656V142.989H153.252V139.856Z" fill="white"/>
<path opacity="0.4" d="M153.252 144.556H127.656V147.689H153.252V144.556Z" fill="white"/>
<path opacity="0.4" d="M153.252 149.256H127.656V152.389H153.252V149.256Z" fill="white"/>
<path opacity="0.4" d="M86.391 152.392H60.7952V155.525H86.391V152.392Z" fill="white"/>
<path opacity="0.4" d="M86.391 157.092H60.7952V160.225H86.391V157.092Z" fill="white"/>
<path opacity="0.4" d="M86.391 161.794H60.7952V164.928H86.391V161.794Z" fill="white"/>
<path opacity="0.4" d="M102.843 105.902H95.7913V115.044H102.843V105.902Z" fill="white"/>
<path opacity="0.4" d="M111.202 115.042H118.254V105.9H111.202V115.042Z" fill="white"/>
<path opacity="0.4" d="M102.843 120.526H95.7913V129.668H102.843V120.526Z" fill="white"/>
<path opacity="0.4" d="M111.202 129.668H118.254V120.527H111.202V129.668Z" fill="white"/>
<path opacity="0.4" d="M102.843 135.153H95.7913V144.295H102.843V135.153Z" fill="white"/>
<path opacity="0.4" d="M111.202 144.295H118.254V135.153H111.202V144.295Z" fill="white"/>
<path opacity="0.4" d="M102.843 149.78H95.7913V158.922H102.843V149.78Z" fill="white"/>
<path opacity="0.4" d="M111.202 158.922H118.254V149.78H111.202V158.922Z" fill="white"/>
<path opacity="0.4" d="M166.571 56.801H157.168V68.8156H166.571V56.801Z" fill="white"/>
<path opacity="0.4" d="M166.571 74.0372H157.168V86.0518H166.571V74.0372Z" fill="white"/>
<path opacity="0.4" d="M166.571 91.2758H157.168V103.29H166.571V91.2758Z" fill="white"/>
<path opacity="0.4" d="M166.571 108.514H157.168V120.529H166.571V108.514Z" fill="white"/>
<path opacity="0.4" d="M166.571 125.75H157.168V137.765H166.571V125.75Z" fill="white"/>
<path opacity="0.4" d="M166.571 142.989H157.168V155.004H166.571V142.989Z" fill="white"/>
<path opacity="0.4" d="M221.812 81.3517H186.813V91.5365H221.812V81.3517Z" fill="white"/>
<path opacity="0.4" d="M221.941 103.29H186.943V113.475H221.941V103.29Z" fill="white"/>
<path opacity="0.4" d="M222.072 125.229H187.074V135.414H222.072V125.229Z" fill="white"/>
<path opacity="0.4" d="M222.202 147.168H187.203V157.353H222.202V147.168Z" fill="white"/>
<path opacity="0.4" d="M23.7085 60.1952V60.4006C23.6692 60.3336 23.6277 60.2621 23.5862 60.1952H23.7085Z" fill="white"/>
<path opacity="0.4" d="M260.587 139.226V142.996H248.843V129.221C253.536 132.02 257.819 135.128 260.587 139.226Z" fill="white"/>
<path opacity="0.4" d="M260.587 149.78V159.443C259.494 161.126 258.153 162.633 256.61 163.915C256.185 164.265 255.744 164.607 255.297 164.925H248.836V149.78H260.587Z" fill="white"/>
<path opacity="0.1" d="M80.3018 47.3153H78.5044C78.8379 47.3153 79.1577 47.1829 79.3936 46.947C79.6294 46.7112 79.7619 46.3913 79.7619 46.0578C79.7619 45.7243 79.6294 45.4044 79.3936 45.1686C79.1577 44.9328 78.8379 44.8003 78.5044 44.8003H63.947C63.6135 44.8003 63.2937 44.9328 63.0578 45.1686C62.822 45.4044 62.6895 45.7243 62.6895 46.0578C62.6895 46.3913 62.822 46.7112 63.0578 46.947C63.2937 47.1829 63.6135 47.3153 63.947 47.3153H65.7445C65.42 47.3292 65.1134 47.4679 64.8887 47.7025C64.664 47.937 64.5386 48.2492 64.5386 48.574C64.5386 48.8988 64.664 49.2111 64.8887 49.4456C65.1134 49.6801 65.42 49.8188 65.7445 49.8327H63.2295C62.8959 49.8327 62.5761 49.9652 62.3402 50.201C62.1044 50.4369 61.9719 50.7567 61.9719 51.0902C61.9719 51.4238 62.1044 51.7436 62.3402 51.9794C62.5761 52.2153 62.8959 52.3478 63.2295 52.3478H77.7845C78.118 52.3478 78.4378 52.2153 78.6737 51.9794C78.9095 51.7436 79.042 51.4238 79.042 51.0902C79.042 50.7567 78.9095 50.4369 78.6737 50.201C78.4378 49.9652 78.118 49.8327 77.7845 49.8327H80.3018C80.6263 49.8188 80.9329 49.6801 81.1576 49.4456C81.3823 49.2111 81.5078 48.8988 81.5078 48.574C81.5078 48.2492 81.3823 47.937 81.1576 47.7025C80.9329 47.4679 80.6263 47.3292 80.3018 47.3153Z" fill="url(#paint3_linear_1616_2)"/>
<path opacity="0.1" d="M144.551 78.9174H142.754C143.087 78.9174 143.407 78.7849 143.643 78.5491C143.879 78.3132 144.011 77.9934 144.011 77.6599C144.011 77.3264 143.879 77.0065 143.643 76.7707C143.407 76.5348 143.087 76.4023 142.754 76.4023H128.196C127.863 76.4023 127.543 76.5348 127.307 76.7707C127.071 77.0065 126.939 77.3264 126.939 77.6599C126.939 77.9934 127.071 78.3132 127.307 78.5491C127.543 78.7849 127.863 78.9174 128.196 78.9174H129.989C129.665 78.9313 129.358 79.07 129.133 79.3045C128.909 79.539 128.783 79.8513 128.783 80.1761C128.783 80.5009 128.909 80.8131 129.133 81.0477C129.358 81.2822 129.665 81.4209 129.989 81.4348H127.474C127.309 81.4348 127.145 81.4673 126.993 81.5305C126.84 81.5937 126.702 81.6863 126.585 81.8031C126.468 81.9199 126.375 82.0585 126.312 82.2111C126.249 82.3636 126.217 82.5271 126.217 82.6923C126.217 82.8574 126.249 83.021 126.312 83.1735C126.375 83.3261 126.468 83.4647 126.585 83.5815C126.702 83.6983 126.84 83.7909 126.993 83.8541C127.145 83.9173 127.309 83.9498 127.474 83.9498H142.034C142.367 83.9498 142.687 83.8173 142.923 83.5815C143.159 83.3457 143.291 83.0258 143.291 82.6923C143.291 82.3588 143.159 82.0389 142.923 81.8031C142.687 81.5672 142.367 81.4348 142.034 81.4348H144.551C144.876 81.4209 145.182 81.2822 145.407 81.0477C145.632 80.8131 145.757 80.5009 145.757 80.1761C145.757 79.8513 145.632 79.539 145.407 79.3045C145.182 79.07 144.876 78.9313 144.551 78.9174Z" fill="url(#paint4_linear_1616_2)"/>
<path opacity="0.1" d="M253.984 37.652H252.186C252.52 37.652 252.84 37.5195 253.075 37.2837C253.311 37.0479 253.444 36.728 253.444 36.3945C253.444 36.061 253.311 35.7411 253.075 35.5053C252.84 35.2695 252.52 35.137 252.186 35.137H237.629C237.295 35.137 236.975 35.2695 236.74 35.5053C236.504 35.7411 236.371 36.061 236.371 36.3945C236.371 36.728 236.504 37.0479 236.74 37.2837C236.975 37.5195 237.295 37.652 237.629 37.652H239.426C239.093 37.652 238.773 37.7845 238.537 38.0203C238.301 38.2562 238.169 38.576 238.169 38.9095C238.169 39.2431 238.301 39.5629 238.537 39.7988C238.773 40.0346 239.093 40.1671 239.426 40.1671H236.911C236.587 40.181 236.28 40.3197 236.055 40.5542C235.831 40.7887 235.705 41.101 235.705 41.4258C235.705 41.7506 235.831 42.0628 236.055 42.2973C236.28 42.5319 236.587 42.6705 236.911 42.6844H251.466C251.636 42.6917 251.806 42.6645 251.965 42.6046C252.124 42.5446 252.269 42.453 252.392 42.3355C252.515 42.2179 252.612 42.0766 252.679 41.9203C252.746 41.764 252.78 41.5957 252.78 41.4258C252.78 41.2558 252.746 41.0875 252.679 40.9312C252.612 40.7749 252.515 40.6337 252.392 40.5161C252.269 40.3985 252.124 40.3069 251.965 40.2469C251.806 40.187 251.636 40.1598 251.466 40.1671H253.984C254.317 40.1671 254.637 40.0346 254.873 39.7988C255.109 39.5629 255.241 39.2431 255.241 38.9095C255.241 38.576 255.109 38.2562 254.873 38.0203C254.637 37.7845 254.317 37.652 253.984 37.652Z" fill="url(#paint5_linear_1616_2)"/>
<path d="M233.093 99.6054L233.106 99.5846L233.051 99.5477L232.938 99.4716C232.946 99.4764 232.953 99.4827 232.959 99.49C232.86 99.4323 232.743 99.4135 232.63 99.4374C232.518 99.4613 232.419 99.5261 232.352 99.6192L232.283 99.7138L229.052 104.352L228.487 105.166C226.789 104.654 224.029 106.809 222.629 108.044L222.384 108.263C222.273 108.014 222.209 107.857 222.209 107.857C222.139 108.613 219.461 109.751 218.835 110.164C218.554 110.334 218.239 110.441 217.912 110.478C218 107.591 215.771 104.555 215.771 104.555L210.323 97.6141C210.122 96.3594 210.317 95.0732 210.879 93.9338C210.923 93.8438 210.972 93.7538 211.022 93.6639C211.099 93.6639 211.179 93.6639 211.253 93.6639H211.283C211.728 93.6634 212.172 93.624 212.61 93.5462C214.214 93.2618 215.675 92.4469 216.76 91.2321C217.845 90.0174 218.491 88.4734 218.593 86.8478C219.142 86.7071 219.608 86.1971 219.53 85.6111C219.55 85.4997 219.55 85.3855 219.53 85.2742C219.515 85.2041 219.494 85.1354 219.467 85.0688C219.313 84.6743 218.981 84.3558 218.741 83.9959C218.404 83.4685 218.224 82.8564 218.221 82.2307C218.242 81.6843 218.328 81.1421 218.475 80.6156C218.585 80.3014 218.638 79.97 218.63 79.6372V79.5703C218.634 79.4832 218.63 79.3959 218.618 79.3096C218.608 79.2478 218.594 79.1869 218.575 79.1273C218.44 78.756 218.183 78.4418 217.845 78.2366C216.982 77.6736 215.877 77.6644 214.908 77.3137C213.501 76.7991 212.229 75.5278 210.755 75.8346C209.952 76.0008 209.336 76.6169 208.641 77.0506C207.875 77.53 206.995 77.7975 206.092 77.8259C205.332 77.849 204.564 77.7013 203.816 77.8259C203.682 77.8499 203.55 77.8854 203.422 77.9321C202.786 77.716 202.118 77.6106 201.447 77.6206C200.788 77.6036 200.139 77.7826 199.582 78.1351C198.572 78.8389 198.304 80.2118 198.318 81.4324C198.317 81.4423 198.317 81.4524 198.318 81.4624C198.318 81.5431 198.318 81.6216 198.318 81.6931C198.318 82.2792 198.376 82.8745 198.387 83.4606C198.393 84.0076 198.315 84.5522 198.156 85.0758C197.695 86.5248 196.359 87.6323 196.091 89.1344C196.046 89.3933 196.031 89.6566 196.045 89.919C196.027 90.7681 196.299 91.6195 196.55 92.4432C197.072 94.1461 197.473 95.9551 197.487 97.7226C197.476 98.8204 197.258 99.9062 196.844 100.923C196.719 101.22 196.564 101.504 196.382 101.77C196.322 101.853 196.26 101.936 196.193 102.014L196.167 102.044C196.11 102.111 196.047 102.174 195.985 102.234L195.934 102.282C195.875 102.334 195.812 102.384 195.747 102.43L195.685 102.476C195.599 102.534 195.508 102.586 195.413 102.63L195.874 102.603C195.733 102.72 195.578 102.819 195.413 102.898L197.863 102.755C197.87 102.782 197.873 102.809 197.875 102.836C197.868 102.897 197.856 102.957 197.84 103.016C197.824 103.073 197.804 103.129 197.78 103.184C197.781 103.192 197.781 103.2 197.78 103.207C197.731 103.317 197.667 103.42 197.591 103.514L197.57 103.537C197.533 103.584 197.492 103.628 197.448 103.669C197.406 103.706 197.361 103.741 197.314 103.773L197.284 103.796C197.235 103.827 197.184 103.856 197.132 103.881C197.081 103.904 197.029 103.924 196.975 103.941L196.933 103.953C196.878 103.968 196.82 103.979 196.763 103.985L196.993 103.959C197.148 103.941 197.303 103.92 197.455 103.895H197.501C197.304 104.098 197.044 104.228 196.763 104.262C197.291 104.221 197.812 104.118 198.316 103.955C198.634 106.098 199.342 112.631 198.952 113.837C198.535 115.123 199.601 124.546 199.601 124.546C199.601 124.546 199.746 125.268 200 126.346C199.345 127.894 198.597 129.606 198.221 130.294C197.469 131.678 197.838 138.706 200.436 141.831C200.436 141.831 201.511 143.347 201.228 143.907C200.944 144.468 201.276 145.426 201.276 145.426L201.687 154.526C201.678 155.456 201.614 156.384 201.495 157.306C200.39 158.679 198.68 160.68 197.877 160.998C196.634 161.503 187.358 172.766 187.358 172.766C187.358 172.766 187.432 172.902 187.577 173.123L187.316 173.426L185.537 175.489L185.397 175.652C185.062 175.59 182.84 175.191 181.072 175.057L180.899 175.046V175.016C180.279 174.943 179.651 174.959 179.035 175.064H179.021C178.905 175.087 178.799 175.143 178.714 175.226C178.112 175.962 177.791 187.547 177.791 187.547C177.791 187.547 178.433 193.334 180.426 193.666C180.531 193.702 180.639 193.723 180.749 193.728H180.752C180.789 193.731 180.826 193.731 180.863 193.728C182.293 193.625 182.939 192.806 183.237 192.24C183.324 192.07 183.391 191.891 183.435 191.705C183.435 191.705 183.205 190.671 183.83 189.248C184.455 187.824 185.616 185.339 185.616 185.339C185.616 185.339 187.736 183.108 187.358 182.025L187.561 181.732C188.359 180.597 189.967 178.354 191.269 176.857L191.523 176.568C191.997 176.77 192.493 176.914 193.002 176.998C193.002 176.998 194.995 176.218 195.738 174.459C196.054 173.716 197.291 172.401 198.609 171.132C198.581 171.349 198.567 171.471 198.567 171.471L198.521 182.547C198.949 182.842 199.406 183.093 199.885 183.297C199.885 183.387 199.885 183.479 199.885 183.574C199.895 185.153 199.8 186.73 199.601 188.297L199.559 188.541C199.395 188.424 199.255 188.385 199.162 188.477C198.754 188.89 198.5 191.534 198.47 192.752C198.47 192.776 198.47 192.799 198.47 192.822C198.443 193.325 198.309 193.925 198.309 194.46C198.295 195.237 198.539 195.893 199.797 195.948C201.359 196.013 208.078 196.117 211.675 196.179C213.614 196.218 215.501 195.549 216.982 194.298C217.642 193.733 218.148 193.105 218.164 192.512C218.196 192.051 217.949 191.62 217.262 191.241C217.258 191.257 217.254 191.272 217.248 191.287C217.158 191.239 217.061 191.19 216.955 191.144L213.494 190.602L207.61 187.6C207.61 187.6 207.575 185.782 206.869 186.084C206.659 186.128 206.457 186.206 206.272 186.315C206.237 186.246 206.2 186.176 206.165 186.103C205.686 185.151 205.437 184.099 205.439 183.034C205.439 182.937 205.439 182.84 205.452 182.741C205.626 182.585 205.79 182.417 205.942 182.24C205.942 182.24 205.895 178.103 206.357 177.321C206.818 176.538 208.26 168.631 208.26 168.631C208.26 168.631 208.307 167.161 209.234 166.287C210.162 165.412 209.836 162.886 209.836 162.886C209.836 162.886 211.133 162.193 211.551 159.944C211.968 157.694 213.314 152.772 213.314 152.772C213.314 152.772 216.096 145.509 215.912 140.912C215.727 136.316 216.189 133.926 216.189 133.926L216.768 123.245V123.078C216.999 123.256 217.153 123.397 217.153 123.397C217.153 123.397 217.153 123.355 217.153 123.282L217.287 123.397C217.287 123.397 217.582 118.551 217.483 116.629C219.098 116.078 221.576 115.171 221.715 114.71C221.925 114.017 224.714 111.848 224.714 111.848C224.655 111.837 224.598 111.815 224.546 111.784C224.634 111.745 224.724 111.696 224.821 111.645C226.643 110.667 230.033 107.813 229.463 106.066L233.169 100.736C233.286 100.567 233.343 100.363 233.329 100.157C233.315 99.9518 233.232 99.7572 233.093 99.6054ZM202.903 94.423C202.812 94.4242 202.722 94.4311 202.633 94.4438C202.468 93.4926 202.237 92.5542 201.941 91.6357C201.511 90.1912 201.05 88.7376 200.981 87.2355C200.981 87.1709 200.981 87.1039 200.981 87.0393C200.988 86.6433 201.04 86.2493 201.135 85.8649C201.223 86.0287 201.322 86.1902 201.424 86.3425C202.017 87.2378 202.709 88.0892 203.073 89.0975C203.24 89.559 203.337 90.0597 203.59 90.482C203.844 90.9042 204.313 91.2619 204.806 91.1857C204.976 91.1586 205.136 91.086 205.268 90.9758C204.605 92.2063 203.812 93.362 202.903 94.423Z" fill="url(#paint6_linear_1616_2)"/>
<path d="M224.17 112.808C223.903 112.974 223.606 113.087 223.295 113.141C222.142 113.173 221.219 110.083 221.219 110.083C221.219 110.083 221.544 109.753 222.061 109.292C223.591 107.933 226.803 105.42 228.307 106.825C229.989 108.401 226.136 111.745 224.17 112.808Z" fill="#ECB4B6"/>
<path d="M206.825 186.495L202.614 191.04C202.614 191.04 198.717 191.084 199.481 188.934C199.631 188.468 199.739 187.99 199.804 187.505C199.997 185.975 200.089 184.433 200.078 182.891C200.078 181.882 200.062 181.176 200.062 181.176C200.062 181.176 206.198 178.488 205.57 181.287C205.489 181.644 205.446 182.008 205.441 182.374C205.436 183.41 205.673 184.433 206.133 185.362C206.326 185.761 206.558 186.14 206.825 186.495Z" fill="#ECB4B6"/>
<path opacity="0.1" d="M206.825 186.495L202.614 191.04C202.614 191.04 198.717 191.084 199.481 188.934C199.631 188.468 199.739 187.99 199.804 187.505C200.36 187.935 201.161 189.204 201.161 189.204C201.161 189.204 203.846 189.988 204.585 187.637C205 186.322 205.651 185.671 206.147 185.353C206.335 185.754 206.563 186.137 206.825 186.495Z" fill="black"/>
<path d="M216.592 193.341C215.166 194.564 213.341 195.221 211.463 195.187C207.99 195.136 201.5 195.034 199.993 194.972C197.976 194.884 198.645 193.163 198.71 191.973C198.71 191.931 198.71 191.892 198.71 191.853C198.733 190.667 198.98 188.092 199.375 187.699C199.769 187.307 201.154 189.49 201.154 189.49C201.154 189.49 203.839 190.274 204.578 187.923C205.316 185.572 206.825 185.33 206.825 185.33C207.517 185.034 207.543 186.806 207.543 186.806L213.231 189.741L216.567 190.267C216.675 190.316 216.772 190.367 216.865 190.415C218.362 191.25 217.698 192.386 216.592 193.341Z" fill="url(#paint7_linear_1616_2)"/>
<path opacity="0.25" d="M206.082 188.823C206.219 188.823 206.329 188.712 206.329 188.576C206.329 188.44 206.219 188.329 206.082 188.329C205.946 188.329 205.835 188.44 205.835 188.576C205.835 188.712 205.946 188.823 206.082 188.823Z" fill="white"/>
<path opacity="0.25" d="M208.39 189.965C208.526 189.965 208.637 189.855 208.637 189.718C208.637 189.582 208.526 189.471 208.39 189.471C208.253 189.471 208.143 189.582 208.143 189.718C208.143 189.855 208.253 189.965 208.39 189.965Z" fill="white"/>
<path opacity="0.25" d="M209.578 190.498C209.714 190.498 209.825 190.388 209.825 190.251C209.825 190.115 209.714 190.004 209.578 190.004C209.442 190.004 209.331 190.115 209.331 190.251C209.331 190.388 209.442 190.498 209.578 190.498Z" fill="white"/>
<path opacity="0.25" d="M212.04 191.444C212.176 191.444 212.287 191.334 212.287 191.197C212.287 191.061 212.176 190.95 212.04 190.95C211.904 190.95 211.793 191.061 211.793 191.197C211.793 191.334 211.904 191.444 212.04 191.444Z" fill="white"/>
<path opacity="0.25" d="M210.787 191.04C210.923 191.04 211.034 190.93 211.034 190.794C211.034 190.657 210.923 190.547 210.787 190.547C210.651 190.547 210.54 190.657 210.54 190.794C210.54 190.93 210.651 191.04 210.787 191.04Z" fill="white"/>
<path d="M216.592 193.341C215.166 194.564 213.341 195.221 211.463 195.187C207.99 195.136 201.5 195.034 199.993 194.972C197.976 194.885 198.645 193.163 198.71 191.973L211.368 192.757C211.368 192.757 216.553 191.97 216.862 190.427C218.362 191.25 217.698 192.386 216.592 193.341Z" fill="url(#paint8_linear_1616_2)"/>
<path opacity="0.25" d="M216.592 193.29C215.165 194.508 213.339 195.16 211.463 195.122C207.99 195.071 201.5 194.972 199.993 194.908C197.976 194.82 198.645 193.099 198.71 191.908L211.368 192.69C211.368 192.69 216.553 191.903 216.862 190.36C218.362 191.2 217.698 192.335 216.592 193.29Z" fill="white"/>
<path d="M193.027 175.073C192.561 175.452 192.135 175.878 191.756 176.345C190.5 177.805 188.948 179.99 188.177 181.096C187.879 181.525 187.697 181.788 187.697 181.788L186.017 181.539C186.017 181.539 184.204 178.77 184.227 178.696C184.25 178.622 185.66 175.65 185.66 175.65L186.206 175.011L187.928 172.999L188.705 172.09C188.705 172.09 194.55 173.975 193.027 175.073Z" fill="#ECB4B6"/>
<path opacity="0.1" d="M188.177 181.096C187.879 181.525 187.697 181.788 187.697 181.788L186.017 181.539C186.017 181.539 184.204 178.77 184.227 178.696C184.25 178.622 185.66 175.65 185.66 175.65L186.206 175.011L186.386 175.043H186.811C185.311 176.61 186.924 180.06 186.924 180.06C186.924 180.06 187.621 180.129 188.177 181.096Z" fill="black"/>
<path d="M186.289 184.61C186.289 184.61 185.168 187.028 184.563 188.417C183.959 189.806 184.183 190.814 184.183 190.814C184.14 190.994 184.076 191.169 183.991 191.333C183.776 191.76 183.449 192.121 183.045 192.376C182.641 192.632 182.176 192.773 181.698 192.785C181.662 192.788 181.625 192.788 181.589 192.785C179.556 192.732 178.906 186.804 178.906 186.804C178.906 186.804 179.217 175.519 179.801 174.806C179.881 174.724 179.984 174.669 180.096 174.649C180.69 174.546 181.295 174.53 181.894 174.6C183.74 174.732 186.116 175.186 186.116 175.186H186.541C185.041 176.753 186.652 180.203 186.652 180.203C186.652 180.203 187.369 180.27 187.93 181.278C188.491 182.286 186.289 184.61 186.289 184.61Z" fill="url(#paint9_linear_1616_2)"/>
<path opacity="0.25" d="M183.832 181.499C183.968 181.499 184.079 181.389 184.079 181.253C184.079 181.116 183.968 181.006 183.832 181.006C183.696 181.006 183.585 181.116 183.585 181.253C183.585 181.389 183.696 181.499 183.832 181.499Z" fill="white"/>
<path opacity="0.25" d="M183.71 183.454C183.846 183.454 183.957 183.343 183.957 183.207C183.957 183.07 183.846 182.96 183.71 182.96C183.573 182.96 183.463 183.07 183.463 183.207C183.463 183.343 183.573 183.454 183.71 183.454Z" fill="white"/>
<path d="M183.832 191.292C183.555 191.839 182.909 192.639 181.539 192.743H181.444C179.402 192.69 178.751 186.763 178.751 186.763C178.751 186.763 179.065 175.477 179.646 174.764C179.727 174.683 179.83 174.628 179.942 174.607C180.536 174.505 181.142 174.488 181.742 174.559C181.707 176.585 181.612 182.999 181.742 183.636C181.871 184.273 183.02 189.584 183.832 191.292Z" fill="url(#paint10_linear_1616_2)"/>
<path opacity="0.25" d="M183.982 191.333C183.767 191.76 183.44 192.121 183.036 192.377C182.632 192.632 182.166 192.773 181.689 192.785C181.652 192.788 181.616 192.788 181.58 192.785C179.538 192.732 178.89 186.804 178.89 186.804C178.89 186.804 179.203 175.519 179.785 174.806C179.865 174.724 179.968 174.67 180.08 174.649C180.675 174.546 181.281 174.53 181.88 174.6C181.845 176.626 181.749 183.041 181.88 183.678C182.012 184.314 183.168 189.626 183.982 191.333Z" fill="white"/>
<path d="M181.444 192.743C179.402 192.69 178.751 186.763 178.751 186.763C178.751 186.763 179.065 175.477 179.646 174.764C179.727 174.683 179.83 174.628 179.942 174.607C180.371 175.244 180.747 176.654 180.403 179.757C179.766 185.636 180.535 186.006 180.535 186.006C180.535 186.006 181.479 190.99 181.444 192.743Z" fill="url(#paint11_linear_1616_2)"/>
<path opacity="0.1" d="M181.416 192.743C179.367 192.69 178.724 186.758 178.724 186.758C178.724 186.758 179.037 175.472 179.619 174.759C179.699 174.678 179.802 174.623 179.914 174.603C180.343 175.239 180.717 176.649 180.376 179.753C179.739 185.632 180.507 186.001 180.507 186.001C180.507 186.001 181.462 190.99 181.416 192.743Z" fill="black"/>
<path opacity="0.1" d="M224.17 112.808C223.903 112.975 223.606 113.087 223.295 113.141C222.142 113.173 221.219 110.083 221.219 110.083C221.219 110.083 221.544 109.753 222.061 109.292C222.419 110.136 223.45 112.391 224.17 112.808Z" fill="black"/>
<path d="M216.844 111.696C216.844 111.696 217.785 111.763 218.39 111.359C218.994 110.956 221.581 109.848 221.648 109.11C221.648 109.11 223.194 112.871 224.066 113.004C224.066 113.004 221.38 115.123 221.177 115.794C220.974 116.466 215.736 118.102 215.736 118.102L216.844 111.696Z" fill="#FF748E"/>
<path d="M216.844 111.696C216.844 111.696 217.785 111.763 218.39 111.359C218.994 110.956 221.581 109.848 221.648 109.11C221.648 109.11 223.194 112.871 224.066 113.004C224.066 113.004 221.38 115.123 221.177 115.794C220.974 116.466 215.736 118.102 215.736 118.102L216.844 111.696Z" fill="url(#paint12_linear_1616_2)"/>
<path opacity="0.1" d="M193.027 175.073C192.561 175.452 192.135 175.878 191.756 176.345C189.732 175.496 188.424 173.765 187.928 173.004L188.705 172.094C188.705 172.094 194.55 173.975 193.027 175.073Z" fill="black"/>
<path d="M202.612 156.014C202.612 156.014 199.326 160.398 198.126 160.897C196.927 161.395 187.974 172.362 187.974 172.362C187.974 172.362 189.894 175.913 193.442 176.483C193.442 176.483 195.369 175.722 196.084 174.021C196.8 172.32 202.441 167.526 202.441 167.526L202.612 156.014Z" fill="#5E5A6B"/>
<path opacity="0.1" d="M202.612 156.014C202.612 156.014 199.326 160.398 198.126 160.897C196.927 161.395 187.974 172.362 187.974 172.362C187.974 172.362 189.894 175.913 193.442 176.483C193.442 176.483 195.369 175.722 196.084 174.021C196.8 172.32 202.441 167.526 202.441 167.526L202.612 156.014Z" fill="black"/>
<path opacity="0.1" d="M192.658 170.717C193.655 170.823 194.66 170.823 195.657 170.717C197.43 170.548 196.084 171.624 192.658 170.717Z" fill="black"/>
<path opacity="0.1" d="M191.853 171.859C191.853 171.859 194.204 173.202 195.111 172.53C196.017 171.859 194.236 173.179 191.853 171.859Z" fill="black"/>
<path opacity="0.1" d="M205.568 181.299C205.488 181.652 205.446 182.012 205.441 182.374C203.625 184.021 201.44 183.514 200.074 182.912C200.074 181.903 200.058 181.197 200.058 181.197C200.058 181.197 206.195 178.5 205.568 181.299Z" fill="black"/>
<path d="M216.452 122.871L216.385 124.11L215.824 134.516C215.824 134.516 215.363 136.844 215.554 141.323C215.746 145.802 213.055 152.878 213.055 152.878C213.055 152.878 211.756 157.673 211.352 159.868C210.949 162.062 209.696 162.733 209.696 162.733C209.696 162.733 210.009 165.198 209.114 166.047C208.219 166.896 208.175 168.331 208.175 168.331C208.175 168.331 206.791 176.035 206.329 176.797C205.868 177.558 205.925 181.589 205.925 181.589C203.013 185.039 198.759 181.903 198.759 181.903L198.802 171.109C198.802 171.109 200.014 161.167 200.909 159.778C201.804 158.388 201.804 154.581 201.804 154.581L201.405 145.714C201.405 145.714 201.087 144.773 201.361 144.235C201.636 143.697 200.595 142.225 200.595 142.225C198.087 139.179 197.729 132.327 198.456 130.981C199.183 129.636 201.361 124.264 201.361 124.264L204.361 122.516L209.776 122.677L216.452 122.871Z" fill="#5E5A6B"/>
<path opacity="0.1" d="M203.71 175.655C203.71 175.655 204.419 178.108 204.989 178.375C205.559 178.643 203.71 175.655 203.71 175.655Z" fill="black"/>
<path opacity="0.1" d="M204.684 167.491C204.684 167.491 206.53 168.94 207.289 168.936C208.048 168.931 204.684 167.491 204.684 167.491Z" fill="black"/>
<path d="M215.736 106.858V109.813L213.784 108.973L211.839 108.134L207.607 103.969C207.607 103.969 204.259 101.793 202.467 99.8154C201.442 98.6848 200.925 97.6164 201.83 97.0465C202.265 96.7598 202.659 96.4143 203 96.0197C203.901 94.9585 204.685 93.8026 205.337 92.5725L205.42 92.4225C206.292 90.8212 206.867 89.4552 206.867 89.4552C206.867 89.4552 209.322 90.242 210.902 91.3565C211.029 91.4442 211.149 91.5365 211.265 91.6311C212.146 92.3533 212.582 93.1886 211.772 94.0238C211.563 94.2403 211.369 94.4717 211.193 94.7161C211.062 94.8967 210.943 95.0855 210.836 95.2814C210.787 95.369 210.741 95.4567 210.697 95.5421C210.153 96.6544 209.966 97.9073 210.159 99.1301L215.736 106.858Z" fill="#ECB4B6"/>
<path opacity="0.1" d="M211.772 94.0262C211.563 94.2426 211.369 94.474 211.193 94.7184C211.062 94.899 210.943 95.0878 210.836 95.2837C210.787 95.3714 210.741 95.459 210.697 95.5444C209.662 95.4872 208.652 95.2018 207.74 94.7088C206.827 94.2158 206.035 93.5273 205.42 92.6925C205.389 92.654 205.362 92.6148 205.337 92.5748L205.42 92.4248C206.292 90.8235 206.867 89.4575 206.867 89.4575C206.867 89.4575 209.322 90.2443 210.902 91.3588C211.029 91.4465 211.149 91.5388 211.265 91.6334C212.146 92.3556 212.594 93.1909 211.772 94.0262Z" fill="black"/>
<path d="M218.148 88.2323C218.149 89.159 217.968 90.0769 217.614 90.9334C217.26 91.7899 216.74 92.5681 216.085 93.2234C215.43 93.8787 214.652 94.3982 213.795 94.7521C212.939 95.1061 212.021 95.2875 211.094 95.2859H211.064C210.988 95.2859 210.909 95.2859 210.833 95.2859C209.483 95.2362 208.176 94.7998 207.067 94.0287C205.958 93.2577 205.093 92.1843 204.576 90.9362C204.059 89.6882 203.912 88.318 204.151 86.9884C204.39 85.6589 205.006 84.426 205.925 83.4363C206.845 82.4466 208.029 81.7417 209.337 81.4054C210.646 81.0691 212.023 81.1156 213.306 81.5393C214.588 81.963 215.722 82.7462 216.573 83.7956C217.424 84.845 217.955 86.1167 218.104 87.4593C218.132 87.716 218.147 87.974 218.148 88.2323Z" fill="#ECB4B6"/>
<path opacity="0.1" d="M212.019 105.672C212.019 105.672 215.573 107.677 214.661 105.985L210.026 99.1324L215.289 105.895C215.289 105.895 218.648 110.51 216.812 113.687C216.812 113.687 216.542 116.332 216.855 116.957C217.169 117.582 216.765 124.26 216.765 124.26C216.765 124.26 215.513 123.106 214.841 123.319C214.17 123.531 209.421 123.946 209.421 123.946L212.019 105.672Z" fill="black"/>
<path opacity="0.1" d="M216.452 122.871L216.385 124.11C215.96 123.801 215.367 123.455 214.975 123.586C214.304 123.817 209.555 124.214 209.555 124.214L209.774 122.672L216.452 122.871Z" fill="black"/>
<path d="M212.153 105.672C212.153 105.672 215.706 107.677 214.795 105.985L210.159 99.1324L215.423 105.895C215.423 105.895 218.782 110.51 216.945 113.687C216.945 113.687 216.678 116.332 216.989 116.957C217.301 117.582 216.902 124.26 216.902 124.26C216.902 124.26 215.646 123.106 214.975 123.319C214.304 123.531 209.555 123.946 209.555 123.946L212.153 105.672Z" fill="#464353"/>
<path opacity="0.1" d="M214.052 109.107C213.844 111.26 212.958 113.821 212.958 113.821C212.958 113.821 212.333 120.183 211.525 122.066C210.718 123.948 211.078 126.544 210.63 131.337C210.469 133.06 209.913 134.246 209.163 135.047C207.931 136.362 206.163 136.637 204.779 136.556C204.666 136.556 204.548 136.542 204.449 136.531C202.208 136.3 200.065 125.513 200.065 125.513C200.065 125.513 199.036 116.332 199.437 115.077C199.839 113.821 199.036 106.657 198.766 105.088C198.595 104.096 199.109 102.471 199.506 101.417C199.737 100.805 199.931 100.385 199.931 100.385C199.931 100.385 200.692 97.9672 201.945 96.7143C202.118 96.5368 202.325 96.3959 202.553 96.3C202.781 96.2041 203.027 96.1551 203.274 96.1559C203.864 96.1775 204.437 96.3568 204.933 96.6751L204.991 96.7143C204.991 96.7143 213.143 105.044 213.904 106.971C214.112 107.506 214.133 108.277 214.052 109.107Z" fill="black"/>
<path d="M213.784 108.973C213.577 111.126 212.691 113.687 212.691 113.687C212.691 113.687 212.063 120.049 211.258 121.929C210.453 123.81 210.796 126.408 210.363 131.201C210.201 132.926 209.645 134.113 208.895 134.913C207.661 136.228 205.895 136.503 204.511 136.422L204.183 136.397C201.943 136.166 199.799 125.379 199.799 125.379C199.799 125.379 198.77 116.196 199.174 114.943C199.578 113.69 198.77 106.523 198.503 104.954C198.332 103.962 198.844 102.337 199.243 101.281C199.474 100.671 199.665 100.252 199.665 100.252C199.665 100.252 200.427 97.8334 201.682 96.5782C201.855 96.4014 202.061 96.2611 202.289 96.1656C202.517 96.0701 202.762 96.0213 203.009 96.0221C203.599 96.0439 204.173 96.2232 204.67 96.5413L204.728 96.5782C204.728 96.5782 212.88 104.91 213.639 106.835C213.842 107.384 213.865 108.143 213.784 108.973Z" fill="url(#paint13_linear_1616_2)"/>
<path opacity="0.1" d="M204.652 141.764C204.652 141.764 202.806 143.409 202.164 143.342C201.523 143.275 204.652 141.764 204.652 141.764Z" fill="black"/>
<path opacity="0.1" d="M205.143 143.342C205.143 143.342 203.196 144.247 202.605 144.38C202.014 144.514 204.391 143.109 205.143 143.342Z" fill="black"/>
<path opacity="0.1" d="M212.679 118.616C212.679 118.616 215.568 118.648 216.004 119.555C216.44 120.462 213.62 118.247 212.679 118.616Z" fill="black"/>
<path opacity="0.1" d="M212.275 120.194C212.275 120.194 214.493 120.656 215.164 121.203C215.836 121.75 212.275 120.194 212.275 120.194Z" fill="black"/>
<path opacity="0.1" d="M208.549 114.719C208.549 114.719 208.281 123.822 207.289 124.998C206.297 126.175 208.549 114.719 208.549 114.719Z" fill="black"/>
<path opacity="0.1" d="M206.062 140.451C206.062 140.451 204.216 148.478 207.928 148.988C211.641 149.498 210.496 139.851 210.496 139.851L206.062 140.451Z" fill="black"/>
<path d="M205.928 140.315C205.928 140.315 204.082 148.344 207.792 148.852C211.502 149.36 210.362 139.715 210.362 139.715L205.928 140.315Z" fill="#ECB4B6"/>
<path opacity="0.1" d="M209.103 106.613C208.911 101.788 202.16 100.791 200.584 105.355C200.572 105.385 200.563 105.415 200.551 105.448C199.522 108.537 199.97 116.362 199.97 116.362C199.97 116.362 200.104 121.616 200.598 123.362C201.091 125.109 202.478 130.125 202.478 130.933C202.478 131.74 203.766 134.83 204.308 135.054C204.85 135.278 205.125 137.024 205.256 137.338C205.388 137.652 205.794 141.722 205.794 141.722C205.794 141.722 210.854 141.408 210.944 140.603C211.034 139.798 209.825 135.859 209.825 135.859C209.825 135.859 208.932 134.244 208.819 132.947C208.706 131.651 207.988 131.067 208.127 130.178C208.265 129.29 207.723 128.833 207.723 128.252C207.723 127.67 207.321 126.101 207.321 126.101C207.321 126.101 206.47 125.43 206.604 124.624C206.738 123.819 205.395 122.206 205.752 121.625C206.11 121.043 206.2 119.611 206.2 119.611C206.2 119.611 206.648 113.15 206.961 111.412C207.275 109.675 209.112 106.846 209.112 106.846C209.112 106.846 209.107 106.756 209.103 106.613Z" fill="black"/>
<path opacity="0.1" d="M208.902 134.913C207.667 136.228 205.902 136.503 204.518 136.422C204.359 135.811 204.123 135.061 203.779 134.918C203.237 134.687 201.95 131.604 201.95 130.799C201.95 129.994 200.565 124.975 200.069 123.229C199.573 121.482 199.442 116.228 199.442 116.228C199.442 116.228 198.98 108.404 200.016 105.307C200.016 105.275 200.035 105.245 200.046 105.212C201.622 100.648 208.373 101.648 208.565 106.472C208.565 106.615 208.565 106.703 208.565 106.703C208.565 106.703 206.719 109.525 206.417 111.272C206.115 113.018 205.653 119.468 205.653 119.468C205.653 119.468 205.563 120.903 205.205 121.484C204.848 122.066 206.191 123.678 206.057 124.484C205.923 125.289 206.772 125.961 206.772 125.961C206.772 125.961 207.176 127.527 207.176 128.111C207.176 128.695 207.714 129.14 207.58 130.038C207.446 130.935 208.163 131.514 208.272 132.807C208.373 133.537 208.586 134.247 208.902 134.913Z" fill="black"/>
<path d="M208.833 106.479C208.641 101.654 201.892 100.655 200.316 105.219C200.316 105.252 200.293 105.282 200.284 105.314C199.255 108.403 199.702 116.228 199.702 116.228C199.702 116.228 199.836 121.482 200.328 123.228C200.819 124.975 202.21 129.996 202.21 130.799C202.21 131.602 203.496 134.694 204.04 134.918C204.585 135.142 204.857 136.891 204.989 137.202C205.12 137.514 205.524 141.586 205.524 141.586C205.524 141.586 210.586 141.272 210.674 140.465C210.762 139.657 209.555 135.718 209.555 135.718C209.555 135.718 208.664 134.103 208.549 132.806C208.434 131.51 207.718 130.926 207.857 130.038C207.995 129.149 207.453 128.692 207.453 128.111C207.453 127.529 207.049 125.96 207.049 125.96C207.049 125.96 206.198 125.289 206.334 124.484C206.47 123.678 205.122 122.063 205.482 121.484C205.842 120.905 205.93 119.47 205.93 119.47C205.93 119.47 206.378 113.009 206.691 111.272C207.005 109.534 208.842 106.703 208.842 106.703C208.842 106.703 208.84 106.622 208.833 106.479Z" fill="url(#paint14_linear_1616_2)"/>
<path opacity="0.1" d="M200.519 118.884C200.653 118.75 203.207 115.928 204.013 116.936C204.818 117.945 200.519 118.884 200.519 118.884Z" fill="black"/>
<path opacity="0.1" d="M200.755 121.066C200.854 120.967 203.306 120.866 203.911 119.488C204.516 118.111 200.755 121.066 200.755 121.066Z" fill="black"/>
<g opacity="0.1">
<path d="M197.96 96.3082C198.021 96.3789 198.067 96.4614 198.094 96.5505C198.144 96.3968 198.158 96.2335 198.135 96.0734C198.112 95.9133 198.052 95.7607 197.96 95.6275C197.84 95.4891 197.665 95.4083 197.556 95.263C197.556 95.2514 197.543 95.2376 197.533 95.2238C197.473 95.3332 197.443 95.4571 197.447 95.5823C197.451 95.7074 197.489 95.8291 197.556 95.9344C197.665 96.0775 197.84 96.1606 197.96 96.3082Z" fill="black"/>
<path d="M201.377 87.5932C201.377 87.3371 201.389 87.0832 201.377 86.8317C201.329 85.9088 201.161 84.9858 201.121 84.0629C201.068 85.1843 201.318 86.3703 201.377 87.5032V87.5932Z" fill="black"/>
</g>
<path d="M225.148 110.889L225.287 110.986C225.166 110.902 225.083 110.773 225.056 110.628C225.029 110.484 225.061 110.334 225.144 110.213L231.374 101.177C231.415 101.117 231.468 101.066 231.529 101.026C231.59 100.987 231.658 100.96 231.73 100.947C231.801 100.934 231.875 100.935 231.946 100.95C232.017 100.965 232.084 100.995 232.144 101.036L232.008 100.939C232.105 101.005 232.187 101.09 232.251 101.188C232.315 101.286 232.359 101.396 232.38 101.511C232.402 101.626 232.4 101.744 232.376 101.859C232.352 101.973 232.305 102.082 232.239 102.178L226.397 110.66C226.33 110.758 226.245 110.841 226.146 110.906C226.047 110.97 225.936 111.014 225.82 111.036C225.704 111.057 225.585 111.055 225.469 111.03C225.354 111.004 225.245 110.956 225.148 110.889Z" fill="#464353"/>
<path d="M232.027 100.939L232.175 101.041L225.322 110.991L225.173 110.889C225.086 110.828 225.026 110.736 225.006 110.631C224.987 110.526 225.01 110.418 225.07 110.33L231.463 101.05C231.492 101.005 231.53 100.967 231.575 100.937C231.619 100.907 231.669 100.886 231.722 100.876C231.774 100.866 231.828 100.866 231.881 100.877C231.933 100.888 231.983 100.909 232.027 100.939Z" fill="#9F9EFF"/>
<path d="M231.308 102.332L231.279 102.312C231.261 102.3 231.237 102.304 231.225 102.322L230.71 103.069C230.698 103.087 230.702 103.111 230.72 103.123L230.749 103.143C230.767 103.155 230.791 103.151 230.803 103.133L231.318 102.386C231.33 102.368 231.326 102.344 231.308 102.332Z" fill="#464353"/>
<path opacity="0.1" d="M219.034 87.3693C218.934 86.887 218.54 86.534 218.268 86.1233C217.589 85.1011 217.695 83.749 218.011 82.563C218.128 82.2394 218.177 81.8956 218.157 81.5524C218.112 81.3355 218.022 81.1304 217.893 80.95C217.764 80.7697 217.6 80.6181 217.409 80.5048C216.576 79.958 215.508 79.951 214.573 79.6049C213.214 79.1019 211.985 77.8628 210.568 78.1628C209.793 78.3266 209.197 78.9265 208.528 79.3488C207.788 79.8149 206.938 80.0754 206.064 80.1033C205.33 80.1264 204.589 79.9833 203.867 80.1033C203.737 80.1265 203.61 80.1613 203.486 80.2071C202.872 79.9981 202.227 79.8951 201.578 79.9026C200.942 79.8879 200.315 80.063 199.778 80.4056C198.802 81.0978 198.542 82.4246 198.558 83.6175C198.574 84.8104 198.775 86.0402 198.408 87.1755C197.946 88.5899 196.673 89.6674 196.414 91.1303C196.239 92.1248 196.567 93.1285 196.86 94.0953C197.7 96.8642 198.256 99.9376 197.141 102.617C196.857 103.295 196.433 103.966 195.757 104.278L198.124 104.137C198.15 104.304 198.142 104.475 198.102 104.639C198.061 104.804 197.989 104.958 197.888 105.095C197.788 105.231 197.662 105.346 197.517 105.434C197.372 105.521 197.212 105.579 197.044 105.605C197.641 105.567 198.228 105.432 198.782 105.205C199.058 105.09 199.302 104.909 199.493 104.679C199.684 104.448 199.816 104.174 199.878 103.881C199.924 103.56 199.855 103.226 199.945 102.916C200.099 102.383 200.637 102.09 201.087 101.749C202.24 100.849 202.79 99.3331 202.833 97.8679C202.877 96.4027 202.49 94.9629 202.074 93.5554C201.659 92.1479 201.214 90.7335 201.151 89.2683C201.124 88.7325 201.174 88.1956 201.299 87.6739C201.384 87.8331 201.479 87.99 201.578 88.1353C202.15 89.0075 202.82 89.8359 203.17 90.8188C203.294 91.2848 203.461 91.7382 203.669 92.1733C203.913 92.5886 204.361 92.9324 204.843 92.8655C205.325 92.7986 205.676 92.2771 205.835 91.7879C205.995 91.2988 206.066 90.7658 206.359 90.3481C206.922 89.559 208.048 89.4875 209.017 89.5175C211.059 89.5821 213.877 89.8913 215.478 88.3222C215.783 88.0246 215.939 87.57 216.401 87.6808C216.825 87.78 217.063 88.4722 217.518 88.6268C218.261 88.8829 219.202 88.1907 219.034 87.3693Z" fill="black"/>
<path d="M219.034 87.1087C218.934 86.6264 218.54 86.2711 218.268 85.8627C217.589 84.8382 217.695 83.4861 218.011 82.3024C218.128 81.9788 218.177 81.635 218.157 81.2917C218.112 81.0749 218.022 80.8698 217.893 80.6894C217.764 80.5091 217.6 80.3575 217.409 80.2442C216.576 79.6973 215.508 79.6881 214.573 79.3443C213.214 78.8413 211.985 77.6022 210.568 77.9022C209.793 78.066 209.197 78.6659 208.528 79.0882C207.788 79.5533 206.938 79.8137 206.064 79.8427C205.33 79.8658 204.589 79.7227 203.867 79.8427C203.737 79.8659 203.61 79.9007 203.486 79.9465C202.872 79.7375 202.227 79.6345 201.578 79.6419C200.942 79.6279 200.316 79.8021 199.778 80.1427C198.802 80.8349 198.542 82.1639 198.558 83.3568C198.574 84.5498 198.775 85.7796 198.408 86.9148C197.946 88.3293 196.673 89.4068 196.414 90.8697C196.239 91.8642 196.567 92.8679 196.86 93.8347C197.7 96.6036 198.256 99.677 197.141 102.354C196.857 103.034 196.433 103.706 195.757 104.017L198.124 103.876C198.15 104.044 198.142 104.214 198.101 104.378C198.061 104.542 197.989 104.697 197.888 104.833C197.788 104.969 197.662 105.084 197.517 105.172C197.372 105.259 197.211 105.317 197.044 105.342C197.641 105.306 198.228 105.172 198.782 104.945C199.058 104.83 199.302 104.649 199.493 104.418C199.684 104.187 199.816 103.913 199.878 103.62C199.924 103.3 199.855 102.965 199.945 102.656C200.099 102.123 200.637 101.83 201.087 101.488C202.24 100.588 202.79 99.0725 202.833 97.6073C202.877 96.1421 202.49 94.7 202.074 93.2948C201.659 91.8896 201.214 90.4728 201.151 89.0076C201.124 88.4719 201.174 87.935 201.299 87.4132C201.384 87.5725 201.479 87.7294 201.578 87.8747C202.15 88.7469 202.82 89.5753 203.17 90.5582C203.294 91.0235 203.461 91.4762 203.669 91.9103C203.913 92.3257 204.361 92.6718 204.843 92.6026C205.325 92.5333 205.676 92.0165 205.835 91.5273C205.995 91.0381 206.066 90.5051 206.359 90.0875C206.922 89.2984 208.048 89.2268 209.017 89.2568C211.059 89.3215 213.877 89.6306 215.478 88.0616C215.783 87.764 215.939 87.3094 216.401 87.4202C216.825 87.5194 217.063 88.2116 217.518 88.3662C218.261 88.6223 219.202 87.9301 219.034 87.1087Z" fill="#464353"/>
<g opacity="0.1">
<path d="M198.565 82.9022C198.565 83.056 198.565 83.2099 198.565 83.3637C198.565 83.8621 198.606 84.3674 198.625 84.8681C198.646 84.2221 198.588 83.5598 198.565 82.9022Z" fill="black"/>
<path d="M197.757 98.5948C197.82 96.7489 197.4 94.8453 196.86 93.0571C196.643 92.4166 196.488 91.7567 196.398 91.0865C196.299 92.0095 196.597 92.9325 196.86 93.8416C197.36 95.3814 197.661 96.9787 197.757 98.5948Z" fill="black"/>
<path d="M217.781 83.6037C217.819 83.1639 217.896 82.7284 218.012 82.3023C218.128 81.9788 218.177 81.6349 218.157 81.2917C218.147 81.2314 218.133 81.1719 218.113 81.114C218.085 81.2501 218.048 81.384 218.012 81.5178C217.816 82.1947 217.738 82.9003 217.781 83.6037Z" fill="black"/>
<path d="M198.131 103.103L196.7 103.186C196.469 103.545 196.146 103.836 195.764 104.026L197.997 103.895C198.131 103.654 198.179 103.375 198.131 103.103Z" fill="black"/>
<path d="M218.971 86.9056C218.849 87.1736 218.636 87.3893 218.369 87.514C218.102 87.6388 217.799 87.6644 217.515 87.5863C217.054 87.4317 216.823 86.7395 216.399 86.6402C215.937 86.5295 215.78 86.9864 215.476 87.284C213.877 88.8507 211.059 88.5415 209.015 88.4769C208.046 88.4469 206.92 88.5185 206.357 89.3076C206.057 89.7252 205.99 90.2605 205.833 90.7497C205.676 91.2389 205.349 91.7465 204.841 91.825C204.333 91.9034 203.918 91.555 203.666 91.1327C203.459 90.6983 203.292 90.2456 203.168 89.7806C202.817 88.7977 202.148 87.967 201.576 87.0948C201.477 86.9471 201.382 86.7902 201.297 86.6333C201.172 87.1558 201.122 87.6935 201.149 88.23C201.149 88.267 201.149 88.3062 201.149 88.3431C201.167 88.0319 201.214 87.723 201.288 87.4201C201.373 87.5794 201.468 87.7363 201.567 87.8816C202.139 88.7538 202.808 89.5822 203.159 90.5651C203.282 91.0304 203.449 91.4831 203.657 91.9172C203.902 92.3326 204.349 92.6787 204.832 92.6095C205.314 92.5402 205.665 92.0234 205.824 91.5342C205.983 91.0451 206.055 90.512 206.348 90.0944C206.911 89.3053 208.037 89.2338 209.006 89.2637C211.048 89.3284 213.865 89.6375 215.466 88.0685C215.771 87.7709 215.928 87.3163 216.389 87.4271C216.814 87.5263 217.052 88.2185 217.506 88.3731C218.251 88.6246 219.193 87.9324 219.024 87.111C219.011 87.0414 218.994 86.9728 218.971 86.9056Z" fill="black"/>
<path d="M201.094 100.713C200.655 101.055 200.106 101.348 199.952 101.881C199.862 102.192 199.931 102.524 199.885 102.845C199.823 103.139 199.692 103.413 199.501 103.644C199.31 103.875 199.065 104.056 198.789 104.172C198.57 104.272 198.342 104.349 198.108 104.403C198.044 104.647 197.91 104.867 197.722 105.035C197.534 105.204 197.301 105.314 197.051 105.351C197.648 105.315 198.235 105.181 198.789 104.954C199.065 104.839 199.309 104.658 199.5 104.427C199.691 104.196 199.823 103.923 199.885 103.63C199.931 103.309 199.862 102.974 199.952 102.665C200.106 102.132 200.644 101.839 201.094 101.498C202.247 100.598 202.797 99.0817 202.84 97.6165C202.84 97.3973 202.84 97.1804 202.84 96.9635C202.757 98.3849 202.21 99.8408 201.094 100.713Z" fill="black"/>
</g>
<path d="M105.102 188.929H105.155C105.155 188.929 96.682 165.952 94.31 162.83C94.31 162.83 91.8249 161.379 91.938 158.926L88.8899 144.302C88.8899 144.302 88.9361 144.258 89.0122 144.175L89.0768 144.103C89.0999 144.078 89.1253 144.05 89.1507 144.018C89.5576 143.546 89.8984 143.02 90.1636 142.456C90.1798 142.419 90.1982 142.384 90.2144 142.348C90.3276 142.092 90.4225 141.828 90.4982 141.558C90.7113 141.632 90.9448 141.62 91.1489 141.524C91.1489 141.524 91.1489 141.445 91.1489 141.305C91.1489 141.305 91.1189 140.439 91.1166 139.087C91.1166 138.709 91.1166 138.298 91.1166 137.862C91.2152 137.511 91.296 137.155 91.3588 136.796L91.2342 136.738C91.2342 136.72 91.2342 136.704 91.2458 136.685L91.1419 136.637C91.225 133.429 91.5019 129.332 92.2956 126.54C92.3233 126.44 92.351 126.343 92.381 126.247C93.3224 123.199 93.3432 119.477 93.5855 116.325C93.7757 116.719 93.9392 117.126 94.0746 117.543C94.1944 117.411 94.3328 117.297 94.4853 117.204L95.4314 124.682V133.492C95.4314 133.492 93.8485 144.87 98.8186 142.751C103.789 140.633 100.175 132.83 100.175 132.83C100.175 132.83 100.175 128.48 100.854 126.249C101.299 124.781 101.011 120.019 100.761 116.952C101.237 117.038 101.53 117.105 101.53 117.105C101.64 116.657 101.69 116.197 101.677 115.736C101.779 110.596 95.3575 102.307 92.7386 99.1463C91.989 98.017 90.9466 97.1126 89.7229 96.5297L84.6997 94.1277C84.6997 94.1277 82.3346 93.5393 81.4117 91.7396C81.4117 91.7096 81.3955 91.6773 81.3886 91.645C81.4924 91.5988 81.5963 91.5504 81.6978 91.4973C82.4622 91.1331 83.1337 90.5997 83.6614 89.9375C84.732 88.5946 85.2419 86.9125 85.738 85.2742C86.3126 83.3499 86.8917 81.3817 86.8156 79.3742C86.7394 77.3668 85.8926 75.2809 84.1598 74.2149C82.6853 73.3058 80.6318 73.1328 79.718 71.6768C79.4712 71.2845 79.3212 70.8184 78.9912 70.5C78.9938 70.4328 78.9718 70.3668 78.9294 70.3146C78.8869 70.2624 78.8269 70.2274 78.7605 70.2162L76.1993 69.7224C76.1274 69.7088 76.0531 69.7239 75.9923 69.7644C75.9315 69.805 75.889 69.8678 75.8739 69.9393V69.9739C73.6141 70.0359 71.3953 70.5928 69.374 71.6053C68.6572 71.9501 67.969 72.3513 67.3158 72.8051C66.3929 73.4558 65.4699 74.3141 65.3407 75.4309C65.2738 75.987 65.4099 76.5569 65.2945 77.1015C64.99 78.5597 63.0125 79.5081 63.301 80.9687C63.4948 81.9608 64.6323 82.3877 65.696 82.39C65.4991 83.0844 65.3989 83.8026 65.3984 84.5243C65.4076 86.3557 66.049 88.1277 67.214 89.5407C68.379 90.9538 69.9962 91.9212 71.7922 92.2795C72.5667 93.3547 73.2454 94.4959 73.8204 95.6898C72.519 96.9104 69.794 99.7439 71.4645 100.697L68.0034 109.174L68.3403 117.917L66.8751 119.211L67.1958 119.608C65.5553 121.496 61.7527 125.624 58.9746 126.722C58.5765 126.88 58.1908 127.069 57.8209 127.285C57.3114 127.603 56.7461 127.822 56.155 127.929C55.8967 127.955 55.6411 128.004 55.3912 128.074L54.729 126.715C54.6135 126.479 54.4097 126.298 54.1617 126.212C53.9137 126.125 53.6416 126.14 53.4046 126.254L52.9985 126.447L52.0317 126.909L51.6302 127.1L51.3233 127.246C51.2066 127.301 51.1021 127.378 51.0156 127.474C50.9292 127.57 50.8626 127.682 50.8197 127.804C50.7767 127.925 50.7584 128.054 50.7656 128.183C50.7728 128.312 50.8055 128.438 50.8618 128.554L51.6648 130.199C50.5226 131.194 49.9642 132.382 51.5194 133.485C52.1231 133.92 52.8521 134.147 53.5961 134.131L54.0852 135.13C54.2002 135.366 54.4037 135.547 54.6513 135.633C54.8989 135.719 55.1707 135.704 55.4074 135.592L56.1157 135.255L57.5002 134.602C57.617 134.547 57.7217 134.47 57.8083 134.374C57.8949 134.279 57.9616 134.167 58.0046 134.045C58.0475 133.924 58.0659 133.795 58.0585 133.666C58.0511 133.537 58.0182 133.412 57.9617 133.296L57.5602 132.472C58.4572 131.784 59.28 131.005 60.0152 130.146C60.0152 130.146 62.0757 128.87 63.2894 128.586C64.0947 128.397 66.9213 126.567 68.661 125.409L69.1571 138.289C69.0458 138.456 68.9175 138.61 68.7741 138.75L69.164 138.478V138.573C69.1064 138.637 69.051 138.697 68.9956 138.75L69.164 138.63V138.785C69.1103 138.852 69.0517 138.914 68.9887 138.972L69.1663 138.847L69.2171 140.186L70.0685 138.801L70.1216 140.186L70.32 139.86C67.9342 143.864 64.8261 149.757 63.1671 155.689C63.1671 155.689 60.5713 160.149 60.9082 164.722L56.1319 187.358L56.2242 187.392C54.6759 188.493 51.4225 190.512 48.2268 190.593C48.2268 190.593 40.5455 190.362 42.689 192.042C44.8326 193.722 63.917 196.17 63.917 196.17L64.6508 190.53L64.8215 190.593C64.8215 190.593 64.8215 190.56 64.81 190.505L65.0407 190.593C65.0407 190.593 64.5793 187.803 66.2821 186.243C67.985 184.684 71.9306 168.843 71.5891 166.4C71.5891 166.4 74.621 158.917 78.4167 152.95L82.8838 164.282L87.8539 172.759C87.8539 172.759 94.4646 187.272 94.2523 190.507C92.8679 192.183 90.3805 194.806 88.5323 194.73C88.5323 194.73 80.964 196.181 86.1603 197.52C91.3565 198.858 106.604 193.828 106.604 193.828L105.102 188.929ZM72.0114 137.034L72.0575 137.008C71.8268 137.366 71.5707 137.765 71.2984 138.201L72.0114 137.034Z" fill="url(#paint15_linear_1616_2)"/>
<path d="M68.7325 138.743C68.5456 138.875 68.4441 138.951 68.4441 138.951C68.55 138.897 68.6472 138.827 68.7325 138.743Z" fill="url(#paint16_linear_1616_2)"/>
<path d="M68.9587 138.965L68.6703 139.175C68.7762 139.119 68.8734 139.049 68.9587 138.965Z" fill="url(#paint17_linear_1616_2)"/>
<path d="M68.9587 138.743C68.7718 138.875 68.6703 138.951 68.6703 138.951C68.7762 138.897 68.8734 138.827 68.9587 138.743Z" fill="url(#paint18_linear_1616_2)"/>
<path d="M94.8037 189.252C94.8037 189.252 90.8396 194.868 88.1977 194.758C88.1977 194.758 80.814 196.188 85.8903 197.51C90.9665 198.832 105.824 193.876 105.824 193.876L104.056 188.108L94.8037 189.252Z" fill="#333333"/>
<path d="M77.0737 150.269L82.6876 164.695L87.5331 173.064C87.5331 173.064 94.1969 187.875 93.7631 190.738L104.377 189.031C104.377 189.031 96.1189 166.347 93.8069 163.264C93.8069 163.264 91.3842 161.831 91.4995 159.408L88.5276 144.994C88.5276 144.994 91.4188 142.204 89.8036 138.709C89.7177 138.523 89.6222 138.342 89.5175 138.167C87.3162 134.424 78.9473 136.514 78.9473 136.514L77.0737 150.269Z" fill="#535461"/>
<path opacity="0.03" d="M77.0737 150.269L82.6876 164.695L87.5331 173.064C87.5331 173.064 94.1969 187.875 93.7631 190.738L104.377 189.031C104.377 189.031 96.1189 166.347 93.8069 163.264C93.8069 163.264 91.3842 161.831 91.4995 159.408L88.5276 144.994C88.5276 144.994 91.4188 142.204 89.8036 138.709C89.7177 138.523 89.6222 138.342 89.5175 138.167C87.3162 134.424 78.9473 136.514 78.9473 136.514L77.0737 150.269Z" fill="black"/>
<g opacity="0.1">
<path d="M93.8139 163.264C93.8139 163.264 91.3912 161.831 91.5065 159.408L88.5277 144.994C88.5277 144.994 91.4189 142.205 89.8037 138.709C89.7178 138.523 89.6223 138.342 89.5176 138.167C88.4492 136.351 85.9319 135.908 83.6199 135.933C85.8373 135.954 88.17 136.438 89.1876 138.167C89.2925 138.342 89.3873 138.523 89.4714 138.709C91.0866 142.205 88.1977 144.994 88.1977 144.994L91.1697 159.42C91.0612 161.843 93.477 163.276 93.477 163.276C95.7844 166.358 104.047 189.042 104.047 189.042L93.7632 190.68C93.7632 190.697 93.7632 190.717 93.7632 190.734L104.377 189.026C104.377 189.026 96.1259 166.347 93.8139 163.264Z" fill="black"/>
</g>
<path d="M57.5832 186.829C57.5832 186.829 53.1784 190.572 48.8843 190.683C48.8843 190.683 41.3968 190.452 43.4873 192.116C45.5778 193.779 64.1916 196.188 64.1916 196.188L65.0199 189.757L57.5832 186.829Z" fill="#333333"/>
<g opacity="0.1">
<path d="M73.7719 135.624C73.7719 135.624 66.5037 145.864 63.6402 156.215C63.6402 156.215 61.1021 160.62 61.4389 165.135L56.8126 187.489L65.2923 190.68C65.2923 190.68 64.8516 187.928 66.5037 186.386C68.1558 184.845 72.0091 169.208 71.6791 166.785C71.6791 166.785 76.9654 153.571 82.2516 148.395C87.5378 143.22 90.166 142.024 90.9435 137.55C90.9435 137.557 78.5067 131.549 73.7719 135.624Z" fill="black"/>
</g>
<path d="M73.5503 135.624C73.5503 135.624 66.282 145.864 63.4209 156.215C63.4209 156.215 60.8827 160.62 61.2173 165.135L56.6025 187.489L65.0707 190.68C65.0707 190.68 64.6323 187.928 66.282 186.386C67.9318 184.845 71.7898 169.208 71.4575 166.785C71.4575 166.785 76.7437 153.571 82.03 148.395C87.3162 143.22 89.9466 142.024 90.7242 137.55C90.7242 137.557 78.2851 131.549 73.5503 135.624Z" fill="#535461"/>
<g opacity="0.1">
<path d="M78.2459 134.099C83.7052 134.163 90.5027 137.449 90.5027 137.449C89.7252 141.916 87.0947 143.111 81.8108 148.294C76.5269 153.476 71.2383 166.684 71.2383 166.684C71.5683 169.106 67.715 184.743 66.0629 186.285C64.6254 187.628 64.773 189.887 64.8353 190.45L65.1814 190.579C65.1814 190.579 64.7407 187.826 66.3928 186.285C68.0449 184.743 71.8983 169.106 71.5683 166.684C71.5683 166.684 76.8545 153.469 82.1408 148.294C87.427 143.118 90.0574 141.923 90.8327 137.449C90.8327 137.449 83.7559 134.029 78.2459 134.099Z" fill="black"/>
</g>
<path d="M68.1511 119.654C68.1511 119.654 62.8949 126.2 59.3461 127.622C58.9561 127.778 58.5782 127.963 58.2155 128.175C57.7226 128.489 57.1744 128.705 56.6003 128.812C56.1755 128.852 55.7601 128.961 55.3705 129.135C53.5246 129.984 49.2721 132.283 52.0802 134.302C55.6036 136.84 60.3383 130.997 60.3383 130.997C60.3383 130.997 62.3481 129.738 63.5317 129.456C64.7154 129.175 70.1378 125.381 70.1378 125.381L68.1511 119.654Z" fill="#ECB4B6"/>
<path d="M69.1455 118.334L67.0527 120.206L70.1354 124.059L69.1455 118.334Z" fill="url(#paint19_linear_1616_2)"/>
<g opacity="0.1">
<path d="M69.1455 118.334L67.0527 120.206L70.1354 124.059L69.1455 118.334Z" fill="black"/>
</g>
<path d="M74.448 96.4189C74.448 96.4189 69.4363 100.715 71.5361 101.927L68.1511 110.296L69.3164 140.908L74.095 132.98L70.83 115.801C70.83 115.801 69.907 105.561 72.579 103.138L75.1425 98.0618L74.448 96.4189Z" fill="url(#paint20_linear_1616_2)"/>
<g opacity="0.1">
<path d="M75.1102 94.8845C75.1102 94.8845 70.0986 99.1809 72.196 100.392L68.8157 108.768L69.9809 139.38L74.7595 131.452L71.4969 114.267C71.4969 114.267 70.5739 104.026 73.2436 101.604L75.8094 96.5274L75.1102 94.8845Z" fill="black"/>
</g>
<path d="M70.5785 91.9057C70.5785 91.9057 74.6533 96.8596 74.5426 99.7231C74.4318 102.587 82.2516 94.7691 82.2516 94.7691C82.2516 94.7691 79.2774 91.135 80.048 87.2794C80.8187 83.4237 70.5785 91.9057 70.5785 91.9057Z" fill="#ECB4B6"/>
<path d="M93.8138 116.793L94.9168 125.612V134.311C94.9168 134.311 93.3754 145.543 98.221 143.45C103.066 141.358 99.5316 133.642 99.5316 133.642C99.5316 133.642 99.5316 129.345 100.194 127.144C100.856 124.943 99.8638 115.25 99.8638 115.25L93.8138 116.793Z" fill="#ECB4B6"/>
<path d="M78.7259 95.9805C78.7259 95.9805 75.7655 98.8463 74.2126 97.8518L72.099 103.106C70.8071 106.319 70.2209 109.773 70.38 113.233L71.1276 133.09L74.4318 132.65L75.5347 113.819L77.1868 102.367L78.7259 95.9805Z" fill="#F2F2F2"/>
<g opacity="0.1">
<path d="M81.204 92.9509C81.204 92.9509 77.2953 95.6483 76.1947 97.9626C76.1947 97.9626 76.0839 100.501 75.2025 101.597C74.3211 102.693 73.442 108.203 73.2204 114.811C72.9989 121.42 72.0091 130.227 72.0091 130.227C72.0091 130.227 70.357 138.817 68.5964 139.687C68.5964 139.687 76.7438 133.522 80.7079 135.615C84.672 137.707 89.1876 142.767 90.5097 142.001C90.5097 142.001 90.1913 132.35 91.6357 127.202C91.6634 127.105 91.6911 127.008 91.7211 126.913C93.2624 121.849 92.2726 114.915 94.0285 111.938C94.0285 111.938 94.0285 106.555 93.0132 102.536C92.7503 101.509 92.266 100.553 91.5944 99.7335C90.9228 98.914 90.08 98.2513 89.1253 97.7918L84.2336 95.4291C84.2336 95.4291 81.6447 95.0437 81.204 92.9509Z" fill="black"/>
</g>
<g opacity="0.1">
<path d="M81.2041 92.9509C81.2041 92.9509 77.5122 95.8698 76.4139 98.1818C76.4139 98.1818 76.3032 100.72 75.424 101.816C74.5449 102.912 73.6612 108.424 73.442 115.03C73.2228 121.636 72.2306 130.458 72.2306 130.458C72.2306 130.458 70.5785 139.046 68.8157 139.918C68.8157 139.918 76.9654 133.75 80.9295 135.843C84.8936 137.936 89.4091 142.996 90.729 142.23C90.729 142.23 90.4128 132.58 91.8573 127.433C91.885 127.333 91.9127 127.239 91.9403 127.144C93.484 122.068 92.4918 115.146 94.2477 112.167C94.2477 112.167 94.2477 106.784 93.2302 102.767C92.968 101.74 92.4844 100.783 91.8131 99.963C91.1419 99.143 90.2993 98.48 89.3445 98.0203L84.4459 95.6483C84.4459 95.6483 81.6448 95.0437 81.2041 92.9509Z" fill="black"/>
</g>
<path d="M81.1487 92.8955C81.1487 92.8955 77.5145 95.6482 76.4139 97.9718C76.4139 97.9718 76.3032 100.51 75.424 101.606C74.5449 102.702 73.6612 108.212 73.442 114.82C73.2228 121.429 72.2306 130.227 72.2306 130.227C72.2306 130.227 70.5785 138.817 68.8157 139.687C68.8157 139.687 76.9654 133.522 80.9295 135.615C84.8936 137.707 89.4091 142.767 90.729 142.001C90.729 142.001 90.4128 132.35 91.8573 127.202L91.9403 126.913C93.484 121.849 92.4918 114.915 94.2477 111.938C94.2477 111.938 94.2477 106.555 93.2302 102.536C92.968 101.509 92.4843 100.553 91.8131 99.7332C91.1418 98.9136 90.2992 98.251 89.3445 97.7918L84.4459 95.4198C84.4459 95.4198 81.9747 94.8222 81.1487 92.8955Z" fill="url(#paint21_linear_1616_2)"/>
<g opacity="0.1">
<path d="M91.225 99.3377C91.225 99.3377 102.402 112.056 100.861 118.113C100.861 118.113 95.1338 116.793 93.5924 118.554C93.5924 118.554 92.381 114.479 88.7469 112.167C85.1128 109.855 81.7647 95.0437 91.225 99.3377Z" fill="black"/>
</g>
<path d="M91.225 99.1185C91.225 99.1185 102.402 111.837 100.861 117.894C100.861 117.894 95.1338 116.572 93.5924 118.334C93.5924 118.334 92.381 114.26 88.7469 111.948C85.1128 109.636 81.7647 94.8222 91.225 99.1185Z" fill="url(#paint22_linear_1616_2)"/>
<g opacity="0.1">
<path d="M80.3226 89.7575C80.1496 88.8691 80.2949 88.8022 80.4887 87.8308C81.2594 83.9775 71.0284 92.4456 71.0284 92.4456C71.0284 92.4456 71.5984 93.1378 72.3044 94.1577C72.8259 94.2654 73.3571 94.3195 73.8896 94.3192C76.6885 94.3284 78.9428 91.9657 80.3226 89.7575Z" fill="black"/>
</g>
<path d="M73.4396 93.7747C77.7571 93.7747 81.2571 90.2747 81.2571 85.9572C81.2571 81.6398 77.7571 78.1398 73.4396 78.1398C69.1222 78.1398 65.6222 81.6398 65.6222 85.9572C65.6222 90.2747 69.1222 93.7747 73.4396 93.7747Z" fill="#ECB4B6"/>
<g opacity="0.1">
<path d="M66.4159 83.8183C65.2622 83.9729 63.797 83.5876 63.5755 82.4477C63.2963 81.0079 65.223 80.0688 65.5207 78.6313C65.6337 78.0914 65.4999 77.5284 65.5645 76.9815C65.6937 75.8786 66.5844 75.0295 67.4912 74.3903C70.3637 72.3745 73.8582 71.4432 77.353 71.7622C77.789 71.7669 78.2139 71.901 78.5736 72.1475C78.9543 72.4613 79.0997 72.9666 79.3581 73.3843C80.251 74.8264 82.2516 74.9995 83.6891 75.8947C85.3711 76.9446 86.2018 79.0051 86.278 80.9871C86.3541 82.9692 85.7888 84.9097 85.2281 86.8133C84.7528 88.4285 84.2544 90.0898 83.2114 91.4142C82.1685 92.7387 80.4426 93.6662 78.7974 93.2601C79.5496 92.7179 79.0051 91.4627 78.1905 91.022C77.376 90.5813 76.3677 90.5051 75.6732 89.8983C74.9787 89.2914 74.7687 88.2946 74.5403 87.3901C74.2541 86.2364 73.848 85.0828 73.0081 84.2544C71.3814 82.6254 68.4234 83.5483 66.4159 83.8183Z" fill="black"/>
</g>
<path d="M66.6375 83.7075C65.4838 83.8644 64.0186 83.4768 63.7948 82.3392C63.5156 80.8971 65.4423 79.9603 65.7422 78.5205C65.853 77.9806 65.7191 77.4199 65.7837 76.8707C65.913 75.7678 66.8059 74.921 67.7127 74.2795C70.5848 72.2646 74.0783 71.3334 77.5722 71.6514C78.0085 71.6569 78.4333 71.7918 78.7928 72.039C79.1735 72.3505 79.3212 72.8558 79.5796 73.2735C80.4703 74.7156 82.4731 74.8887 83.9106 75.7839C85.5904 76.8338 86.4234 78.8966 86.4972 80.8763C86.571 82.8561 86.008 84.7989 85.4496 86.7025C84.972 88.3177 84.4759 89.9813 83.4307 91.3057C82.3854 92.6302 80.6618 93.5554 79.0189 93.1517C79.7688 92.6117 79.2243 91.3542 78.4121 90.9135C77.5999 90.4728 76.5893 90.3989 75.8924 89.7898C75.1956 89.1806 74.9879 88.1861 74.7618 87.2817C74.4757 86.1395 74.0696 84.9743 73.2297 84.1482C71.5938 82.5146 68.6426 83.4375 66.6375 83.7075Z" fill="#464353"/>
<path d="M78.1605 75.7724L78.8689 72.1452C78.8756 72.1104 78.8753 72.0746 78.8682 72.0398C78.861 72.005 78.8471 71.972 78.8271 71.9427C78.8072 71.9133 78.7817 71.8882 78.752 71.8687C78.7224 71.8492 78.6892 71.8358 78.6543 71.8291L76.1577 71.3422C76.123 71.3352 76.0872 71.3351 76.0525 71.342C76.0177 71.3489 75.9847 71.3626 75.9553 71.3824C75.9259 71.4021 75.9007 71.4275 75.8812 71.4571C75.8617 71.4866 75.8482 71.5197 75.8416 71.5545L75.1332 75.1794L72.7128 84.1321L77.1499 85.002L78.1605 75.7724Z" fill="url(#paint23_linear_1616_2)"/>
<g opacity="0.1">
<path d="M65.6569 78.8089C65.8195 78.5617 65.9367 78.2874 66.003 77.999C66.1137 77.4591 65.9799 76.8961 66.0445 76.3492C66.0687 76.1543 66.116 75.963 66.1853 75.7793C65.9719 76.1087 65.8347 76.4816 65.7838 76.8707C65.7192 77.4199 65.853 77.9805 65.7399 78.5205C65.7207 78.6188 65.6929 78.7154 65.6569 78.8089Z" fill="black"/>
<path d="M83.6914 90.782C82.6646 92.0879 80.9687 93.0017 79.3535 92.6486C79.3093 92.8537 79.1899 93.0348 79.0189 93.1563C80.6572 93.5554 82.3877 92.6302 83.4307 91.3104C83.8223 90.8045 84.1523 90.2538 84.4136 89.6698C84.207 90.0616 83.9653 90.4338 83.6914 90.782Z" fill="black"/>
<path d="M79.365 92.5586C79.9811 91.9864 79.4504 90.8188 78.6728 90.3966C77.8583 89.9559 76.85 89.8797 76.1532 89.2729C75.4563 88.6661 75.2487 87.6693 75.0225 86.7625C74.7364 85.6203 74.3303 84.4551 73.4904 83.629C71.8545 81.9931 68.9033 82.916 66.8982 83.186C65.7445 83.3406 64.2793 82.9553 64.0578 81.8154C64.0054 81.5461 64.0278 81.2676 64.1224 81.0101C63.9831 81.1992 63.8824 81.414 63.8262 81.642C63.77 81.8701 63.7593 82.107 63.7948 82.3392C64.0255 83.479 65.4861 83.8644 66.6375 83.7075C68.6426 83.4375 71.5938 82.5145 73.2297 84.1528C74.0604 84.9858 74.4757 86.1441 74.7618 87.2862C74.9925 88.1907 75.1887 89.1806 75.8924 89.7944C76.5962 90.4081 77.5976 90.4866 78.4121 90.9181C78.9959 91.2319 79.4366 91.9702 79.365 92.5586Z" fill="black"/>
</g>
<g opacity="0.1">
<path d="M74.4871 89.9767C76.6153 89.9767 78.3405 88.2515 78.3405 86.1234C78.3405 83.9952 76.6153 82.27 74.4871 82.27C72.359 82.27 70.6338 83.9952 70.6338 86.1234C70.6338 88.2515 72.359 89.9767 74.4871 89.9767Z" fill="black"/>
</g>
<path d="M74.4871 90.0874C76.6153 90.0874 78.3405 88.3622 78.3405 86.2341C78.3405 84.1059 76.6153 82.3807 74.4871 82.3807C72.359 82.3807 70.6338 84.1059 70.6338 86.2341C70.6338 88.3622 72.359 90.0874 74.4871 90.0874Z" fill="url(#paint24_linear_1616_2)"/>
<path d="M74.4872 88.7584C75.8813 88.7584 77.0115 87.6282 77.0115 86.2341C77.0115 84.84 75.8813 83.7098 74.4872 83.7098C73.0931 83.7098 71.9629 84.84 71.9629 86.2341C71.9629 87.6282 73.0931 88.7584 74.4872 88.7584Z" fill="#333333"/>
<path d="M74.4872 87.0047C74.9128 87.0047 75.2579 86.6597 75.2579 86.234C75.2579 85.8084 74.9128 85.4634 74.4872 85.4634C74.0616 85.4634 73.7166 85.8084 73.7166 86.234C73.7166 86.6597 74.0616 87.0047 74.4872 87.0047Z" fill="url(#paint25_linear_1616_2)"/>
<path opacity="0.05" d="M78.225 75.4503L75.1995 74.8595L75.1782 74.9682L78.2038 75.559L78.225 75.4503Z" fill="black"/>
<path d="M53.0644 127.578L52.3265 127.934C51.5988 128.284 51.2932 129.159 51.6441 129.887L54.3427 135.484C54.6936 136.212 55.568 136.517 56.2957 136.166L57.0336 135.811C57.7613 135.46 58.0669 134.585 57.716 133.857L55.0174 128.26C54.6665 127.532 53.7921 127.227 53.0644 127.578Z" fill="#CBDAE3"/>
<path d="M54.0807 127.088L51.3102 128.424C51.1437 128.504 51.0738 128.704 51.1541 128.87L54.8327 136.5C54.9129 136.667 55.1129 136.736 55.2794 136.656L58.0499 135.32C58.2164 135.24 58.2862 135.04 58.206 134.874L54.5274 127.244C54.4471 127.077 54.2472 127.008 54.0807 127.088Z" fill="#535461"/>
<path d="M54.4348 126.918L51.6456 128.262C51.4573 128.353 51.3783 128.579 51.469 128.768L55.1096 136.319C55.2003 136.507 55.4265 136.586 55.6148 136.495L58.404 135.15C58.5923 135.06 58.6713 134.833 58.5805 134.645L54.94 127.094C54.8493 126.906 54.6231 126.827 54.4348 126.918Z" fill="url(#paint26_linear_1616_2)"/>
<path d="M54.6393 127.553L52.0164 128.817L55.0296 135.067L57.6526 133.802L54.6393 127.553Z" fill="#F2F2F2"/>
<path d="M56.9176 135.503C57.0817 135.424 57.1291 135.182 57.0234 134.963C56.9177 134.743 56.6989 134.63 56.5348 134.709C56.3706 134.788 56.3232 135.03 56.4289 135.249C56.5346 135.468 56.7534 135.582 56.9176 135.503Z" fill="#F2F2F2"/>
<g opacity="0.1">
<path d="M77.0115 128.586C78.5608 128.604 80.0937 128.906 81.534 129.477C83.8414 130.414 86.2849 129.477 86.2849 129.477C86.2849 129.477 79.3258 127.458 77.0115 128.586Z" fill="black"/>
</g>
<path d="M156.439 170.198C156.439 170.198 157.874 172.074 155.777 174.907C153.679 177.741 151.951 180.131 152.65 181.896C152.65 181.896 155.813 176.635 158.388 176.562C160.964 176.488 159.272 173.361 156.439 170.198Z" fill="url(#paint27_linear_1616_2)"/>
<path opacity="0.1" d="M156.439 170.198C156.564 170.379 156.663 170.577 156.732 170.786C159.245 173.737 160.585 176.492 158.169 176.555C155.92 176.619 153.22 180.643 152.574 181.659C152.595 181.737 152.62 181.814 152.65 181.889C152.65 181.889 155.813 176.628 158.388 176.555C160.964 176.481 159.272 173.361 156.439 170.198Z" fill="black"/>
<path d="M159.106 172.588C159.106 173.25 159.032 173.786 158.942 173.786C158.852 173.786 158.776 173.25 158.776 172.588C158.776 171.926 158.868 172.24 158.961 172.24C159.053 172.24 159.106 171.928 159.106 172.588Z" fill="#FFD037"/>
<path d="M160.022 173.375C159.443 173.691 158.938 173.883 158.894 173.802C158.85 173.721 159.284 173.4 159.863 173.084C160.442 172.768 160.216 172.999 160.26 173.084C160.304 173.17 160.601 173.061 160.022 173.375Z" fill="#FFD037"/>
<path d="M148.861 170.198C148.861 170.198 147.426 172.074 149.523 174.907C151.621 177.741 153.349 180.131 152.65 181.896C152.65 181.896 149.487 176.635 146.912 176.562C144.336 176.488 146.028 173.361 148.861 170.198Z" fill="url(#paint28_linear_1616_2)"/>
<path opacity="0.1" d="M148.861 170.198C148.736 170.379 148.637 170.577 148.568 170.786C146.055 173.737 144.717 176.492 147.133 176.555C149.383 176.619 152.08 180.643 152.726 181.659C152.705 181.737 152.68 181.814 152.65 181.889C152.65 181.889 149.487 176.628 146.912 176.555C144.336 176.481 146.028 173.361 148.861 170.198Z" fill="black"/>
<path d="M146.194 172.588C146.194 173.25 146.268 173.786 146.36 173.786C146.452 173.786 146.526 173.25 146.526 172.588C146.526 171.926 146.432 172.24 146.342 172.24C146.252 172.24 146.194 171.928 146.194 172.588Z" fill="#FFD037"/>
<path d="M145.278 173.375C145.859 173.691 146.365 173.883 146.409 173.802C146.452 173.721 146.016 173.4 145.437 173.084C144.858 172.768 145.086 172.999 145.043 173.084C144.999 173.17 144.699 173.061 145.278 173.375Z" fill="#FFD037"/>
<path d="M146.651 181.652C146.651 181.652 150.663 181.527 151.873 180.666C153.082 179.806 158.042 178.779 158.333 180.159C158.624 181.539 164.36 187.026 159.833 187.062C155.306 187.099 149.309 186.356 148.102 185.62C146.895 184.884 146.651 181.652 146.651 181.652Z" fill="#A8A8A8"/>
<path opacity="0.2" d="M159.923 186.58C155.394 186.617 149.399 185.876 148.192 185.14C147.269 184.582 146.907 182.572 146.785 181.647H146.651C146.651 181.647 146.905 184.877 148.111 185.616C149.318 186.354 155.313 187.095 159.842 187.058C161.148 187.046 161.6 186.582 161.575 185.893C161.395 186.313 160.894 186.573 159.923 186.58Z" fill="black"/>
<path d="M138.916 184.596C139.248 184.321 139.49 183.953 139.609 183.539C139.699 183.121 139.519 182.616 139.12 182.466C138.658 182.293 138.197 182.605 137.827 182.928C137.458 183.251 137.045 183.601 136.57 183.534C136.815 183.313 136.998 183.031 137.101 182.717C137.205 182.403 137.225 182.068 137.161 181.744C137.14 181.61 137.083 181.484 136.997 181.379C136.748 181.114 136.304 181.229 135.998 181.439C135.049 182.106 134.784 183.394 134.779 184.554C134.682 184.137 134.763 183.701 134.761 183.271C134.759 182.842 134.641 182.367 134.279 182.136C134.054 182.014 133.801 181.954 133.545 181.963C133.118 181.947 132.643 181.988 132.352 182.302C131.99 182.69 132.084 183.341 132.398 183.765C132.712 184.19 133.192 184.457 133.633 184.755C133.987 184.965 134.288 185.253 134.514 185.597C134.542 185.644 134.565 185.695 134.581 185.747H137.255C137.859 185.441 138.418 185.054 138.916 184.596Z" fill="url(#paint29_linear_1616_2)"/>
<path d="M120.79 183.098C120.79 183.098 118.224 174.393 121.27 167.985C122.562 165.304 122.95 162.277 122.375 159.358C122.091 157.974 121.683 156.618 121.154 155.308" stroke="#535461" stroke-width="2" stroke-miterlimit="10"/>
<path d="M123.067 151.259C123.067 152.325 121.133 155.412 121.133 155.412C121.133 155.412 119.202 152.318 119.202 151.259C119.219 150.758 119.431 150.283 119.791 149.935C120.152 149.586 120.633 149.392 121.135 149.392C121.636 149.392 122.118 149.586 122.478 149.935C122.839 150.283 123.05 150.758 123.067 151.259Z" fill="url(#paint30_linear_1616_2)"/>
<path d="M126.249 157.168C125.667 158.065 122.365 159.611 122.365 159.611C122.365 159.611 122.425 155.963 123.005 155.068C123.283 154.638 123.721 154.336 124.222 154.229C124.723 154.121 125.246 154.217 125.677 154.496C126.107 154.774 126.409 155.212 126.516 155.713C126.623 156.214 126.527 156.738 126.249 157.168Z" fill="url(#paint31_linear_1616_2)"/>
<path d="M126.108 167.267C125.155 167.75 121.523 167.417 121.523 167.417C121.523 167.417 123.415 164.298 124.368 163.818C124.595 163.704 124.842 163.635 125.095 163.616C125.348 163.597 125.602 163.628 125.843 163.708C126.084 163.787 126.307 163.913 126.499 164.079C126.691 164.244 126.849 164.446 126.963 164.673C127.077 164.899 127.146 165.146 127.165 165.399C127.183 165.652 127.152 165.906 127.073 166.147C126.994 166.388 126.867 166.611 126.702 166.803C126.536 166.995 126.335 167.153 126.108 167.267Z" fill="url(#paint32_linear_1616_2)"/>
<path d="M124.283 174.886C123.425 175.521 119.788 175.809 119.788 175.809C119.788 175.809 121.126 172.415 121.985 171.781C122.397 171.475 122.914 171.345 123.422 171.42C123.929 171.495 124.387 171.769 124.693 172.181C124.999 172.593 125.128 173.11 125.053 173.618C124.978 174.126 124.704 174.583 124.292 174.889L124.283 174.886Z" fill="url(#paint33_linear_1616_2)"/>
<path d="M118.309 159.819C119.073 160.562 122.64 161.333 122.64 161.333C122.64 161.333 121.766 157.791 121.002 157.048C120.821 156.868 120.606 156.725 120.369 156.628C120.133 156.532 119.879 156.483 119.624 156.485C119.368 156.487 119.116 156.54 118.881 156.64C118.646 156.741 118.433 156.887 118.255 157.07C118.077 157.253 117.937 157.47 117.843 157.708C117.749 157.945 117.703 158.199 117.708 158.455C117.713 158.71 117.769 158.962 117.872 159.196C117.975 159.43 118.124 159.641 118.309 159.817V159.819Z" fill="url(#paint34_linear_1616_2)"/>
<path d="M116.285 168.76C117.238 169.242 120.87 168.91 120.87 168.91C120.87 168.91 118.978 165.791 118.025 165.311C117.798 165.196 117.55 165.128 117.297 165.11C117.043 165.091 116.788 165.123 116.547 165.202C116.305 165.282 116.082 165.409 115.889 165.575C115.697 165.742 115.539 165.944 115.425 166.171C115.311 166.399 115.242 166.646 115.224 166.9C115.205 167.153 115.237 167.408 115.317 167.65C115.397 167.891 115.523 168.115 115.689 168.307C115.856 168.5 116.058 168.658 116.285 168.772V168.76Z" fill="url(#paint35_linear_1616_2)"/>
<path d="M115.51 177.708C116.369 178.343 120.005 178.631 120.005 178.631C120.005 178.631 118.667 175.237 117.808 174.603C117.605 174.451 117.373 174.341 117.126 174.279C116.88 174.217 116.624 174.205 116.372 174.242C116.121 174.279 115.88 174.365 115.662 174.495C115.444 174.626 115.253 174.798 115.102 175.002C114.95 175.206 114.841 175.437 114.779 175.684C114.717 175.93 114.704 176.186 114.741 176.438C114.778 176.689 114.864 176.931 114.995 177.149C115.125 177.367 115.297 177.557 115.501 177.708H115.51Z" fill="url(#paint36_linear_1616_2)"/>
<path d="M123.067 151.259C123.067 152.325 121.133 155.412 121.133 155.412C121.133 155.412 119.202 152.318 119.202 151.259C119.219 150.758 119.431 150.283 119.791 149.935C120.152 149.586 120.633 149.392 121.135 149.392C121.636 149.392 122.118 149.586 122.478 149.935C122.839 150.283 123.05 150.758 123.067 151.259Z" fill="url(#paint37_linear_1616_2)"/>
<path d="M126.249 157.168C125.667 158.065 122.365 159.611 122.365 159.611C122.365 159.611 122.425 155.963 123.005 155.068C123.283 154.638 123.721 154.336 124.222 154.229C124.723 154.121 125.246 154.217 125.677 154.496C126.107 154.774 126.409 155.212 126.516 155.713C126.623 156.214 126.527 156.738 126.249 157.168Z" fill="url(#paint38_linear_1616_2)"/>
<path d="M126.108 167.267C125.155 167.75 121.523 167.417 121.523 167.417C121.523 167.417 123.415 164.298 124.368 163.818C124.595 163.704 124.842 163.635 125.095 163.616C125.348 163.597 125.602 163.628 125.843 163.708C126.084 163.787 126.307 163.913 126.499 164.079C126.691 164.244 126.849 164.446 126.963 164.673C127.077 164.899 127.146 165.146 127.165 165.399C127.183 165.652 127.152 165.906 127.073 166.147C126.994 166.388 126.867 166.611 126.702 166.803C126.536 166.995 126.335 167.153 126.108 167.267Z" fill="url(#paint39_linear_1616_2)"/>
<path d="M124.283 174.886C123.425 175.521 119.788 175.809 119.788 175.809C119.788 175.809 121.126 172.415 121.985 171.781C122.397 171.475 122.914 171.345 123.422 171.42C123.929 171.495 124.387 171.769 124.693 172.181C124.999 172.593 125.128 173.11 125.053 173.618C124.978 174.126 124.704 174.583 124.292 174.889L124.283 174.886Z" fill="url(#paint40_linear_1616_2)"/>
<path d="M118.309 159.819C119.073 160.562 122.64 161.333 122.64 161.333C122.64 161.333 121.766 157.791 121.002 157.048C120.821 156.868 120.606 156.725 120.369 156.628C120.133 156.532 119.879 156.483 119.624 156.485C119.368 156.487 119.116 156.54 118.881 156.64C118.646 156.741 118.433 156.887 118.255 157.07C118.077 157.253 117.937 157.47 117.843 157.708C117.749 157.945 117.703 158.199 117.708 158.455C117.713 158.71 117.769 158.962 117.872 159.196C117.975 159.43 118.124 159.641 118.309 159.817V159.819Z" fill="url(#paint41_linear_1616_2)"/>
<path d="M116.285 168.76C117.238 169.242 120.87 168.91 120.87 168.91C120.87 168.91 118.978 165.791 118.025 165.311C117.798 165.196 117.55 165.128 117.297 165.11C117.043 165.091 116.788 165.123 116.547 165.202C116.305 165.282 116.082 165.409 115.889 165.575C115.697 165.742 115.539 165.944 115.425 166.171C115.311 166.399 115.242 166.646 115.224 166.9C115.205 167.153 115.237 167.408 115.317 167.65C115.397 167.891 115.523 168.115 115.689 168.307C115.856 168.5 116.058 168.658 116.285 168.772V168.76Z" fill="url(#paint42_linear_1616_2)"/>
<path d="M115.51 177.708C116.369 178.343 120.005 178.631 120.005 178.631C120.005 178.631 118.667 175.237 117.808 174.603C117.605 174.451 117.373 174.341 117.126 174.279C116.88 174.217 116.624 174.205 116.372 174.242C116.121 174.279 115.88 174.365 115.662 174.495C115.444 174.626 115.253 174.798 115.102 175.002C114.95 175.206 114.841 175.437 114.779 175.684C114.717 175.93 114.704 176.186 114.741 176.438C114.778 176.689 114.864 176.931 114.995 177.149C115.125 177.367 115.297 177.557 115.501 177.708H115.51Z" fill="url(#paint43_linear_1616_2)"/>
<path d="M114.728 182.549C114.728 182.549 117.85 181.928 118.683 181.102C119.516 180.276 123.263 178.83 123.678 179.861C124.094 180.892 129.299 184.409 125.755 185.03C122.211 185.65 117.43 185.856 116.389 185.443C115.349 185.03 114.728 182.549 114.728 182.549Z" fill="#A8A8A8"/>
<path opacity="0.2" d="M125.762 184.644C122.222 185.265 117.435 185.47 116.394 185.057C115.6 184.743 115.051 183.23 114.832 182.519L114.728 182.542C114.728 182.542 115.353 185.023 116.394 185.436C117.435 185.849 122.222 185.641 125.762 185.023C126.782 184.843 127.075 184.423 126.964 183.89C126.876 184.245 126.528 184.51 125.762 184.644Z" fill="black"/>
</g>
<defs>
<linearGradient id="paint0_linear_1616_2" x1="39.8502" y1="185.886" x2="39.9944" y2="201.497" gradientUnits="userSpaceOnUse">
<stop stop-color="#5FFBD6"/>
<stop offset="1" stop-color="#B063F6"/>
</linearGradient>
<linearGradient id="paint1_linear_1616_2" x1="12.5112" y1="4.8185" x2="28.6316" y2="193.312" gradientUnits="userSpaceOnUse">
<stop stop-color="#5FFBD6"/>
<stop offset="1" stop-color="#B063F6"/>
</linearGradient>
<linearGradient id="paint2_linear_1616_2" x1="23.0014" y1="38.7175" x2="33.9498" y2="189.959" gradientUnits="userSpaceOnUse">
<stop stop-color="#5FFBD6"/>
<stop offset="1" stop-color="#B063F6"/>
</linearGradient>
<linearGradient id="paint3_linear_1616_2" x1="62.8985" y1="45.006" x2="63.2984" y2="53.1076" gradientUnits="userSpaceOnUse">
<stop stop-color="#5FFBD6"/>
<stop offset="1" stop-color="#B063F6"/>
</linearGradient>
<linearGradient id="paint4_linear_1616_2" x1="127.143" y1="76.608" x2="127.543" y2="84.7096" gradientUnits="userSpaceOnUse">
<stop stop-color="#5FFBD6"/>
<stop offset="1" stop-color="#B063F6"/>
</linearGradient>
<linearGradient id="paint5_linear_1616_2" x1="236.632" y1="35.3427" x2="237.032" y2="43.4455" gradientUnits="userSpaceOnUse">
<stop stop-color="#5FFBD6"/>
<stop offset="1" stop-color="#B063F6"/>
</linearGradient>
<linearGradient id="paint6_linear_1616_2" x1="205.556" y1="196.188" x2="205.556" y2="75.7793" gradientUnits="userSpaceOnUse">
<stop stop-color="#808080" stop-opacity="0.25"/>
<stop offset="0.54" stop-color="#808080" stop-opacity="0.12"/>
<stop offset="1" stop-color="#808080" stop-opacity="0.1"/>
</linearGradient>
<linearGradient id="paint7_linear_1616_2" x1="199.462" y1="185.566" x2="200.161" y2="196.164" gradientUnits="userSpaceOnUse">
<stop stop-color="#5FFBD6"/>
<stop offset="1" stop-color="#B063F6"/>
</linearGradient>
<linearGradient id="paint8_linear_1616_2" x1="199.462" y1="190.556" x2="199.625" y2="195.675" gradientUnits="userSpaceOnUse">
<stop stop-color="#5FFBD6"/>
<stop offset="1" stop-color="#B063F6"/>
</linearGradient>
<linearGradient id="paint9_linear_1616_2" x1="179.338" y1="175.054" x2="184.044" y2="193.468" gradientUnits="userSpaceOnUse">
<stop stop-color="#5FFBD6"/>
<stop offset="1" stop-color="#B063F6"/>
</linearGradient>
<linearGradient id="paint10_linear_1616_2" x1="178.992" y1="175.013" x2="186.422" y2="191.22" gradientUnits="userSpaceOnUse">
<stop stop-color="#5FFBD6"/>
<stop offset="1" stop-color="#B063F6"/>
</linearGradient>
<linearGradient id="paint11_linear_1616_2" x1="178.879" y1="175.101" x2="188.527" y2="186.315" gradientUnits="userSpaceOnUse">
<stop stop-color="#5FFBD6"/>
<stop offset="1" stop-color="#B063F6"/>
</linearGradient>
<linearGradient id="paint12_linear_1616_2" x1="216.132" y1="109.355" x2="217.441" y2="118.85" gradientUnits="userSpaceOnUse">
<stop stop-color="#5FFBD6"/>
<stop offset="1" stop-color="#B063F6"/>
</linearGradient>
<linearGradient id="paint13_linear_1616_2" x1="199.197" y1="97.1234" x2="212.334" y2="136.192" gradientUnits="userSpaceOnUse">
<stop stop-color="#5FFBD6"/>
<stop offset="1" stop-color="#B063F6"/>
</linearGradient>
<linearGradient id="paint14_linear_1616_2" x1="200.131" y1="103.349" x2="216.043" y2="138.428" gradientUnits="userSpaceOnUse">
<stop stop-color="#5FFBD6"/>
<stop offset="1" stop-color="#B063F6"/>
</linearGradient>
<linearGradient id="paint15_linear_1616_2" x1="42.3129" y1="133.725" x2="106.622" y2="133.725" gradientUnits="userSpaceOnUse">
<stop stop-color="#808080" stop-opacity="0.25"/>
<stop offset="0.54" stop-color="#808080" stop-opacity="0.12"/>
<stop offset="1" stop-color="#808080" stop-opacity="0.1"/>
</linearGradient>
<linearGradient id="paint16_linear_1616_2" x1="68.4441" y1="138.847" x2="68.7325" y2="138.847" gradientUnits="userSpaceOnUse">
<stop stop-color="#808080" stop-opacity="0.25"/>
<stop offset="0.54" stop-color="#808080" stop-opacity="0.12"/>
<stop offset="1" stop-color="#808080" stop-opacity="0.1"/>
</linearGradient>
<linearGradient id="paint17_linear_1616_2" x1="68.6703" y1="139.071" x2="68.9587" y2="139.071" gradientUnits="userSpaceOnUse">
<stop stop-color="#808080" stop-opacity="0.25"/>
<stop offset="0.54" stop-color="#808080" stop-opacity="0.12"/>
<stop offset="1" stop-color="#808080" stop-opacity="0.1"/>
</linearGradient>
<linearGradient id="paint18_linear_1616_2" x1="68.6703" y1="138.847" x2="68.9587" y2="138.847" gradientUnits="userSpaceOnUse">
<stop stop-color="#808080" stop-opacity="0.25"/>
<stop offset="0.54" stop-color="#808080" stop-opacity="0.12"/>
<stop offset="1" stop-color="#808080" stop-opacity="0.1"/>
</linearGradient>
<linearGradient id="paint19_linear_1616_2" x1="67.1989" y1="118.49" x2="68.5828" y2="124.322" gradientUnits="userSpaceOnUse">
<stop stop-color="#5FFBD6"/>
<stop offset="1" stop-color="#B063F6"/>
</linearGradient>
<linearGradient id="paint20_linear_1616_2" x1="68.4827" y1="97.6314" x2="91.9155" y2="126.448" gradientUnits="userSpaceOnUse">
<stop stop-color="#5FFBD6"/>
<stop offset="1" stop-color="#B063F6"/>
</linearGradient>
<linearGradient id="paint21_linear_1616_2" x1="70.0218" y1="94.2359" x2="82.3483" y2="144.113" gradientUnits="userSpaceOnUse">
<stop stop-color="#5FFBD6"/>
<stop offset="1" stop-color="#B063F6"/>
</linearGradient>
<linearGradient id="paint22_linear_1616_2" x1="85.826" y1="98.8863" x2="89.1885" y2="119.86" gradientUnits="userSpaceOnUse">
<stop stop-color="#5FFBD6"/>
<stop offset="1" stop-color="#B063F6"/>
</linearGradient>
<linearGradient id="paint23_linear_1616_2" x1="73.005" y1="71.7093" x2="76.8627" y2="85.32" gradientUnits="userSpaceOnUse">
<stop stop-color="#5FFBD6"/>
<stop offset="1" stop-color="#B063F6"/>
</linearGradient>
<linearGradient id="paint24_linear_1616_2" x1="70.9993" y1="82.5908" x2="72.042" y2="90.7502" gradientUnits="userSpaceOnUse">
<stop stop-color="#5FFBD6"/>
<stop offset="1" stop-color="#B063F6"/>
</linearGradient>
<linearGradient id="paint25_linear_1616_2" x1="73.7897" y1="85.5054" x2="73.9982" y2="87.1373" gradientUnits="userSpaceOnUse">
<stop stop-color="#5FFBD6"/>
<stop offset="1" stop-color="#B063F6"/>
</linearGradient>
<linearGradient id="paint26_linear_1616_2" x1="51.5775" y1="128.572" x2="57.9482" y2="135.499" gradientUnits="userSpaceOnUse">
<stop stop-color="#5FFBD6"/>
<stop offset="1" stop-color="#B063F6"/>
</linearGradient>
<linearGradient id="paint27_linear_1616_2" x1="152.832" y1="170.517" x2="155.348" y2="182.58" gradientUnits="userSpaceOnUse">
<stop stop-color="#5FFBD6"/>
<stop offset="1" stop-color="#B063F6"/>
</linearGradient>
<linearGradient id="paint28_linear_1616_2" x1="145.981" y1="170.517" x2="148.498" y2="182.58" gradientUnits="userSpaceOnUse">
<stop stop-color="#5FFBD6"/>
<stop offset="1" stop-color="#B063F6"/>
</linearGradient>
<linearGradient id="paint29_linear_1616_2" x1="132.475" y1="181.348" x2="132.847" y2="186.186" gradientUnits="userSpaceOnUse">
<stop stop-color="#5FFBD6"/>
<stop offset="1" stop-color="#B063F6"/>
</linearGradient>
<linearGradient id="paint30_linear_1616_2" x1="119.385" y1="149.556" x2="120.626" y2="155.787" gradientUnits="userSpaceOnUse">
<stop stop-color="#5FFBD6"/>
<stop offset="1" stop-color="#B063F6"/>
</linearGradient>
<linearGradient id="paint31_linear_1616_2" x1="122.564" y1="154.334" x2="123.504" y2="160.016" gradientUnits="userSpaceOnUse">
<stop stop-color="#5FFBD6"/>
<stop offset="1" stop-color="#B063F6"/>
</linearGradient>
<linearGradient id="paint32_linear_1616_2" x1="121.791" y1="163.718" x2="122.162" y2="167.901" gradientUnits="userSpaceOnUse">
<stop stop-color="#5FFBD6"/>
<stop offset="1" stop-color="#B063F6"/>
</linearGradient>
<linearGradient id="paint33_linear_1616_2" x1="120.039" y1="171.519" x2="120.539" y2="176.211" gradientUnits="userSpaceOnUse">
<stop stop-color="#5FFBD6"/>
<stop offset="1" stop-color="#B063F6"/>
</linearGradient>
<linearGradient id="paint34_linear_1616_2" x1="117.942" y1="156.617" x2="118.587" y2="161.752" gradientUnits="userSpaceOnUse">
<stop stop-color="#5FFBD6"/>
<stop offset="1" stop-color="#B063F6"/>
</linearGradient>
<linearGradient id="paint35_linear_1616_2" x1="115.487" y1="165.211" x2="115.857" y2="169.394" gradientUnits="userSpaceOnUse">
<stop stop-color="#5FFBD6"/>
<stop offset="1" stop-color="#B063F6"/>
</linearGradient>
<linearGradient id="paint36_linear_1616_2" x1="114.971" y1="174.341" x2="115.471" y2="179.033" gradientUnits="userSpaceOnUse">
<stop stop-color="#5FFBD6"/>
<stop offset="1" stop-color="#B063F6"/>
</linearGradient>
<linearGradient id="paint37_linear_1616_2" x1="119.385" y1="149.556" x2="120.626" y2="155.787" gradientUnits="userSpaceOnUse">
<stop stop-color="#5FFBD6"/>
<stop offset="1" stop-color="#B063F6"/>
</linearGradient>
<linearGradient id="paint38_linear_1616_2" x1="122.564" y1="154.334" x2="123.504" y2="160.016" gradientUnits="userSpaceOnUse">
<stop stop-color="#5FFBD6"/>
<stop offset="1" stop-color="#B063F6"/>
</linearGradient>
<linearGradient id="paint39_linear_1616_2" x1="121.791" y1="163.718" x2="122.162" y2="167.901" gradientUnits="userSpaceOnUse">
<stop stop-color="#5FFBD6"/>
<stop offset="1" stop-color="#B063F6"/>
</linearGradient>
<linearGradient id="paint40_linear_1616_2" x1="120.039" y1="171.519" x2="120.539" y2="176.211" gradientUnits="userSpaceOnUse">
<stop stop-color="#5FFBD6"/>
<stop offset="1" stop-color="#B063F6"/>
</linearGradient>
<linearGradient id="paint41_linear_1616_2" x1="117.942" y1="156.617" x2="118.587" y2="161.752" gradientUnits="userSpaceOnUse">
<stop stop-color="#5FFBD6"/>
<stop offset="1" stop-color="#B063F6"/>
</linearGradient>
<linearGradient id="paint42_linear_1616_2" x1="115.487" y1="165.211" x2="115.857" y2="169.394" gradientUnits="userSpaceOnUse">
<stop stop-color="#5FFBD6"/>
<stop offset="1" stop-color="#B063F6"/>
</linearGradient>
<linearGradient id="paint43_linear_1616_2" x1="114.971" y1="174.341" x2="115.471" y2="179.033" gradientUnits="userSpaceOnUse">
<stop stop-color="#5FFBD6"/>
<stop offset="1" stop-color="#B063F6"/>
</linearGradient>
<clipPath id="clip0_1616_2">
<rect width="263.668" height="200" fill="white"/>
</clipPath>
</defs>
</svg>
