<svg width="119" height="90" viewBox="0 0 119 90" fill="none" xmlns="http://www.w3.org/2000/svg">
<g clip-path="url(#clip0_1620_2)">
<path d="M71.6802 27.1207C71.8273 27.1275 71.9729 27.0889 72.0973 27.0101C72.2217 26.9313 72.3188 26.8163 72.3756 26.6804C72.4324 26.5446 72.4461 26.3946 72.4148 26.2507C72.3835 26.1068 72.3087 25.9761 72.2006 25.8761C72.1825 25.8042 72.1695 25.7525 72.1514 25.6805C72.1579 25.6649 72.1644 25.6492 72.1709 25.6336C72.832 24.0572 75.0725 24.0681 75.7279 25.6468C76.3097 27.0479 77.0504 28.4515 77.2327 29.933C77.313 30.5878 77.2792 31.2516 77.1326 31.8949C78.499 28.9143 79.2085 25.6747 79.2131 22.3958C79.2134 21.573 79.1677 20.7508 79.0762 19.9331C79.0005 19.2628 78.8956 18.5972 78.7614 17.9364C78.029 14.351 76.4566 10.9905 74.1733 8.13077C73.0682 7.52779 72.1745 6.60053 71.6126 5.47396C71.409 5.069 71.2651 4.6367 71.1854 4.19052C71.3101 4.20687 71.6555 2.30825 71.5615 2.19176C71.7352 1.92814 72.0461 1.79709 72.2359 1.53984C73.1795 0.260432 74.4797 0.483824 75.1584 2.22243C76.6083 2.9542 76.6223 4.16779 75.7327 5.33498C75.1667 6.07755 75.0889 7.08234 74.5923 7.87733C74.6434 7.94273 74.6965 8.0061 74.7476 8.0715C75.6816 9.27247 76.4956 10.5621 77.178 11.9219C76.9849 10.4137 77.27 8.59687 77.7559 7.42569C78.3091 6.09126 79.3459 4.9674 80.2589 3.81378C81.3556 2.42811 83.6045 3.03284 83.7977 4.7894C83.7996 4.80641 83.8014 4.82341 83.8032 4.8404C83.6676 4.91691 83.5349 4.99811 83.405 5.08402C83.2418 5.19304 83.1154 5.34881 83.0422 5.53092C82.9691 5.71302 82.9527 5.91297 82.9951 6.10457C83.0376 6.29617 83.1369 6.47047 83.2801 6.60465C83.4233 6.73882 83.6037 6.82661 83.7977 6.85651L83.8175 6.85957C83.7692 7.34835 83.6838 7.83274 83.5621 8.30857C84.7334 12.8383 82.2046 14.4882 78.5938 14.5623C78.5141 14.6032 78.4365 14.644 78.3568 14.6829C79.0424 16.6258 79.4724 18.6497 79.6361 20.7036C79.7288 21.9153 79.7233 23.1326 79.6198 24.3434L79.6259 24.3005C79.8875 22.9541 80.6058 21.7392 81.6594 20.861C83.2243 19.5755 85.4351 19.1021 87.1234 18.0688C87.936 17.5714 88.9774 18.2142 88.8356 19.1564C88.8333 19.1714 88.831 19.1864 88.8287 19.2015C88.577 19.304 88.332 19.4221 88.095 19.555C87.9594 19.6316 87.8266 19.7128 87.6967 19.7987C87.5336 19.9077 87.4071 20.0634 87.334 20.2456C87.2609 20.4277 87.2444 20.6276 87.2869 20.8192C87.3293 21.0108 87.4287 21.1851 87.5719 21.3193C87.7151 21.4535 87.8955 21.5413 88.0894 21.5712L88.1093 21.5742C88.1236 21.5763 88.1359 21.5783 88.1502 21.5804C87.7202 22.6071 87.1166 23.5521 86.366 24.3741C85.6336 28.3284 82.488 28.7036 79.1232 27.552H79.1211C78.7519 29.1564 78.217 30.718 77.525 32.2117H71.8231C71.8026 32.1483 71.7842 32.0829 71.7658 32.0196C72.2936 32.0527 72.8235 32.0212 73.3436 31.9256C72.9205 31.4065 72.4975 30.8833 72.0744 30.3642C72.065 30.3545 72.0561 30.3442 72.0479 30.3335C71.8333 30.0678 71.6166 29.8042 71.4021 29.5385L71.4019 29.5382C71.3905 28.7238 71.484 27.9113 71.68 27.1208L71.6802 27.1207Z" fill="#F2F2F2"/>
<path d="M89.9872 12.5283C88.927 8.66286 97.4781 5.3482 99.7236 8.46102C100.036 8.01847 101.19 7.74966 101.719 7.88541C102.249 8.02117 102.694 8.36056 103.128 8.68909C103.726 9.14795 104.345 9.6231 104.711 10.2829C105.081 10.9399 105.138 11.8359 104.641 12.4061C104.247 12.8595 103.085 13.1527 102.493 13.2722C102.08 13.3564 101.733 13.4243 101.434 13.4731C101.163 13.0823 101.038 12.6084 101.081 12.1346C100.88 12.2702 100.712 12.4486 100.588 12.657C100.464 12.8654 100.388 13.0987 100.364 13.3401C100.356 13.4405 103.701 25.7482 103.701 25.7482C103.299 25.9769 102.877 26.1669 102.439 26.3156C101.572 24.9917 100.909 23.5458 100.47 22.0257C100.369 23.0422 100.382 24.0667 100.508 25.0803C100.575 25.6486 100.671 26.2132 100.796 26.7718C96.8212 27.6297 90.8425 27.3474 88.2414 23.6983C88.2409 23.6832 88.2405 23.6681 88.2401 23.6529C88.2381 23.5089 88.186 23.3701 88.0929 23.2602C87.9997 23.1503 87.8713 23.0762 87.7295 23.0506C87.5878 23.025 87.4415 23.0495 87.3158 23.1199C87.1901 23.1903 87.0928 23.3022 87.0406 23.4364C86.9775 23.5974 86.9194 23.7367 86.8676 23.8476C86.11 21.1379 87.0902 18.0019 89.9872 12.5283Z" fill="#2F2E41"/>
<path d="M83.2231 77.3331V77.4597C83.2181 77.4177 83.2181 77.3752 83.2231 77.3331Z" fill="#2F2E41"/>
<path d="M87.1157 55.4575C87.2168 55.4301 87.3197 55.4102 87.4237 55.3977C87.3043 55.4172 87.2017 55.4371 87.1157 55.4575Z" fill="#2F2E41"/>
<path d="M87.0256 55.4805C87.053 55.4728 87.0834 55.4652 87.1157 55.4575C87.0856 55.4654 87.0566 55.4711 87.0256 55.4805Z" fill="#2F2E41"/>
<path d="M115.785 89.9994H101.215C101.007 89.8335 100.862 89.6012 100.806 89.3413C100.749 89.0815 100.783 88.8101 100.903 88.5726C101.301 87.6597 100.521 86.8256 100.521 86.8256C100.256 86.5154 100.072 86.1446 99.9849 85.7462C99.8978 85.3477 99.9104 84.934 100.022 84.5416C100.408 83.1933 98.8948 79.3878 98.8948 79.3878C98.8948 79.3878 98.0793 84.3017 97.0799 89.9994H83.2232C82.991 89.604 82.8686 89.1538 82.8686 88.6953C82.8686 88.2368 82.991 87.7867 83.2232 87.3913C84.0307 86.022 83.2232 85.7594 83.2232 85.7594C83.2232 85.7594 82.4156 84.2272 83.2232 83.1147C84.0307 82.0022 83.2232 77.4597 83.2232 77.4597C83.2536 77.6605 83.4836 77.2954 83.8378 76.5297C84.3771 75.3649 85.2011 73.27 86.0337 70.838C86.6289 69.1023 87.229 67.1925 87.7305 65.3253H87.7317C87.8632 64.8348 87.9877 64.3487 88.1054 63.8671C88.3355 62.9225 88.5326 62.0047 88.6824 61.1429C89.0074 59.2867 89.1145 57.6921 88.8649 56.6551C88.658 55.7921 88.2052 55.3161 87.4238 55.3977C87.8425 55.3283 88.456 55.2626 89.2119 55.2005C89.3482 55.1895 89.4894 55.1786 89.6354 55.1664C95.2736 54.7404 107.37 54.4957 107.37 54.4957L111.075 61.1307L115.768 69.5356C115.768 69.5356 115.64 80.8107 115.785 89.9994Z" fill="#2F2E41"/>
<path d="M100.233 25.818L91.6969 24.0072L90.0019 27.4189L84.2941 30.7234C84.2941 30.7234 87.9733 45.7668 87.9523 47.8825C87.899 53.2541 79.3042 65.2956 85.7962 64.3693C92.2881 63.4429 93.6068 59.5627 95.6909 60.1763C97.5705 60.7296 99.8656 63.1911 101.402 61.4306C102.938 59.6702 103.48 61.7031 104.451 61.7733C104.913 61.8067 104.635 59.5503 105.797 61.8435C106.958 64.1366 113.118 61.0498 111.031 58.9619C107.553 55.4847 106.847 29.8516 106.847 29.8516L102.976 28.6605L100.233 25.818Z" fill="#E6E6E6"/>
<path d="M84.1328 80.449C84.4758 80.04 84.6457 79.5133 84.6062 78.981C84.5668 78.4487 84.3213 77.9528 83.9218 77.5987C83.8394 77.5281 83.7514 77.4643 83.6585 77.4082L85.0858 70.4034L81.7863 68.4286L80.8685 78.2357C80.6655 78.6387 80.6016 79.0976 80.6868 79.5408C80.772 79.984 81.0015 80.3865 81.3395 80.6855C81.5335 80.8538 81.7587 80.9823 82.0023 81.0635C82.2459 81.1448 82.5032 81.1773 82.7593 81.1591C83.0155 81.141 83.2656 81.0725 83.4953 80.9578C83.725 80.843 83.9299 80.684 84.0982 80.4901C84.1099 80.4765 84.1214 80.4629 84.1328 80.449Z" fill="#A0616A"/>
<path d="M94.3776 43.5262C94.3569 43.301 94.0697 43.1988 93.6716 43.0576C93.2719 42.9344 92.8919 42.7545 92.5433 42.5232C91.662 41.8866 92.0089 41.2208 92.4885 40.3006C92.5822 40.1217 92.6796 39.9354 92.7709 39.7419C93.0423 39.1686 92.6102 36.8035 91.4843 32.7113C91.1374 31.4515 91.1386 30.5617 90.8988 29.9713C90.6602 29.381 90.1819 29.0901 88.8782 29.0292C87.3025 28.9496 85.7595 29.4981 84.5876 30.5544C84.5559 30.5824 84.5231 30.6128 84.4914 30.642C84.4318 30.698 84.3733 30.7552 84.3161 30.8136C83.2323 31.904 82.6121 33.3712 82.5852 34.9083L82.5792 35.17L82.3102 47.6733L81.5543 58.6452L80.5123 73.7594L81.284 73.7971L84.3636 73.9505L84.7373 73.9687L85.6234 70.2514L86.6897 65.7781L87.0816 64.1349L88.2976 59.0372L88.8649 56.6551L89.2118 55.2005L89.353 54.6065L90.0419 51.7193C90.0577 51.6584 91.6425 45.4056 93.4696 44.36C94.1512 43.9705 94.3971 43.7441 94.3776 43.5262Z" fill="#E6E6E6"/>
<path d="M114.877 80.3745C114.492 80.0048 114.267 79.4994 114.249 78.9659C114.231 78.4324 114.422 77.913 114.781 77.5181C114.855 77.439 114.936 77.3662 115.022 77.3004L112.851 70.4894L115.919 68.1716L117.885 77.8234C118.13 78.2023 118.243 78.6517 118.206 79.1015C118.168 79.5513 117.983 79.9761 117.68 80.3097C117.505 80.4978 117.295 80.6497 117.061 80.7567C116.828 80.8637 116.575 80.9236 116.319 80.933C116.062 80.9425 115.806 80.9013 115.565 80.8119C115.325 80.7224 115.104 80.5864 114.916 80.4116C114.903 80.3995 114.89 80.3871 114.877 80.3745Z" fill="#A0616A"/>
<path d="M116.378 65.5955C116.378 65.5955 113.985 57.1756 114.715 56.2641C115.445 55.3526 113.289 55.1746 114.218 53.4771C115.147 51.7795 113.865 51.4956 113.865 51.4956L113.169 47.5925L111.925 38.0055L111.888 37.7204L111.526 34.9312C111.425 34.1346 111.164 33.3665 110.759 32.6729C110.355 31.9793 109.814 31.3744 109.171 30.8944C109.138 30.8692 109.104 30.8451 109.071 30.8209C108.917 30.7106 108.761 30.6085 108.601 30.5145C107.407 29.8102 106.005 29.5439 104.636 29.7614C102.057 30.1631 102.86 31.125 102.441 33.702C101.762 37.8921 101.585 40.2893 101.917 40.8309C102.028 41.0133 102.146 41.1878 102.258 41.3553C102.833 42.2199 103.25 42.8436 102.442 43.5726C102.119 43.839 101.761 44.0583 101.377 44.2238C100.997 44.4077 100.722 44.5397 100.726 44.7658C100.73 44.9849 100.999 45.1827 101.718 45.4964C102.589 45.8777 103.525 47.3194 104.292 48.7922C104.9 49.9793 105.442 51.199 105.917 52.4456L112.505 70.9753L113.58 73.9972L113.95 73.9386L116.994 73.456L117.758 73.3351L116.378 65.5955Z" fill="#E6E6E6"/>
<path d="M96.6318 23.8793C100.478 23.8793 103.596 20.7612 103.596 16.9148C103.596 13.0685 100.478 9.95044 96.6318 9.95044C92.7854 9.95044 89.6674 13.0685 89.6674 16.9148C89.6674 20.7612 92.7854 23.8793 96.6318 23.8793Z" fill="#A0616A"/>
<path d="M86.1861 13.0712C85.1259 9.20583 93.677 5.89117 95.9225 9.00399C96.2347 8.56144 97.3886 8.29263 97.9181 8.42838C98.4475 8.56414 98.8928 8.90353 99.3272 9.23206C99.9246 9.69092 100.544 10.1661 100.91 10.8258C101.279 11.4829 101.336 12.3789 100.84 12.9491C100.446 13.4025 99.2838 13.6957 98.6919 13.8152C98.2792 13.8993 97.9317 13.9672 97.633 14.0161C97.3617 13.6252 97.2367 13.1513 97.28 12.6775C97.079 12.8131 96.9105 12.9916 96.7866 13.2C96.6626 13.4084 96.5864 13.6417 96.5632 13.8831C96.5551 13.9835 99.9001 26.2911 99.9001 26.2911C99.4982 26.5199 99.0755 26.7099 98.6376 26.8586C97.7714 25.5347 97.1079 24.0888 96.6691 22.5687C96.5683 23.5851 96.581 24.6096 96.7071 25.6232C96.7742 26.1916 96.8703 26.7562 96.9949 27.3147C93.02 28.1727 87.0413 27.8903 84.4402 24.2412C84.4398 24.2261 84.4393 24.211 84.4389 24.1959C84.4369 24.0519 84.3849 23.913 84.2917 23.8031C84.1986 23.6933 84.0701 23.6192 83.9284 23.5936C83.7866 23.568 83.6404 23.5925 83.5147 23.6629C83.389 23.7333 83.2917 23.8451 83.2394 23.9794C83.1763 24.1404 83.1182 24.2797 83.0664 24.3906C82.3089 21.6809 83.289 18.5449 86.1861 13.0712Z" fill="#2F2E41"/>
<path d="M51.6469 37.1363C51.4998 37.1431 51.3542 37.1045 51.2298 37.0257C51.1054 36.947 51.0082 36.8319 50.9514 36.696C50.8946 36.5602 50.8809 36.4102 50.9123 36.2663C50.9436 36.1225 51.0183 35.9917 51.1264 35.8917C51.1446 35.8198 51.1575 35.7681 51.1757 35.6961C51.1692 35.6805 51.1627 35.6648 51.1561 35.6492C50.495 34.0729 48.2546 34.0837 47.5991 35.6624C47.0174 37.0636 46.2767 38.4671 46.0943 39.9486C46.014 40.6034 46.0479 41.2672 46.1945 41.9105C44.8281 38.9299 44.1185 35.6903 44.114 32.4114C44.1137 31.5886 44.1594 30.7665 44.2509 29.9488C44.3265 29.2784 44.4314 28.6129 44.5656 27.9521C45.298 24.3666 46.8704 21.0061 49.1537 18.1464C50.2588 17.5434 51.1526 16.6162 51.7145 15.4896C51.918 15.0846 52.0619 14.6523 52.1416 14.2061C52.0169 14.2225 51.6716 12.3239 51.7656 12.2074C51.5918 11.9438 51.2809 11.8127 51.0912 11.5555C50.1475 10.2761 48.8474 10.4994 48.1687 12.2381C46.7188 12.9698 46.7047 14.1834 47.5944 15.3506C48.1604 16.0932 48.2381 17.098 48.7348 17.893C48.6837 17.9584 48.6305 18.0217 48.5794 18.0871C47.6455 19.2881 46.8314 20.5777 46.149 21.9375C46.3421 20.4294 46.0571 18.6125 45.5711 17.4413C45.018 16.1069 43.9812 14.983 43.0681 13.8294C41.9714 12.4437 39.7225 13.0485 39.5293 14.805C39.5274 14.822 39.5256 14.839 39.5238 14.856C39.6594 14.9325 39.7922 15.0137 39.9221 15.0996C40.0852 15.2087 40.2117 15.3644 40.2848 15.5465C40.3579 15.7286 40.3744 15.9286 40.3319 16.1202C40.2895 16.3118 40.1901 16.4861 40.0469 16.6203C39.9037 16.7545 39.7233 16.8422 39.5294 16.8721L39.5095 16.8752C39.5578 17.364 39.6432 17.8484 39.765 18.3242C38.5937 22.854 41.1224 24.5038 44.7332 24.5779C44.8129 24.6188 44.8906 24.6597 44.9703 24.6985C44.2847 26.6415 43.8546 28.6653 43.6909 30.7192C43.5983 31.931 43.6037 33.1482 43.7073 34.359L43.7011 34.3161C43.4395 32.9697 42.7213 31.7548 41.6677 30.8766C40.1028 29.5911 37.8919 29.1177 36.2037 28.0844C35.391 27.587 34.3496 28.2298 34.4915 29.172C34.4937 29.187 34.496 29.2021 34.4984 29.2171C34.75 29.3196 34.9951 29.4377 35.2321 29.5707C35.3677 29.6472 35.5004 29.7284 35.6303 29.8143C35.7935 29.9233 35.9199 30.0791 35.993 30.2612C36.0662 30.4433 36.0826 30.6432 36.0401 30.8348C35.9977 31.0264 35.8984 31.2007 35.7552 31.3349C35.612 31.4691 35.4316 31.5569 35.2376 31.5868L35.2177 31.5898C35.2034 31.5919 35.1912 31.5939 35.1769 31.596C35.6069 32.6227 36.2104 33.5677 36.961 34.3897C37.6934 38.344 40.839 38.7192 44.2039 37.5677H44.2059C44.5751 39.172 45.11 40.7336 45.8021 42.2273H51.504C51.5244 42.1639 51.5428 42.0985 51.5612 42.0352C51.0334 42.0684 50.5036 42.0368 49.9835 41.9412C50.4065 41.4221 50.8295 40.8989 51.2526 40.3798C51.262 40.3701 51.2709 40.3598 51.2792 40.3491C51.4938 40.0835 51.7104 39.8198 51.925 39.5541L51.9251 39.5538C51.9365 38.7394 51.8431 37.927 51.647 37.1364L51.6469 37.1363Z" fill="#F2F2F2"/>
<path d="M25.0413 8.46118C24.9119 8.76276 20.9216 8.73045 20.7389 8.99899C19.3298 11.0722 24.4092 19.8934 23.0001 21.9693L22.8038 22.2033C23.2635 21.9914 23.7051 21.7423 24.1241 21.4584C24.1618 20.6087 24.1994 19.7562 24.2398 18.9065C24.6618 19.4464 25.0025 20.0453 25.2508 20.6839C25.5789 20.4527 25.848 20.024 27.2542 19.1808C27.8234 18.5554 28.4797 18.0152 29.2028 17.5767L25.0413 8.46118Z" fill="#2F2E41"/>
<path d="M27.9389 25.4526C27.4986 25.1657 26.9962 24.988 26.4734 24.9342C25.9506 24.8804 25.4226 24.9521 24.9331 25.1432C24.4435 25.3343 24.0066 25.6395 23.6586 26.0332C23.3106 26.427 23.0615 26.8981 22.9321 27.4075L16.8683 43.2073L6.44529 37.2899C6.39953 36.6097 6.13953 35.9615 5.7026 35.4382C5.26567 34.915 4.67424 34.5435 4.01315 34.3772C3.35206 34.2108 2.65526 34.2581 2.0227 34.5122C1.39014 34.7664 0.854313 35.2143 0.492069 35.7918C0.129825 36.3693 -0.0402252 37.0467 0.00630812 37.7268C0.0528414 38.4069 0.313568 39.0548 0.751092 39.5776C1.18862 40.1003 1.78046 40.4711 2.44174 40.6367C3.10302 40.8023 3.79976 40.7543 4.43203 40.4994C6.62702 42.8421 16.1431 52.4471 20.0827 48.6942C23.3941 45.5397 28.1729 33.314 29.3232 29.0922C29.5075 28.4171 29.4727 27.701 29.224 27.0469C28.9752 26.3928 28.5252 25.8346 27.9389 25.4526Z" fill="#FFB6B6"/>
<path d="M16.5527 49.3562L18.4663 58.0052L32.4588 59.2708L33.7447 51.7399L16.5527 49.3562Z" fill="#FFB6B6"/>
<path d="M37.9266 71.5354C37.9202 71.6594 37.9125 71.7821 37.9036 71.9061C37.7693 73.6982 37.616 75.7651 37.4498 78.0301C37.1878 81.6245 36.895 85.7174 36.5998 89.9995H7.25037L12.9424 72.8909C12.9424 72.8909 15.2407 71.6255 14.0706 69.4998C12.9005 67.3741 15.2028 69.068 15.2242 66.0323C15.2456 62.9965 17.3087 59.7668 17.3087 59.7668L17.6475 55.1703L17.8405 55.1741L33.114 55.4285L33.3927 55.4336L33.8618 59.3795C36.7101 62.7689 38.1632 67.1145 37.9266 71.5354Z" fill="#2F2E41"/>
<path d="M25.2859 21.261L32.2506 20.9022L35.4856 26.0138C35.4856 26.0138 41.5722 27.0314 41.1503 34.2037C40.7284 41.3761 33.7447 47.6698 33.7447 47.6698L34.0432 46.6463L33.5247 48.1278L33.5912 48.9596L34.2985 49.8406L34.3713 50.7517L33.7447 52.1931C33.8262 52.3238 33.8694 52.4746 33.8695 52.6286C33.8696 52.7825 33.8266 52.9334 33.7452 53.0641C33.6639 53.1949 33.5476 53.3002 33.4095 53.3682C33.2713 53.4361 33.1169 53.464 32.9637 53.4486L22.9002 52.4401C22.6711 51.8098 22.4872 51.0557 21.5688 52.3111L20.6208 52.2193L16.68 51.8375L16.448 50.9925C16.3162 50.5124 16.2957 50.0085 16.388 49.5193C16.4803 49.03 16.6829 48.5683 16.9806 48.1691C16.6383 47.0973 16.7279 45.9341 17.2304 44.9274L17.2493 44.8896L17.6678 44.5408C17.6678 44.5408 13.0893 37.6622 18.3453 32.4814L20.4548 28.8952L22.8151 26.0155L25.2859 21.261Z" fill="url(#paint0_linear_1620_2)"/>
<path d="M27.0193 18.2437C30.6669 18.2437 33.6238 15.2867 33.6238 11.6392C33.6238 7.9916 30.6669 5.03467 27.0193 5.03467C23.3717 5.03467 20.4148 7.9916 20.4148 11.6392C20.4148 15.2867 23.3717 18.2437 27.0193 18.2437Z" fill="#FFB6B6"/>
<path d="M32.0355 21.1533C31.4977 20.704 31.1233 20.0895 30.9706 19.4055C30.8485 20.236 30.8804 21.0819 31.0648 21.9009C30.7071 22.1698 30.3602 22.4253 30.0322 22.6565C29.7838 22.0178 29.4431 21.419 29.0211 20.8791C28.9808 21.7288 28.9431 22.5812 28.9055 23.4309C28.4864 23.7148 28.0448 23.964 27.5851 24.1758L27.7814 23.9419C29.1905 21.8659 25.5442 18.0448 26.9532 15.9716C27.3485 15.3907 25.563 10.8006 24.2023 10.5935C22.9923 10.4107 23.0434 10.7602 21.871 11.0157C21.7492 10.5079 21.5602 10.0187 21.309 9.56094C21.3758 10.071 21.3604 10.5885 21.2632 11.0937C20.8464 11.1098 20.5185 10.8442 20.0747 10.7764C17.2431 10.3435 17.5309 7.28066 18.3188 6.30991C19.1093 5.34187 21.7338 5.05145 22.9439 4.73682C23.0541 4.62927 23.3042 4.69649 23.4145 4.59431C25.7335 2.47198 28.835 2.12051 31.6261 3.06117C34.6026 4.06432 36.4584 6.00585 37.4109 8.99894L37.684 11.3942C37.9291 12.1643 37.6208 15.7478 37.4109 16.5282C36.5947 19.562 34.8566 18.0475 32.0355 21.1533Z" fill="#2F2E41"/>
<path d="M41.6654 52.4438L41.4054 32.1935C41.3919 31.3356 41.0416 30.5174 40.4301 29.9156C39.8186 29.3137 38.995 28.9763 38.137 28.9763C37.6931 28.9763 37.2539 29.0667 36.8461 29.242C36.4383 29.4173 36.0705 29.6738 35.765 29.9959C35.4596 30.3179 35.223 30.6988 35.0696 31.1154C34.9161 31.5319 34.8492 31.9753 34.8727 32.4185L35.7876 53.4453L35.805 66.2454C35.2658 66.4741 34.81 66.8633 34.4996 67.36C34.1892 67.8567 34.0393 68.437 34.0701 69.0219C34.101 69.6069 34.3112 70.1681 34.6721 70.6294C35.0331 71.0907 35.5273 71.4297 36.0876 71.6004C36.648 71.771 37.2473 71.7651 37.8041 71.5833C38.3609 71.4015 38.8482 71.0527 39.1999 70.5842C39.5516 70.1158 39.7505 69.5505 39.7697 68.965C39.7889 68.3796 39.6274 67.8025 39.3072 67.312L41.6654 52.4438Z" fill="#FFB6B6"/>
<path d="M75.752 78.6428C75.752 78.6428 75.3499 85.8752 75.1651 90H61.321C61.0361 86.2462 60.9401 83.4884 60.9401 83.4884L60.1826 90H46.189L45.3214 77.9403L49.5139 67.5481C49.5139 67.5481 72.2338 65.9724 74.3413 67.9713C76.4474 69.9688 75.752 78.6428 75.752 78.6428Z" fill="#2F2E41"/>
<path d="M63.5097 17.8032C67.6861 17.8032 71.0718 14.4175 71.0718 10.2411C71.0718 6.06473 67.6861 2.67908 63.5097 2.67908C59.3333 2.67908 55.9476 6.06473 55.9476 10.2411C55.9476 14.4175 59.3333 17.8032 63.5097 17.8032Z" fill="#FFB6B6"/>
<path d="M72.324 7.7839C71.5473 8.13807 71.044 10.7032 70.4335 10.1068C69.823 9.5105 69.8638 8.73447 69.0407 8.51439C68.376 8.33591 67.6607 8.53989 67.0544 8.8616C66.9462 8.91836 66.8412 8.98009 66.739 9.04147C66.6714 8.99635 66.6042 8.9539 66.5321 8.91474C65.9898 8.62453 65.3568 8.55333 64.7636 8.71582C65.2324 8.87283 65.6399 9.17322 65.9286 9.57451C65.7257 9.71049 65.5202 9.84682 65.31 9.96761C63.5537 10.9811 61.0546 8.77728 59.2059 7.94934C60.3638 10.1223 59.7937 11.0222 58.7882 13.2695L58.7535 13.3975C58.8106 12.8343 57.0677 12.4145 57.1688 13.2074C57.2406 13.7703 57.7277 15.0216 58.0006 15.5186C56.057 13.2712 54.7287 10.521 55.009 7.68394C55.07 7.08796 55.0516 6.45913 55.359 5.94185C55.6667 5.42725 56.3083 5.06612 56.8758 5.26236C56.8278 4.35759 57.0257 3.45669 57.4488 2.65545C57.8718 1.85422 58.504 1.18258 59.2783 0.711958C60.0525 0.241334 60.9398 -0.0106903 61.8458 -0.0173217C62.7518 -0.0239532 63.6427 0.215057 64.4238 0.674298C65.1495 1.10015 65.7554 1.70245 66.4206 2.22198C67.0857 2.7415 67.8525 3.19435 68.696 3.23724C69.2311 3.26305 69.8134 3.13242 70.2731 3.40955C70.8056 3.73112 70.8968 4.40439 70.9767 5.05224C70.5017 5.09906 70.0515 5.28643 69.6835 5.5904C70.175 5.54027 70.6697 5.64639 71.0974 5.89365C71.1055 5.89732 71.1132 5.90173 71.1205 5.90681C71.402 6.97749 71.3732 7.21484 72.324 7.7839Z" fill="#2F2E41"/>
<path d="M46.2225 71.2066C52.6623 63.6688 50.4871 54.0813 47.9312 44.4032L48.4176 30.1057C48.4414 29.4044 48.6337 28.7191 48.9781 28.1077C49.3226 27.4963 49.8091 26.9767 50.3966 26.5929L56.9707 22.2981L59.5295 18.5985L66.5827 19.3038L70.494 23.4401L74.8233 26.7453C75.9104 27.5751 76.7375 28.6985 77.2072 29.9829C77.6769 31.2673 77.7695 32.6593 77.4742 33.9946L73.3312 52.7309C73.3312 52.7309 75.064 62.444 74.0067 63.5167C72.9494 64.5895 70.225 63.5173 72.3855 64.7215C74.9782 66.1666 77.3357 65.9 76.0236 67.212C74.7115 68.5241 76.3721 70.3482 76.3721 70.3482L46.2225 71.2066Z" fill="url(#paint1_linear_1620_2)"/>
<path d="M48.9758 82.1617L50.0493 74.5131L45.7656 73.2902L44.9182 81.4172C44.5637 81.7422 44.3069 82.1597 44.1767 82.6227C44.0464 83.0858 44.0479 83.5759 44.181 84.0382C44.3141 84.5004 44.5734 84.9163 44.9299 85.2392C45.2864 85.5621 45.7259 85.7791 46.199 85.866C46.6721 85.9528 47.16 85.9059 47.6079 85.7306C48.0558 85.5553 48.4459 85.2586 48.7344 84.8737C49.0229 84.4888 49.1984 84.0311 49.241 83.552C49.2836 83.0729 49.1918 82.5915 48.9758 82.1617Z" fill="#FFB6B6"/>
<path d="M57.1313 23.6769C57.1313 23.6769 44.9379 27.6454 44.6471 30.5492C44.3564 33.4529 44.4528 35.2305 43.1659 46.8501L43.2337 78.15C43.2337 78.15 51.4087 79.9003 50.5703 78.0289C49.7319 76.1575 50.0244 75.2771 50.0244 75.2771C50.0244 75.2771 51.7771 74.5854 51.3384 72.3882C50.8997 70.1909 53.0999 59.3019 53.0999 59.3019L54.4886 39.773L57.1313 23.6769Z" fill="url(#paint2_linear_1620_2)"/>
<path d="M72.1661 81.7566L71.5947 74.0542L75.9493 73.1139L76.2636 81.2789C76.5961 81.6264 76.825 82.0598 76.9247 82.5304C77.0244 83.0009 76.9909 83.4899 76.8279 83.9425C76.6649 84.395 76.3789 84.7931 76.0021 85.092C75.6253 85.3909 75.1725 85.5788 74.6948 85.6345C74.217 85.6902 73.7332 85.6115 73.2977 85.4073C72.8622 85.2031 72.4923 84.8815 72.2296 84.4786C71.9669 84.0757 71.8217 83.6075 71.8105 83.1266C71.7993 82.6458 71.9224 82.1713 72.1661 81.7566Z" fill="#FFB6B6"/>
<path d="M67.8508 22.8638C67.8508 22.8638 79.7588 27.6209 79.8591 30.5374C79.9594 33.454 79.747 35.2214 80.2717 46.9002L78.1581 78.1288C78.1581 78.1288 69.8862 79.341 70.8451 77.5284C71.804 75.7159 71.5697 74.8182 71.5697 74.8182C71.5697 74.8182 69.8659 74.0134 70.4474 71.8495C71.0288 69.6856 69.545 58.6761 69.545 58.6761L69.4358 39.0982L67.8508 22.8638Z" fill="url(#paint3_linear_1620_2)"/>
</g>
<defs>
<linearGradient id="paint0_linear_1620_2" x1="17.0221" y1="21.7893" x2="22.6182" y2="55.8966" gradientUnits="userSpaceOnUse">
<stop stop-color="#5FFBD6"/>
<stop offset="1" stop-color="#B063F6"/>
</linearGradient>
<linearGradient id="paint1_linear_1620_2" x1="47.7127" y1="20.0322" x2="59.2942" y2="74.1624" gradientUnits="userSpaceOnUse">
<stop stop-color="#5FFBD6"/>
<stop offset="1" stop-color="#B063F6"/>
</linearGradient>
<linearGradient id="paint2_linear_1620_2" x1="43.8282" y1="25.1817" x2="67.7426" y2="72.5138" gradientUnits="userSpaceOnUse">
<stop stop-color="#5FFBD6"/>
<stop offset="1" stop-color="#B063F6"/>
</linearGradient>
<linearGradient id="paint3_linear_1620_2" x1="68.4399" y1="24.3807" x2="94.2686" y2="69.4839" gradientUnits="userSpaceOnUse">
<stop stop-color="#5FFBD6"/>
<stop offset="1" stop-color="#B063F6"/>
</linearGradient>
<clipPath id="clip0_1620_2">
<rect width="118.212" height="90" fill="white"/>
</clipPath>
</defs>
</svg>
