<svg width="142" height="151" viewBox="0 0 142 151" fill="none" xmlns="http://www.w3.org/2000/svg">
<ellipse cx="82.3041" cy="72.8236" rx="25.4694" ry="24.96" fill="white" fill-opacity="0.5"/>
<path d="M46.9866 1L68.709 45.2266" stroke="#263238" stroke-miterlimit="10"/>
<path d="M1 61.3501L48.8082 73.2763" stroke="#263238" stroke-miterlimit="10"/>
<path d="M35.3608 28.9906L55.9116 52.0238" stroke="#263238" stroke-width="0.791502" stroke-miterlimit="10"/>
<path d="M79.2476 11.5273L81.9068 42.2811" stroke="#263238" stroke-width="0.791502" stroke-miterlimit="10"/>
<path d="M30.5798 51.7456L50.3363 61.2799" stroke="#263238" stroke-width="0.667237" stroke-miterlimit="10"/>
<path d="M57.3679 79.901C61.1538 93.106 75.2352 100.756 88.8194 96.987C102.404 93.2184 110.347 79.4585 106.561 66.2535C102.775 53.0485 88.6936 45.3988 75.1094 49.1675C61.5251 52.9362 53.582 66.696 57.3679 79.901Z" stroke="#263238" stroke-width="2" stroke-miterlimit="10"/>
<path d="M61.2104 89.4631L27.7432 120.339" stroke="#263238" stroke-width="3" stroke-miterlimit="10"/>
<path d="M70.7589 68.3446H76.6526C76.6526 68.3446 76.6526 64.1756 81.7951 64.101C84.466 64.062 85.8501 65.5363 86.4136 66.665C87.0666 67.9763 86.8691 69.4701 85.9936 70.6864C84.9938 72.0747 82.8035 73.3365 78.8313 72.7474V80.0331H84.6586V77.3846C84.6586 77.3846 92.8313 75.6044 92.8313 68.0168C92.8313 60.7571 85.1027 59.0702 81.7951 59.0702C79.2657 59.0702 70.6472 59.5854 70.7589 68.3446Z" fill="url(#paint0_linear_16_975)"/>
<path d="M84.7289 81.9237H78.8149V86.5772H84.7289V81.9237Z" fill="#F663E4"/>
<path d="M109.328 50.684C109.328 51.4578 108.701 52.0851 107.927 52.0851C107.153 52.0851 106.526 51.4578 106.526 50.684C106.526 49.9103 107.153 49.2836 107.927 49.2836C108.701 49.2836 109.328 49.9103 109.328 50.684Z" fill="url(#paint1_linear_16_975)"/>
<path d="M113.604 50.684C113.604 51.4578 112.976 52.0851 112.203 52.0851C111.429 52.0851 110.802 51.4578 110.802 50.684C110.802 49.9103 111.429 49.2836 112.203 49.2836C112.976 49.2836 113.604 49.9103 113.604 50.684Z" fill="url(#paint2_linear_16_975)"/>
<path d="M117.879 50.684C117.879 51.4578 117.252 52.0851 116.479 52.0851C115.706 52.0851 115.078 51.4578 115.078 50.684C115.078 49.9103 115.705 49.2836 116.479 49.2836C117.252 49.2836 117.879 49.9103 117.879 50.684Z" fill="url(#paint3_linear_16_975)"/>
<path d="M131.955 73.4262C133.008 72.059 132.859 69.9118 131.628 68.7032C132.302 67.8552 132.06 66.5475 131.374 65.7087C130.688 64.8699 129.67 64.3883 128.686 63.9336C128.146 61.4529 125.361 59.7081 122.893 60.3041C121.608 58.4142 118.868 58.1174 116.674 58.7572C116.138 58.9134 115.603 59.1152 115.044 59.1131C114.635 59.1114 114.235 58.9994 113.829 58.9447C111.596 58.6445 109.38 60.2161 108.51 62.2937C108.37 62.6258 108.256 62.976 108.036 63.2605C107.746 63.6341 107.307 63.8535 106.933 64.1421C106.123 64.766 105.609 65.7576 105.567 66.7784C105.53 67.6454 105.806 68.5656 105.441 69.3528C105.258 69.7474 104.927 70.0663 104.785 70.4772C104.372 71.6682 105.692 72.8859 105.448 74.1227C105.398 74.375 105.284 74.61 105.214 74.8576C105.071 75.3636 105.12 75.9215 105.348 76.3953C105.525 76.761 105.809 77.0958 105.833 77.501C105.851 77.8087 105.714 78.1014 105.652 78.4029C105.501 79.1412 107.095 81.988 107.732 82.3891L126.794 82.5595C128.237 82.2658 129.412 80.9584 129.551 79.4927C129.574 79.2489 129.578 78.9843 129.728 78.7918C129.857 78.6274 130.065 78.5524 130.249 78.4535C131.476 77.7944 131.624 76.1093 131.495 74.7221C131.477 74.5279 131.456 74.3289 131.505 74.14C131.577 73.8657 131.782 73.6507 131.955 73.4262Z" fill="#263238"/>
<path d="M126.494 73.4534C126.551 70.0799 124.435 66.2031 121.084 64.5534C118.971 63.5132 117.323 63.5068 116.213 63.3771C113.724 63.0871 111.717 64.3198 111.717 64.3198C110.666 64.5667 106.816 68.0923 106.616 71.9178C106.394 76.1678 106.29 81.3656 106.827 84.5292C107.908 90.8904 112.8 91.6494 112.8 91.6494C112.801 91.6396 112.345 102.224 112.345 102.224L121.748 109.93L124.621 97.2778L126.494 73.4534Z" fill="white"/>
<path d="M112.8 91.6494C112.8 91.6494 117.118 91.8811 121.338 89.2828C121.338 89.2828 119.114 93.7987 112.73 93.2707L112.8 91.6494Z" fill="#263238"/>
<path d="M125.533 79.5036C125.528 79.0288 126.065 77.9041 126.533 77.826C127.782 77.6175 130.039 77.6939 130.094 80.8718C130.169 85.2162 125.905 84.246 125.782 84.2711C125.09 84.4131 125.546 81.1421 125.533 79.5036Z" fill="white"/>
<path d="M126.953 82.6635C126.972 82.6492 127.03 82.7151 127.159 82.7715C127.285 82.8262 127.5 82.8621 127.725 82.7735C128.181 82.5973 128.555 81.8617 128.562 81.0783C128.567 80.6827 128.478 80.3074 128.332 79.998C128.194 79.6826 127.984 79.4642 127.753 79.4272C127.522 79.3779 127.361 79.5192 127.309 79.6421C127.253 79.7647 127.283 79.8513 127.259 79.8588C127.248 79.87 127.165 79.7878 127.197 79.6078C127.213 79.5212 127.262 79.4177 127.363 79.3324C127.466 79.2458 127.618 79.2 127.78 79.2146C128.115 79.2323 128.422 79.5352 128.582 79.8744C128.76 80.2154 128.87 80.6365 128.865 81.081C128.852 81.9568 128.418 82.7837 127.793 82.9762C127.489 83.0611 127.233 82.9735 127.099 82.8734C126.963 82.7684 126.939 82.6716 126.953 82.6635Z" fill="#263238"/>
<path d="M105.684 71.2743C105.822 69.6962 106.451 68.2 107.212 66.811C107.739 65.8497 108.345 64.9114 109.174 64.1945C109.868 63.5954 110.693 63.172 111.521 62.7794C113.697 61.747 116.125 60.8712 118.475 61.4007C119.736 61.6849 120.872 62.3553 121.977 63.0273C122.824 63.5425 123.674 64.0699 124.383 64.7623C125.006 65.3698 125.506 66.0914 125.947 66.8406C126.999 68.6265 127.742 70.623 127.884 72.6911C128.027 74.7588 129.591 76.5872 128.378 78.2685C128.285 78.3986 126.125 78.8458 125.976 78.9053C125.625 79.0448 125.239 78.6641 125.242 78.2865C125.245 77.9089 125.505 77.5832 125.785 77.3295C125.247 77.3115 124.878 76.7128 124.912 76.176C124.946 75.6391 125.264 75.1663 125.583 74.7334C125.624 74.6767 125.668 74.6169 125.676 74.5473C125.699 74.3639 125.491 74.2511 125.333 74.1574C124.559 73.6993 124.472 72.4255 125.178 71.8676C124.141 71.6275 123.47 70.3812 123.839 69.3834C123.897 69.2259 123.977 69.0489 123.902 68.8985C123.829 68.7542 123.65 68.709 123.495 68.6628C122.348 68.3229 121.577 67.0274 121.826 65.8575C121.223 65.889 120.61 65.9199 120.023 65.7773C119.437 65.635 118.869 65.2917 118.601 64.7507C118.216 65.4435 117.461 65.9159 116.67 65.958C115.878 66.0004 115.077 65.6116 114.621 64.964C113.609 65.0608 112.573 64.9005 111.638 64.5025C111.409 65.4452 110.665 66.246 109.742 66.5445C109.562 66.6025 109.356 66.6589 109.27 66.8263C109.215 66.933 109.224 67.0596 109.23 67.1795C109.262 67.786 108.849 68.0444 108.514 68.5514C108.18 69.0585 107.597 69.8137 107.013 69.6463C107.078 70.6793 106.525 71.4315 105.653 71.9891L105.684 71.2743Z" fill="#263238"/>
<path d="M104.785 70.4773C104.785 70.4773 104.827 70.2976 105.015 70.009C105.105 69.8636 105.234 69.6942 105.355 69.4775C105.473 69.2605 105.567 68.9854 105.591 68.6635C105.623 68.3426 105.594 67.9826 105.563 67.589C105.532 67.1968 105.499 66.7591 105.586 66.2989C105.668 65.8408 105.849 65.3647 106.145 64.9253C106.292 64.7059 106.469 64.496 106.674 64.3055C106.877 64.113 107.117 63.9507 107.356 63.789C107.593 63.6253 107.833 63.4504 108.011 63.2137C108.189 62.977 108.298 62.6867 108.415 62.3923C108.651 61.7987 108.996 61.2169 109.456 60.7035C109.913 60.19 110.47 59.7241 111.128 59.3937C111.451 59.2167 111.807 59.0972 112.17 58.9913C112.539 58.9081 112.921 58.8425 113.311 58.852C113.506 58.8493 113.701 58.8748 113.897 58.8935C114.091 58.922 114.283 58.9614 114.476 58.9936C114.86 59.0666 115.249 59.0745 115.637 58.9848C116.025 58.9047 116.405 58.7614 116.806 58.6578C117.204 58.5444 117.617 58.4771 118.036 58.4296C118.455 58.3831 118.881 58.3827 119.309 58.4068C119.737 58.4387 120.165 58.5141 120.585 58.6306C121.418 58.8772 122.23 59.3366 122.785 60.0552C122.84 60.1265 122.894 60.1975 122.948 60.2678L122.878 60.241C124.19 59.9268 125.564 60.2695 126.626 60.965C127.694 61.6581 128.49 62.7332 128.748 63.9208L128.713 63.8776C129.24 64.1218 129.762 64.3673 130.242 64.6689C130.722 64.9691 131.163 65.3287 131.495 65.7705C131.824 66.2144 132.026 66.737 132.073 67.2654C132.123 67.7918 131.993 68.3365 131.67 68.7379L131.666 68.6652C132.291 69.2819 132.611 70.1058 132.685 70.8875C132.759 71.673 132.601 72.4394 132.251 73.0504C132.172 73.2076 132.064 73.3441 131.967 73.4826C131.862 73.6154 131.755 73.7394 131.671 73.8728C131.586 74.0063 131.531 74.1496 131.52 74.3C131.506 74.4505 131.523 74.6013 131.536 74.751C131.586 75.3501 131.578 75.9063 131.503 76.4004C131.428 76.8935 131.289 77.3261 131.086 77.6589C130.889 77.9948 130.64 78.225 130.416 78.3697C130.193 78.5195 129.995 78.5786 129.886 78.6601C129.772 78.7348 129.732 78.7962 129.729 78.7925C129.729 78.7925 129.763 78.7273 129.876 78.6465C129.985 78.5589 130.183 78.494 130.398 78.3425C130.615 78.1958 130.855 77.9666 131.045 77.6348C131.239 77.3061 131.371 76.8789 131.441 76.3916C131.51 75.9029 131.515 75.3521 131.46 74.7578C131.447 74.6094 131.427 74.4546 131.44 74.2933C131.451 74.1313 131.512 73.9693 131.6 73.8294C131.688 73.6881 131.797 73.5611 131.899 73.43C131.993 73.2938 132.098 73.1607 132.174 73.0072C132.511 72.4112 132.662 71.6624 132.586 70.897C132.511 70.135 132.195 69.3359 131.59 68.7426L131.555 68.7083L131.585 68.67C131.886 68.2923 132.009 67.7792 131.96 67.2753C131.913 66.7699 131.717 66.266 131.4 65.8408C131.079 65.416 130.65 65.0652 130.178 64.7718C129.704 64.4767 129.187 64.2339 128.66 63.9907L128.632 63.9778L128.625 63.9473C128.374 62.7964 127.599 61.7491 126.555 61.073C125.518 60.3948 124.179 60.0634 122.909 60.368L122.867 60.3778L122.839 60.3411C122.787 60.2736 122.735 60.205 122.682 60.136C122.147 59.4429 121.362 58.9967 120.548 58.7556C120.138 58.6415 119.719 58.5674 119.299 58.5359C118.879 58.5118 118.46 58.5118 118.048 58.5573C117.637 58.6034 117.23 58.6693 116.838 58.7804C116.445 58.8809 116.062 59.0252 115.662 59.1074C115.462 59.1492 115.259 59.1753 115.054 59.1757C114.85 59.1757 114.649 59.1485 114.454 59.1152C114.259 59.0819 114.068 59.0425 113.878 59.0144C113.688 58.996 113.498 58.9705 113.309 58.9729C112.93 58.9627 112.559 59.0259 112.199 59.1057C111.845 59.2083 111.496 59.3237 111.18 59.4962C110.535 59.8175 109.987 60.2732 109.536 60.7755C109.083 61.2787 108.743 61.8469 108.509 62.4303C108.39 62.722 108.278 63.0212 108.088 63.2722C107.897 63.5234 107.647 63.7024 107.408 63.8658C107.165 64.0277 106.932 64.1843 106.733 64.3704C106.532 64.5548 106.359 64.7585 106.214 64.9721C105.922 65.3997 105.742 65.8646 105.658 66.3125C105.569 66.7618 105.598 67.1917 105.625 67.585C105.652 67.9786 105.678 68.3426 105.642 68.6689C105.614 68.9956 105.513 69.2778 105.389 69.4969C105.262 69.7152 105.131 69.8813 105.037 70.0239C104.94 70.1648 104.878 70.2789 104.841 70.3577C104.803 70.4355 104.788 70.4783 104.785 70.4773Z" fill="#455A64"/>
<path d="M120.846 59.3658C120.839 59.3756 120.731 59.3009 120.518 59.1991C120.307 59.0989 119.985 58.9742 119.569 58.9304C119.156 58.8843 118.644 58.923 118.143 59.1498C117.644 59.375 117.161 59.7835 116.852 60.3374C116.764 60.4963 116.688 60.6654 116.64 60.8308C116.595 60.9952 116.589 61.1697 116.676 61.2882L116.783 61.4353L116.607 61.387C116.124 61.2546 115.629 61.3504 115.265 61.5575C114.894 61.764 114.661 62.0825 114.534 62.3674C114.406 62.6554 114.377 62.9118 114.37 63.0847C114.366 63.2589 114.38 63.3543 114.37 63.3557C114.367 63.3563 114.36 63.3332 114.35 63.2877C114.34 63.2426 114.33 63.1743 114.326 63.085C114.319 62.9081 114.335 62.6408 114.459 62.3355C114.581 62.034 114.819 61.6893 115.21 61.4621C115.593 61.2352 116.119 61.1252 116.641 61.2645L116.573 61.3633C116.451 61.1942 116.466 60.9761 116.515 60.7972C116.568 60.6138 116.645 60.4426 116.738 60.2739C117.062 59.6932 117.57 59.2694 118.094 59.0401C118.622 58.8089 119.156 58.7797 119.581 58.8391C120.009 58.8965 120.334 59.0384 120.543 59.1542C120.647 59.213 120.725 59.2639 120.774 59.303C120.824 59.3407 120.849 59.3621 120.846 59.3658Z" fill="#455A64"/>
<path d="M127.935 64.298C127.94 64.3038 127.889 64.3615 127.785 64.4546C127.679 64.5466 127.519 64.6753 127.296 64.8C127.073 64.9222 126.781 65.0438 126.431 65.0669C126.087 65.0903 125.678 65.0149 125.35 64.749L125.446 64.7337C125.405 64.7921 125.363 64.8523 125.32 64.913C125.274 64.9715 125.222 65.0271 125.173 65.0852C124.856 65.4184 124.469 65.6476 124.093 65.7692C123.717 65.8951 123.356 65.9284 123.058 65.9074C122.76 65.8866 122.527 65.8153 122.372 65.7569C122.22 65.6907 122.141 65.6445 122.145 65.6374C122.153 65.6102 122.483 65.7943 123.063 65.815C123.35 65.8235 123.695 65.7821 124.053 65.6554C124.411 65.5328 124.777 65.311 125.077 64.9959C125.124 64.9409 125.172 64.8883 125.216 64.8332C125.257 64.7758 125.297 64.7195 125.335 64.6645L125.378 64.6047L125.432 64.6488C125.725 64.8893 126.101 64.9667 126.425 64.9514C126.752 64.9372 127.034 64.8315 127.256 64.7229C127.697 64.4957 127.921 64.279 127.935 64.298Z" fill="#455A64"/>
<path d="M130.263 68.3093C130.268 68.3103 130.264 68.3374 130.253 68.3894C130.239 68.4397 130.214 68.5154 130.158 68.6003C130.053 68.7714 129.817 68.9803 129.462 69.0713C129.105 69.1674 128.662 69.0988 128.219 68.9463C127.998 68.8689 127.767 68.7915 127.531 68.6815C127.302 68.5711 127.052 68.4115 126.927 68.1395C126.917 68.1157 126.908 68.0916 126.899 68.0699L127.002 68.1001C126.586 68.4305 126.157 68.7185 125.719 68.8842C125.284 69.0564 124.846 69.0862 124.5 69.0197C124.152 68.9569 123.894 68.8108 123.746 68.6838C123.67 68.6213 123.618 68.565 123.587 68.5242C123.556 68.4835 123.541 68.4611 123.545 68.458C123.554 68.4499 123.622 68.5331 123.777 68.6438C123.929 68.7545 124.18 68.8805 124.515 68.929C124.849 68.9806 125.26 68.9436 125.676 68.7721C126.094 68.6067 126.509 68.3249 126.921 67.9972L126.989 67.9425L127.023 68.0277C127.031 68.0461 127.038 68.0658 127.047 68.0858C127.148 68.3113 127.368 68.4594 127.587 68.566C127.809 68.6719 128.042 68.7534 128.258 68.8326C128.689 68.9881 129.107 69.0594 129.44 68.9817C129.774 68.9076 130.004 68.7242 130.116 68.5714C130.233 68.4176 130.25 68.3048 130.263 68.3093Z" fill="#455A64"/>
<path d="M116.234 77.1318C116.206 77.5556 116.541 77.9292 116.983 77.9672C117.424 78.0053 117.805 77.6935 117.834 77.2697C117.863 76.8459 117.528 76.472 117.086 76.434C116.644 76.3956 116.263 76.7084 116.234 77.1318Z" fill="#263238"/>
<path d="M108.447 76.9186C108.418 77.3424 108.754 77.716 109.196 77.754C109.637 77.7921 110.019 77.4803 110.047 77.0562C110.076 76.6323 109.74 76.2581 109.299 76.2204C108.858 76.1824 108.476 76.4948 108.447 76.9186Z" fill="#263238"/>
<path d="M108.13 74.2528C108.226 74.3608 108.849 73.9299 109.714 73.9601C110.578 73.9778 111.198 74.443 111.295 74.3401C111.343 74.2946 111.247 74.1024 110.978 73.8922C110.712 73.6833 110.254 73.4735 109.716 73.4582C109.177 73.4439 108.718 73.6276 108.451 73.8222C108.179 74.0175 108.083 74.2039 108.13 74.2528Z" fill="#263238"/>
<path d="M116.728 74.6841C116.835 74.7816 117.411 74.2892 118.274 74.2304C119.135 74.1591 119.8 74.5582 119.886 74.4461C119.928 74.3958 119.815 74.2145 119.524 74.0331C119.238 73.8521 118.762 73.6908 118.224 73.7312C117.687 73.7723 117.249 74.0022 117.003 74.2233C116.753 74.4454 116.676 74.641 116.728 74.6841Z" fill="#263238"/>
<path d="M113.504 81.174C113.51 81.1251 112.975 81.0151 112.108 80.8755C111.888 80.8457 111.68 80.7951 111.648 80.6433C111.601 80.4819 111.701 80.247 111.817 79.9936C112.041 79.4662 112.276 78.913 112.524 78.3337C113.507 75.9695 114.227 74.0226 114.131 73.9839C114.036 73.9451 113.161 75.8299 112.177 78.1941C111.94 78.7772 111.713 79.3331 111.498 79.8649C111.406 80.1132 111.253 80.3933 111.355 80.7278C111.41 80.8949 111.568 81.0195 111.708 81.0623C111.848 81.1099 111.972 81.1163 112.081 81.1265C112.956 81.2019 113.499 81.2233 113.504 81.174Z" fill="#263238"/>
<path d="M114.959 82.5183C115.313 82.5604 115.666 82.7151 115.873 82.9655C116.079 83.216 116.229 83.8022 116.024 84.03C115.849 84.2246 115.069 84.2237 114.532 84.1666C114.283 84.1402 114.076 83.9943 113.994 83.7944L113.782 83.2787C113.661 82.9853 113.841 82.6558 114.193 82.5626C114.43 82.4995 114.696 82.4873 114.959 82.5183Z" fill="#263238"/>
<path d="M116.334 71.5272C116.463 71.7418 117.29 71.4671 118.309 71.3931C119.327 71.2987 120.187 71.4335 120.279 71.2009C120.319 71.0902 120.136 70.9003 119.768 70.74C119.402 70.5798 118.847 70.4677 118.236 70.5176C117.626 70.5685 117.097 70.7703 116.763 70.9886C116.426 71.2073 116.277 71.4247 116.334 71.5272Z" fill="#263238"/>
<path d="M108.343 72.833C108.525 73.0245 109.209 72.8024 110.038 72.7702C110.866 72.7131 111.574 72.8608 111.73 72.651C111.798 72.5494 111.682 72.3555 111.37 72.1779C111.063 72.001 110.552 71.8631 109.983 71.8933C109.413 71.9242 108.924 72.1158 108.641 72.3246C108.354 72.5345 108.263 72.7393 108.343 72.833Z" fill="#263238"/>
<path d="M138.137 108.737L129.979 138.325L132.841 146.806C122.069 151.554 106.498 153.063 94.2239 147.115C94.2239 147.115 98.393 134.881 98.535 132.5C98.6769 130.118 97.6521 116.207 98.7866 111.542C99.9212 106.876 103.169 96.8771 103.169 96.8771L112.724 95.3601C117.105 97.7131 119.91 98.0633 124.621 95.3367L133.521 97.2778L138.137 108.737Z" fill="url(#paint4_linear_16_975)"/>
<path d="M103.315 96.8611C103.315 96.8611 98.1836 97.4044 96.1175 101.625C94.0766 105.794 88.4112 124.245 88.1028 127.328C87.7945 130.41 90.2952 134.559 92.4754 135.133L99.0862 128.542L104.571 129.031L111.792 95.3363L103.315 96.8611Z" fill="url(#paint5_linear_16_975)"/>
<g opacity="0.3">
<path d="M99.4404 108.195C97.845 112.334 97.394 116.907 98.1503 121.277C96.9461 120.827 95.7422 120.377 94.538 119.928C95.5222 121.287 96.815 122.421 98.2912 123.22C97.3173 122.939 96.3192 122.654 95.3072 122.72C94.2956 122.787 93.25 123.274 92.7949 124.18C93.9757 123.964 95.1775 123.748 96.3698 123.887C97.5621 124.026 98.7649 124.577 99.4068 125.591C98.5164 121.747 98.1737 117.778 98.3921 113.839" fill="black"/>
</g>
<g opacity="0.3">
<path d="M97.9419 133.571L124.868 136.239C122.927 136.198 121.434 137.84 119.753 138.812C116.642 140.612 112.767 140.108 109.216 139.55C106.274 139.087 103.333 138.625 100.391 138.162C99.6484 138.045 98.8575 137.906 98.3104 137.391C97.3296 136.467 97.5979 134.873 97.9419 133.571Z" fill="black"/>
</g>
<path d="M118.506 131.358L123.015 127.004C123.452 126.582 124.051 126.371 124.657 126.429C125.944 126.55 128.124 126.777 128.573 126.951C129.218 127.202 129.827 127.56 130.006 127.883C130.185 128.205 130.794 130.14 130.83 130.426C130.847 130.566 130.805 130.967 130.758 131.344C130.701 131.788 130.212 132.051 129.822 131.83C129.647 131.731 129.487 131.6 129.397 131.43C129.11 130.892 129.146 130.677 129.146 130.677C129.146 130.677 129.289 132.612 127.713 132.647C127.713 132.647 128.439 134.295 126.41 134.976C126.41 134.976 126.485 136.051 124.788 136.194C123.091 136.338 121.551 136.194 121.551 136.194C121.551 136.194 118.449 138.422 116.263 138.566C114.078 138.709 109.185 137.754 109.185 137.754L108.594 128.741L118.506 131.358Z" fill="white"/>
<path d="M124.615 128.596C124.609 128.611 124.885 128.727 125.337 128.898C125.79 129.067 126.42 129.293 127.135 129.483C127.489 129.584 127.846 129.641 128.143 129.722C128.445 129.803 128.626 130.029 128.757 130.226C128.889 130.426 128.992 130.595 129.083 130.699C129.171 130.804 129.234 130.848 129.239 130.843C129.245 130.836 129.195 130.781 129.12 130.67C129.043 130.561 128.954 130.39 128.829 130.18C128.765 130.076 128.689 129.962 128.583 129.858C128.479 129.751 128.334 129.666 128.177 129.616C127.859 129.523 127.521 129.467 127.165 129.366C126.456 129.178 125.824 128.966 125.365 128.817C124.907 128.668 124.621 128.58 124.615 128.596Z" fill="#263238"/>
<path d="M124.034 131.359C124.029 131.374 124.22 131.463 124.536 131.59C124.852 131.718 125.294 131.881 125.787 132.046C126.28 132.211 126.731 132.346 127.06 132.435C127.389 132.523 127.596 132.568 127.601 132.552C127.605 132.535 127.407 132.462 127.086 132.353C126.72 132.231 126.295 132.089 125.825 131.931C125.356 131.774 124.931 131.632 124.566 131.51C124.242 131.404 124.04 131.343 124.034 131.359Z" fill="#263238"/>
<path d="M122.92 133.928C122.916 133.965 123.705 134.045 124.644 134.301C125.584 134.552 126.306 134.879 126.321 134.845C126.328 134.831 126.155 134.731 125.861 134.6C125.567 134.47 125.15 134.313 124.675 134.184C124.2 134.057 123.76 133.982 123.44 133.948C123.121 133.913 122.921 133.913 122.92 133.928Z" fill="#263238"/>
<path d="M112.477 138.325L92.4751 135.132C92.4751 135.132 94.8787 125.1 98.3853 125.1C98.8992 125.1 116.666 130.872 116.666 130.872L112.477 138.325Z" fill="white"/>
<path d="M115.976 133.957C115.989 133.969 116.164 133.801 116.445 133.528C116.754 133.225 117.127 132.858 117.538 132.454C117.963 132.032 118.341 131.644 118.607 131.354C118.874 131.065 119.027 130.877 119.015 130.865C119.003 130.854 118.827 131.022 118.546 131.295C118.237 131.598 117.865 131.964 117.453 132.368C117.029 132.791 116.65 133.179 116.384 133.468C116.118 133.757 115.965 133.946 115.976 133.957Z" fill="#263238"/>
<path d="M116.666 130.872C116.663 130.881 116.576 130.865 116.412 130.824C116.216 130.772 115.981 130.71 115.699 130.635C115.039 130.445 114.159 130.192 113.093 129.885C110.895 129.24 107.866 128.33 104.526 127.308C102.676 126.736 100.924 126.195 99.368 125.715L99.3276 125.703L99.2973 125.662C98.6844 124.837 97.7811 124.335 96.966 124.087C96.1374 123.834 95.3621 123.803 94.7363 123.86C94.107 123.911 93.6221 124.049 93.2954 124.148C92.9697 124.252 92.8009 124.327 92.7942 124.314C92.7874 124.302 92.946 124.201 93.2675 124.07C93.5902 123.945 94.0768 123.78 94.72 123.705C95.3591 123.625 96.1605 123.634 97.0272 123.88C97.8863 124.13 98.826 124.615 99.5147 125.52L99.444 125.467C101.002 125.94 102.757 126.472 104.61 127.034C107.95 128.056 110.97 128.996 113.152 129.691C114.207 130.034 115.078 130.316 115.731 130.528C116.007 130.624 116.237 130.703 116.428 130.77C116.587 130.827 116.669 130.862 116.666 130.872Z" fill="#263238"/>
<path d="M110.221 137.86C110.219 137.87 110.13 137.866 109.962 137.85C109.761 137.827 109.519 137.799 109.229 137.765C108.549 137.672 107.642 137.549 106.542 137.399C104.275 137.078 101.146 136.614 97.6932 136.084C95.7804 135.786 93.9684 135.503 92.3597 135.252L92.3179 135.246L92.2821 135.21C88.9542 133.271 89.4245 132.252 89.4245 132.252L89.4636 132.252L89.4636 132.592C89.1564 132.742 88.4535 130.057 88.4448 130.045C88.4448 130.045 89.8435 133.277 90.1428 133.101L90.0791 133.271C90.0791 133.271 91.3313 134.29 92.4768 135.038L92.3992 134.996C94.0091 135.239 95.8225 135.512 97.7367 135.801C101.19 136.331 104.313 136.826 106.573 137.199C107.667 137.386 108.569 137.539 109.246 137.655C109.533 137.71 109.772 137.756 109.971 137.793C110.136 137.827 110.222 137.851 110.221 137.86Z" fill="#263238"/>
<path d="M133.52 97.2778L124.942 105.837L116.142 116.893L112.642 102.159L103.699 103.997C103.699 103.997 104.33 120.641 107.082 128.184C107.606 129.62 109.155 130.687 109.847 131.016C114.17 133.069 118.391 129.892 118.391 129.892C118.391 129.892 136.427 117.786 138.382 109.682C139.306 105.856 138.936 101.306 137.363 99.4329C135.98 97.7859 133.52 97.2778 133.52 97.2778Z" fill="url(#paint6_linear_16_975)"/>
<path d="M138.382 109.682C138.382 109.682 138.362 109.772 138.314 109.945C138.257 110.114 138.212 110.381 138.072 110.703C137.846 111.366 137.378 112.295 136.656 113.41C135.93 114.523 134.928 115.811 133.655 117.205C132.378 118.594 130.847 120.107 129.067 121.68C127.295 123.261 125.279 124.908 123.061 126.604C121.951 127.451 120.788 128.308 119.574 129.167C119.268 129.38 118.961 129.594 118.651 129.81C118.345 130.021 118.025 130.244 117.691 130.432C117.02 130.811 116.304 131.13 115.549 131.366C114.049 131.852 112.351 131.95 110.757 131.456C110.554 131.409 110.368 131.31 110.173 131.238C109.98 131.159 109.781 131.09 109.598 130.982C109.228 130.778 108.884 130.532 108.556 130.263C107.912 129.719 107.323 129.055 107.008 128.231C106.436 126.613 106.028 124.918 105.666 123.189C105.338 121.455 105.033 119.689 104.805 117.891C104.175 113.096 103.816 108.425 103.614 104L103.611 103.928L103.682 103.913C106.803 103.274 109.793 102.661 112.626 102.081L112.701 102.065L112.719 102.14C114.041 107.738 115.218 112.719 116.201 116.879L116.097 116.852C119.118 113.602 121.542 110.995 123.216 109.194C124.051 108.301 124.698 107.609 125.141 107.136C125.359 106.906 125.526 106.729 125.642 106.606C125.756 106.488 125.817 106.43 125.817 106.43C125.817 106.43 125.765 106.495 125.655 106.618C125.541 106.744 125.378 106.924 125.165 107.16C124.728 107.637 124.089 108.337 123.264 109.239C121.6 111.048 119.189 113.669 116.186 116.934L116.109 117.017L116.082 116.907C115.089 112.75 113.901 107.772 112.564 102.177L112.657 102.237C109.825 102.821 106.836 103.437 103.716 104.081L103.783 103.994C103.989 108.411 104.35 113.08 104.98 117.868C105.207 119.663 105.511 121.425 105.838 123.155C106.198 124.877 106.604 126.567 107.17 128.171C107.467 128.952 108.036 129.601 108.665 130.132C108.985 130.394 109.322 130.636 109.679 130.833C109.854 130.936 110.048 131.004 110.236 131.082C110.428 131.151 110.609 131.249 110.807 131.295C112.362 131.778 114.022 131.687 115.5 131.211C116.243 130.98 116.95 130.666 117.611 130.294C117.944 130.107 118.247 129.896 118.562 129.68C118.871 129.465 119.178 129.252 119.483 129.04C120.698 128.185 121.861 127.331 122.971 126.488C125.191 124.799 127.208 123.159 128.984 121.587C130.766 120.022 132.3 118.518 133.581 117.139C134.858 115.754 135.865 114.476 136.598 113.372C137.326 112.266 137.801 111.346 138.038 110.69C138.182 110.372 138.233 110.108 138.295 109.94C138.35 109.769 138.382 109.682 138.382 109.682Z" fill="#263238"/>
<path d="M117.769 123.66C117.737 123.652 117.842 123.227 117.897 122.528C117.931 122.18 117.925 121.762 117.901 121.301C117.864 120.841 117.786 120.338 117.655 119.822C117.391 118.787 116.946 117.917 116.587 117.317C116.222 116.718 115.952 116.374 115.976 116.355C115.986 116.347 116.061 116.426 116.19 116.577C116.322 116.725 116.493 116.956 116.692 117.25C117.083 117.84 117.556 118.72 117.826 119.778C117.961 120.305 118.035 120.82 118.064 121.291C118.08 121.762 118.072 122.187 118.022 122.54C117.979 122.893 117.923 123.176 117.868 123.367C117.815 123.559 117.781 123.663 117.769 123.66Z" fill="#263238"/>
<path d="M117.139 83.8231C117.12 83.8905 116.9 83.8609 116.563 83.779C116.227 83.6995 115.775 83.5764 115.272 83.5298C114.769 83.4794 114.32 83.5231 114.011 83.62C113.695 83.7082 113.562 83.8614 113.51 83.8362C113.485 83.8221 113.485 83.7388 113.549 83.6253C113.612 83.5134 113.735 83.3888 113.903 83.287C114.238 83.0786 114.757 82.97 115.306 83.0262C115.858 83.0776 116.333 83.2691 116.654 83.4382C116.976 83.6108 117.158 83.7582 117.139 83.8231Z" fill="#263238"/>
<path d="M111.367 98.804C111.534 98.2478 112.474 93.1081 112.856 91.9127C113.395 90.2266 117.776 87.2114 117.776 87.2114C117.776 87.2114 117.089 85.6286 115.223 86.4514C113.015 87.4253 111.923 89.0649 111.367 88.7311C110.811 88.3972 107.342 84.8662 106.396 84.9776C105.45 85.0889 105.242 86.0592 105.576 86.4487C105.91 86.8382 106.284 87.481 106.284 87.481C106.284 87.481 104.281 86.8783 104.671 89.0713C104.671 89.0713 102.39 87.6481 102.612 90.6521C102.612 90.6521 101.11 90.0402 100.776 91.0973C100.443 92.1545 101.432 93.3784 101.933 94.2131C102.434 95.0475 104.059 99.888 104.059 99.888L104.078 104.156L112.054 102.516L111.367 98.804Z" fill="white"/>
<path d="M111.367 98.804C111.373 98.8043 111.394 98.8875 111.43 99.0488C111.467 99.2271 111.517 99.4638 111.579 99.7643C111.707 100.411 111.888 101.331 112.119 102.504L112.132 102.568L112.067 102.581C110.097 102.997 107.374 103.573 104.1 104.264L103.968 104.291L103.967 104.156C103.957 102.841 103.946 101.404 103.935 99.8879L103.941 99.9267C103.372 98.2851 102.78 96.5195 102.037 94.7357C101.674 93.8765 100.917 93.1277 100.644 92.0852C100.577 91.8271 100.546 91.5486 100.591 91.2701C100.633 91.0032 100.759 90.6949 101.023 90.5268C101.279 90.357 101.583 90.32 101.858 90.3393C102.137 90.3597 102.4 90.4205 102.665 90.5203L102.47 90.6623C102.459 90.3689 102.447 90.0707 102.49 89.763C102.544 89.4632 102.612 89.1287 102.871 88.8753C103.122 88.6108 103.517 88.5541 103.835 88.6108C104.163 88.6648 104.46 88.7816 104.746 88.9487L104.529 89.0954C104.476 88.6923 104.407 88.2009 104.678 87.7591C104.847 87.4813 105.163 87.3224 105.457 87.2813C105.756 87.2382 106.039 87.2687 106.325 87.3428L106.16 87.5523C105.96 87.2178 105.745 86.8836 105.506 86.5889C105.352 86.4347 105.271 86.1678 105.284 85.9511C105.296 85.726 105.372 85.509 105.501 85.3273C105.629 85.1453 105.814 85.0047 106.018 84.9252C106.12 84.8882 106.224 84.858 106.33 84.8437C106.432 84.8294 106.576 84.8454 106.675 84.8732C107.085 85.006 107.398 85.2349 107.716 85.456C108.96 86.3647 110.026 87.408 111.102 88.3493C111.23 88.4542 111.389 88.6026 111.482 88.6291C111.579 88.6607 111.739 88.586 111.877 88.5035C112.161 88.3269 112.432 88.0997 112.706 87.8878C113.251 87.4555 113.813 87.051 114.402 86.7196C114.989 86.4102 115.607 86.0669 116.304 86.0958C117.003 86.1104 117.604 86.5756 117.883 87.1631L117.923 87.2487L117.841 87.3068C116.134 88.5201 114.6 89.7148 113.514 91.0002C113.244 91.3238 113.033 91.6644 112.913 92.0274C112.801 92.402 112.715 92.7749 112.631 93.1311C112.475 93.8452 112.33 94.5017 112.2 95.0956C111.95 96.2672 111.753 97.1912 111.613 97.8433C111.543 98.1591 111.486 98.3999 111.443 98.5612C111.403 98.7242 111.367 98.804 111.367 98.804C111.359 98.8043 111.379 98.7191 111.409 98.5547C111.443 98.374 111.488 98.1343 111.545 97.8307C111.67 97.1756 111.846 96.2472 112.069 95.0702C112.191 94.4735 112.326 93.814 112.473 93.0965C112.552 92.7372 112.634 92.3643 112.745 91.9775C112.868 91.5849 113.095 91.2138 113.367 90.8827C114.468 89.5538 115.994 88.3507 117.709 87.1142L117.668 87.2579C117.422 86.7563 116.895 86.3464 116.295 86.3427C115.693 86.3155 115.104 86.634 114.529 86.9434C113.956 87.2687 113.41 87.6643 112.87 88.0963C112.596 88.3092 112.331 88.5364 112.015 88.7344C111.855 88.82 111.676 88.946 111.415 88.8913C111.17 88.801 111.079 88.6692 110.926 88.5565C109.838 87.6097 108.772 86.5739 107.553 85.6869C107.25 85.4736 106.927 85.2509 106.599 85.1476C106.516 85.1293 106.46 85.1184 106.373 85.1262C106.287 85.1378 106.205 85.1626 106.125 85.1908C105.967 85.2529 105.83 85.3585 105.734 85.4954C105.542 85.7647 105.494 86.1705 105.729 86.4082C105.986 86.7264 106.2 87.0612 106.409 87.409L106.59 87.7112L106.243 87.6185C105.779 87.4942 105.167 87.5078 104.921 87.915C104.719 88.2281 104.758 88.6739 104.813 89.0465L104.857 89.3467L104.595 89.1935C104.351 89.0502 104.067 88.9388 103.794 88.8957C103.519 88.8499 103.245 88.8971 103.073 89.0801C102.72 89.4615 102.73 90.104 102.754 90.6422L102.764 90.8592L102.559 90.7845C102.11 90.6205 101.548 90.5237 101.182 90.7607C101.001 90.8755 100.908 91.0861 100.868 91.3173C100.831 91.5466 100.855 91.7856 100.915 92.0176C101.036 92.4838 101.281 92.9188 101.539 93.3359C101.793 93.7498 102.1 94.1618 102.286 94.6284C103.034 96.4394 103.614 98.1981 104.177 99.8492L104.183 99.8679V99.8879C104.185 101.404 104.188 102.841 104.189 104.156L104.056 104.048C107.337 103.392 110.067 102.846 112.041 102.452L111.989 102.529C111.783 101.345 111.623 100.418 111.51 99.7657C111.462 99.4645 111.424 99.2271 111.395 99.0485C111.37 98.8858 111.361 98.8036 111.367 98.804Z" fill="#263238"/>
<path d="M106.292 87.5366C106.27 87.5638 106.721 87.9486 107.26 88.44C107.8 88.9303 108.226 89.3419 108.251 89.3181C108.275 89.2961 107.885 88.8444 107.341 88.3506C106.798 87.8555 106.311 87.5108 106.292 87.5366Z" fill="#263238"/>
<path d="M104.508 88.9514C104.48 88.9633 104.65 89.3949 105 89.8425C105.346 90.2921 105.722 90.5651 105.741 90.5403C105.764 90.5132 105.433 90.2062 105.095 89.7685C104.755 89.3328 104.54 88.9354 104.508 88.9514Z" fill="#263238"/>
<path d="M102.643 90.5424C102.616 90.5617 102.804 90.8684 103.063 91.2267C103.321 91.5849 103.553 91.8597 103.58 91.84C103.607 91.8206 103.419 91.5143 103.161 91.1557C102.902 90.7974 102.671 90.5227 102.643 90.5424Z" fill="#263238"/>
<path d="M121.811 58.7156C121.811 58.7156 119.359 56.693 116.905 56.693C114.452 56.693 112.174 58.1496 111.736 58.3109C111.298 58.4729 106.392 59.2815 105.165 62.0328C103.939 64.784 104.903 68.5865 104.903 68.5865C104.903 68.5865 98.0693 72.4703 96.9303 76.0302C95.7913 79.59 97.5439 82.6646 99.2084 84.5258C100.873 86.3871 102.45 90.2703 101.486 91.5649C100.523 92.8595 98.9456 91.8075 98.6829 91.7269C98.4202 91.6462 95.9675 96.3387 98.5075 99.8985C101.048 103.458 105.062 102.314 106.814 100.696C108.566 99.0777 108.351 96.1688 108.351 94.3082C108.351 92.4476 106.814 84.5258 106.814 84.5258C106.814 84.5258 106.671 74.182 108.351 74.182C105.422 72.3506 114.395 64.8432 114.395 64.8432L119.62 66.4833C119.62 66.4833 124.877 78.1914 124.263 80.2946C123.65 82.3985 123.124 94.3082 123.124 94.3082C123.124 94.3082 122.16 96.986 123.124 97.876C124.088 98.7659 125.577 98.9279 124.263 100.465C122.949 102.002 121.811 103.782 121.811 103.782C121.987 105.077 123.124 105.764 123.124 105.764C123.124 105.764 122.861 103.944 126.015 103.782C129.168 103.62 133.899 100.061 134.951 97.6333C136.002 95.2061 134.513 92.5362 133.374 91.4842C132.235 90.4323 135.915 88.005 136.703 85.7398C137.491 83.4746 138.105 80.238 137.228 77.8108C136.352 75.3836 134.425 73.927 133.637 71.985C132.848 70.0431 131.709 63.6514 128.468 60.9808C125.228 58.3109 125.228 57.6636 121.811 58.7156Z" fill="#263238" stroke="#263238" stroke-miterlimit="10"/>
<path d="M111.439 98.8447C111.606 98.2884 112.546 93.1487 112.928 91.9533C113.467 90.2673 117.848 87.252 117.848 87.252C117.848 87.252 117.161 85.6692 115.295 86.492C113.087 87.466 111.995 89.1055 111.439 88.7717C110.883 88.4379 107.414 84.9068 106.468 85.0182C105.522 85.1296 105.314 86.0998 105.648 86.4893C105.982 86.8788 106.356 87.5217 106.356 87.5217C106.356 87.5217 104.353 86.9189 104.743 89.112C104.743 89.112 102.462 87.6888 102.684 90.6928C102.684 90.6928 101.182 90.0808 100.848 91.138C100.515 92.1951 101.504 93.419 102.005 94.2537C102.506 95.0881 104.131 99.9286 104.131 99.9286L104.15 104.196L112.126 102.557L111.439 98.8447Z" fill="white"/>
<path d="M111.439 98.8447C111.445 98.8451 111.466 98.9283 111.502 99.0896C111.539 99.2679 111.589 99.5046 111.651 99.8051C111.779 100.452 111.96 101.371 112.191 102.545L112.204 102.608L112.139 102.622C110.169 103.038 107.446 103.613 104.172 104.304L104.04 104.332L104.039 104.196C104.029 102.882 104.018 101.445 104.007 99.9287L104.013 99.9674C103.444 98.3258 102.852 96.5603 102.109 94.7764C101.746 93.9173 100.989 93.1685 100.716 92.1259C100.649 91.8678 100.618 91.5894 100.663 91.3109C100.705 91.044 100.831 90.7356 101.095 90.5675C101.351 90.3977 101.655 90.3607 101.93 90.3801C102.209 90.4005 102.472 90.4612 102.737 90.5611L102.542 90.703C102.531 90.4096 102.519 90.1115 102.562 89.8038C102.616 89.5039 102.684 89.1694 102.943 88.9161C103.194 88.6516 103.589 88.5948 103.907 88.6516C104.235 88.7056 104.532 88.8224 104.819 88.9895L104.601 89.1362C104.548 88.7331 104.479 88.2417 104.75 87.7999C104.919 87.5221 105.235 87.3631 105.529 87.3221C105.828 87.2789 106.111 87.3095 106.397 87.3835L106.232 87.5931C106.032 87.2586 105.817 86.9244 105.579 86.6296C105.424 86.4755 105.343 86.2085 105.356 85.9919C105.368 85.7667 105.444 85.5497 105.573 85.368C105.701 85.186 105.887 85.0454 106.09 84.966C106.192 84.929 106.296 84.8987 106.402 84.8845C106.504 84.8702 106.648 84.8862 106.747 84.914C107.157 85.0468 107.47 85.2757 107.788 85.4968C109.032 86.4055 110.098 87.4487 111.174 88.3901C111.302 88.495 111.461 88.6434 111.554 88.6699C111.651 88.7015 111.811 88.6268 111.949 88.5442C112.233 88.3677 112.504 88.1405 112.778 87.9286C113.323 87.4963 113.885 87.0918 114.474 86.7604C115.061 86.451 115.679 86.1077 116.376 86.1365C117.075 86.1511 117.676 86.6164 117.955 87.2039L117.995 87.2895L117.913 87.3475C116.206 88.5609 114.672 89.7556 113.586 91.0409C113.316 91.3646 113.105 91.7052 112.985 92.0682C112.873 92.4428 112.787 92.8156 112.703 93.1719C112.547 93.886 112.402 94.5425 112.272 95.1364C112.022 96.308 111.825 97.232 111.685 97.884C111.615 98.1999 111.558 98.4406 111.515 98.6019C111.475 98.7649 111.439 98.8447 111.439 98.8447C111.431 98.8451 111.451 98.7598 111.481 98.5955C111.515 98.4148 111.56 98.1751 111.617 97.8715C111.742 97.2164 111.918 96.288 112.141 95.1109C112.263 94.5143 112.398 93.8548 112.545 93.1372C112.624 92.7779 112.706 92.4051 112.817 92.0183C112.94 91.6257 113.167 91.2545 113.439 90.9234C114.54 89.5946 116.066 88.3914 117.781 87.155L117.74 87.2986C117.494 86.797 116.967 86.3872 116.367 86.3834C115.765 86.3563 115.176 86.6748 114.601 86.9842C114.028 87.3095 113.482 87.7051 112.942 88.1371C112.669 88.35 112.403 88.5772 112.087 88.7752C111.928 88.8607 111.748 88.9867 111.487 88.9321C111.242 88.8417 111.151 88.71 110.998 88.5972C109.91 87.6504 108.844 86.6147 107.625 85.7277C107.322 85.5144 106.999 85.2916 106.671 85.1884C106.588 85.1701 106.532 85.1592 106.445 85.167C106.359 85.1786 106.277 85.2033 106.197 85.2315C106.039 85.2937 105.902 85.3993 105.806 85.5361C105.614 85.8054 105.566 86.2113 105.801 86.449C106.058 86.7672 106.272 87.102 106.481 87.4497L106.662 87.752L106.315 87.6593C105.851 87.535 105.239 87.5486 104.993 87.9557C104.791 88.2688 104.83 88.7147 104.885 89.0873L104.929 89.3875L104.667 89.2343C104.423 89.091 104.139 88.9796 103.866 88.9365C103.591 88.8906 103.317 88.9378 103.145 89.1209C102.792 89.5022 102.802 90.1447 102.826 90.683L102.836 90.9L102.631 90.8253C102.182 90.6613 101.62 90.5645 101.254 90.8015C101.073 90.9163 100.98 91.1268 100.94 91.3581C100.903 91.5873 100.927 91.8264 100.987 92.0583C101.108 92.5246 101.353 92.9596 101.611 93.3766C101.865 93.7906 102.172 94.2025 102.358 94.6691C103.106 96.4802 103.686 98.2389 104.249 99.89L104.255 99.9087V99.9287C104.257 101.445 104.26 102.882 104.261 104.196L104.128 104.088C107.409 103.433 110.139 102.887 112.113 102.492L112.061 102.57C111.856 101.386 111.695 100.459 111.582 99.8065C111.534 99.5052 111.496 99.2679 111.467 99.0892C111.442 98.9266 111.433 98.8444 111.439 98.8447Z" fill="#263238"/>
<path d="M106.364 87.5774C106.342 87.6046 106.792 87.9893 107.332 88.4807C107.872 88.9711 108.297 89.3827 108.323 89.3589C108.346 89.3368 107.957 88.8852 107.413 88.3914C106.87 87.8963 106.383 87.5516 106.364 87.5774Z" fill="#263238"/>
<path d="M104.58 88.9922C104.551 89.004 104.722 89.4357 105.071 89.8833C105.418 90.3329 105.794 90.6059 105.812 90.5811C105.836 90.5539 105.504 90.247 105.167 89.8092C104.827 89.3735 104.612 88.9762 104.58 88.9922Z" fill="#263238"/>
<path d="M102.715 90.5831C102.688 90.6025 102.876 90.9092 103.134 91.2674C103.393 91.6257 103.624 91.9004 103.652 91.8807C103.679 91.8614 103.491 91.5551 103.232 91.1965C102.974 90.8382 102.742 90.5635 102.715 90.5831Z" fill="#263238"/>
<defs>
<linearGradient id="paint0_linear_16_975" x1="81.7945" y1="59.0702" x2="81.7945" y2="80.0331" gradientUnits="userSpaceOnUse">
<stop stop-color="#5FFBD6"/>
<stop offset="1" stop-color="#F663E4"/>
</linearGradient>
<linearGradient id="paint1_linear_16_975" x1="107.927" y1="49.2836" x2="107.927" y2="52.0851" gradientUnits="userSpaceOnUse">
<stop stop-color="#5FFBD6"/>
<stop offset="1" stop-color="#F663E4"/>
</linearGradient>
<linearGradient id="paint2_linear_16_975" x1="112.203" y1="49.2836" x2="112.203" y2="52.0851" gradientUnits="userSpaceOnUse">
<stop stop-color="#5FFBD6"/>
<stop offset="1" stop-color="#F663E4"/>
</linearGradient>
<linearGradient id="paint3_linear_16_975" x1="116.478" y1="49.2836" x2="116.478" y2="52.0851" gradientUnits="userSpaceOnUse">
<stop stop-color="#5FFBD6"/>
<stop offset="1" stop-color="#F663E4"/>
</linearGradient>
<linearGradient id="paint4_linear_16_975" x1="116.18" y1="95.3367" x2="116.18" y2="151" gradientUnits="userSpaceOnUse">
<stop stop-color="#5FFBD6"/>
<stop offset="1" stop-color="#B063F6"/>
</linearGradient>
<linearGradient id="paint5_linear_16_975" x1="99.9347" y1="95.3363" x2="99.9347" y2="135.133" gradientUnits="userSpaceOnUse">
<stop stop-color="#5FFBD6"/>
<stop offset="1" stop-color="#B063F6"/>
</linearGradient>
<linearGradient id="paint6_linear_16_975" x1="121.29" y1="97.2778" x2="121.29" y2="131.706" gradientUnits="userSpaceOnUse">
<stop stop-color="#5FFBD6"/>
<stop offset="1" stop-color="#B063F6"/>
</linearGradient>
</defs>
</svg>
