<svg width="80" height="58" viewBox="0 0 80 58" fill="none" xmlns="http://www.w3.org/2000/svg">
<g clip-path="url(#clip0_1606_3)">
<path d="M80 31.9333C80 31.9897 79.9544 32.0353 79.8982 32.0353H0V31.8313H79.8982C79.9544 31.8313 80 31.877 80 31.9333Z" fill="#E6E6E6"/>
<path d="M26.271 7.15737C27.9385 7.15737 29.2904 5.80277 29.2904 4.13178C29.2904 2.4608 27.9385 1.1062 26.271 1.1062C24.6034 1.1062 23.2515 2.4608 23.2515 4.13178C23.2515 5.80277 24.6034 7.15737 26.271 7.15737Z" fill="#FFB6B6"/>
<path d="M27.871 7.79572L23.8966 8.93356L23.3288 10.2136L22.0514 16.3296V26.0013C22.0514 26.0013 20.49 29.4149 21.3417 32.4017C22.252 35.5944 25.458 31.8261 27.871 32.2561C30.284 32.6862 34.1164 33.1129 34.1164 33.1129L31.8454 22.73L31.2776 10.0714L27.871 7.79572Z" fill="#E6E6E6"/>
<path d="M27.1209 5.12256L26.5071 4.81499C26.5071 4.81499 26.3536 3.43095 26.0467 3.12338C25.7397 2.81582 25.7397 2.66204 25.7397 2.66204L26.2001 2.04691C26.2001 2.04691 23.8981 3.27717 23.4377 2.50825C22.9773 1.73934 23.5911 1.43178 23.5911 1.43178L22.8238 0.816646C22.8238 0.816646 23.7446 1.43178 23.8981 0.970428C24.0515 0.50908 24.9724 0.196066 24.9724 0.196066C24.9724 0.196066 26.9832 0.651964 26.8219 0.196066C26.6605 -0.259833 27.2744 0.201515 27.4279 0.355297C27.5814 0.50908 28.9626 2.04691 29.116 1.89312C29.2695 1.73934 30.0369 2.20069 29.8834 2.35447C29.7299 2.50825 29.7299 2.66204 29.8834 2.81582C30.0369 2.9696 30.9577 4.66121 30.1903 5.27634C29.423 5.89147 28.3487 6.66038 28.5022 7.27551C28.6556 7.89064 28.5022 5.27634 27.1209 5.12256Z" fill="#2F2E41"/>
<path d="M12.2366 12.7402C11.4616 12.0707 11.1781 11.1274 11.6034 10.6333C12.0286 10.1392 13.0014 10.2814 13.7766 10.9511C14.0899 11.2144 14.3357 11.5491 14.4935 11.9271L17.7414 14.805L16.3611 16.3034L13.3058 13.3072C12.9093 13.2065 12.5427 13.012 12.2366 12.7402Z" fill="#FFB6B6"/>
<path d="M23.3629 10.2626L25.5023 10.0677L27.3785 19.034C27.736 20.7425 26.6184 22.4105 24.9049 22.7257L23.3629 23.0093L13.5349 14.3384L14.9707 11.9398L22.2185 16.4955L23.3629 10.2626Z" fill="#E6E6E6"/>
<path d="M18.5866 50.1368C18.5866 50.1368 16.8897 53.2946 17.0109 53.1731C17.1321 53.0517 19.1926 53.7804 19.1926 53.7804L20.4046 50.6226L18.5866 50.1368Z" fill="#FFB6B6"/>
<path d="M16.0821 28.0331C16.0821 28.0331 15.2134 31.5124 15.3011 31.3647C15.3887 31.2171 17.5648 31.415 17.5648 31.415L17.9635 28.0554L16.0821 28.0331Z" fill="#FFB6B6"/>
<path d="M31.1919 27.4481C27.3572 27.9879 23.8935 27.5173 21.0713 25.2999C21.0713 25.2999 19.0108 32.2227 22.7681 32.9514C26.5255 33.6801 30.7071 32.4276 31.1919 31.2131C31.6767 29.9986 31.1919 27.4481 31.1919 27.4481Z" fill="#2F2E41"/>
<path d="M24.0408 29.6343L19.8593 39.5098L17.92 50.9263L20.4653 51.5336L25.0181 41.028L31.1919 30.9702L24.0408 29.6343Z" fill="#2F2E41"/>
<path d="M23.4954 26.8181C23.4954 26.8181 22.5257 19.2881 20.7076 18.8023C19.8213 18.5654 18.9926 18.5884 18.376 18.6741C17.7545 18.7605 17.2591 19.2363 17.1504 19.8555L15.4982 29.2699H17.8345L18.5866 26.7194L20.5864 30.2187L23.4954 26.8181Z" fill="#2F2E41"/>
<path d="M17.5563 30.4616L15.2463 30.2187L14.8898 31.5547C14.8898 31.5547 11.1325 34.9553 13.0718 35.1982C15.011 35.4411 16.8291 34.1052 16.8291 34.1052L19.4968 32.5717C19.4968 32.5717 18.4654 29.8164 17.7382 29.8164C17.0109 29.8164 17.5563 30.4616 17.5563 30.4616Z" fill="#2F2E41"/>
<path d="M18.7684 53.2339L16.4583 52.991L16.1019 54.327C16.1019 54.327 12.3445 57.7276 14.2838 57.9705C16.2231 58.2134 18.0412 56.8774 18.0412 56.8774L20.7089 55.344C20.7089 55.344 20.5259 52.4672 19.7986 52.4672C19.0714 52.4672 18.7684 53.2339 18.7684 53.2339Z" fill="#2F2E41"/>
<path d="M30.4649 34.848C30.1864 35.8052 29.4677 36.4371 28.8598 36.2594C28.2519 36.0817 27.9851 35.1617 28.2638 34.2042C28.3699 33.8202 28.5663 33.4672 28.8364 33.1748L30.0677 29.134L31.9477 29.7534L30.5344 33.6712C30.6053 34.0634 30.5815 34.4669 30.4649 34.848Z" fill="#FFB6B6"/>
<path d="M31.7663 10.0891L30.7859 9.81201C29.8616 11.655 29.4641 13.7183 29.6375 15.7736L30.1213 21.5086L28.5248 31.5888L31.6539 32.4L34.1197 19.7497L31.7663 10.0891Z" fill="#E6E6E6"/>
<path d="M12.6813 25.8492C12.6384 25.7176 12.313 25.7755 12.2818 25.6578C12.2507 25.5405 12.5629 25.4421 12.8023 25.1115C12.8455 25.0519 13.1176 24.6762 13.0133 24.5182C12.8155 24.2186 11.4391 24.9646 11.1087 24.546C11.0362 24.4541 11.0063 24.2964 10.7903 24.0029C10.7044 23.8861 10.6493 23.8297 10.5834 23.8314C10.4899 23.8338 10.4565 23.9509 10.3096 24.1632C10.0893 24.4814 10.0098 24.4415 9.86465 24.7023C9.75692 24.8959 9.74415 25.0196 9.66646 25.0269C9.55652 25.0372 9.5111 24.7962 9.37676 24.7868C9.23967 24.7773 9.1025 25.0154 9.0345 25.2015C8.90689 25.5507 8.98591 25.8176 9.00343 26.0836C9.02247 26.3726 8.97777 26.7958 8.66433 27.3389L5.70795 32.0587C6.34286 31.0965 8.14513 28.4728 8.87126 27.5104C9.08088 27.2325 9.30615 26.9536 9.65286 26.9011C9.98667 26.8505 10.3928 27.016 10.9597 27.0064C11.026 27.0053 11.2102 26.9998 11.255 26.9019C11.2921 26.821 11.2001 26.7507 11.2336 26.6746C11.2784 26.5726 11.4804 26.6164 11.7557 26.5486C11.9498 26.5009 12.0816 26.4219 12.195 26.3541C12.2292 26.3336 12.7385 26.0245 12.6813 25.8492Z" fill="#F2F2F2"/>
<path d="M4.93805 26.9512C4.86119 26.9343 4.79569 27.1111 4.72901 27.0925C4.66257 27.0739 4.70447 26.892 4.61163 26.6789C4.59489 26.6404 4.48937 26.3982 4.38186 26.4039C4.17807 26.4148 4.14633 27.3069 3.84595 27.3486C3.78003 27.3578 3.69417 27.327 3.48807 27.3485C3.40608 27.3571 3.36256 27.3679 3.34437 27.4008C3.31857 27.4474 3.3663 27.4977 3.42787 27.6312C3.52021 27.8314 3.4777 27.8589 3.56356 28.0055C3.6273 28.1144 3.6842 28.1564 3.66536 28.1967C3.63869 28.2537 3.50752 28.2065 3.46418 28.2699C3.41996 28.3345 3.49704 28.4707 3.56856 28.5579C3.70277 28.7214 3.8563 28.7595 3.99164 28.8276C4.13872 28.9017 4.33308 29.0458 4.50865 29.3566L5.96746 32.1724C5.67937 31.5825 4.91424 29.9391 4.65235 29.3043C4.57675 29.1211 4.5051 28.9298 4.57944 28.7441C4.651 28.5654 4.84925 28.4134 5.0081 28.1318C5.02666 28.0989 5.07713 28.0067 5.04213 27.9564C5.0132 27.9148 4.9522 27.9398 4.9246 27.9014C4.88759 27.8499 4.96731 27.7632 5.01354 27.6083C5.04614 27.499 5.04553 27.4114 5.045 27.336C5.04484 27.3133 5.04037 26.9737 4.93805 26.9512Z" fill="#F2F2F2"/>
<path d="M6.39343 27.6383L6.43929 27.214L6.46741 27.1874C6.59753 27.0642 6.67893 26.9336 6.70946 26.7993C6.71432 26.7779 6.71808 26.7563 6.72193 26.7343C6.73716 26.6471 6.75606 26.5386 6.83975 26.426C6.88659 26.3633 7.01048 26.2214 7.13826 26.271C7.17275 26.2839 7.19602 26.3063 7.2122 26.3301C7.21626 26.326 7.22041 26.3219 7.22486 26.3174C7.28006 26.2636 7.31867 26.244 7.35586 26.225C7.38444 26.2104 7.41396 26.1954 7.4639 26.1554C7.48581 26.1378 7.50335 26.122 7.51814 26.1088C7.56297 26.0686 7.62032 26.0217 7.69888 26.0403C7.78215 26.0631 7.8107 26.1427 7.82964 26.1954C7.86347 26.2894 7.87389 26.354 7.88078 26.3969C7.88326 26.4125 7.88614 26.4302 7.88832 26.4359C7.90655 26.4819 8.13535 26.4938 8.22143 26.4988C8.41495 26.5093 8.5824 26.5184 8.62267 26.6512C8.65156 26.7462 8.59134 26.8498 8.43852 26.9673C8.39091 27.0039 8.34332 27.0291 8.30186 27.0479C8.32736 27.0721 8.34768 27.105 8.34892 27.1497C8.35172 27.2557 8.24329 27.3369 8.02665 27.3917C7.97282 27.4055 7.90041 27.4237 7.80565 27.4191C7.76103 27.4169 7.72194 27.4101 7.68861 27.4037C7.68364 27.4227 7.67453 27.4425 7.6581 27.4613C7.60988 27.5166 7.53201 27.5306 7.42632 27.4995C7.30963 27.4669 7.21743 27.4226 7.13608 27.3836C7.06501 27.3497 7.00374 27.3207 6.95233 27.3128C6.85671 27.2994 6.76754 27.3585 6.66083 27.4373L6.39343 27.6383Z" fill="#F2F2F2"/>
<path d="M7.15654 25.222L6.7354 25.2852L6.70254 25.2647C6.55058 25.1698 6.40392 25.124 6.26647 25.1285C6.24462 25.1292 6.22281 25.131 6.20059 25.1329C6.11253 25.1403 6.00306 25.1494 5.87312 25.0969C5.80066 25.0674 5.63234 24.9833 5.64775 24.8469C5.6515 24.8102 5.66723 24.7819 5.68605 24.7602C5.68104 24.7573 5.67602 24.7544 5.67059 24.7512C5.60471 24.7113 5.5759 24.6789 5.54817 24.6476C5.52683 24.6236 5.50485 24.5988 5.45355 24.5606C5.43105 24.5438 5.41135 24.5308 5.39479 24.5198C5.34469 24.4866 5.2848 24.4429 5.28284 24.362C5.28373 24.2755 5.35333 24.2277 5.39939 24.1959C5.48154 24.1393 5.54129 24.1128 5.58092 24.0952C5.59541 24.0889 5.61171 24.0816 5.61669 24.078C5.6565 24.0487 5.60996 23.8239 5.59292 23.7392C5.554 23.549 5.52031 23.3844 5.63827 23.3117C5.72263 23.2596 5.83792 23.2916 5.99012 23.41C6.03749 23.4468 6.07393 23.4866 6.10264 23.522C6.11949 23.4911 6.14606 23.4631 6.18895 23.4505C6.2905 23.421 6.39647 23.5054 6.50432 23.7015C6.53127 23.7502 6.56723 23.8158 6.58682 23.9088C6.596 23.9526 6.59931 23.9922 6.60158 24.0261C6.62121 24.0261 6.64262 24.03 6.66491 24.0411C6.73053 24.0738 6.76386 24.1457 6.76057 24.2561C6.75872 24.3774 6.73933 24.4781 6.72236 24.5668C6.70764 24.6443 6.69518 24.711 6.70057 24.7629C6.71189 24.8589 6.79162 24.9304 6.89469 25.0138L7.15654 25.222Z" fill="#F2F2F2"/>
<path d="M7.21332 23.9547L7.25917 23.5305L7.2873 23.5039C7.41741 23.3806 7.49881 23.2501 7.52935 23.1157C7.5342 23.0944 7.53797 23.0728 7.54182 23.0507C7.55704 22.9635 7.57595 22.8551 7.65964 22.7425C7.70647 22.6797 7.83037 22.5379 7.95815 22.5874C7.99263 22.6004 8.01591 22.6228 8.03208 22.6466C8.03614 22.6424 8.0403 22.6383 8.04475 22.6339C8.09994 22.5801 8.13855 22.5604 8.17575 22.5415C8.20433 22.5269 8.23384 22.5119 8.28378 22.4718C8.30569 22.4543 8.32324 22.4385 8.33802 22.4252C8.38286 22.3851 8.44021 22.3381 8.51876 22.3567C8.60203 22.3795 8.63059 22.4591 8.64953 22.5118C8.68335 22.6058 8.69377 22.6705 8.70067 22.7133C8.70315 22.729 8.70603 22.7466 8.70821 22.7524C8.72643 22.7984 8.95523 22.8103 9.04132 22.8153C9.23483 22.8258 9.40228 22.8349 9.44255 22.9677C9.47145 23.0626 9.41122 23.1662 9.2584 23.2838C9.2108 23.3203 9.16321 23.3456 9.12174 23.3644C9.14725 23.3886 9.16757 23.4214 9.16881 23.4662C9.17161 23.5721 9.06318 23.6534 8.84654 23.7082C8.79271 23.722 8.72029 23.7402 8.62554 23.7356C8.58091 23.7334 8.54182 23.7265 8.50849 23.7201C8.50352 23.7392 8.49441 23.759 8.47798 23.7777C8.42977 23.833 8.3519 23.8471 8.2462 23.8159C8.12951 23.7833 8.03732 23.739 7.95596 23.7001C7.8849 23.6662 7.82363 23.6371 7.77222 23.6292C7.67659 23.6158 7.58742 23.675 7.48071 23.7537L7.21332 23.9547Z" fill="#F2F2F2"/>
<path d="M5.84773 32.0829L5.77327 32.0092L5.66977 31.9982C5.67027 31.9885 5.66959 31.9657 5.66883 31.93C5.66485 31.7349 5.65249 31.1409 5.73503 30.2284C5.79266 29.5913 5.88896 28.9447 6.02127 28.3061C6.15379 27.6665 6.29133 27.1906 6.4018 26.8081C6.48517 26.5196 6.56932 26.246 6.65147 25.9794C6.87068 25.2673 7.07767 24.5947 7.20585 23.8274C7.23456 23.6561 7.29413 23.2996 7.17216 22.8788C7.10139 22.6347 6.98023 22.405 6.8119 22.1962L6.97482 22.0643C7.16056 22.2951 7.29455 22.5495 7.37314 22.8205C7.50837 23.287 7.44346 23.6755 7.41228 23.8622C7.28181 24.643 7.07276 25.3222 6.85139 26.0411C6.76966 26.3067 6.68578 26.5791 6.60278 26.8664C6.49331 27.2454 6.357 27.7172 6.2262 28.3485C6.09539 28.9795 6.00032 29.6182 5.94333 30.2472C5.86189 31.1483 5.87412 31.7334 5.87813 31.9256C5.8802 32.0283 5.88064 32.0497 5.84773 32.0829Z" fill="#F2F2F2"/>
<path d="M6.36501 22.4376C6.35663 22.4358 6.3482 22.4337 6.33976 22.4312C6.16794 22.3829 6.03012 22.2426 5.93 22.0142C5.88315 21.9068 5.87208 21.7938 5.85003 21.5684C5.84657 21.5336 5.83128 21.3577 5.85007 21.1247C5.8623 20.9724 5.87864 20.9112 5.92 20.8632C5.96594 20.8097 6.02782 20.779 6.09321 20.7636C6.09498 20.7435 6.10156 20.7238 6.11462 20.7051C6.16842 20.6275 6.25847 20.6594 6.30733 20.676C6.33194 20.6848 6.36262 20.6961 6.39712 20.7019C6.45135 20.7113 6.48373 20.7018 6.53274 20.6875C6.57964 20.6739 6.63795 20.6569 6.71855 20.6584C6.87759 20.6606 6.99532 20.7322 7.03415 20.7558C7.23861 20.8789 7.3092 21.0753 7.3909 21.3027C7.40713 21.3483 7.461 21.513 7.47355 21.7252C7.48261 21.8783 7.46259 21.9409 7.43964 21.9857C7.39276 22.0778 7.32097 22.1205 7.1428 22.2104C6.95667 22.3045 6.86328 22.3516 6.78671 22.3758C6.60852 22.4318 6.49664 22.4671 6.36501 22.4376Z" fill="#F2F2F2"/>
<path d="M54.1462 4.68115C54.1462 4.68115 55.302 5.36042 54.923 6.03216C54.5439 6.70391 54.0154 7.61891 54.3739 7.90708C54.7324 8.19525 55.3244 9.46579 55.3244 9.46579C55.3244 9.46579 57.8509 9.11219 57.6137 11.0788C57.3765 13.0454 56.1896 13.3135 57.207 14.1787C58.2243 15.0439 56.1496 16.0786 56.1496 16.0786C56.1496 16.0786 54.7174 15.6313 54.3906 14.256C54.0638 12.8807 54.6819 15.3076 54.4746 15.4816C54.2673 15.6557 53.4625 16.8027 52.8929 15.2776C52.3234 13.7526 52.8874 13.1613 52.1348 12.2613C51.3823 11.3612 50.8707 9.90544 50.8931 9.65096C50.9155 9.39647 50.0323 7.07432 51.3917 6.16869C52.7512 5.26306 54.1462 4.68115 54.1462 4.68115Z" fill="#2F2E41"/>
<path d="M65.5317 26.019C66.2029 26.5755 67.0334 26.6797 67.3868 26.2517C67.7402 25.8236 67.4826 25.0256 66.8112 24.469C66.546 24.2429 66.2307 24.0838 65.8916 24.0049L63.0184 21.6827L61.9596 23.057L64.9045 25.2004C65.0453 25.5195 65.2604 25.8002 65.5317 26.019Z" fill="#FFB6B6"/>
<path d="M56.9205 13.3546C56.9205 13.3546 54.6657 11.8436 53.9273 12.5845C53.1889 13.3254 53.3652 15.176 53.3652 15.176L59.2783 22.0813L63.967 25.0677L65.2243 23.095L61.2824 19.5704L56.9205 13.3546Z" fill="#3F3D56"/>
<path d="M53.6153 10.0814L54.4334 12.9953H49.9431L51.4217 9.40497L53.6153 10.0814Z" fill="#FFB6B6"/>
<path opacity="0.1" d="M53.6153 10.0814L54.4334 12.9953H49.9431L51.4217 9.40497L53.6153 10.0814Z" fill="black"/>
<path d="M43.8228 31.5956C43.7649 32.4666 44.1664 33.2025 44.7195 33.2394C45.2727 33.2763 45.768 32.6002 45.8258 31.7289C45.8537 31.3811 45.7981 31.0318 45.6636 30.71L45.8627 27.0165L44.131 26.9598L44.1186 30.607C43.9426 30.9081 43.8412 31.2471 43.8228 31.5956Z" fill="#FFB6B6"/>
<path d="M49.0372 17.1892C49.0372 17.1892 48.9414 14.4728 47.9098 14.3061C46.8782 14.1393 45.4834 15.3651 45.4834 15.3651L43.3525 24.2099L43.6776 29.7675L46.0098 29.6355L46.5571 24.3701L49.0372 17.1892Z" fill="#3F3D56"/>
<path d="M59.0391 49.651C59.0391 49.651 60.736 52.8087 60.6148 52.6873C60.4936 52.5658 58.4331 53.2946 58.4331 53.2946L57.2211 50.1368L59.0391 49.651Z" fill="#FFB6B6"/>
<path d="M61.5437 27.5473C61.5437 27.5473 62.4123 31.0265 62.3247 30.8789C62.2371 30.7313 60.061 30.9291 60.061 30.9291L59.6622 27.5695L61.5437 27.5473Z" fill="#FFB6B6"/>
<path d="M54.797 12.0237H50.5605L45.949 15.1815L44.6158 26.2336L45.343 28.4197L46.6763 30.9702C46.6763 30.9702 45.343 25.3834 48.6155 27.5696C51.8881 29.7557 52.1305 30.1201 52.1305 30.1201L56.4939 27.9339L58.1301 18.8858L56.9181 13.9062L54.797 12.0237Z" fill="#3F3D56"/>
<path d="M46.4339 26.9623C50.2686 27.5021 53.7322 27.0315 56.5545 24.8141C56.5545 24.8141 58.6149 31.7369 54.8576 32.4656C51.1002 33.1943 46.9187 31.9419 46.4339 30.7273C45.949 29.5128 46.4339 26.9623 46.4339 26.9623Z" fill="#2F2E41"/>
<path d="M53.585 29.1484L57.7665 39.024L59.7058 50.4405L57.1605 51.0477L52.6077 40.5421L46.4339 30.4844L53.585 29.1484Z" fill="#2F2E41"/>
<path d="M54.1304 26.3322C54.1304 26.3322 55.1 18.8022 56.9181 18.3164C57.8044 18.0796 58.6331 18.1025 59.2497 18.1883C59.8712 18.2747 60.3667 18.7505 60.4753 19.3697L62.1275 28.7841H59.7912L59.0392 26.2336L57.0393 29.7329L54.1304 26.3322Z" fill="#2F2E41"/>
<path d="M60.0694 29.9758L62.3795 29.7329L62.7359 31.0689C62.7359 31.0689 66.4933 34.4696 64.554 34.7125C62.6147 34.9554 60.7967 33.6194 60.7967 33.6194L58.129 32.0859C58.129 32.0859 59.1604 29.3306 59.8876 29.3306C60.6149 29.3306 60.0694 29.9758 60.0694 29.9758Z" fill="#2F2E41"/>
<path d="M58.8573 52.748L61.1674 52.5051L61.5238 53.8411C61.5238 53.8411 65.2812 57.2418 63.3419 57.4847C61.4026 57.7276 59.5846 56.3916 59.5846 56.3916L56.9169 54.8582C56.9169 54.8582 57.0999 51.9814 57.8271 51.9814C58.5543 51.9814 58.8573 52.748 58.8573 52.748Z" fill="#2F2E41"/>
<path d="M52.5485 10.7147C54.0419 10.7147 55.2526 9.50152 55.2526 8.00501C55.2526 6.50851 54.0419 5.29535 52.5485 5.29535C51.055 5.29535 49.8443 6.50851 49.8443 8.00501C49.8443 9.50152 51.055 10.7147 52.5485 10.7147Z" fill="#FFB6B6"/>
<path d="M53.585 4.97919C53.585 4.97919 54.0357 6.2437 53.3146 6.51467C52.5935 6.78564 51.602 7.14693 51.6921 7.59854C51.7823 8.05015 51.4217 9.40498 51.4217 9.40498C51.4217 9.40498 53.585 10.7598 52.1428 12.1146C50.7006 13.4695 49.619 12.9112 49.8443 14.229C50.0696 15.5469 47.8162 15.005 47.8162 15.005C47.8162 15.005 47.0049 13.7404 47.6359 12.4759C48.2669 11.2114 47.1852 13.4695 46.9148 13.4695C46.6444 13.4695 45.2923 13.8308 45.8331 12.2953C46.374 10.7598 47.1852 10.6695 47.1852 9.4953C47.1852 8.32111 47.726 6.87596 47.9063 6.69532C48.0866 6.51467 48.8978 4.16629 50.5203 4.34694C52.1428 4.52758 53.585 4.97919 53.585 4.97919Z" fill="#2F2E41"/>
<path d="M29.95 49.651C29.95 49.651 28.2532 52.8087 28.3744 52.6873C28.4956 52.5658 30.556 53.2946 30.556 53.2946L31.7681 50.1368L29.95 49.651Z" fill="#A0616A"/>
<path d="M42.5553 26.9623C38.7206 27.5021 35.257 27.0315 32.4347 24.8141C32.4347 24.8141 30.3743 31.7369 34.1316 32.4656C37.889 33.1943 42.0705 31.9419 42.5553 30.7273C43.0402 29.5128 42.5553 26.9623 42.5553 26.9623Z" fill="#2F2E41"/>
<path d="M35.4042 29.1484L31.2227 39.024L29.2834 50.4405L31.8287 51.0477L36.3815 40.5421L42.5553 30.4844L35.4042 29.1484Z" fill="#2F2E41"/>
<path d="M30.1318 52.748L27.8218 52.5051L27.4653 53.8411C27.4653 53.8411 23.708 57.2418 25.6473 57.4847C27.5865 57.7276 29.4046 56.3916 29.4046 56.3916L32.0723 54.8582C32.0723 54.8582 31.8893 51.9814 31.1621 51.9814C30.4349 51.9814 30.1318 52.748 30.1318 52.748Z" fill="#2F2E41"/>
<path d="M33.7815 47.9896C33.7815 47.9896 33.1396 51.5179 33.2175 51.3649C33.2954 51.2119 35.4797 51.2681 35.4797 51.2681L35.6605 47.8897L33.7815 47.9896Z" fill="#A0616A"/>
<path d="M32.6574 26.801L31.7203 37.4876L33.3905 48.9467L35.9986 48.7375L37.0949 37.3369L39.871 25.8612L32.6574 26.801Z" fill="#2F2E41"/>
<path d="M34.9079 50.8794L32.6358 51.3624L32.708 52.7434C32.708 52.7434 30.1809 57.1397 32.1004 56.7713C34.0199 56.4029 35.3379 54.57 35.3379 54.57L37.4034 52.2867C37.4034 52.2867 36.3436 49.6068 35.6519 49.8316C34.9601 50.0564 34.9079 50.8794 34.9079 50.8794Z" fill="#2F2E41"/>
<path d="M34.843 4.68115C34.843 4.68115 33.6871 5.36042 34.0662 6.03216C34.4453 6.70391 34.9738 7.61891 34.6152 7.90708C34.2567 8.19525 33.6648 9.46579 33.6648 9.46579C33.6648 9.46579 31.1382 9.11219 31.3754 11.0788C31.6126 13.0454 32.7995 13.3135 31.7822 14.1787C30.7648 15.0439 32.8395 16.0786 32.8395 16.0786C32.8395 16.0786 34.2718 15.6313 34.5986 14.256C34.9253 12.8807 34.3073 15.3076 34.5145 15.4816C34.7218 15.6557 35.5267 16.8027 36.0962 15.2776C36.6657 13.7526 36.1018 13.1613 36.8543 12.2613C37.6068 11.3612 38.1185 9.90544 38.0961 9.65096C38.0736 9.39647 38.9569 7.07432 37.5974 6.16869C36.2379 5.26306 34.843 4.68115 34.843 4.68115Z" fill="#2F2E41"/>
<path d="M35.3739 10.0814L34.5558 12.9953H39.0461L37.5675 9.40497L35.3739 10.0814Z" fill="#A0616A"/>
<path opacity="0.1" d="M35.3739 10.0814L34.5558 12.9953H39.0461L37.5675 9.40497L35.3739 10.0814Z" fill="black"/>
<path d="M45.1664 31.5956C45.2243 32.4666 44.8228 33.2025 44.2696 33.2394C43.7165 33.2763 43.2212 32.6002 43.1633 31.7289C43.1354 31.3811 43.1911 31.0318 43.3256 30.71L43.1265 27.0165L44.8582 26.9598L44.8706 30.607C45.0466 30.9081 45.148 31.2471 45.1664 31.5956Z" fill="#A0616A"/>
<path d="M39.952 17.1892C39.952 17.1892 40.0477 14.4728 41.0794 14.3061C42.111 14.1393 43.5058 15.3651 43.5058 15.3651L45.6367 24.2099L45.3116 29.7675L42.9794 29.6355L42.432 24.3701L39.952 17.1892Z" fill="url(#paint0_linear_1606_3)"/>
<path d="M34.1922 12.0237H38.4286L43.0401 15.1815L44.3734 26.2336L43.6461 28.4197L42.3129 30.9702C42.3129 30.9702 43.6461 25.3834 40.3736 27.5696C40.3409 27.5914 40.3085 27.6131 40.2763 27.6346C38.1698 29.0445 35.3901 28.8997 33.4401 27.2794L31.8893 25.9907L32.7377 21.7399L32.0711 13.9062L34.1922 12.0237Z" fill="url(#paint1_linear_1606_3)"/>
<path d="M23.5915 25.8606C22.912 26.4069 22.08 26.4984 21.7331 26.065C21.3862 25.6317 21.6559 24.8377 22.3357 24.2913C22.6043 24.0693 22.922 23.915 23.2622 23.8413L26.1704 21.5632L27.2082 22.9534L24.2311 25.0517C24.0854 25.3686 23.8661 25.646 23.5915 25.8606Z" fill="#A0616A"/>
<path d="M32.3939 13.3288C32.3939 13.3288 34.6713 11.8523 35.3984 12.6044C36.1254 13.3565 35.9211 15.2042 35.9211 15.2042L29.904 22.0187L25.1704 24.9334L23.9432 22.9417L27.9382 19.4775L32.3939 13.3288Z" fill="url(#paint2_linear_1606_3)"/>
<path d="M36.4408 10.7147C37.9343 10.7147 39.1449 9.50152 39.1449 8.00501C39.1449 6.50851 37.9343 5.29535 36.4408 5.29535C34.9473 5.29535 33.7366 6.50851 33.7366 8.00501C33.7366 9.50152 34.9473 10.7147 36.4408 10.7147Z" fill="#A0616A"/>
<path d="M35.0945 6.18876C35.0945 6.18876 34.6962 4.85809 35.3601 4.85809C36.0241 4.85809 38.68 4.99116 38.9456 5.25729C39.2112 5.52342 42.3539 8.19437 40.4948 10.3234C38.6357 12.4525 40.4948 13.4812 40.4948 13.4812C40.4948 13.4812 41.8671 16.701 40.5391 16.9671C39.2112 17.2332 33.7641 15.7115 35.0945 13.2412C36.5384 10.5605 37.2102 6.32942 35.0945 6.18876Z" fill="#2F2E41"/>
<path d="M79.3439 25.9707C79.301 25.8391 78.9756 25.897 78.9444 25.7793C78.9133 25.662 79.2255 25.5636 79.4649 25.233C79.5081 25.1734 79.7802 24.7976 79.6759 24.6396C79.4781 24.3401 78.1017 25.0861 77.7713 24.6675C77.6988 24.5756 77.6689 24.4179 77.4529 24.1243C77.367 24.0076 77.3119 23.9512 77.246 23.9529C77.1525 23.9552 77.1191 24.0724 76.9722 24.2846C76.7519 24.6029 76.6724 24.5629 76.5273 24.8237C76.4195 25.0173 76.4068 25.141 76.3291 25.1483C76.2191 25.1586 76.1737 24.9176 76.0394 24.9083C75.9023 24.8987 75.7651 25.1369 75.6971 25.323C75.5695 25.6722 75.6485 25.939 75.666 26.205C75.6851 26.4941 75.6404 26.9172 75.3269 27.4603L72.3705 32.1802C73.0055 31.218 74.8077 28.5942 75.5339 27.6318C75.7435 27.354 75.9687 27.075 76.3155 27.0225C76.6493 26.972 77.0554 27.1375 77.6223 27.1278C77.6886 27.1267 77.8728 27.1212 77.9176 27.0234C77.9547 26.9425 77.8627 26.8721 77.8962 26.7961C77.941 26.6941 78.143 26.7378 78.4183 26.6701C78.6124 26.6223 78.7442 26.5434 78.8576 26.4755C78.8918 26.455 79.4011 26.1459 79.3439 25.9707Z" fill="#F2F2F2"/>
<path d="M71.6006 27.0727C71.5238 27.0558 71.4583 27.2325 71.3916 27.2139C71.3252 27.1954 71.3671 27.0135 71.2742 26.8003C71.2575 26.7619 71.152 26.5196 71.0445 26.5254C70.8407 26.5362 70.8089 27.4284 70.5086 27.4701C70.4426 27.4793 70.3568 27.4484 70.1507 27.47C70.0687 27.4785 70.0252 27.4894 70.007 27.5223C69.9812 27.5689 70.0289 27.6192 70.0905 27.7526C70.1828 27.9528 70.1403 27.9804 70.2262 28.127C70.2899 28.2358 70.3468 28.2778 70.328 28.3181C70.3013 28.3752 70.1701 28.328 70.1268 28.3913C70.0826 28.456 70.1596 28.5922 70.2312 28.6793C70.3654 28.8428 70.5189 28.881 70.6542 28.9491C70.8013 29.0231 70.9957 29.1672 71.1713 29.4781L72.6301 32.2939C72.342 31.704 71.5768 30.0606 71.315 29.4258C71.2394 29.2425 71.1677 29.0512 71.242 28.8656C71.3136 28.6868 71.5118 28.5348 71.6707 28.2532C71.6893 28.2204 71.7397 28.1282 71.7047 28.0779C71.6758 28.0363 71.6148 28.0613 71.5872 28.0229C71.5502 27.9713 71.6299 27.8846 71.6761 27.7297C71.7087 27.6205 71.7081 27.5329 71.7076 27.4575C71.7074 27.4348 71.703 27.0951 71.6006 27.0727Z" fill="#F2F2F2"/>
<path d="M73.056 27.7597L73.1019 27.3355L73.13 27.3088C73.2601 27.1856 73.3415 27.0551 73.3721 26.9207C73.3769 26.8994 73.3807 26.8777 73.3845 26.8557C73.3998 26.7685 73.4187 26.6601 73.5024 26.5475C73.5492 26.4847 73.6731 26.3429 73.8009 26.3924C73.8353 26.4054 73.8586 26.4278 73.8748 26.4515C73.8789 26.4474 73.883 26.4433 73.8875 26.4389C73.9427 26.3851 73.9813 26.3654 74.0185 26.3465C74.047 26.3319 74.0765 26.3169 74.1265 26.2768C74.1484 26.2593 74.1659 26.2435 74.1807 26.2302C74.2256 26.1901 74.2829 26.1431 74.3615 26.1617C74.4447 26.1845 74.4733 26.2641 74.4922 26.3168C74.5261 26.4108 74.5365 26.4754 74.5434 26.5183C74.5459 26.534 74.5487 26.5516 74.5509 26.5573C74.5691 26.6034 74.7979 26.6153 74.884 26.6203C75.0775 26.6308 75.245 26.6399 75.2853 26.7727C75.3142 26.8676 75.2539 26.9712 75.1011 27.0888C75.0535 27.1253 75.0059 27.1506 74.9645 27.1694C74.99 27.1936 75.0103 27.2264 75.0115 27.2712C75.0143 27.3771 74.9059 27.4584 74.6893 27.5132C74.6354 27.527 74.563 27.5452 74.4682 27.5406C74.4236 27.5384 74.3845 27.5315 74.3512 27.5251C74.3462 27.5442 74.3371 27.5639 74.3207 27.5827C74.2725 27.638 74.1946 27.6521 74.0889 27.6209C73.9722 27.5883 73.88 27.544 73.7987 27.5051C73.7276 27.4712 73.6663 27.4421 73.6149 27.4342C73.5193 27.4208 73.4301 27.48 73.3234 27.5587L73.056 27.7597Z" fill="#F2F2F2"/>
<path d="M73.8192 25.3435L73.3981 25.4066L73.3652 25.3861C73.2132 25.2913 73.0666 25.2455 72.9291 25.25C72.9073 25.2507 72.8855 25.2525 72.8632 25.2544C72.7752 25.2617 72.6657 25.2709 72.5358 25.2184C72.4633 25.1889 72.295 25.1048 72.3104 24.9683C72.3142 24.9316 72.3299 24.9034 72.3487 24.8817C72.3437 24.8788 72.3387 24.8758 72.3332 24.8726C72.2674 24.8328 72.2386 24.8003 72.2108 24.7691C72.1895 24.7451 72.1675 24.7203 72.1162 24.682C72.0937 24.6653 72.074 24.6523 72.0574 24.6413C72.0073 24.608 71.9475 24.5643 71.9455 24.4835C71.9464 24.397 72.016 24.3491 72.062 24.3174C72.1442 24.2608 72.2039 24.2343 72.2436 24.2167C72.2581 24.2103 72.2744 24.2031 72.2793 24.1995C72.3192 24.1702 72.2726 23.9454 72.2556 23.8607C72.2167 23.6704 72.183 23.5058 72.3009 23.4331C72.3853 23.381 72.5006 23.4131 72.6528 23.5314C72.7001 23.5683 72.7366 23.608 72.7653 23.6434C72.7821 23.6126 72.8087 23.5846 72.8516 23.572C72.9532 23.5424 73.0591 23.6269 73.167 23.823C73.1939 23.8717 73.2299 23.9372 73.2495 24.0302C73.2587 24.074 73.262 24.1137 73.2642 24.1476C73.2839 24.1476 73.3053 24.1514 73.3276 24.1626C73.3932 24.1953 73.4265 24.2672 73.4232 24.3775C73.4214 24.4989 73.402 24.5995 73.385 24.6882C73.3703 24.7657 73.3578 24.8325 73.3632 24.8843C73.3746 24.9804 73.4543 25.0518 73.5574 25.1353L73.8192 25.3435Z" fill="#F2F2F2"/>
<path d="M73.8759 24.0762L73.9218 23.652L73.9499 23.6253C74.08 23.5021 74.1614 23.3715 74.1919 23.2372C74.1968 23.2158 74.2006 23.1942 74.2044 23.1722C74.2196 23.085 74.2385 22.9766 74.3222 22.8639C74.3691 22.8012 74.493 22.6594 74.6207 22.7089C74.6552 22.7219 74.6785 22.7443 74.6947 22.768C74.6987 22.7639 74.7029 22.7598 74.7073 22.7553C74.7625 22.7016 74.8012 22.6819 74.8383 22.6629C74.8669 22.6483 74.8964 22.6333 74.9464 22.5933C74.9683 22.5757 74.9858 22.5599 75.0006 22.5467C75.0455 22.5066 75.1028 22.4596 75.1814 22.4782C75.2646 22.501 75.2932 22.5806 75.3121 22.6333C75.3459 22.7273 75.3564 22.7919 75.3633 22.8348C75.3657 22.8504 75.3686 22.8681 75.3708 22.8738C75.389 22.9198 75.6178 22.9317 75.7039 22.9367C75.8974 22.9472 76.0649 22.9563 76.1051 23.0891C76.134 23.1841 76.0738 23.2877 75.921 23.4052C75.8734 23.4418 75.8258 23.467 75.7843 23.4859C75.8098 23.51 75.8302 23.5429 75.8314 23.5877C75.8342 23.6936 75.7258 23.7749 75.5091 23.8297C75.4553 23.8434 75.3829 23.8617 75.2881 23.8571C75.2435 23.8549 75.2044 23.848 75.1711 23.8416C75.1661 23.8606 75.157 23.8804 75.1406 23.8992C75.0924 23.9545 75.0145 23.9686 74.9088 23.9374C74.7921 23.9048 74.6999 23.8605 74.6186 23.8215C74.5475 23.7876 74.4862 23.7586 74.4348 23.7507C74.3392 23.7373 74.25 23.7964 74.1433 23.8752L73.8759 24.0762Z" fill="#F2F2F2"/>
<path d="M72.5103 32.2043L72.4359 32.1306L72.3324 32.1197C72.3329 32.1099 72.3322 32.0871 72.3314 32.0515C72.3274 31.8563 72.3151 31.2624 72.3976 30.3498C72.4553 29.7128 72.5516 29.0661 72.6839 28.4276C72.8164 27.788 72.9539 27.3121 73.0644 26.9296C73.1478 26.6411 73.2319 26.3674 73.3141 26.1009C73.5333 25.3888 73.7403 24.7161 73.8685 23.9489C73.8972 23.7776 73.9567 23.421 73.8348 23.0002C73.764 22.7562 73.6428 22.5264 73.4745 22.3176L73.6374 22.1858C73.8232 22.4165 73.9571 22.6709 74.0357 22.9419C74.171 23.4085 74.1061 23.797 74.0749 23.9837C73.9444 24.7645 73.7354 25.4436 73.514 26.1626C73.4323 26.4282 73.3484 26.7006 73.2654 26.9879C73.1559 27.3669 73.0196 27.8386 72.8888 28.47C72.758 29.101 72.6629 29.7397 72.6059 30.3687C72.5245 31.2698 72.5367 31.8549 72.5407 32.0471C72.5428 32.1497 72.5432 32.1712 72.5103 32.2043Z" fill="#F2F2F2"/>
<path d="M73.0276 22.5591C73.0192 22.5572 73.0108 22.5551 73.0024 22.5526C72.8305 22.5044 72.6927 22.364 72.5926 22.1357C72.5457 22.0283 72.5347 21.9152 72.5126 21.6898C72.5092 21.6551 72.4939 21.4792 72.5127 21.2461C72.5249 21.0938 72.5412 21.0327 72.5826 20.9846C72.6285 20.9311 72.6904 20.9005 72.7558 20.8851C72.7576 20.8649 72.7642 20.8452 72.7772 20.8265C72.831 20.749 72.9211 20.7808 72.9699 20.7974C72.9945 20.8063 73.0252 20.8176 73.0597 20.8234C73.1139 20.8328 73.1463 20.8232 73.1953 20.809C73.2422 20.7954 73.3006 20.7784 73.3812 20.7798C73.5402 20.782 73.6579 20.8536 73.6967 20.8772C73.9012 21.0003 73.9718 21.1967 74.0535 21.4241C74.0697 21.4697 74.1236 21.6345 74.1362 21.8467C74.1452 21.9997 74.1252 22.0624 74.1022 22.1072C74.0554 22.1993 73.9836 22.242 73.8054 22.3318C73.6193 22.4259 73.5259 22.473 73.4493 22.4973C73.2711 22.5533 73.1592 22.5885 73.0276 22.5591Z" fill="#F2F2F2"/>
<path d="M20.2606 24.8602L20.1238 20.5374C20.1216 20.4673 20.1491 20.3989 20.1994 20.35C20.2496 20.301 20.3186 20.2754 20.3886 20.2796L23.8119 20.4853C23.8811 20.4894 23.9459 20.5226 23.9899 20.5762C24.0339 20.6298 24.0538 20.7 24.0446 20.7687L23.4655 25.0652C23.4479 25.1952 23.3319 25.2903 23.2013 25.2816L20.4939 25.1022C20.4664 25.1003 20.4402 25.0942 20.416 25.0844C20.3266 25.0482 20.2638 24.962 20.2606 24.8602Z" fill="url(#paint3_linear_1606_3)"/>
<path d="M20.1281 20.133C20.176 20.128 20.2401 20.1218 20.3171 20.1153C20.2965 20.0769 20.2881 20.0314 20.2969 19.9848L20.3581 19.661C20.3739 19.577 20.4415 19.5125 20.5261 19.5012C21.0302 19.4337 22.7639 19.2504 23.8555 19.7467C23.9238 19.7778 23.9678 19.846 23.97 19.9211L23.9799 20.2665C23.9812 20.3092 23.9688 20.3488 23.9471 20.3816C24.0378 20.4061 24.1283 20.4319 24.218 20.4601C24.2743 20.4778 24.3145 20.5275 24.3213 20.5862L24.3382 20.7333C24.349 20.8267 24.2726 20.907 24.179 20.9007L20.0864 20.6237C19.9933 20.6174 19.9284 20.5283 19.9508 20.4375L19.998 20.2465C20.0131 20.185 20.0651 20.1397 20.1281 20.133Z" fill="#3F3D56"/>
<path d="M9.95817 12.5936L9.82141 8.27082C9.81919 8.20066 9.84672 8.13234 9.89695 8.0834C9.9472 8.03443 10.0162 8.00876 10.0861 8.01296L13.5095 8.21869C13.5786 8.22281 13.6435 8.25595 13.6875 8.30958C13.7315 8.36317 13.7514 8.43335 13.7421 8.50212L13.163 12.7986C13.1455 12.9286 13.0295 13.0237 12.8989 13.015L10.1914 12.8356C10.164 12.8337 10.1378 12.8276 10.1136 12.8178C10.0242 12.7816 9.96139 12.6954 9.95817 12.5936Z" fill="url(#paint4_linear_1606_3)"/>
<path d="M9.82564 7.86644C9.87353 7.86138 9.93769 7.85517 10.0147 7.84868C9.99412 7.81026 9.98569 7.76483 9.99449 7.7182L10.0556 7.3944C10.0715 7.31037 10.1391 7.24594 10.2237 7.2346C10.7277 7.16707 12.4614 6.98383 13.5531 7.48012C13.6214 7.51117 13.6654 7.57935 13.6675 7.65447L13.6775 7.99991C13.6788 8.04262 13.6664 8.08221 13.6447 8.11503C13.7354 8.13949 13.8259 8.16534 13.9156 8.19354C13.9718 8.21121 14.0121 8.26094 14.0189 8.3196L14.0358 8.46674C14.0466 8.56011 13.9702 8.64038 13.8766 8.63405L9.78396 8.3571C9.69082 8.35079 9.62596 8.26173 9.64837 8.17093L9.69552 7.97991C9.71072 7.91837 9.76272 7.87307 9.82564 7.86644Z" fill="#3F3D56"/>
<path d="M63.6519 25.9533L63.5151 21.6305C63.5129 21.5603 63.5404 21.492 63.5907 21.4431C63.6409 21.3941 63.7099 21.3684 63.7799 21.3726L67.2032 21.5784C67.2724 21.5825 67.3372 21.6156 67.3812 21.6693C67.4252 21.7229 67.4451 21.793 67.4359 21.8618L66.8568 26.1583C66.8392 26.2883 66.7232 26.3833 66.5926 26.3746L63.8852 26.1952C63.8577 26.1934 63.8315 26.1873 63.8073 26.1775C63.7179 26.1412 63.6551 26.0551 63.6519 25.9533Z" fill="url(#paint5_linear_1606_3)"/>
<path d="M63.5194 21.2261C63.5673 21.2211 63.6314 21.2148 63.7084 21.2084C63.6878 21.1699 63.6794 21.1245 63.6882 21.0779L63.7494 20.7541C63.7652 20.67 63.8328 20.6056 63.9174 20.5943C64.4214 20.5267 66.1552 20.3435 67.2468 20.8398C67.3151 20.8708 67.3591 20.939 67.3613 21.0141L67.3712 21.3596C67.3725 21.4023 67.3601 21.4419 67.3384 21.4747C67.4291 21.4992 67.5196 21.525 67.6093 21.5532C67.6656 21.5709 67.7058 21.6206 67.7126 21.6793L67.7295 21.8264C67.7403 21.9198 67.6639 22.0001 67.5703 21.9937L63.4777 21.7168C63.3845 21.7105 63.3197 21.6214 63.3421 21.5306L63.3893 21.3396C63.4044 21.278 63.4564 21.2328 63.5194 21.2261Z" fill="#3F3D56"/>
</g>
<defs>
<linearGradient id="paint0_linear_1606_3" x1="40.2216" y1="14.7123" x2="45.39" y2="29.5679" gradientUnits="userSpaceOnUse">
<stop stop-color="#5FFBD6"/>
<stop offset="1" stop-color="#B063F6"/>
</linearGradient>
<linearGradient id="paint1_linear_1606_3" x1="32.4814" y1="12.5401" x2="36.2919" y2="32.1882" gradientUnits="userSpaceOnUse">
<stop stop-color="#5FFBD6"/>
<stop offset="1" stop-color="#B063F6"/>
</linearGradient>
<linearGradient id="paint2_linear_1606_3" x1="24.5126" y1="12.7327" x2="26.283" y2="25.9925" gradientUnits="userSpaceOnUse">
<stop stop-color="#5FFBD6"/>
<stop offset="1" stop-color="#B063F6"/>
</linearGradient>
<linearGradient id="paint3_linear_1606_3" x1="20.3098" y1="20.4155" x2="21.1644" y2="25.6596" gradientUnits="userSpaceOnUse">
<stop stop-color="#5FFBD6"/>
<stop offset="1" stop-color="#B063F6"/>
</linearGradient>
<linearGradient id="paint4_linear_1606_3" x1="10.0074" y1="8.14886" x2="10.862" y2="13.393" gradientUnits="userSpaceOnUse">
<stop stop-color="#5FFBD6"/>
<stop offset="1" stop-color="#B063F6"/>
</linearGradient>
<linearGradient id="paint5_linear_1606_3" x1="63.7011" y1="21.5085" x2="64.5557" y2="26.7527" gradientUnits="userSpaceOnUse">
<stop stop-color="#5FFBD6"/>
<stop offset="1" stop-color="#B063F6"/>
</linearGradient>
<clipPath id="clip0_1606_3">
<rect width="80" height="58" fill="white"/>
</clipPath>
</defs>
</svg>
