<svg width="19" height="19" viewBox="0 0 19 19" fill="none" xmlns="http://www.w3.org/2000/svg">
<path d="M18.9887 9.67772C18.9887 8.8993 18.9241 8.33126 18.7842 7.74219H9.68799V11.2556H15.0273C14.9196 12.1287 14.3384 13.4436 13.0466 14.3272L13.0285 14.4448L15.9045 16.6221L16.1038 16.6415C17.9337 14.99 18.9887 12.56 18.9887 9.67772Z" fill="#4285F4"/>
<path d="M9.68807 18.9348C12.3039 18.9348 14.4998 18.0932 16.1038 16.6416L13.0466 14.3273C12.2285 14.8848 11.1305 15.274 9.68807 15.274C7.12608 15.274 4.95162 13.6225 4.17649 11.3398L4.06287 11.3493L1.07231 13.6109L1.0332 13.7172C2.62637 16.8098 5.89885 18.9348 9.68807 18.9348Z" fill="#34A853"/>
<path d="M4.17667 11.3397C3.97215 10.7506 3.85378 10.1194 3.85378 9.46727C3.85378 8.81504 3.97215 8.1839 4.16591 7.59483L4.1605 7.46937L1.13246 5.17139L1.03339 5.21744C0.37677 6.50081 0 7.94198 0 9.46727C0 10.9926 0.37677 12.4337 1.03339 13.717L4.17667 11.3397Z" fill="#FBBC05"/>
<path d="M9.68807 3.66069C11.5073 3.66069 12.7344 4.4286 13.4342 5.07032L16.1684 2.46152C14.4892 0.936221 12.3039 0 9.68807 0C5.89885 0 2.62637 2.12488 1.0332 5.21753L4.16573 7.59492C4.95162 5.31224 7.12608 3.66069 9.68807 3.66069Z" fill="#EB4335"/>
</svg>
