<svg width="35" height="35" viewBox="0 0 35 35" fill="none" xmlns="http://www.w3.org/2000/svg">
<rect width="35" height="35" rx="10" fill="#F6F7FB"/>
<g clip-path="url(#clip0_404_62)">
<path d="M26.4665 12.041L20.3283 18.1791C19.6439 18.8618 18.7167 19.2452 17.75 19.2452C16.7833 19.2452 15.8561 18.8618 15.1717 18.1791L9.03354 12.041C9.02333 12.1562 9 12.2605 9 12.375V21.125C9.00116 22.0916 9.38564 23.0182 10.0691 23.7017C10.7526 24.3852 11.6793 24.7696 12.6458 24.7708H22.8542C23.8207 24.7696 24.7474 24.3852 25.4309 23.7017C26.1144 23.0182 26.4988 22.0916 26.5 21.125V12.375C26.5 12.2605 26.4767 12.1562 26.4665 12.041Z" fill="#252525"/>
<path d="M19.2973 17.1481L25.9575 10.4871C25.6349 9.95217 25.1798 9.50936 24.6362 9.20143C24.0927 8.8935 23.4789 8.73083 22.8542 8.72913H12.6458C12.0211 8.73083 11.4073 8.8935 10.8638 9.20143C10.3202 9.50936 9.86514 9.95217 9.5425 10.4871L16.2027 17.1481C16.6136 17.5574 17.17 17.7872 17.75 17.7872C18.33 17.7872 18.8864 17.5574 19.2973 17.1481Z" fill="#252525"/>
</g>
<defs>
<clipPath id="clip0_404_62">
<rect width="17.5" height="17.5" fill="white" transform="translate(9 8)"/>
</clipPath>
</defs>
</svg>
