<svg width="180" height="150" viewBox="0 0 180 150" fill="none" xmlns="http://www.w3.org/2000/svg">
<path d="M179.891 92.9683C179.891 92.9683 179.862 42.1526 150.735 17.883C125.024 -3.54067 89.6244 -7.89268 65.8537 16.8803C57.384 25.7072 47.1418 34.9063 36.5037 41.0737C24.576 47.989 10.633 51.1483 2.51486 74.0459C-5.60331 96.9439 6.96737 130.52 25.406 142.409C43.8447 154.296 72.7378 149.878 97.5569 144.907C122.376 139.937 177.728 156.022 179.891 92.9683Z" fill="url(#paint0_linear_16_1703)"/>
<path d="M179.891 92.9683C179.891 92.9683 179.862 42.1526 150.735 17.883C125.024 -3.54067 89.6244 -7.89268 65.8537 16.8803C57.384 25.7072 47.1418 34.9063 36.5037 41.0737C24.576 47.989 10.633 51.1483 2.51486 74.0459C-5.60331 96.9439 6.96737 130.52 25.406 142.409C43.8447 154.296 72.7378 149.878 97.5569 144.907C122.376 139.937 177.728 156.022 179.891 92.9683Z" fill="white" fill-opacity="0.4"/>
<path opacity="0.07" d="M149.889 17.8818C145.766 14.4265 141.393 11.4176 136.859 8.90518L98.5561 62.994L150.609 18.5005C150.373 18.2893 150.132 18.0841 149.889 17.8818ZM115.61 1.07874C109.542 -0.0772289 103.428 -0.323495 97.4471 0.433693L98.5557 62.994L115.61 1.07874ZM75.4644 8.5237C71.9651 10.8151 68.6221 13.5907 65.4832 16.8809C64.4417 17.9748 63.373 19.0684 62.2802 20.1689L98.5561 62.994L75.4644 8.5237ZM44.0384 36.0074C41.4943 37.8467 38.9079 39.5529 36.3001 41.0737C30.5553 44.4205 24.3412 46.8907 18.5453 51.1479L98.5561 62.994L44.0384 36.0074ZM0.139693 85.8116C-0.560614 95.5714 1.40907 106.137 5.21874 115.69L98.5561 62.994L0.139693 85.8116ZM98.5561 62.994L31.9202 145.862C41.6159 149.821 53.2683 150.536 65.3458 149.676L98.5561 62.994ZM98.5561 62.994L101.728 144.223C108.574 143.534 116.939 143.748 125.605 143.397L98.5561 62.994ZM173.362 119.28L98.5561 62.994L156.797 136.769C163.581 133.204 169.396 127.726 173.362 119.28ZM176.526 70.7349L98.5557 62.994L178.804 90.3003C178.642 86.6178 178.131 79.4347 176.526 70.7349ZM163.897 34.7938L98.5561 62.994L170.757 49.4071C168.919 44.4573 166.664 39.5031 163.897 34.7938Z" fill="black"/>
<path d="M87.2479 57.9649C87.2479 57.9649 81.7561 61.2062 77.8626 63.1524C73.9697 65.0991 69.2246 66.1937 68.7381 67.2888C68.2517 68.3839 59.8572 86.2676 58.2751 88.7008C56.6936 91.1339 52.9224 95.8785 53.6523 98.5551C54.3822 101.232 57.4235 104.881 59.3702 104.638C61.3169 104.395 65.2099 103.3 66.7914 100.502C68.3729 97.7035 72.1447 88.7008 72.1447 88.7008C72.1447 88.7008 72.7528 97.0953 72.6311 101.232C72.5093 105.368 72.5093 108.775 72.2659 110.843C72.0224 112.911 70.9278 115.466 71.4142 116.196C71.9006 116.926 72.5093 117.656 73.1175 117.534C73.7256 117.412 82.8501 117.29 85.6485 117.412C88.4468 117.534 101.099 117.412 103.776 117.534C106.452 117.656 108.764 116.317 109.007 115.831C109.251 115.344 109.737 114.614 109.494 111.938C109.25 109.261 109.737 101.11 110.467 97.9469C111.197 94.7839 115.577 82.6176 115.577 82.6176C115.577 82.6176 127.134 91.7421 129.568 92.472C132.001 93.2018 138.57 92.1067 140.76 89.4306C142.95 86.754 143.68 84.6861 142.342 82.8611C141.004 81.0361 136.137 79.3328 131.028 73.8584C125.918 68.3839 123.971 65.829 120.444 64.1258C116.915 62.4225 109.738 60.1111 108.034 59.3812C106.331 58.6513 105.845 58.2861 104.75 57.7997C103.654 57.3133 101.1 56.3399 96.355 56.2182C91.6099 56.0959 87.2479 57.9649 87.2479 57.9649Z" fill="url(#paint1_linear_16_1703)" stroke="#263238" stroke-width="0.5" stroke-miterlimit="10"/>
<path d="M69.6952 80.0824C69.8632 80.6694 72.1447 88.7009 72.1447 88.7009L68.7729 82.0112" stroke="#263238" stroke-width="0.5" stroke-miterlimit="10"/>
<path d="M115.577 82.6183C115.068 82.5987 110.287 79.915 110.287 79.915" stroke="#263238" stroke-width="0.5" stroke-miterlimit="10"/>
<path d="M107.855 79.5791C107.855 79.5791 109.784 82.0949 111.462 82.5981" stroke="#263238" stroke-width="0.5" stroke-miterlimit="10"/>
<path d="M86.5689 65.4291L88.0955 71.1971C88.0955 71.1971 83.2607 95.3715 82.4971 99.4427C81.7335 103.514 81.564 106.907 81.564 106.907L85.8053 115.304L91.1493 106.228C91.1493 106.228 90.6406 94.7769 90.4705 85.6161C90.3009 76.4552 90.64 72.0443 90.5553 71.79C90.4705 71.5356 95.8993 67.5487 95.8993 67.5487C95.8993 67.5487 99.0379 64.071 99.2074 63.4769C99.377 62.8829 97.002 63.6465 96.4933 64.1557C95.9846 64.665 94.4574 65.5976 92.252 65.1737C90.0466 64.7498 87.1629 62.29 86.7384 63.4775C86.3145 64.6655 86.5689 65.4291 86.5689 65.4291Z" fill="#263238" stroke="#263238" stroke-width="0.75" stroke-miterlimit="10"/>
<path d="M90.2166 55.5895C89.9622 55.7591 87.9263 56.2683 87.2475 57.9645C86.5687 59.6607 83.091 67.4645 82.0736 68.7368C81.0557 70.0091 82.6676 69.5004 84.0247 68.652C85.3818 67.8036 86.5693 64.4955 87.3329 65.9379C88.0965 67.3797 90.3019 67.9737 90.3019 67.9737C90.3019 67.9737 94.8823 67.1254 95.9003 66.4471C96.9182 65.7688 97.8513 64.8357 97.8513 64.8357C97.8513 64.8357 101.753 70.6884 102.856 71.1976C103.958 71.7063 104.128 70.8585 104.213 69.9254C104.298 68.9922 105.061 63.4786 106.164 59.8313C107.267 56.1841 105.146 54.9966 103.789 53.4699C102.432 51.9433 100.905 52.9612 99.378 53.1308C97.8508 53.2998 90.2166 55.5895 90.2166 55.5895Z" fill="url(#paint2_linear_16_1703)" stroke="#263238" stroke-width="0.75" stroke-miterlimit="10"/>
<path d="M87.8911 29.4726C87.8911 29.4726 85.2411 33.4965 85.7318 34.478C86.2226 35.4596 86.2226 36.7356 85.7318 37.4226C85.2411 38.1096 84.6525 38.9932 84.8487 40.6617C85.0449 42.3302 84.0634 50.771 85.5356 51.7525C87.0079 52.734 88.5786 53.2248 88.5786 53.2248C88.5786 53.2248 90.2471 67.3585 90.8362 66.9655C91.4253 66.5731 99.8661 57.9356 100.848 56.071C101.829 54.2063 103.007 51.5557 103.007 51.5557C103.007 51.5557 106.344 45.1759 108.307 42.5259C110.27 39.8759 112.527 34.9682 111.84 32.4161C111.153 29.8639 107.619 27.9992 105.951 26.6253C104.282 25.2514 105.362 22.1106 103.006 20.54C100.651 18.9699 97.8041 18.5769 95.9394 19.2639C94.0748 19.9509 93.9764 21.4231 91.7188 19.9509C89.4612 18.4786 87.3019 17.0063 83.8666 18.6748C80.4313 20.3432 79.7443 26.2324 81.8052 27.803C83.8666 29.3748 87.8911 29.4726 87.8911 29.4726Z" fill="white" stroke="#263238" stroke-width="0.5" stroke-miterlimit="10"/>
<path d="M105.95 26.6263C104.281 25.2524 105.361 22.1116 103.005 20.541C100.65 18.9703 97.8031 18.5779 95.9385 19.2649C94.0738 19.9518 93.9754 21.4241 91.7178 19.9518C89.4602 18.4795 87.301 17.0073 83.8656 18.6757C80.4303 20.3442 79.7434 26.2334 81.8042 27.804C83.8656 29.3741 87.8896 29.4725 87.8896 29.4725C87.8896 29.4725 90.8341 28.0986 92.7972 27.0187C94.7602 25.9388 99.1771 27.7056 99.9624 28.3926C100.748 29.0795 99.57 28.5888 99.3738 29.8649C99.1776 31.141 101.631 33.2018 102.711 34.1834C103.79 35.1649 102.515 35.8518 102.22 37.1279C101.925 38.404 103.103 38.8948 103.79 38.404C104.477 37.9132 106.636 35.1649 107.422 36.7355C108.207 38.3062 109.385 40.6616 107.225 42.3301C105.066 43.9986 103.496 43.6062 103.496 43.6062C103.496 43.6062 102.792 47.8573 104.831 48.1915C105.927 46.2323 107.297 43.8882 108.305 42.5268C110.268 39.8768 112.525 34.9692 111.838 32.4171C111.152 29.8654 107.618 28.0002 105.95 26.6263Z" fill="#263238" stroke="#263238" stroke-width="0.75" stroke-miterlimit="10"/>
<path d="M93.1909 34.6747C93.1909 34.6747 94.1724 34.2823 95.154 34.3802" stroke="#263238" stroke-width="0.5" stroke-miterlimit="10"/>
<path d="M88.1663 35.6383C88.1663 35.6383 87.3098 35.8166 86.7739 36.1383" stroke="#263238" stroke-width="0.5" stroke-miterlimit="10"/>
<path d="M88.2021 32.9612C88.2021 32.9612 88.8092 34.0677 88.4874 35.1389C88.1662 36.2095 85.132 38.6014 85.1673 39.0655C85.2032 39.5297 86.9521 40.4932 86.9162 40.8862C86.8803 41.2786 86.7733 41.9215 86.7733 41.9215" stroke="#263238" stroke-width="0.75" stroke-miterlimit="10"/>
<path d="M94.8421 36.0312C95.1969 36.0312 95.4845 35.6796 95.4845 35.2459C95.4845 34.8122 95.1969 34.4606 94.8421 34.4606C94.4873 34.4606 94.1997 34.8122 94.1997 35.2459C94.1997 35.6796 94.4873 36.0312 94.8421 36.0312Z" fill="#263238" stroke="#263238" stroke-width="0.5" stroke-miterlimit="10"/>
<path d="M93.5923 36.5307C93.6994 36.4948 95.27 35.8524 96.3053 35.9236" stroke="#263238" stroke-width="0.75" stroke-miterlimit="10"/>
<path d="M91.3247 31.8031C91.3247 31.8031 93.4301 29.8498 95.0611 30.2449C96.6921 30.64 97.3106 32.2074 97.0508 32.2123C96.791 32.2172 95.9682 31.002 95.0687 30.9118C94.1693 30.821 93.5399 31.2455 92.7725 31.633C92.0057 32.0205 91.5253 32.2993 91.3247 31.8031Z" fill="#263238" stroke="#263238" stroke-width="0.5" stroke-miterlimit="10"/>
<path d="M88.3453 33.3535C88.3453 33.1938 88.0953 32.4611 87.1317 32.6041C86.1681 32.747 85.4382 34.4965 85.7317 34.4785C86.0252 34.4606 86.3464 33.3541 87.0958 33.247C87.8453 33.1394 88.3453 34.3177 88.3453 33.3535Z" fill="#263238" stroke="#263238" stroke-width="0.5" stroke-miterlimit="10"/>
<path d="M86.7026 44.1345C86.7026 44.1345 88.2374 43.9563 90.2369 43.7063C92.2358 43.4563 95.0559 43.0639 95.52 41.6356C95.9842 40.2079 95.8771 39.4579 95.8771 39.4579" stroke="#263238" stroke-width="0.75" stroke-miterlimit="10"/>
<path d="M94.8062 39.3508C94.9491 39.3149 96.0915 39.3149 96.5556 39.4578" stroke="#263238" stroke-width="0.75" stroke-miterlimit="10"/>
<path d="M103.046 46.4052C103.046 46.4052 102.667 48.5149 100.882 49.6508C99.0969 50.7867 86.0056 52.085 86.4387 52.2475C86.8713 52.41 88.5784 53.2253 88.5784 53.2253L89.0893 57.8736C89.0893 57.8736 91.5779 55.4932 95.9056 53.2753C100.233 51.0573 102.938 50.2997 103.046 46.4052Z" fill="#263238" stroke="#263238" stroke-width="0.5" stroke-miterlimit="10"/>
<path d="M110.346 109.87C110.346 109.87 107.913 109.748 107.304 109.626C106.696 109.505 104.75 107.68 103.898 107.801C103.046 107.923 101.465 109.626 100.857 111.086C100.249 112.546 100.005 113.276 100.005 113.276C100.005 113.276 97.8154 115.223 98.9099 116.561C100.005 117.899 101.221 117.412 101.221 117.412C101.221 117.412 101.951 118.629 102.925 118.75C103.898 118.872 105.114 118.872 105.114 118.872C105.114 118.872 106.331 119.237 107.061 119.115C107.791 118.994 108.521 118.507 108.521 118.507C108.521 118.507 109.372 118.629 109.981 118.143C110.428 117.785 112.588 115.582 113.699 114.444C114.097 114.035 114.36 113.763 114.36 113.763L110.346 109.87Z" fill="white" stroke="#263238" stroke-width="0.75" stroke-miterlimit="10"/>
<path d="M130.663 84.808C130.663 84.808 126.162 89.796 124.702 92.2292C123.242 94.6623 118.74 100.989 117.037 102.935C115.334 104.882 109.373 109.626 109.373 109.626C109.373 109.626 111.198 113.519 112.536 114.128C113.874 114.736 114.969 114.98 114.969 114.98L119.835 111.33C119.835 111.33 129.081 104.273 133.948 100.259C138.814 96.2438 145.627 90.8906 146.113 88.5792C146.6 86.2678 146.235 85.0509 143.802 83.2259C141.369 81.4009 138.814 80.671 138.814 80.671" fill="url(#paint3_linear_16_1703)"/>
<path d="M130.663 84.808C130.663 84.808 126.162 89.796 124.702 92.2292C123.242 94.6623 118.74 100.989 117.037 102.935C115.334 104.882 109.373 109.626 109.373 109.626C109.373 109.626 111.198 113.519 112.536 114.128C113.874 114.736 114.969 114.98 114.969 114.98L119.835 111.33C119.835 111.33 129.081 104.273 133.948 100.259C138.814 96.2438 145.627 90.8906 146.113 88.5792C146.6 86.2678 146.235 85.0509 143.802 83.2259C141.369 81.4009 138.814 80.671 138.814 80.671" stroke="#263238" stroke-width="0.5" stroke-miterlimit="10"/>
<path d="M113.145 106.585C113.145 106.585 114.24 111.938 118.011 111.938" stroke="#263238" stroke-width="0.5" stroke-miterlimit="10"/>
<path d="M36.5663 78.8708C36.5663 78.8708 40.3432 80.9402 42.0607 81.8534C43.7782 82.7665 44.8017 82.7743 44.8017 82.7743C44.8017 82.7743 49.6919 91.0912 49.7999 91.3734C49.9076 91.6561 53.8124 99.4773 54.1748 100.559C54.5375 101.64 56.0052 104.641 58.0922 104.89C60.1791 105.139 64.1779 106.029 65.4616 104.369C66.7453 102.709 67.4218 99.5878 67.6319 97.2675C67.842 94.9471 67.616 93.9626 64.9797 91.8809C62.3435 89.7992 57.3747 86.3675 55.1185 84.0413C52.8619 81.7155 50.3715 79.4288 49.5897 78.3583C48.8077 77.2871 50.5595 75.5486 50.6356 74.5735C50.7116 73.5985 50.2609 72.3514 50.5893 70.7321C50.918 69.1131 52.2696 67.5021 52.6982 67.1894C53.1268 66.8767 53.0463 65.6876 52.1485 65.3576C51.2507 65.0277 49.8688 66.1029 49.0329 67.5665C48.1975 69.0304 47.7323 70.5524 47.2836 70.7481C46.8354 70.9441 42.9705 68.7086 42.9705 68.7086C42.9705 68.7086 39.9287 73.8521 38.7814 75.6091C37.6359 77.3674 36.5663 78.8708 36.5663 78.8708Z" fill="white" stroke="#263238" stroke-width="0.5" stroke-miterlimit="10"/>
<path d="M39.2493 69.4576C39.2493 69.4576 43.8081 72.5983 44.2182 72.89C44.6283 73.1818 45.2619 73.015 45.4362 72.6247C45.6112 72.2343 46.5846 71.5889 45.7058 70.6548C44.8265 69.7204 42.2482 67.2684 41.419 66.9873C40.5894 66.7059 39.0036 68.3564 39.2493 69.4576Z" fill="white" stroke="#263238" stroke-width="0.5" stroke-miterlimit="10"/>
<path d="M39.2496 69.4577C39.2496 69.4577 37.1474 71.2556 37.0512 72.1136C36.955 72.9716 42.4881 75.4668 42.9466 75.6903C43.4052 75.9139 44.2911 75.1028 44.446 74.5953C44.6009 74.0879 44.7653 73.2784 44.2188 72.8896C43.6724 72.5009 39.2496 69.4577 39.2496 69.4577Z" fill="white" stroke="#263238" stroke-width="0.5" stroke-miterlimit="10"/>
<path d="M36.8476 72.6893C36.8476 72.6893 35.5533 73.9301 35.7398 74.6805C35.9263 75.4308 36.5126 76.0533 37.8398 76.7922C39.1674 77.5306 41.4984 78.1598 42.1029 78.1783C42.7073 78.1968 43.4075 77.357 43.5916 76.6642C43.7757 75.9715 42.9465 75.6904 42.9465 75.6904C42.9465 75.6904 42.4789 75.7692 40.3115 74.3306C38.1441 72.892 37.0511 72.1137 37.0511 72.1137L36.8476 72.6893Z" fill="white" stroke="#263238" stroke-width="0.5" stroke-miterlimit="10"/>
<path d="M35.9659 75.6643C35.8397 75.986 34.6928 77.7433 35.3273 78.2981C35.9621 78.8524 39.6113 80.5229 40.1479 80.4924C40.6841 80.4624 41.0823 79.6131 41.1398 79.2426C41.1974 78.872 41.3326 78.2478 40.8745 78.0246C40.4159 77.8011 35.9659 75.6643 35.9659 75.6643Z" fill="white" stroke="#263238" stroke-width="0.5" stroke-miterlimit="10"/>
<path d="M49.8855 84.7444C48.8985 85.8664 47.4782 85.8704 46.5211 85.7044C47.9413 88.1295 49.7357 91.2043 49.8002 91.3742C49.9079 91.657 53.8127 99.4782 54.1751 100.56C54.5378 101.641 56.0055 104.641 58.0924 104.891C60.1793 105.14 64.1782 106.03 65.4619 104.37C66.7456 102.71 67.3911 99.4565 68.478 97.2826C69.565 95.1087 69.565 94.837 64.98 91.8817C62.3437 89.8 57.3749 86.3683 55.1184 84.0425C54.0113 82.9014 52.8492 81.7711 51.8592 80.788C51.4381 82.0792 50.772 83.7363 49.8855 84.7444Z" fill="url(#paint4_linear_16_1703)" stroke="#263238" stroke-width="0.5" stroke-miterlimit="10"/>
<path d="M44.6048 76.2524C44.6048 76.2524 44.8036 78.1434 45.5946 78.9122C46.3856 79.6811 47.4781 79.7373 47.4781 79.7373" fill="white"/>
<path d="M44.6048 76.2524C44.6048 76.2524 44.8036 78.1434 45.5946 78.9122C46.3856 79.6811 47.4781 79.7373 47.4781 79.7373" stroke="#263238" stroke-width="0.5" stroke-miterlimit="10"/>
<defs>
<linearGradient id="paint0_linear_16_1703" x1="89.9457" y1="0" x2="89.9457" y2="150" gradientUnits="userSpaceOnUse">
<stop stop-color="#5FFBD6"/>
<stop offset="1" stop-color="#B063F6"/>
</linearGradient>
<linearGradient id="paint1_linear_16_1703" x1="98.2865" y1="56.2124" x2="98.2865" y2="117.547" gradientUnits="userSpaceOnUse">
<stop stop-color="#5FFBD6"/>
<stop offset="1" stop-color="#B063F6"/>
</linearGradient>
<linearGradient id="paint2_linear_16_1703" x1="94.1119" y1="52.6415" x2="94.1119" y2="71.3504" gradientUnits="userSpaceOnUse">
<stop stop-color="#5FFBD6"/>
<stop offset="1" stop-color="#B063F6"/>
</linearGradient>
<linearGradient id="paint3_linear_16_1703" x1="127.836" y1="80.671" x2="127.836" y2="114.98" gradientUnits="userSpaceOnUse">
<stop stop-color="#5FFBD6"/>
<stop offset="1" stop-color="#B063F6"/>
</linearGradient>
<linearGradient id="paint4_linear_16_1703" x1="45.898" y1="86.5802" x2="67.2935" y2="101.802" gradientUnits="userSpaceOnUse">
<stop stop-color="#5FFBD6"/>
<stop offset="1" stop-color="#B063F6"/>
</linearGradient>
</defs>
</svg>
