<svg width="53" height="80" viewBox="0 0 53 80" fill="none" xmlns="http://www.w3.org/2000/svg">
<path d="M39.5673 45.1483L44.5716 44.5886C45.656 42.2088 46.1351 39.6039 45.9673 37C43.2471 40.7833 37.4924 40.7227 33.6683 43.4216C32.4822 44.2724 31.5053 45.3756 30.8102 46.6494C30.115 47.9232 29.7193 49.335 29.6524 50.7802L28 53.904C30.3534 54.1582 32.7347 53.906 34.9798 53.1649C37.2249 52.4238 39.2805 51.2113 41.0048 49.6111C41.9632 48.7039 42.8019 47.6813 43.5012 46.5674C41.532 45.9792 39.5673 45.1483 39.5673 45.1483Z" fill="#F2F2F2"/>
<path d="M35.5478 38.0936L40 35.3951C39.889 32.7919 39.1 30.2534 37.7016 28C36.9386 32.5761 31.4833 35.0499 29.1629 39.1418C28.4496 40.4232 28.0539 41.8382 28.0051 43.282C27.9563 44.7258 28.2557 46.1614 28.881 47.4823L28.8107 51C31.1509 50.1933 33.2763 48.9219 35.0403 47.2733C36.8044 45.6247 38.1652 43.6382 39.029 41.4506C39.5006 40.2188 39.8044 38.9365 39.9332 37.6338C37.7962 37.9731 35.5478 38.0936 35.5478 38.0936Z" fill="#F2F2F2"/>
<path d="M17.5 71C25.5081 71 32 64.2843 32 56C32 47.7157 25.5081 41 17.5 41C9.49187 41 3 47.7157 3 56C3 64.2843 9.49187 71 17.5 71Z" fill="white"/>
<path d="M17 71C14.0333 71 11.1332 70.1203 8.66646 68.4721C6.19973 66.8238 4.27713 64.4812 3.14182 61.7403C2.0065 58.9994 1.70945 55.9834 2.28822 53.0737C2.86699 50.164 4.2956 47.4912 6.39338 45.3934C8.49115 43.2956 11.1639 41.867 14.0736 41.2882C16.9833 40.7095 19.9993 41.0065 22.7402 42.1418C25.4811 43.2771 27.8238 45.1997 29.472 47.6664C31.1202 50.1331 32 53.0332 32 55.9999C31.9955 59.9768 30.4137 63.7895 27.6016 66.6016C24.7896 69.4137 20.9769 70.9955 17 71ZM17 41.3618C14.1049 41.3618 11.2747 42.2204 8.86747 43.8288C6.46023 45.4373 4.58403 47.7235 3.47611 50.3982C2.36818 53.073 2.0783 56.0163 2.64312 58.8558C3.20794 61.6953 4.60211 64.3036 6.6493 66.3508C8.69649 68.3979 11.3048 69.7921 14.1443 70.3569C16.9838 70.9217 19.9271 70.6318 22.6018 69.5239C25.2766 68.4159 27.5628 66.5397 29.1712 64.1325C30.7797 61.7252 31.6382 58.8951 31.6382 55.9999C31.6338 52.119 30.0901 48.3983 27.3459 45.6541C24.6017 42.9098 20.8809 41.3662 17 41.3618Z" fill="#3F3D56"/>
<path d="M16.3671 62C16.3359 62 16.3047 61.999 16.2734 61.9975C15.9974 61.9842 15.7276 61.9117 15.4824 61.7849C15.2372 61.6581 15.0225 61.48 14.8529 61.2628L12.4041 58.1291C12.2495 57.9313 12.1355 57.7051 12.0687 57.4635C12.0019 57.2218 11.9836 56.9694 12.0148 56.7207C12.046 56.472 12.1261 56.2319 12.2506 56.014C12.375 55.7961 12.5414 55.6048 12.7402 55.4509L12.8283 55.3827C13.027 55.2287 13.2543 55.1152 13.4971 55.0486C13.74 54.9821 13.9936 54.9638 14.2435 54.9949C14.4934 55.026 14.7348 55.1058 14.9537 55.2298C15.1726 55.3537 15.3648 55.5194 15.5194 55.7174C15.6431 55.8755 15.7996 56.0051 15.9782 56.0974C16.1569 56.1897 16.3535 56.2426 16.5545 56.2523C16.7556 56.2621 16.9564 56.2285 17.1432 56.1539C17.33 56.0793 17.4985 55.9654 17.637 55.82L22.609 50.5952C22.959 50.2282 23.441 50.0144 23.9491 50.0007C24.4573 49.987 24.9502 50.1744 25.3197 50.5219L25.4012 50.5992C25.584 50.7715 25.7309 50.978 25.8336 51.2069C25.9362 51.4358 25.9925 51.6825 25.9993 51.9331C26.0061 52.1836 25.9632 52.433 25.8732 52.6671C25.7831 52.9011 25.6476 53.1152 25.4743 53.2971L17.7584 61.4039C17.5794 61.5922 17.3637 61.7422 17.1245 61.8447C16.8853 61.9472 16.6276 62 16.3671 62Z" fill="url(#paint0_linear_1607_27)"/>
<path d="M10 75.7797L7.43254 76L5 68.3253L8.78904 68L10 75.7797Z" fill="#A0616A"/>
<path d="M23.8801 37.9672C23.8137 37.9013 23.7417 37.8372 23.67 37.7762C23.1183 37.3201 22.5417 36.8946 21.943 36.5017C21.2655 36.0519 20.5032 35.5927 19.641 35.1187C19.2236 34.889 18.7826 34.6545 18.3179 34.4152C18.085 34.2953 17.8455 34.1745 17.5993 34.0529C17.5888 34.0467 17.578 34.0411 17.567 34.0361L17.4957 34L12.3068 38.2685L11.9382 38.5571L12.8941 39.7316C12.8941 39.7316 12.8108 40.6655 12.8128 40.666L11.8639 43.0255L11.8535 43.0303L8.47299 44.5679L4.98935 46.1528L3.11832 47.0045C2.68444 47.2015 2.29422 47.4825 1.97037 47.8312C1.64653 48.1799 1.39553 48.5893 1.232 49.0356C1.05997 49.4992 0.982262 49.9922 1.00339 50.4859C1.02453 50.9797 1.14409 51.4644 1.35509 51.9116C1.39696 52.0028 1.44395 52.0941 1.49383 52.182L2.27132 57.0536C2.73574 59.9673 3.63877 62.7946 4.94993 65.4398L6.1374 70L6.31782 69.9098L9.00351 68.5691L9.71308 68.2158L9.84703 65.1518C9.86223 64.8026 9.86444 64.4514 9.85198 64.101C9.83361 63.5274 9.77858 62.9555 9.68721 62.3889L8.14737 52.8339C8.42062 52.7229 8.69018 52.6114 8.95604 52.4993C10.1884 51.9855 11.3552 51.466 12.4563 50.941C16.0374 49.2354 18.9548 47.4647 21.3384 45.5467C22.0082 45.0088 22.6365 44.4581 23.2233 43.8948C23.4389 43.6889 23.6488 43.4811 23.853 43.2712C23.9016 43.2227 23.9489 43.1749 23.9956 43.1258C24.4153 42.6869 24.7179 42.1501 24.8756 41.5644C25.0334 40.9788 25.0412 40.3631 24.8984 39.7737C24.7386 39.0872 24.3853 38.4604 23.8801 37.9672Z" fill="#2F2E41"/>
<path d="M9.50001 74.0632L7.56915 74.3254L7.26617 74.3662L7.46332 75.7748L5.21942 78.4677C5.10839 78.6007 5.03489 78.7738 5.00968 78.9618C4.98446 79.1498 5.00884 79.3427 5.07925 79.5124C5.14965 79.6822 5.26241 79.8198 5.40103 79.9052C5.53965 79.9906 5.69687 80.0193 5.84972 79.9872L9.03631 79.3166L9.3908 77.8078L9.79969 79.1559L11 78.9036L9.96955 74L9.50001 74.0632Z" fill="#2F2E41"/>
<path d="M11.8427 28L14 25.8412L10.9569 19.5583L10.5043 17.3515C10.4455 17.0648 10.308 16.7977 10.1055 16.5769C9.90301 16.356 9.64265 16.1892 9.35044 16.093C9.05822 15.9969 8.74438 15.9748 8.44028 16.029C8.13618 16.0831 7.85246 16.2116 7.61749 16.4017C7.2693 16.6833 7.05068 17.0816 7.00776 17.5124C6.96485 17.9433 7.10099 18.373 7.38748 18.711L9.06769 20.6928L11.8427 28Z" fill="#A0616A"/>
<path d="M14.1211 24.16L12 26.2509L12.4059 29.308C12.5351 29.7071 12.7667 30.0665 13.0783 30.3513C13.3898 30.6362 13.7708 30.8369 14.1842 30.9339C14.6939 31.0535 15.229 31.01 15.712 30.8097C16.195 30.6093 16.6006 30.2626 16.8702 29.8197L21.6412 21.7584C21.9793 21.203 22.0837 20.5392 21.932 19.9089C21.7803 19.2786 21.3847 18.7317 20.8295 18.3851C20.5309 18.1987 20.1958 18.0763 19.8461 18.026C19.4964 17.9757 19.1398 17.9985 18.7996 18.093C18.4595 18.1875 18.1433 18.3516 17.8716 18.5745C17.6 18.7975 17.3791 19.0743 17.2232 19.3869L14.3111 25.5036L14.1211 24.16Z" fill="#E6E6E6"/>
<path d="M12 56.5814C11.8731 56.693 11.7458 56.8032 11.617 56.9138C11.361 57.1346 11.1012 57.3535 10.8407 57.5697C10.7097 57.678 10.5772 57.7866 10.4458 57.8936L10.4469 57.8974L10.4382 57.9006L10.4355 57.9026L10.217 58L9.67329 57.3083L9.42253 56.9898L9.06807 56.5385L8.41876 55.7131L5 51.3669L8.06601 50L8.30747 50.4058L8.30898 50.4055L8.42839 50.6066L10.6706 54.3588L11.1285 55.126L11.1428 55.1492L11.4179 55.6072L11.6553 56.0042L11.92 56.4479L12 56.5814Z" fill="#A0616A"/>
<path d="M11.5582 55.3207L9.73315 56.6415L9.44662 56.8484L10.2089 58.0376L9.04634 61.7754C8.98872 61.9601 8.98473 62.1609 9.03495 62.3484C9.08517 62.5359 9.18697 62.7002 9.32546 62.8175C9.46396 62.9347 9.6319 62.9987 9.80474 63C9.97759 63.0013 10.1463 62.9399 10.2862 62.8248L13.2027 60.4257L12.9516 58.8358L13.9013 59.8509L15 58.9474L12.0022 55L11.5582 55.3207Z" fill="#2F2E41"/>
<path d="M24.7014 42.9748C24.5128 43.2756 24.32 43.575 24.1259 43.8717C23.7651 44.4241 23.3947 44.9682 23.0147 45.5042C23.0147 45.5056 23.0133 45.5056 23.012 45.5069C22.7903 45.7109 22.5454 45.8885 22.2822 46.0361C22.2712 46.0443 22.2588 46.0498 22.2478 46.0566C22.054 46.163 21.8478 46.2452 21.6337 46.3013C21.5566 46.3205 21.4781 46.3396 21.401 46.3588C21.1229 46.4244 20.8475 46.4804 20.5735 46.5297C20.0861 46.6158 19.6042 46.6773 19.125 46.7156C19.0865 46.7197 19.0479 46.7225 19.0093 46.7252C17.039 46.8687 15.121 46.6377 13.119 46.259C12.1304 46.073 11.1211 45.8501 10.0761 45.6191C9.73461 45.5425 9.39177 45.4673 9.04479 45.3921C9.01863 45.3866 8.99109 45.3798 8.96355 45.3743C8.46787 45.2663 7.96393 45.1597 7.4476 45.0544C6.79769 44.9218 7.13084 44.914 6.43413 44.7924C6.43413 44.7924 8.04159 46.4133 8.3087 47.1161C8.60611 47.9802 8.84155 48.6638 8.3445 50.0871L9.88817 53.0964L4.52162 54C1.56394 48.2448 -0.799867 44.4551 0.256087 42.2231C0.260215 42.1192 0.268485 42.0139 0.28225 41.91C0.338342 41.4376 0.48862 40.981 0.724313 40.5669C0.960007 40.1528 1.2764 39.7895 1.65502 39.4981C2.01783 39.2166 2.43339 39.0094 2.87754 38.8888C3.32169 38.7681 3.78557 38.7364 4.24219 38.7954L5.29551 38.9307L13.4646 38.5366L13.7854 37.2377L13.8446 37.2158L15.7268 36.5308L22.2368 34.1613L22.2533 34.1559L22.6815 34L22.7325 34.082C22.7476 34.1066 22.7628 34.1313 22.7765 34.1559C23.1997 34.9093 23.5444 35.7037 23.8051 36.5267C24.2434 37.8711 24.6043 39.2392 24.8859 40.6244C24.8983 40.6846 24.9093 40.7393 24.9189 40.7885L24.9231 40.8035C24.9272 40.8268 24.93 40.8418 24.9314 40.8459C25.0814 41.4667 24.9768 42.2241 24.7014 42.9748Z" fill="#2F2E41"/>
<path d="M22.8392 17.1439L22.7954 14.4894L18.9518 14L18.5487 16.2416L14.5091 20.3954C11.6371 24.2373 13.7241 26.8868 13.849 27.2808L14.2042 32.1255L14.4276 33.8087L13.5552 38.4153L24.5669 41C24.9195 37.8152 24.5269 34.856 22.228 32.474L23.3896 28.5191C23.9785 27.4864 24.3477 26.3222 24.4699 25.1124L24.5117 24.6988C25.5382 21.1992 24.9301 20.021 22.8392 17.1439Z" fill="#E6E6E6"/>
<path d="M28.9555 8.83242C28.9581 8.90481 28.9594 8.97721 28.9594 9.04814C28.9583 9.83067 28.793 10.6018 28.477 11.2985C28.1611 11.9952 27.7035 12.5977 27.1415 13.0568C26.5796 13.5159 25.9294 13.8185 25.2439 13.9399C24.5584 14.0613 23.8572 13.9981 23.1976 13.7555L22.3892 13.4585C22.3827 13.4555 22.3748 13.4541 22.3683 13.4511L21.0359 12.9606C21.0315 12.8971 21.0324 12.8333 21.0385 12.77C19.0511 11.8126 21.7984 8.66695 22.4809 6.30441C22.5871 5.93652 18.9384 6.21133 19.1114 5.89662C19.0734 5.87446 19.0354 5.8523 19 5.83013C19.6163 4.7332 20.5274 3.8872 21.6003 3.41566C22.6732 2.94411 23.8516 2.87171 24.9636 3.20903C24.9924 3.21642 25.0225 3.22676 25.0514 3.23562C27.6401 3.30802 29 5.34255 29 7.98433C28.9999 8.26776 28.985 8.55095 28.9555 8.83242Z" fill="#2F2E41"/>
<path d="M26.8028 9.89576C26.4735 11.0303 25.7572 11.9713 24.8114 12.5118C23.8656 13.0524 22.7678 13.1482 21.7592 12.7783C21.6449 12.7364 21.5331 12.6889 21.4238 12.6358C20.5059 12.1932 19.7685 11.3803 19.3564 10.3568C18.9443 9.33343 18.8874 8.17359 19.197 7.1054C19.2952 6.76527 19.4295 6.43969 19.5969 6.13569C20.1111 5.19887 20.9127 4.50665 21.85 4.19006C22.7874 3.87346 23.7953 3.95445 24.6831 4.41772C25.5709 4.88098 26.2769 5.69436 26.6676 6.70388C27.0582 7.71341 27.1063 8.84902 26.8028 9.89576Z" fill="#A0616A"/>
<path d="M22.3891 13.84C22.3821 13.838 22.3752 13.8355 22.3685 13.8324L21.0442 13.3597C21.0407 13.2975 18.6088 15.0606 18.6157 14.9984C18.6535 14.5218 21.3933 12.1975 21.8027 11.6569C22.0674 11.3116 22.2514 10.9011 22.339 10.4606C22.4266 10.0201 22.4151 9.56288 22.3054 9.12836C22.1957 8.69385 21.9912 8.29506 21.7094 7.96638C21.4277 7.6377 21.0772 7.38899 20.6882 7.24169C20.6764 7.23843 20.6649 7.23402 20.6538 7.2285C20.3975 7.13056 20.1516 7.03073 19.9211 6.9309C19.8076 6.4129 19.7491 6.58431 19.4757 6.14543C19.5255 6.54475 19.0629 6.84613 19.056 7.24923C18.9614 7.20214 18.872 7.15316 18.786 7.10419C18.7481 7.08159 18.712 7.06086 18.6759 7.04014C18.4106 6.90513 18.1788 6.70229 18 6.44869C18.6622 4.22038 21.1955 2.4366 23.2302 3.16556L23.999 3.43868C24.9686 3.7834 25.7743 4.5344 26.24 5.5276C26.8008 5.99845 27.2483 6.61204 27.5436 7.31515C29.2257 11.0164 25.9768 15.102 22.3891 13.84Z" fill="#2F2E41"/>
<path d="M28 7C29.1046 7 30 6.10457 30 5C30 3.89543 29.1046 3 28 3C26.8954 3 26 3.89543 26 5C26 6.10457 26.8954 7 28 7Z" fill="#2F2E41"/>
<path d="M53 9.00712C52.5729 10.8718 51.7182 12.6215 50.4981 14.1286C49.278 15.6358 47.7233 16.8625 45.9473 17.7193C45.7211 17.827 45.4913 17.9274 45.2595 18.0205C45.2804 17.1178 45.0103 16.231 44.4862 15.4815C44.5713 16.0891 44.5815 16.7042 44.5166 17.3141C44.4811 17.6638 44.4208 18.0108 44.3361 18.3527C42.8455 18.8249 41.2802 19.0418 39.7115 18.9934C39.6219 18.3236 39.3701 17.6835 38.9762 17.1242C39.0614 17.7318 39.0716 18.347 39.0066 18.9568C37.4299 18.8339 35.8895 18.4375 34.4599 17.7868C33.717 17.4473 32.9874 17.022 32.5087 16.3795C31.8722 15.5234 31.7658 14.3936 31.9216 13.3532C32.0774 12.3109 32.4669 11.3161 32.7386 10.2976C33.0103 9.27908 33.1642 8.18937 32.845 7.18363C32.5277 6.17606 31.6366 5.27984 30.5441 5.20135C30.0463 5.16484 29.5466 5.29627 29.0488 5.25246C28.551 5.20683 28.0114 4.8874 28 4.40734L28.4769 3.66262C28.6783 2.35935 29.3699 1.06704 30.5555 0.404451C31.7392 -0.25996 33.4416 -0.117585 34.2871 0.919188C34.9996 1.79168 34.9729 3.00368 35.2066 4.08974C35.75 6.61231 37.8495 8.64205 40.2891 9.71168C42.7306 10.7795 45.478 11.004 48.1608 10.9602C49.0803 10.9438 50.0151 10.8963 50.8891 10.617C51.765 10.3359 52.582 9.79565 53 9.00712Z" fill="#2F2E41"/>
<path d="M8.75158 20.978L8.00394 12.3658C7.9787 12.0711 8.0755 11.7788 8.27312 11.5529C8.47074 11.3271 8.75304 11.1862 9.05806 11.1612L11.0013 11.0038C11.3064 10.9794 11.6091 11.0729 11.8428 11.2638C12.0766 11.4547 12.2225 11.7274 12.2484 12.022L12.9961 20.6342C13.0213 20.9289 12.9245 21.2212 12.7269 21.4471C12.5293 21.6729 12.247 21.8138 11.9419 21.8388L9.99867 21.9962C9.69359 22.0206 9.39095 21.9271 9.15715 21.7362C8.92336 21.5453 8.7775 21.2726 8.75158 20.978Z" fill="#3F3D56"/>
<path d="M9.57956 11.1599C9.41248 11.1734 9.25786 11.2496 9.14961 11.3716C9.04137 11.4936 8.98834 11.6516 9.00216 11.8109L9.7621 20.4477C9.77631 20.6069 9.85621 20.7543 9.98427 20.8574C10.1123 20.9606 10.2781 21.0111 10.4452 20.9979L12.4204 20.8401C12.5875 20.8266 12.7421 20.7504 12.8504 20.6284C12.9586 20.5064 13.0117 20.3484 12.9978 20.1891L12.2379 11.5523C12.2237 11.3931 12.1438 11.2457 12.0157 11.1426C11.8877 11.0394 11.7219 10.9889 11.5548 11.0021L9.57956 11.1599Z" fill="url(#paint1_linear_1607_27)"/>
<path d="M12.8465 24L15 23.2285L13.7493 18.7354L13.5301 16.5079C13.5016 16.2185 13.3928 15.9412 13.2144 15.7036C13.036 15.4661 12.7943 15.2767 12.5135 15.1544C12.2327 15.032 11.9227 14.981 11.6143 15.0064C11.3059 15.0317 11.01 15.1327 10.7562 15.299C10.3801 15.5456 10.1207 15.9197 10.0328 16.3424C9.94488 16.7651 10.0353 17.2033 10.2851 17.5646L11.7497 19.6834L12.8465 24Z" fill="#A0616A"/>
<path d="M14.7569 22.0953L12 23.0642L13.3723 28.9982C13.4708 29.4243 13.6872 29.8197 14.0005 30.1462C14.3139 30.4726 14.7134 30.7189 15.1605 30.8612C15.7118 31.0368 16.3095 31.046 16.8669 30.8876C17.4243 30.7293 17.9124 30.4115 18.2605 29.9805L24.4462 22.1214C24.8828 21.5808 25.0725 20.9044 24.9749 20.2367C24.8773 19.569 24.5001 18.9629 23.9238 18.5478C23.6139 18.3246 23.2564 18.164 22.8746 18.0765C22.4928 17.9889 22.0952 17.9764 21.7078 18.0397C21.3204 18.103 20.9519 18.2407 20.6261 18.4439C20.3003 18.6471 20.0246 18.9111 19.817 19.2189L15.9078 25.254L14.7569 22.0953Z" fill="#E6E6E6"/>
<path opacity="0.2" d="M13 26.3287L14.141 31.0252L14.3778 31.3173C14.5653 31.5486 14.8048 31.7309 15.0763 31.8488C15.3478 31.9667 15.6433 32.0169 15.9378 31.995C16.2324 31.9731 16.5175 31.8799 16.7691 31.7231C17.0207 31.5663 17.2315 31.3506 17.3838 31.094L21 25L17.7396 29.5725C17.5568 29.8289 17.3128 30.0341 17.0304 30.1688C16.748 30.3036 16.4364 30.3635 16.125 30.343C15.8135 30.3225 15.5122 30.2222 15.2494 30.0515C14.9866 29.8809 14.7708 29.6454 14.6223 29.3671L13 26.3287Z" fill="black"/>
<defs>
<linearGradient id="paint0_linear_1607_27" x1="12.664" y1="50.327" x2="14.0615" y2="63.0864" gradientUnits="userSpaceOnUse">
<stop stop-color="#5FFBD6"/>
<stop offset="1" stop-color="#B063F6"/>
</linearGradient>
<linearGradient id="paint1_linear_1607_27" x1="9.18971" y1="11.2725" x2="12.309" y2="21.0364" gradientUnits="userSpaceOnUse">
<stop stop-color="#5FFBD6"/>
<stop offset="1" stop-color="#B063F6"/>
</linearGradient>
</defs>
</svg>
