<svg width="35" height="35" viewBox="0 0 35 35" fill="none" xmlns="http://www.w3.org/2000/svg">
<rect width="35" height="35" rx="10" fill="#F6F7FB"/>
<path d="M25.625 10.5H22.9125C22.4939 8.46438 20.7032 7.00263 18.625 7H16.875C14.7967 7.00263 13.0061 8.46438 12.5875 10.5H9.87499C9.39174 10.5 9 10.8917 9 11.375C9 11.8582 9.39174 12.25 9.87499 12.25H10.75V23.625C10.7529 26.04 12.7099 27.9971 15.125 28H20.375C22.79 27.9971 24.7471 26.04 24.75 23.625V12.25H25.625C26.1082 12.25 26.5 11.8583 26.5 11.375C26.5 10.8918 26.1082 10.5 25.625 10.5ZM16.875 21.875C16.875 22.3583 16.4833 22.75 16 22.75C15.5167 22.75 15.125 22.3583 15.125 21.875V16.625C15.125 16.1418 15.5167 15.75 16 15.75C16.4832 15.75 16.875 16.1418 16.875 16.625V21.875H16.875ZM20.375 21.875C20.375 22.3583 19.9832 22.75 19.5 22.75C19.0168 22.75 18.625 22.3583 18.625 21.875V16.625C18.625 16.1418 19.0168 15.75 19.5 15.75C19.9832 15.75 20.375 16.1418 20.375 16.625V21.875ZM14.3996 10.5C14.7718 9.452 15.7629 8.75133 16.875 8.74997H18.625C19.7371 8.75133 20.7282 9.452 21.1004 10.5H14.3996Z" fill="#252525"/>
</svg>
