<svg width="50" height="50" viewBox="0 0 50 50" fill="none" xmlns="http://www.w3.org/2000/svg">
<g clip-path="url(#clip0_410_74)">
<path d="M25 0C11.1929 0 0 11.1929 0 25C0 38.8071 11.1929 50 25 50C38.8071 50 50 38.8071 50 25C50 11.1929 38.8071 0 25 0ZM38.3167 33.4863H35.1443C34.8007 33.4867 34.4615 33.4097 34.1518 33.2609C33.8421 33.1121 33.5699 32.8954 33.3555 32.627C32.4041 31.4325 30.5299 29.3146 28.562 28.405C28.448 28.3516 28.3224 28.3279 28.1969 28.3359C28.0713 28.3439 27.9497 28.3835 27.8435 28.4509C27.7372 28.5184 27.6497 28.6115 27.5889 28.7217C27.5282 28.8319 27.4962 28.9557 27.496 29.0815V32.219C27.496 32.3855 27.4633 32.5502 27.3996 32.704C27.336 32.8577 27.2427 32.9974 27.125 33.1151C27.0074 33.2328 26.8677 33.3262 26.7139 33.3899C26.5602 33.4535 26.3954 33.4863 26.229 33.4863H24.7621C22.8545 33.4863 18.7465 32.3251 15.4731 27.5567C12.6841 23.4942 11.4408 20.3458 10.7158 17.7931C10.6737 17.6435 10.6668 17.4861 10.6957 17.3334C10.7245 17.1806 10.7884 17.0367 10.8823 16.9128C10.9762 16.7889 11.0975 16.6885 11.2367 16.6194C11.376 16.5502 11.5293 16.5143 11.6848 16.5145H14.8939C15.2141 16.5142 15.5258 16.6173 15.7827 16.8084C16.0396 16.9995 16.2279 17.2684 16.3197 17.5751C16.9165 19.5711 18.4622 23.8769 21.1944 26.021C21.2777 26.0867 21.3778 26.1276 21.4833 26.139C21.5888 26.1505 21.6953 26.132 21.7908 26.0858C21.8862 26.0395 21.9668 25.9673 22.0231 25.8775C22.0795 25.7876 22.1095 25.6837 22.1096 25.5776V20.5517C22.1096 19.5584 21.6791 18.5646 21.0072 17.788C20.9104 17.6766 20.8477 17.5397 20.8265 17.3937C20.8053 17.2476 20.8266 17.0985 20.8878 16.9642C20.949 16.8299 21.0476 16.7161 21.1717 16.6363C21.2958 16.5564 21.4403 16.514 21.5879 16.514H26.5357C26.7905 16.514 27.0349 16.6152 27.2151 16.7953C27.3952 16.9755 27.4965 17.2198 27.4965 17.4746V24.2446C27.4965 24.3426 27.5235 24.4387 27.5745 24.5224C27.6255 24.6061 27.6985 24.6742 27.7856 24.7191C27.8727 24.764 27.9705 24.7841 28.0682 24.7772C28.166 24.7703 28.26 24.7366 28.3398 24.6798C29.248 24.0333 30.0259 23.0782 30.7413 22.0047C31.6417 20.6543 32.7404 18.4221 33.2916 17.2636C33.3983 17.0391 33.5664 16.8496 33.7765 16.7168C33.9866 16.5841 34.23 16.5137 34.4785 16.5137H37.9785C38.1247 16.5136 38.2684 16.5509 38.3961 16.6219C38.5238 16.693 38.6313 16.7955 38.7083 16.9197C38.7853 17.0439 38.8293 17.1857 38.8361 17.3317C38.843 17.4777 38.8124 17.623 38.7474 17.7539C37.8642 19.5254 36.1439 22.7752 34.5252 24.6818C34.2935 24.956 34.18 25.311 34.2097 25.6687C34.2395 26.0265 34.4099 26.3578 34.6837 26.59C35.7389 27.4916 37.3861 29.1584 39.1621 31.9347C39.2601 32.0866 39.3153 32.2622 39.322 32.4429C39.3286 32.6235 39.2865 32.8027 39.2 32.9615C39.1135 33.1202 38.9858 33.2528 38.8304 33.3451C38.675 33.4375 38.4975 33.4863 38.3167 33.4863Z" fill="#252525"/>
</g>
<defs>
<clipPath id="clip0_410_74">
<rect width="50" height="50" fill="white"/>
</clipPath>
</defs>
</svg>
